<svg viewBox="-110 -120 220 240" xmlns="http://www.w3.org/2000/svg">
<polygon  style="stroke:white; stroke-width:1; fill:lightskyblue; " points="-95.4915028125263,-13.8757275712888 -80.9016994374947,-13.8757275712888 -92.7050983124842,-22.4513988289793 -107.294901687516,-22.4513988289793 " />
<polygon  style="stroke:white; stroke-width:1; fill:lightskyblue; " points="-95.4915028125263,13.8757275712888 -80.9016994374947,13.8757275712888 -92.7050983124842,22.4513988289793 -107.294901687516,22.4513988289793 " />
<polygon  style="stroke:white; stroke-width:1; fill:steelblue; " points="-80.9016994374947,-13.8757275712888 -95.4915028125263,-13.8757275712888 -100,-0 -85.4101966249684,-3.5527136788005e-15 " />
<polygon  style="stroke:white; stroke-width:1; fill:steelblue; " points="-80.9016994374947,13.8757275712888 -95.4915028125263,13.8757275712888 -100,0 -85.4101966249684,3.5527136788005e-15 " />
<polygon  style="stroke:white; stroke-width:1; fill:steelblue; " points="-85.4101966249684,-44.9027976579585 -80.9016994374947,-31.0270700866698 -92.7050983124842,-22.4513988289793 -97.213595499958,-36.327126400268 " />
<polygon  style="stroke:white; stroke-width:1; fill:steelblue; " points="-85.4101966249684,44.9027976579585 -80.9016994374947,31.0270700866698 -92.7050983124842,22.4513988289793 -97.213595499958,36.327126400268 " />
<polygon  style="stroke:white; stroke-width:1; fill:lightskyblue; " points="-85.4101966249684,-0 -80.9016994374947,-13.8757275712888 -76.393202250021,-0 -80.9016994374948,13.8757275712888 " />
<polygon  style="stroke:white; stroke-width:1; fill:steelblue; " points="-69.0983005625052,-22.4513988289793 -80.9016994374947,-13.8757275712888 -92.7050983124842,-22.4513988289793 -80.9016994374947,-31.0270700866698 " />
<polygon  style="stroke:white; stroke-width:1; fill:steelblue; " points="-69.0983005625052,22.4513988289793 -80.9016994374947,31.0270700866698 -92.7050983124842,22.4513988289793 -80.9016994374947,13.8757275712888 " />
<polygon  style="stroke:white; stroke-width:1; fill:steelblue; " points="-80.9016994374947,-58.7785252292473 -69.0983005625052,-50.2028539715568 -73.606797749979,-36.327126400268 -85.4101966249684,-44.9027976579585 " />
<polygon  style="stroke:white; stroke-width:1; fill:lightskyblue; " points="-80.9016994374947,-31.0270700866698 -69.0983005625052,-22.4513988289793 -73.606797749979,-36.327126400268 -85.4101966249684,-44.9027976579585 " />
<polygon  style="stroke:white; stroke-width:1; fill:lightskyblue; " points="-80.9016994374947,31.0270700866698 -69.0983005625052,22.4513988289793 -73.606797749979,36.327126400268 -85.4101966249684,44.9027976579585 " />
<polygon  style="stroke:white; stroke-width:1; fill:steelblue; " points="-80.9016994374947,58.7785252292473 -85.4101966249684,44.9027976579585 -73.606797749979,36.327126400268 -69.0983005625052,50.2028539715568 " />
<polygon  style="stroke:white; stroke-width:1; fill:steelblue; " points="-69.0983005625052,-22.4513988289793 -80.9016994374947,-13.8757275712888 -76.393202250021,-0 -64.5898033750316,-8.57567125769049 " />
<polygon  style="stroke:white; stroke-width:1; fill:steelblue; " points="-69.0983005625052,22.4513988289793 -64.5898033750316,8.5756712576905 -76.393202250021,0 -80.9016994374947,13.8757275712888 " />
<polygon  style="stroke:white; stroke-width:1; fill:steelblue; " points="-80.9016994374947,-58.7785252292473 -69.0983005625052,-50.2028539715568 -57.2949016875158,-58.7785252292473 -69.0983005625052,-67.3541964869378 " />
<polygon  style="stroke:white; stroke-width:1; fill:lightskyblue; " points="-64.5898033750315,-36.327126400268 -69.0983005625052,-50.2028539715568 -73.606797749979,-36.327126400268 -69.0983005625052,-22.4513988289793 " />
<polygon  style="stroke:white; stroke-width:1; fill:lightskyblue; " points="-64.5898033750315,36.327126400268 -69.0983005625052,22.4513988289793 -73.606797749979,36.327126400268 -69.0983005625052,50.2028539715568 " />
<polygon  style="stroke:white; stroke-width:1; fill:steelblue; " points="-80.9016994374947,58.7785252292473 -69.0983005625052,50.2028539715568 -57.2949016875158,58.7785252292473 -69.0983005625052,67.3541964869378 " />
<polygon  style="stroke:white; stroke-width:1; fill:steelblue; " points="-52.7864045000421,0 -64.5898033750316,8.5756712576905 -76.393202250021,0 -64.5898033750316,-8.5756712576905 " />
<polygon  style="stroke:white; stroke-width:1; fill:lightskyblue; " points="-64.5898033750316,-8.5756712576905 -69.0983005625052,-22.4513988289793 -57.2949016875158,-13.8757275712888 -52.7864045000421,-3.5527136788005e-15 " />
<polygon  style="stroke:white; stroke-width:1; fill:lightskyblue; " points="-64.5898033750316,8.5756712576905 -52.7864045000421,0 -57.2949016875158,13.8757275712888 -69.0983005625053,22.4513988289793 " />
<polygon  style="stroke:white; stroke-width:1; fill:steelblue; " points="-69.0983005625052,-50.2028539715568 -64.5898033750315,-36.327126400268 -50,-36.327126400268 -54.5084971874737,-50.2028539715568 " />
<polygon  style="stroke:white; stroke-width:1; fill:steelblue; " points="-69.0983005625052,-22.4513988289793 -64.5898033750315,-36.327126400268 -50,-36.327126400268 -54.5084971874737,-22.4513988289793 " />
<polygon  style="stroke:white; stroke-width:1; fill:steelblue; " points="-69.0983005625052,22.4513988289793 -54.5084971874737,22.4513988289793 -50,36.327126400268 -64.5898033750315,36.327126400268 " />
<polygon  style="stroke:white; stroke-width:1; fill:steelblue; " points="-69.0983005625052,50.2028539715568 -64.5898033750315,36.327126400268 -50,36.327126400268 -54.5084971874737,50.2028539715568 " />
<polygon  style="stroke:white; stroke-width:1; fill:steelblue; " points="-69.0983005625052,-67.3541964869378 -54.5084971874737,-67.3541964869378 -50,-81.2299240582266 -64.5898033750315,-81.2299240582266 " />
<polygon  style="stroke:white; stroke-width:1; fill:steelblue; " points="-69.0983005625052,67.3541964869378 -54.5084971874737,67.3541964869378 -50,81.2299240582266 -64.5898033750315,81.2299240582266 " />
<polygon  style="stroke:white; stroke-width:1; fill:lightskyblue; " points="-54.5084971874737,-22.4513988289793 -69.0983005625052,-22.4513988289793 -57.2949016875158,-13.8757275712888 -42.7050983124842,-13.8757275712888 " />
<polygon  style="stroke:white; stroke-width:1; fill:lightskyblue; " points="-54.5084971874737,22.4513988289793 -69.0983005625052,22.4513988289793 -57.2949016875158,13.8757275712888 -42.7050983124842,13.8757275712888 " />
<polygon  style="stroke:white; stroke-width:1; fill:lightskyblue; " points="-54.5084971874737,-67.3541964869378 -69.0983005625052,-67.3541964869378 -57.2949016875158,-58.7785252292473 -42.7050983124842,-58.7785252292473 " />
<polygon  style="stroke:white; stroke-width:1; fill:lightskyblue; " points="-54.5084971874737,-50.2028539715568 -69.0983005625052,-50.2028539715568 -57.2949016875158,-58.7785252292473 -42.7050983124842,-58.7785252292473 " />
<polygon  style="stroke:white; stroke-width:1; fill:lightskyblue; " points="-54.5084971874737,50.2028539715568 -69.0983005625052,50.2028539715568 -57.2949016875158,58.7785252292473 -42.7050983124842,58.7785252292473 " />
<polygon  style="stroke:white; stroke-width:1; fill:lightskyblue; " points="-54.5084971874737,67.3541964869378 -69.0983005625052,67.3541964869378 -57.2949016875158,58.7785252292473 -42.7050983124842,58.7785252292473 " />
<polygon  style="stroke:white; stroke-width:1; fill:steelblue; " points="-38.1966011250105,-0 -52.7864045000421,-0 -57.2949016875158,-13.8757275712888 -42.7050983124842,-13.8757275712888 " />
<polygon  style="stroke:white; stroke-width:1; fill:steelblue; " points="-38.1966011250105,0 -42.7050983124842,13.8757275712888 -57.2949016875158,13.8757275712888 -52.7864045000421,5.32907051820075e-15 " />
<polygon  style="stroke:white; stroke-width:1; fill:lightskyblue; " points="-42.7050983124842,-86.5299803718249 -38.1966011250105,-72.6542528005361 -50,-81.2299240582266 -54.5084971874737,-95.1056516295154 " />
<polygon  style="stroke:white; stroke-width:1; fill:steelblue; " points="-42.7050983124842,-58.7785252292473 -54.5084971874737,-67.3541964869378 -50,-81.2299240582266 -38.1966011250105,-72.6542528005361 " />
<polygon  style="stroke:white; stroke-width:1; fill:steelblue; " points="-42.7050983124842,-58.7785252292473 -54.5084971874737,-50.2028539715568 -50,-36.327126400268 -38.1966011250105,-44.9027976579585 " />
<polygon  style="stroke:white; stroke-width:1; fill:steelblue; " points="-42.7050983124842,-13.8757275712888 -38.1966011250105,-27.7514551425776 -50,-36.327126400268 -54.5084971874737,-22.4513988289793 " />
<polygon  style="stroke:white; stroke-width:1; fill:steelblue; " points="-42.7050983124842,13.8757275712888 -54.5084971874737,22.4513988289793 -50,36.327126400268 -38.1966011250105,27.7514551425775 " />
<polygon  style="stroke:white; stroke-width:1; fill:steelblue; " points="-42.7050983124842,58.7785252292473 -54.5084971874737,50.2028539715568 -50,36.327126400268 -38.1966011250105,44.9027976579585 " />
<polygon  style="stroke:white; stroke-width:1; fill:steelblue; " points="-42.7050983124842,58.7785252292473 -54.5084971874737,67.3541964869378 -50,81.2299240582266 -38.1966011250105,72.6542528005361 " />
<polygon  style="stroke:white; stroke-width:1; fill:lightskyblue; " points="-42.7050983124842,86.5299803718249 -38.1966011250105,72.6542528005361 -50,81.2299240582266 -54.5084971874737,95.1056516295154 " />
<polygon  style="stroke:white; stroke-width:1; fill:steelblue; " points="-26.393202250021,-36.327126400268 -38.1966011250105,-27.7514551425776 -50,-36.327126400268 -38.1966011250105,-44.9027976579585 " />
<polygon  style="stroke:white; stroke-width:1; fill:steelblue; " points="-26.393202250021,36.327126400268 -38.1966011250105,44.9027976579585 -50,36.327126400268 -38.1966011250105,27.7514551425775 " />
<polygon  style="stroke:white; stroke-width:1; fill:steelblue; " points="-38.1966011250105,-72.6542528005361 -42.7050983124842,-86.5299803718249 -30.9016994374947,-95.1056516295154 -26.393202250021,-81.2299240582266 " />
<polygon  style="stroke:white; stroke-width:1; fill:lightskyblue; " points="-38.1966011250105,-44.9027976579585 -26.393202250021,-36.327126400268 -30.9016994374947,-50.2028539715568 -42.7050983124842,-58.7785252292473 " />
<polygon  style="stroke:white; stroke-width:1; fill:lightskyblue; " points="-38.1966011250105,-27.7514551425776 -42.7050983124842,-13.8757275712888 -30.9016994374947,-22.4513988289793 -26.393202250021,-36.3271264002681 " />
<polygon  style="stroke:white; stroke-width:1; fill:steelblue; " points="-38.1966011250105,-0 -26.393202250021,-8.57567125769049 -30.9016994374947,-22.4513988289793 -42.7050983124842,-13.8757275712888 " />
<polygon  style="stroke:white; stroke-width:1; fill:steelblue; " points="-38.1966011250105,0 -26.393202250021,8.57567125769049 -30.9016994374947,22.4513988289793 -42.7050983124842,13.8757275712888 " />
<polygon  style="stroke:white; stroke-width:1; fill:lightskyblue; " points="-38.1966011250105,27.7514551425776 -42.7050983124842,13.8757275712888 -30.9016994374947,22.4513988289793 -26.393202250021,36.3271264002681 " />
<polygon  style="stroke:white; stroke-width:1; fill:lightskyblue; " points="-38.1966011250105,44.9027976579585 -42.7050983124842,58.7785252292473 -30.9016994374947,50.2028539715568 -26.393202250021,36.327126400268 " />
<polygon  style="stroke:white; stroke-width:1; fill:steelblue; " points="-38.1966011250105,72.6542528005361 -42.7050983124842,86.5299803718249 -30.9016994374947,95.1056516295154 -26.393202250021,81.2299240582266 " />
<polygon  style="stroke:white; stroke-width:1; fill:steelblue; " points="-42.7050983124842,-58.7785252292473 -28.1152949374527,-58.7785252292473 -23.606797749979,-72.6542528005361 -38.1966011250105,-72.6542528005361 " />
<polygon  style="stroke:white; stroke-width:1; fill:steelblue; " points="-42.7050983124842,58.7785252292473 -38.1966011250105,72.6542528005361 -23.606797749979,72.6542528005361 -28.1152949374527,58.7785252292474 " />
<polygon  style="stroke:white; stroke-width:1; fill:lightskyblue; " points="-28.1152949374527,-58.7785252292473 -16.3118960624632,-50.2028539715568 -30.9016994374947,-50.2028539715568 -42.7050983124842,-58.7785252292473 " />
<polygon  style="stroke:white; stroke-width:1; fill:lightskyblue; " points="-28.1152949374527,58.7785252292473 -42.7050983124842,58.7785252292473 -30.9016994374947,50.2028539715568 -16.3118960624632,50.2028539715568 " />
<polygon  style="stroke:white; stroke-width:1; fill:lightskyblue; " points="-26.393202250021,-8.57567125769049 -11.8033988749895,-8.57567125769049 -23.606797749979,-0 -38.1966011250105,0 " />
<polygon  style="stroke:white; stroke-width:1; fill:lightskyblue; " points="-26.393202250021,8.57567125769049 -11.8033988749895,8.57567125769049 -23.606797749979,0 -38.1966011250105,0 " />
<polygon  style="stroke:white; stroke-width:1; fill:lightskyblue; " points="-26.393202250021,-81.2299240582266 -11.8033988749895,-81.2299240582266 -23.606797749979,-72.6542528005361 -38.1966011250105,-72.6542528005361 " />
<polygon  style="stroke:white; stroke-width:1; fill:lightskyblue; " points="-26.393202250021,81.2299240582266 -11.8033988749895,81.2299240582266 -23.606797749979,72.6542528005361 -38.1966011250105,72.6542528005361 " />
<polygon  style="stroke:white; stroke-width:1; fill:steelblue; " points="-11.8033988749895,-36.327126400268 -16.3118960624632,-50.2028539715568 -30.9016994374947,-50.2028539715568 -26.393202250021,-36.327126400268 " />
<polygon  style="stroke:white; stroke-width:1; fill:steelblue; " points="-11.8033988749895,-36.327126400268 -26.393202250021,-36.327126400268 -30.9016994374947,-22.4513988289793 -16.3118960624632,-22.4513988289793 " />
<polygon  style="stroke:white; stroke-width:1; fill:steelblue; " points="-11.8033988749895,-8.57567125769049 -26.393202250021,-8.57567125769049 -30.9016994374947,-22.4513988289793 -16.3118960624632,-22.4513988289793 " />
<polygon  style="stroke:white; stroke-width:1; fill:steelblue; " points="-11.8033988749895,8.57567125769049 -16.3118960624632,22.4513988289793 -30.9016994374947,22.4513988289793 -26.393202250021,8.5756712576905 " />
<polygon  style="stroke:white; stroke-width:1; fill:steelblue; " points="-11.8033988749895,36.327126400268 -16.3118960624632,22.4513988289793 -30.9016994374947,22.4513988289793 -26.393202250021,36.327126400268 " />
<polygon  style="stroke:white; stroke-width:1; fill:steelblue; " points="-11.8033988749895,36.327126400268 -16.3118960624632,50.2028539715568 -30.9016994374947,50.2028539715568 -26.393202250021,36.327126400268 " />
<polygon  style="stroke:white; stroke-width:1; fill:steelblue; " points="-11.8033988749895,-81.2299240582266 -26.393202250021,-81.2299240582266 -30.9016994374947,-95.1056516295154 -16.3118960624632,-95.1056516295153 " />
<polygon  style="stroke:white; stroke-width:1; fill:steelblue; " points="-11.8033988749895,81.2299240582266 -16.3118960624632,95.1056516295154 -30.9016994374947,95.1056516295154 -26.393202250021,81.2299240582266 " />
<polygon  style="stroke:white; stroke-width:1; fill:steelblue; " points="-16.3118960624632,-50.2028539715568 -28.1152949374527,-58.7785252292473 -23.606797749979,-72.6542528005361 -11.8033988749895,-64.0785815428456 " />
<polygon  style="stroke:white; stroke-width:1; fill:steelblue; " points="-16.3118960624632,50.2028539715568 -28.1152949374527,58.7785252292473 -23.606797749979,72.6542528005361 -11.8033988749895,64.0785815428456 " />
<polygon  style="stroke:white; stroke-width:1; fill:steelblue; " points="0,0 -11.8033988749895,8.57567125769049 -23.606797749979,0 -11.8033988749895,-8.57567125769049 " />
<polygon  style="stroke:white; stroke-width:1; fill:lightskyblue; " points="-16.3118960624632,-22.4513988289793 -11.8033988749895,-8.57567125769049 -7.29490168751577,-22.4513988289793 -11.8033988749895,-36.327126400268 " />
<polygon  style="stroke:white; stroke-width:1; fill:lightskyblue; " points="-16.3118960624632,22.4513988289793 -11.8033988749895,36.327126400268 -7.29490168751577,22.4513988289793 -11.8033988749895,8.5756712576905 " />
<polygon  style="stroke:white; stroke-width:1; fill:lightskyblue; " points="-16.3118960624632,-95.1056516295154 -11.8033988749895,-81.2299240582266 -7.29490168751577,-95.1056516295154 -11.8033988749895,-108.981379200804 " />
<polygon  style="stroke:white; stroke-width:1; fill:lightskyblue; " points="-16.3118960624632,95.1056516295154 -11.8033988749895,81.2299240582266 -7.29490168751577,95.1056516295154 -11.8033988749895,108.981379200804 " />
<polygon  style="stroke:white; stroke-width:1; fill:steelblue; " points="8.88178419700125e-15,-72.6542528005361 -11.8033988749895,-64.0785815428456 -23.606797749979,-72.6542528005361 -11.8033988749895,-81.2299240582266 " />
<polygon  style="stroke:white; stroke-width:1; fill:steelblue; " points="8.88178419700125e-15,72.6542528005361 -11.8033988749895,64.0785815428456 -23.606797749979,72.6542528005361 -11.8033988749895,81.2299240582266 " />
<polygon  style="stroke:white; stroke-width:1; fill:lightskyblue; " points="-11.8033988749895,-64.0785815428456 -16.3118960624632,-50.2028539715568 -4.5084971874737,-58.7785252292473 7.105427357601e-15,-72.6542528005361 " />
<polygon  style="stroke:white; stroke-width:1; fill:steelblue; " points="-11.8033988749895,-36.327126400268 -16.3118960624632,-50.2028539715568 -4.5084971874737,-58.7785252292473 7.105427357601e-15,-44.9027976579585 " />
<polygon  style="stroke:white; stroke-width:1; fill:steelblue; " points="-11.8033988749895,36.327126400268 -16.3118960624632,50.2028539715568 -4.5084971874737,58.7785252292473 7.105427357601e-15,44.9027976579585 " />
<polygon  style="stroke:white; stroke-width:1; fill:lightskyblue; " points="-11.8033988749895,64.0785815428456 -16.3118960624632,50.2028539715568 -4.5084971874737,58.7785252292473 7.105427357601e-15,72.6542528005361 " />
<polygon  style="stroke:white; stroke-width:1; fill:steelblue; " points="0,-0 4.50849718747371,-13.8757275712888 -7.29490168751577,-22.4513988289793 -11.8033988749895,-8.57567125769049 " />
<polygon  style="stroke:white; stroke-width:1; fill:steelblue; " points="0,0 -11.8033988749895,8.57567125769049 -7.29490168751577,22.4513988289793 4.50849718747371,13.8757275712888 " />
<polygon  style="stroke:white; stroke-width:1; fill:lightskyblue; " points="2.66453525910038e-15,-27.7514551425776 -11.8033988749895,-36.327126400268 -7.29490168751577,-22.4513988289793 4.50849718747371,-13.8757275712888 " />
<polygon  style="stroke:white; stroke-width:1; fill:lightskyblue; " points="2.66453525910038e-15,27.7514551425776 -11.8033988749895,36.327126400268 -7.29490168751577,22.4513988289793 4.50849718747371,13.8757275712888 " />
<polygon  style="stroke:white; stroke-width:1; fill:steelblue; " points="8.88178419700125e-15,-72.6542528005361 4.50849718747372,-86.5299803718249 -7.29490168751577,-95.1056516295154 -11.8033988749895,-81.2299240582266 " />
<polygon  style="stroke:white; stroke-width:1; fill:steelblue; " points="8.88178419700125e-15,72.6542528005361 -11.8033988749895,81.2299240582266 -7.29490168751577,95.1056516295154 4.50849718747371,86.5299803718249 " />
<polygon  style="stroke:white; stroke-width:1; fill:steelblue; " points="-11.8033988749895,-36.327126400268 2.66453525910038e-15,-27.7514551425776 11.8033988749895,-36.327126400268 4.44089209850063e-15,-44.9027976579585 " />
<polygon  style="stroke:white; stroke-width:1; fill:steelblue; " points="-11.8033988749895,36.327126400268 2.66453525910038e-15,27.7514551425776 11.8033988749895,36.327126400268 4.44089209850063e-15,44.9027976579585 " />
<polygon  style="stroke:white; stroke-width:1; fill:lightskyblue; " points="4.50849718747372,-58.7785252292473 3.5527136788005e-15,-44.9027976579585 -4.5084971874737,-58.7785252292473 8.88178419700125e-15,-72.6542528005361 " />
<polygon  style="stroke:white; stroke-width:1; fill:lightskyblue; " points="4.50849718747372,58.7785252292473 8.88178419700125e-15,72.6542528005361 -4.5084971874737,58.7785252292473 3.5527136788005e-15,44.9027976579585 " />
<polygon  style="stroke:white; stroke-width:1; fill:steelblue; " points="16.3118960624632,-95.1056516295154 4.50849718747372,-86.5299803718249 -7.29490168751577,-95.1056516295154 4.50849718747371,-103.681322887206 " />
<polygon  style="stroke:white; stroke-width:1; fill:steelblue; " points="16.3118960624632,95.1056516295154 4.50849718747372,86.5299803718249 -7.29490168751577,95.1056516295154 4.50849718747371,103.681322887206 " />
<polygon  style="stroke:white; stroke-width:1; fill:steelblue; " points="4.50849718747371,-13.8757275712888 16.3118960624632,-22.4513988289793 11.8033988749895,-36.327126400268 3.5527136788005e-15,-27.7514551425776 " />
<polygon  style="stroke:white; stroke-width:1; fill:steelblue; " points="4.50849718747371,13.8757275712888 2.66453525910038e-15,27.7514551425776 11.8033988749895,36.327126400268 16.3118960624632,22.4513988289793 " />
<polygon  style="stroke:white; stroke-width:1; fill:lightskyblue; " points="4.50849718747372,-86.5299803718249 8.88178419700125e-15,-72.6542528005361 11.8033988749895,-81.2299240582266 16.3118960624632,-95.1056516295154 " />
<polygon  style="stroke:white; stroke-width:1; fill:lightskyblue; " points="4.50849718747372,86.5299803718249 16.3118960624632,95.1056516295154 11.8033988749895,81.2299240582266 7.105427357601e-15,72.6542528005361 " />
<polygon  style="stroke:white; stroke-width:1; fill:steelblue; " points="0,-0 4.50849718747371,-13.8757275712888 19.0983005625053,-13.8757275712888 14.5898033750315,1.77635683940025e-15 " />
<polygon  style="stroke:white; stroke-width:1; fill:steelblue; " points="0,0 4.50849718747371,13.8757275712888 19.0983005625053,13.8757275712888 14.5898033750315,-1.77635683940025e-15 " />
<polygon  style="stroke:white; stroke-width:1; fill:steelblue; " points="3.5527136788005e-15,-44.9027976579585 14.5898033750315,-44.9027976579585 19.0983005625053,-58.7785252292473 4.50849718747372,-58.7785252292473 " />
<polygon  style="stroke:white; stroke-width:1; fill:steelblue; " points="3.5527136788005e-15,44.9027976579585 14.5898033750315,44.9027976579585 19.0983005625053,58.7785252292473 4.50849718747372,58.7785252292473 " />
<polygon  style="stroke:white; stroke-width:1; fill:steelblue; " points="8.88178419700125e-15,-72.6542528005361 14.5898033750316,-72.6542528005361 19.0983005625053,-58.7785252292473 4.50849718747372,-58.7785252292473 " />
<polygon  style="stroke:white; stroke-width:1; fill:steelblue; " points="8.88178419700125e-15,72.6542528005361 4.50849718747372,58.7785252292473 19.0983005625053,58.7785252292473 14.5898033750316,72.6542528005361 " />
<polygon  style="stroke:white; stroke-width:1; fill:lightskyblue; " points="14.5898033750315,-44.9027976579585 3.5527136788005e-15,-44.9027976579585 11.8033988749895,-36.327126400268 26.393202250021,-36.3271264002681 " />
<polygon  style="stroke:white; stroke-width:1; fill:lightskyblue; " points="14.5898033750315,44.9027976579585 26.393202250021,36.327126400268 11.8033988749895,36.327126400268 1.06581410364015e-14,44.9027976579586 " />
<polygon  style="stroke:white; stroke-width:1; fill:lightskyblue; " points="14.5898033750316,-72.6542528005361 8.88178419700125e-15,-72.6542528005361 11.8033988749895,-81.2299240582266 26.393202250021,-81.2299240582266 " />
<polygon  style="stroke:white; stroke-width:1; fill:lightskyblue; " points="14.5898033750316,72.6542528005361 8.88178419700125e-15,72.6542528005361 11.8033988749895,81.2299240582266 26.393202250021,81.2299240582266 " />
<polygon  style="stroke:white; stroke-width:1; fill:lightskyblue; " points="16.3118960624632,-22.4513988289793 30.9016994374947,-22.4513988289793 19.0983005625053,-13.8757275712888 4.50849718747371,-13.8757275712888 " />
<polygon  style="stroke:white; stroke-width:1; fill:lightskyblue; " points="16.3118960624632,22.4513988289793 4.50849718747371,13.8757275712888 19.0983005625053,13.8757275712888 30.9016994374947,22.4513988289793 " />
<polygon  style="stroke:white; stroke-width:1; fill:steelblue; " points="30.9016994374947,-22.4513988289793 26.393202250021,-36.327126400268 11.8033988749895,-36.327126400268 16.3118960624632,-22.4513988289793 " />
<polygon  style="stroke:white; stroke-width:1; fill:steelblue; " points="30.9016994374947,22.4513988289793 26.393202250021,36.327126400268 11.8033988749895,36.327126400268 16.3118960624632,22.4513988289793 " />
<polygon  style="stroke:white; stroke-width:1; fill:steelblue; " points="30.9016994374947,-95.1056516295154 26.393202250021,-81.2299240582266 11.8033988749895,-81.2299240582266 16.3118960624632,-95.1056516295154 " />
<polygon  style="stroke:white; stroke-width:1; fill:steelblue; " points="30.9016994374947,95.1056516295154 26.393202250021,81.2299240582266 11.8033988749895,81.2299240582266 16.3118960624632,95.1056516295154 " />
<polygon  style="stroke:white; stroke-width:1; fill:steelblue; " points="26.393202250021,-81.2299240582266 30.9016994374947,-67.3541964869378 19.0983005625053,-58.7785252292473 14.5898033750315,-72.6542528005361 " />
<polygon  style="stroke:white; stroke-width:1; fill:steelblue; " points="26.393202250021,-36.327126400268 14.5898033750315,-44.9027976579585 19.0983005625053,-58.7785252292473 30.9016994374947,-50.2028539715568 " />
<polygon  style="stroke:white; stroke-width:1; fill:lightskyblue; " points="26.393202250021,-8.57567125769049 14.5898033750315,-0 19.0983005625053,-13.8757275712888 30.9016994374947,-22.4513988289793 " />
<polygon  style="stroke:white; stroke-width:1; fill:lightskyblue; " points="26.393202250021,8.57567125769049 14.5898033750315,0 19.0983005625053,13.8757275712888 30.9016994374947,22.4513988289793 " />
<polygon  style="stroke:white; stroke-width:1; fill:steelblue; " points="26.393202250021,36.327126400268 14.5898033750315,44.9027976579585 19.0983005625053,58.7785252292473 30.9016994374947,50.2028539715568 " />
<polygon  style="stroke:white; stroke-width:1; fill:steelblue; " points="26.393202250021,81.2299240582266 30.9016994374947,67.3541964869378 19.0983005625053,58.7785252292473 14.5898033750315,72.6542528005361 " />
<polygon  style="stroke:white; stroke-width:1; fill:steelblue; " points="14.5898033750315,-0 26.393202250021,-8.57567125769049 38.1966011250105,-0 26.393202250021,8.57567125769049 " />
<polygon  style="stroke:white; stroke-width:1; fill:steelblue; " points="42.7050983124842,-58.7785252292473 30.9016994374947,-67.3541964869378 19.0983005625053,-58.7785252292473 30.9016994374947,-50.2028539715568 " />
<polygon  style="stroke:white; stroke-width:1; fill:steelblue; " points="42.7050983124842,58.7785252292473 30.9016994374947,50.2028539715568 19.0983005625053,58.7785252292473 30.9016994374947,67.3541964869378 " />
<polygon  style="stroke:white; stroke-width:1; fill:lightskyblue; " points="30.9016994374947,-50.2028539715568 26.393202250021,-36.327126400268 38.1966011250105,-44.9027976579585 42.7050983124842,-58.7785252292473 " />
<polygon  style="stroke:white; stroke-width:1; fill:steelblue; " points="30.9016994374947,-22.4513988289793 26.393202250021,-36.327126400268 38.1966011250105,-44.9027976579585 42.7050983124842,-31.0270700866698 " />
<polygon  style="stroke:white; stroke-width:1; fill:steelblue; " points="30.9016994374947,22.4513988289793 42.7050983124842,31.0270700866698 38.1966011250105,44.9027976579585 26.393202250021,36.327126400268 " />
<polygon  style="stroke:white; stroke-width:1; fill:lightskyblue; " points="30.9016994374947,50.2028539715568 26.393202250021,36.327126400268 38.1966011250105,44.9027976579585 42.7050983124842,58.7785252292473 " />
<polygon  style="stroke:white; stroke-width:1; fill:steelblue; " points="30.9016994374947,-95.1056516295154 26.393202250021,-81.2299240582266 38.1966011250105,-72.6542528005361 42.7050983124842,-86.5299803718249 " />
<polygon  style="stroke:white; stroke-width:1; fill:steelblue; " points="30.9016994374947,-22.4513988289793 42.7050983124842,-13.8757275712888 38.1966011250105,-0 26.393202250021,-8.57567125769049 " />
<polygon  style="stroke:white; stroke-width:1; fill:steelblue; " points="30.9016994374947,22.4513988289793 42.7050983124842,13.8757275712888 38.1966011250105,0 26.393202250021,8.57567125769049 " />
<polygon  style="stroke:white; stroke-width:1; fill:steelblue; " points="30.9016994374947,95.1056516295154 26.393202250021,81.2299240582266 38.1966011250105,72.6542528005361 42.7050983124842,86.5299803718249 " />
<polygon  style="stroke:white; stroke-width:1; fill:lightskyblue; " points="30.9016994374947,-67.3541964869378 42.7050983124842,-58.7785252292473 38.1966011250105,-72.6542528005361 26.393202250021,-81.2299240582266 " />
<polygon  style="stroke:white; stroke-width:1; fill:lightskyblue; " points="30.9016994374947,67.3541964869378 26.393202250021,81.2299240582266 38.1966011250105,72.6542528005361 42.7050983124842,58.7785252292473 " />
<polygon  style="stroke:white; stroke-width:1; fill:lightskyblue; " points="47.2135954999579,-44.9027976579585 42.7050983124842,-31.0270700866698 38.1966011250105,-44.9027976579585 42.7050983124842,-58.7785252292473 " />
<polygon  style="stroke:white; stroke-width:1; fill:steelblue; " points="30.9016994374947,-22.4513988289793 42.7050983124842,-31.0270700866698 54.5084971874737,-22.4513988289793 42.7050983124842,-13.8757275712888 " />
<polygon  style="stroke:white; stroke-width:1; fill:steelblue; " points="30.9016994374947,22.4513988289793 42.7050983124842,31.0270700866698 54.5084971874737,22.4513988289793 42.7050983124842,13.8757275712888 " />
<polygon  style="stroke:white; stroke-width:1; fill:lightskyblue; " points="47.2135954999579,44.9027976579585 42.7050983124842,58.7785252292473 38.1966011250105,44.9027976579585 42.7050983124842,31.0270700866698 " />
<polygon  style="stroke:white; stroke-width:1; fill:lightskyblue; " points="47.2135954999579,-72.6542528005361 42.7050983124842,-86.5299803718249 38.1966011250105,-72.6542528005361 42.7050983124842,-58.7785252292473 " />
<polygon  style="stroke:white; stroke-width:1; fill:lightskyblue; " points="47.2135954999579,72.6542528005361 42.7050983124842,58.7785252292473 38.1966011250105,72.6542528005361 42.7050983124842,86.5299803718248 " />
<polygon  style="stroke:white; stroke-width:1; fill:lightskyblue; " points="47.2135954999579,0 42.7050983124842,13.8757275712888 38.1966011250105,0 42.7050983124843,-13.8757275712888 " />
<polygon  style="stroke:white; stroke-width:1; fill:steelblue; " points="42.7050983124842,-86.5299803718249 47.2135954999579,-72.6542528005361 61.8033988749895,-72.6542528005361 57.2949016875158,-86.5299803718249 " />
<polygon  style="stroke:white; stroke-width:1; fill:steelblue; " points="42.7050983124842,-58.7785252292473 57.2949016875158,-58.7785252292473 61.8033988749895,-72.6542528005361 47.213595499958,-72.6542528005361 " />
<polygon  style="stroke:white; stroke-width:1; fill:steelblue; " points="42.7050983124842,-58.7785252292473 47.2135954999579,-44.9027976579585 61.8033988749895,-44.9027976579585 57.2949016875158,-58.7785252292473 " />
<polygon  style="stroke:white; stroke-width:1; fill:steelblue; " points="42.7050983124842,-31.0270700866698 47.2135954999579,-44.9027976579585 61.8033988749895,-44.9027976579585 57.2949016875158,-31.0270700866698 " />
<polygon  style="stroke:white; stroke-width:1; fill:steelblue; " points="42.7050983124842,-13.8757275712888 57.2949016875158,-13.8757275712888 61.8033988749895,-0 47.2135954999579,0 " />
<polygon  style="stroke:white; stroke-width:1; fill:steelblue; " points="42.7050983124842,13.8757275712888 57.2949016875158,13.8757275712888 61.8033988749895,0 47.2135954999579,0 " />
<polygon  style="stroke:white; stroke-width:1; fill:steelblue; " points="42.7050983124842,31.0270700866698 47.2135954999579,44.9027976579585 61.8033988749895,44.9027976579585 57.2949016875158,31.0270700866698 " />
<polygon  style="stroke:white; stroke-width:1; fill:steelblue; " points="42.7050983124842,58.7785252292473 57.2949016875158,58.7785252292473 61.8033988749895,44.9027976579585 47.213595499958,44.9027976579585 " />
<polygon  style="stroke:white; stroke-width:1; fill:steelblue; " points="42.7050983124842,58.7785252292473 57.2949016875158,58.7785252292473 61.8033988749895,72.6542528005361 47.213595499958,72.6542528005361 " />
<polygon  style="stroke:white; stroke-width:1; fill:steelblue; " points="42.7050983124842,86.5299803718249 47.2135954999579,72.6542528005361 61.8033988749895,72.6542528005361 57.2949016875158,86.5299803718249 " />
<polygon  style="stroke:white; stroke-width:1; fill:lightskyblue; " points="57.2949016875158,-31.0270700866698 69.0983005625053,-22.4513988289793 54.5084971874737,-22.4513988289793 42.7050983124842,-31.0270700866698 " />
<polygon  style="stroke:white; stroke-width:1; fill:lightskyblue; " points="57.2949016875158,-13.8757275712888 42.7050983124842,-13.8757275712888 54.5084971874737,-22.4513988289793 69.0983005625053,-22.4513988289793 " />
<polygon  style="stroke:white; stroke-width:1; fill:lightskyblue; " points="57.2949016875158,13.8757275712888 69.0983005625053,22.4513988289793 54.5084971874737,22.4513988289793 42.7050983124842,13.8757275712888 " />
<polygon  style="stroke:white; stroke-width:1; fill:lightskyblue; " points="57.2949016875158,31.0270700866698 69.0983005625053,22.4513988289793 54.5084971874737,22.4513988289793 42.7050983124842,31.0270700866698 " />
<polygon  style="stroke:white; stroke-width:1; fill:lightskyblue; " points="69.0983005625053,-67.3541964869378 57.2949016875158,-58.7785252292473 61.8033988749895,-72.6542528005361 73.606797749979,-81.2299240582266 " />
<polygon  style="stroke:white; stroke-width:1; fill:lightskyblue; " points="69.0983005625053,-50.2028539715568 73.606797749979,-36.327126400268 61.8033988749895,-44.9027976579585 57.2949016875158,-58.7785252292473 " />
<polygon  style="stroke:white; stroke-width:1; fill:steelblue; " points="69.0983005625053,-22.4513988289793 73.606797749979,-36.327126400268 61.8033988749895,-44.9027976579585 57.2949016875158,-31.0270700866698 " />
<polygon  style="stroke:white; stroke-width:1; fill:steelblue; " points="69.0983005625053,-22.4513988289793 73.606797749979,-8.57567125769049 61.8033988749895,-0 57.2949016875158,-13.8757275712888 " />
<polygon  style="stroke:white; stroke-width:1; fill:steelblue; " points="69.0983005625053,22.4513988289793 73.606797749979,8.57567125769049 61.8033988749895,0 57.2949016875158,13.8757275712888 " />
<polygon  style="stroke:white; stroke-width:1; fill:steelblue; " points="69.0983005625053,22.4513988289793 57.2949016875158,31.0270700866698 61.8033988749895,44.9027976579585 73.606797749979,36.327126400268 " />
<polygon  style="stroke:white; stroke-width:1; fill:lightskyblue; " points="69.0983005625053,50.2028539715568 73.606797749979,36.327126400268 61.8033988749895,44.9027976579585 57.2949016875158,58.7785252292473 " />
<polygon  style="stroke:white; stroke-width:1; fill:lightskyblue; " points="69.0983005625053,67.3541964869378 57.2949016875158,58.7785252292473 61.8033988749895,72.6542528005361 73.606797749979,81.2299240582266 " />
<polygon  style="stroke:white; stroke-width:1; fill:steelblue; " points="57.2949016875158,-58.7785252292473 69.0983005625053,-50.2028539715568 80.9016994374947,-58.7785252292473 69.0983005625053,-67.3541964869378 " />
<polygon  style="stroke:white; stroke-width:1; fill:steelblue; " points="57.2949016875158,58.7785252292473 69.0983005625053,50.2028539715568 80.9016994374947,58.7785252292473 69.0983005625053,67.3541964869378 " />
<polygon  style="stroke:white; stroke-width:1; fill:steelblue; " points="85.4101966249685,0 73.606797749979,8.57567125769049 61.8033988749895,0 73.606797749979,-8.57567125769049 " />
<polygon  style="stroke:white; stroke-width:1; fill:steelblue; " points="73.606797749979,-36.327126400268 85.4101966249684,-44.9027976579585 80.9016994374947,-58.7785252292473 69.0983005625053,-50.2028539715568 " />
<polygon  style="stroke:white; stroke-width:1; fill:lightskyblue; " points="73.606797749979,-8.57567125769049 85.4101966249685,-0 80.9016994374947,-13.8757275712888 69.0983005625053,-22.4513988289793 " />
<polygon  style="stroke:white; stroke-width:1; fill:lightskyblue; " points="73.606797749979,8.57567125769049 85.4101966249685,0 80.9016994374947,13.8757275712888 69.0983005625053,22.4513988289793 " />
<polygon  style="stroke:white; stroke-width:1; fill:steelblue; " points="73.606797749979,36.327126400268 69.0983005625053,50.2028539715568 80.9016994374947,58.7785252292473 85.4101966249685,44.9027976579585 " />
<polygon  style="stroke:white; stroke-width:1; fill:steelblue; " points="69.0983005625053,-22.4513988289793 83.6881039375368,-22.4513988289793 88.1966011250105,-36.327126400268 73.606797749979,-36.327126400268 " />
<polygon  style="stroke:white; stroke-width:1; fill:steelblue; " points="69.0983005625053,22.4513988289793 83.6881039375368,22.4513988289793 88.1966011250105,36.327126400268 73.606797749979,36.327126400268 " />
<polygon  style="stroke:white; stroke-width:1; fill:lightskyblue; " points="83.6881039375368,-22.4513988289793 95.4915028125263,-13.8757275712888 80.9016994374947,-13.8757275712888 69.0983005625053,-22.4513988289793 " />
<polygon  style="stroke:white; stroke-width:1; fill:lightskyblue; " points="83.6881039375368,22.4513988289793 69.0983005625053,22.4513988289793 80.9016994374947,13.8757275712888 95.4915028125263,13.8757275712888 " />
<polygon  style="stroke:white; stroke-width:1; fill:lightskyblue; " points="85.4101966249684,-44.9027976579585 73.606797749979,-36.327126400268 88.1966011250105,-36.327126400268 100,-44.9027976579586 " />
<polygon  style="stroke:white; stroke-width:1; fill:lightskyblue; " points="85.4101966249684,44.9027976579585 73.606797749979,36.327126400268 88.1966011250105,36.327126400268 100,44.9027976579586 " />
<polygon  style="stroke:white; stroke-width:1; fill:steelblue; " points="100,-0 85.4101966249685,-0 80.9016994374947,-13.8757275712888 95.4915028125263,-13.8757275712888 " />
<polygon  style="stroke:white; stroke-width:1; fill:steelblue; " points="100,0 85.4101966249685,0 80.9016994374947,13.8757275712888 95.4915028125263,13.8757275712888 " />
<polygon  style="stroke:white; stroke-width:1; fill:steelblue; " points="95.4915028125263,-13.8757275712888 83.6881039375368,-22.4513988289793 88.1966011250105,-36.327126400268 100,-27.7514551425776 " />
<polygon  style="stroke:white; stroke-width:1; fill:steelblue; " points="95.4915028125263,13.8757275712888 83.6881039375368,22.4513988289793 88.1966011250105,36.327126400268 100,27.7514551425776 " />
</svg>
