<svg viewBox="-110 -120 220 240" xmlns="http://www.w3.org/2000/svg">
<polygon  style="stroke:white; stroke-width:1; fill:lightskyblue; " points="-95.49150281252628,-13.875727571288778 -80.90169943749473,-13.875727571288781 -92.70509831248422,-22.45139882897927 -107.29490168751576,-22.45139882897926 " />
<polygon  style="stroke:white; stroke-width:1; fill:lightskyblue; " points="-95.49150281252628,13.875727571288778 -80.90169943749473,13.875727571288781 -92.70509831248422,22.45139882897927 -107.29490168751576,22.45139882897926 " />
<polygon  style="stroke:white; stroke-width:1; fill:steelblue; " points="-80.90169943749473,-13.875727571288781 -95.49150281252628,-13.875727571288778 -100,-0 -85.41019662496845,-3.552713678800501e-15 " />
<polygon  style="stroke:white; stroke-width:1; fill:steelblue; " points="-80.90169943749473,13.875727571288781 -95.49150281252628,13.875727571288778 -100,0 -85.41019662496845,3.552713678800501e-15 " />
<polygon  style="stroke:white; stroke-width:1; fill:steelblue; " points="-85.41019662496845,-44.902797657958544 -80.90169943749473,-31.027070086669767 -92.70509831248422,-22.45139882897927 -97.21359549995796,-36.32712640026804 " />
<polygon  style="stroke:white; stroke-width:1; fill:steelblue; " points="-85.41019662496845,44.902797657958544 -80.90169943749473,31.027070086669767 -92.70509831248422,22.45139882897927 -97.21359549995796,36.32712640026804 " />
<polygon  style="stroke:white; stroke-width:1; fill:lightskyblue; " points="-85.41019662496845,-0 -80.90169943749473,-13.875727571288781 -76.39320225002103,-0 -80.90169943749476,13.875727571288781 " />
<polygon  style="stroke:white; stroke-width:1; fill:steelblue; " points="-69.09830056250524,-22.451398828979276 -80.90169943749473,-13.875727571288781 -92.70509831248422,-22.45139882897927 -80.90169943749473,-31.027070086669763 " />
<polygon  style="stroke:white; stroke-width:1; fill:steelblue; " points="-69.09830056250524,22.451398828979276 -80.90169943749473,31.027070086669767 -92.70509831248422,22.45139882897927 -80.90169943749473,13.875727571288778 " />
<polygon  style="stroke:white; stroke-width:1; fill:steelblue; " points="-80.90169943749473,-58.77852522924732 -69.09830056250524,-50.20285397155683 -73.60679774997895,-36.32712640026805 -85.41019662496842,-44.90279765795854 " />
<polygon  style="stroke:white; stroke-width:1; fill:lightskyblue; " points="-80.90169943749473,-31.027070086669767 -69.09830056250524,-22.451398828979276 -73.60679774997895,-36.32712640026805 -85.41019662496842,-44.90279765795853 " />
<polygon  style="stroke:white; stroke-width:1; fill:lightskyblue; " points="-80.90169943749473,31.027070086669767 -69.09830056250524,22.451398828979276 -73.60679774997895,36.32712640026805 -85.41019662496842,44.90279765795853 " />
<polygon  style="stroke:white; stroke-width:1; fill:steelblue; " points="-80.90169943749473,58.77852522924732 -85.41019662496845,44.902797657958544 -73.60679774997895,36.32712640026805 -69.09830056250522,50.20285397155682 " />
<polygon  style="stroke:white; stroke-width:1; fill:steelblue; " points="-69.09830056250524,-22.451398828979276 -80.90169943749473,-13.875727571288781 -76.39320225002103,-0 -64.58980337503155,-8.575671257690495 " />
<polygon  style="stroke:white; stroke-width:1; fill:steelblue; " points="-69.09830056250524,22.451398828979276 -64.58980337503155,8.575671257690496 -76.39320225002103,0 -80.90169943749473,13.87572757128878 " />
<polygon  style="stroke:white; stroke-width:1; fill:steelblue; " points="-80.90169943749473,-58.77852522924732 -69.09830056250524,-50.20285397155683 -57.29490168751576,-58.77852522924732 -69.09830056250524,-67.35419648693781 " />
<polygon  style="stroke:white; stroke-width:1; fill:lightskyblue; " points="-64.58980337503152,-36.32712640026805 -69.09830056250524,-50.20285397155683 -73.60679774997895,-36.32712640026805 -69.09830056250524,-22.451398828979272 " />
<polygon  style="stroke:white; stroke-width:1; fill:lightskyblue; " points="-64.58980337503152,36.32712640026805 -69.09830056250524,22.451398828979276 -73.60679774997895,36.32712640026805 -69.09830056250524,50.20285397155682 " />
<polygon  style="stroke:white; stroke-width:1; fill:steelblue; " points="-80.90169943749473,58.77852522924732 -69.09830056250524,50.20285397155683 -57.29490168751576,58.77852522924732 -69.09830056250524,67.35419648693781 " />
<polygon  style="stroke:white; stroke-width:1; fill:steelblue; " points="-52.78640450004205,0 -64.58980337503155,8.575671257690496 -76.39320225002103,0 -64.58980337503155,-8.575671257690496 " />
<polygon  style="stroke:white; stroke-width:1; fill:lightskyblue; " points="-64.58980337503155,-8.575671257690496 -69.09830056250524,-22.451398828979276 -57.29490168751577,-13.875727571288781 -52.78640450004207,-3.552713678800501e-15 " />
<polygon  style="stroke:white; stroke-width:1; fill:lightskyblue; " points="-64.58980337503155,8.575671257690496 -52.78640450004205,0 -57.29490168751577,13.875727571288781 -69.09830056250526,22.45139882897928 " />
<polygon  style="stroke:white; stroke-width:1; fill:steelblue; " points="-69.09830056250524,-50.20285397155683 -64.58980337503152,-36.32712640026805 -49.99999999999999,-36.32712640026805 -54.50849718747372,-50.20285397155683 " />
<polygon  style="stroke:white; stroke-width:1; fill:steelblue; " points="-69.09830056250524,-22.451398828979276 -64.58980337503152,-36.32712640026805 -49.99999999999999,-36.32712640026805 -54.50849718747372,-22.451398828979272 " />
<polygon  style="stroke:white; stroke-width:1; fill:steelblue; " points="-69.09830056250524,22.451398828979276 -54.50849718747371,22.451398828979272 -49.99999999999999,36.32712640026805 -64.58980337503154,36.32712640026805 " />
<polygon  style="stroke:white; stroke-width:1; fill:steelblue; " points="-69.09830056250524,50.20285397155683 -64.58980337503152,36.32712640026805 -49.99999999999999,36.32712640026805 -54.50849718747372,50.20285397155683 " />
<polygon  style="stroke:white; stroke-width:1; fill:steelblue; " points="-69.09830056250524,-67.35419648693781 -54.508497187473694,-67.35419648693781 -49.999999999999986,-81.22992405822659 -64.58980337503154,-81.2299240582266 " />
<polygon  style="stroke:white; stroke-width:1; fill:steelblue; " points="-69.09830056250524,67.35419648693781 -54.508497187473694,67.35419648693781 -49.999999999999986,81.22992405822659 -64.58980337503154,81.2299240582266 " />
<polygon  style="stroke:white; stroke-width:1; fill:lightskyblue; " points="-54.50849718747371,-22.451398828979272 -69.09830056250524,-22.451398828979276 -57.29490168751577,-13.875727571288781 -42.70509831248424,-13.875727571288781 " />
<polygon  style="stroke:white; stroke-width:1; fill:lightskyblue; " points="-54.50849718747371,22.451398828979272 -69.09830056250524,22.451398828979276 -57.29490168751577,13.875727571288781 -42.70509831248424,13.875727571288781 " />
<polygon  style="stroke:white; stroke-width:1; fill:lightskyblue; " points="-54.508497187473694,-67.35419648693781 -69.09830056250524,-67.35419648693781 -57.29490168751576,-58.77852522924732 -42.70509831248421,-58.77852522924732 " />
<polygon  style="stroke:white; stroke-width:1; fill:lightskyblue; " points="-54.5084971874737,-50.20285397155683 -69.09830056250524,-50.20285397155683 -57.29490168751576,-58.77852522924732 -42.70509831248421,-58.77852522924733 " />
<polygon  style="stroke:white; stroke-width:1; fill:lightskyblue; " points="-54.5084971874737,50.20285397155683 -69.09830056250524,50.20285397155683 -57.29490168751576,58.77852522924732 -42.70509831248421,58.77852522924733 " />
<polygon  style="stroke:white; stroke-width:1; fill:lightskyblue; " points="-54.508497187473694,67.35419648693781 -69.09830056250524,67.35419648693781 -57.29490168751576,58.77852522924732 -42.70509831248421,58.77852522924732 " />
<polygon  style="stroke:white; stroke-width:1; fill:steelblue; " points="-38.19660112501051,-0 -52.78640450004205,-0 -57.29490168751577,-13.875727571288781 -42.705098312484225,-13.875727571288781 " />
<polygon  style="stroke:white; stroke-width:1; fill:steelblue; " points="-38.19660112501051,0 -42.705098312484225,13.875727571288776 -57.29490168751577,13.875727571288781 -52.78640450004205,5.329070518200751e-15 " />
<polygon  style="stroke:white; stroke-width:1; fill:lightskyblue; " points="-42.70509831248422,-86.52998037182488 -38.19660112501051,-72.65425280053609 -49.999999999999986,-81.22992405822659 -54.5084971874737,-95.10565162951536 " />
<polygon  style="stroke:white; stroke-width:1; fill:steelblue; " points="-42.705098312484225,-58.77852522924732 -54.508497187473694,-67.35419648693781 -49.999999999999986,-81.22992405822659 -38.19660112501052,-72.65425280053611 " />
<polygon  style="stroke:white; stroke-width:1; fill:steelblue; " points="-42.705098312484225,-58.77852522924732 -54.5084971874737,-50.20285397155683 -49.99999999999999,-36.32712640026805 -38.19660112501051,-44.90279765795854 " />
<polygon  style="stroke:white; stroke-width:1; fill:steelblue; " points="-42.705098312484225,-13.875727571288776 -38.19660112501051,-27.751455142577555 -49.99999999999999,-36.32712640026805 -54.5084971874737,-22.451398828979265 " />
<polygon  style="stroke:white; stroke-width:1; fill:steelblue; " points="-42.705098312484225,13.875727571288776 -54.50849718747371,22.451398828979272 -49.99999999999999,36.32712640026805 -38.1966011250105,27.751455142577548 " />
<polygon  style="stroke:white; stroke-width:1; fill:steelblue; " points="-42.705098312484225,58.77852522924732 -54.5084971874737,50.20285397155683 -49.99999999999999,36.32712640026805 -38.19660112501051,44.90279765795854 " />
<polygon  style="stroke:white; stroke-width:1; fill:steelblue; " points="-42.705098312484225,58.77852522924732 -54.508497187473694,67.35419648693781 -49.999999999999986,81.22992405822659 -38.19660112501052,72.65425280053611 " />
<polygon  style="stroke:white; stroke-width:1; fill:lightskyblue; " points="-42.70509831248422,86.52998037182488 -38.19660112501051,72.65425280053609 -49.999999999999986,81.22992405822659 -54.5084971874737,95.10565162951536 " />
<polygon  style="stroke:white; stroke-width:1; fill:steelblue; " points="-26.39320225002102,-36.32712640026804 -38.19660112501051,-27.751455142577555 -49.99999999999999,-36.32712640026805 -38.196601125010496,-44.90279765795853 " />
<polygon  style="stroke:white; stroke-width:1; fill:steelblue; " points="-26.39320225002102,36.32712640026804 -38.19660112501051,44.90279765795854 -49.99999999999999,36.32712640026805 -38.196601125010496,27.751455142577548 " />
<polygon  style="stroke:white; stroke-width:1; fill:steelblue; " points="-38.19660112501051,-72.65425280053609 -42.70509831248422,-86.52998037182488 -30.901699437494734,-95.10565162951536 -26.393202250021027,-81.22992405822657 " />
<polygon  style="stroke:white; stroke-width:1; fill:lightskyblue; " points="-38.19660112501051,-44.90279765795854 -26.39320225002102,-36.32712640026804 -30.90169943749474,-50.20285397155682 -42.705098312484225,-58.77852522924732 " />
<polygon  style="stroke:white; stroke-width:1; fill:lightskyblue; " points="-38.19660112501051,-27.751455142577555 -42.705098312484225,-13.875727571288776 -30.90169943749474,-22.451398828979276 -26.39320225002102,-36.32712640026806 " />
<polygon  style="stroke:white; stroke-width:1; fill:steelblue; " points="-38.19660112501051,-0 -26.39320225002103,-8.575671257690495 -30.90169943749474,-22.451398828979276 -42.70509831248421,-13.875727571288781 " />
<polygon  style="stroke:white; stroke-width:1; fill:steelblue; " points="-38.19660112501051,0 -26.39320225002103,8.575671257690495 -30.90169943749474,22.451398828979276 -42.70509831248421,13.875727571288781 " />
<polygon  style="stroke:white; stroke-width:1; fill:lightskyblue; " points="-38.19660112501051,27.751455142577555 -42.705098312484225,13.875727571288776 -30.90169943749474,22.451398828979276 -26.39320225002102,36.32712640026806 " />
<polygon  style="stroke:white; stroke-width:1; fill:lightskyblue; " points="-38.19660112501051,44.90279765795854 -42.705098312484225,58.77852522924732 -30.90169943749474,50.20285397155682 -26.39320225002102,36.32712640026804 " />
<polygon  style="stroke:white; stroke-width:1; fill:steelblue; " points="-38.19660112501051,72.65425280053609 -42.70509831248422,86.52998037182488 -30.901699437494734,95.10565162951536 -26.393202250021027,81.22992405822657 " />
<polygon  style="stroke:white; stroke-width:1; fill:steelblue; " points="-42.705098312484225,-58.77852522924732 -28.11529493745268,-58.778525229247315 -23.606797749978966,-72.6542528005361 -38.19660112501051,-72.65425280053611 " />
<polygon  style="stroke:white; stroke-width:1; fill:steelblue; " points="-42.705098312484225,58.77852522924732 -38.19660112501051,72.65425280053609 -23.606797749978966,72.6542528005361 -28.11529493745268,58.77852522924735 " />
<polygon  style="stroke:white; stroke-width:1; fill:lightskyblue; " points="-28.11529493745268,-58.778525229247315 -16.31189606246319,-50.20285397155682 -30.90169943749474,-50.20285397155682 -42.70509831248423,-58.77852522924731 " />
<polygon  style="stroke:white; stroke-width:1; fill:lightskyblue; " points="-28.11529493745268,58.778525229247315 -42.705098312484225,58.77852522924732 -30.90169943749474,50.20285397155682 -16.311896062463198,50.202853971556806 " />
<polygon  style="stroke:white; stroke-width:1; fill:lightskyblue; " points="-26.39320225002103,-8.575671257690495 -11.803398874989483,-8.575671257690495 -23.60679774997897,-0 -38.19660112501052,0 " />
<polygon  style="stroke:white; stroke-width:1; fill:lightskyblue; " points="-26.39320225002103,8.575671257690495 -11.803398874989483,8.575671257690495 -23.60679774997897,0 -38.19660112501052,0 " />
<polygon  style="stroke:white; stroke-width:1; fill:lightskyblue; " points="-26.393202250021027,-81.2299240582266 -11.803398874989474,-81.22992405822657 -23.606797749978966,-72.6542528005361 -38.19660112501052,-72.65425280053614 " />
<polygon  style="stroke:white; stroke-width:1; fill:lightskyblue; " points="-26.393202250021027,81.2299240582266 -11.803398874989474,81.22992405822657 -23.606797749978966,72.6542528005361 -38.19660112501052,72.65425280053614 " />
<polygon  style="stroke:white; stroke-width:1; fill:steelblue; " points="-11.80339887498948,-36.32712640026804 -16.31189606246319,-50.20285397155682 -30.90169943749474,-50.20285397155682 -26.393202250021034,-36.32712640026804 " />
<polygon  style="stroke:white; stroke-width:1; fill:steelblue; " points="-11.80339887498948,-36.32712640026804 -26.39320225002102,-36.32712640026804 -30.90169943749474,-22.451398828979276 -16.311896062463205,-22.45139882897928 " />
<polygon  style="stroke:white; stroke-width:1; fill:steelblue; " points="-11.803398874989483,-8.575671257690495 -26.39320225002103,-8.575671257690495 -30.90169943749474,-22.451398828979276 -16.311896062463195,-22.451398828979276 " />
<polygon  style="stroke:white; stroke-width:1; fill:steelblue; " points="-11.803398874989483,8.575671257690495 -16.311896062463195,22.451398828979272 -30.90169943749474,22.451398828979276 -26.39320225002103,8.575671257690498 " />
<polygon  style="stroke:white; stroke-width:1; fill:steelblue; " points="-11.80339887498948,36.32712640026804 -16.311896062463195,22.451398828979272 -30.90169943749474,22.451398828979276 -26.39320225002103,36.32712640026805 " />
<polygon  style="stroke:white; stroke-width:1; fill:steelblue; " points="-11.80339887498948,36.32712640026804 -16.31189606246319,50.20285397155682 -30.90169943749474,50.20285397155682 -26.393202250021034,36.32712640026804 " />
<polygon  style="stroke:white; stroke-width:1; fill:steelblue; " points="-11.803398874989474,-81.22992405822657 -26.393202250021027,-81.2299240582266 -30.901699437494734,-95.10565162951536 -16.311896062463184,-95.10565162951534 " />
<polygon  style="stroke:white; stroke-width:1; fill:steelblue; " points="-11.803398874989474,81.22992405822657 -16.31189606246319,95.10565162951536 -30.901699437494734,95.10565162951536 -26.39320225002102,81.22992405822657 " />
<polygon  style="stroke:white; stroke-width:1; fill:steelblue; " points="-16.31189606246319,-50.20285397155682 -28.11529493745268,-58.778525229247315 -23.606797749978966,-72.6542528005361 -11.803398874989476,-64.0785815428456 " />
<polygon  style="stroke:white; stroke-width:1; fill:steelblue; " points="-16.31189606246319,50.20285397155682 -28.11529493745268,58.778525229247315 -23.606797749978966,72.6542528005361 -11.803398874989476,64.0785815428456 " />
<polygon  style="stroke:white; stroke-width:1; fill:steelblue; " points="0,0 -11.803398874989483,8.575671257690495 -23.60679774997897,0 -11.803398874989487,-8.575671257690495 " />
<polygon  style="stroke:white; stroke-width:1; fill:lightskyblue; " points="-16.311896062463195,-22.451398828979272 -11.803398874989483,-8.575671257690495 -7.29490168751577,-22.45139882897927 -11.803398874989483,-36.32712640026805 " />
<polygon  style="stroke:white; stroke-width:1; fill:lightskyblue; " points="-16.311896062463195,22.451398828979272 -11.80339887498948,36.32712640026804 -7.29490168751577,22.45139882897927 -11.803398874989487,8.575671257690502 " />
<polygon  style="stroke:white; stroke-width:1; fill:lightskyblue; " points="-16.31189606246319,-95.10565162951536 -11.803398874989474,-81.22992405822657 -7.29490168751577,-95.10565162951536 -11.803398874989485,-108.98137920080416 " />
<polygon  style="stroke:white; stroke-width:1; fill:lightskyblue; " points="-16.31189606246319,95.10565162951536 -11.803398874989474,81.22992405822657 -7.29490168751577,95.10565162951536 -11.803398874989485,108.98137920080416 " />
<polygon  style="stroke:white; stroke-width:1; fill:steelblue; " points="8.881784197001252e-15,-72.65425280053609 -11.803398874989478,-64.0785815428456 -23.606797749978966,-72.6542528005361 -11.803398874989478,-81.22992405822657 " />
<polygon  style="stroke:white; stroke-width:1; fill:steelblue; " points="8.881784197001252e-15,72.65425280053609 -11.803398874989478,64.0785815428456 -23.606797749978966,72.6542528005361 -11.803398874989478,81.22992405822657 " />
<polygon  style="stroke:white; stroke-width:1; fill:lightskyblue; " points="-11.803398874989478,-64.0785815428456 -16.31189606246319,-50.20285397155682 -4.508497187473704,-58.77852522924731 7.105427357601002e-15,-72.65425280053609 " />
<polygon  style="stroke:white; stroke-width:1; fill:steelblue; " points="-11.80339887498948,-36.32712640026804 -16.31189606246319,-50.20285397155682 -4.508497187473704,-58.77852522924731 7.105427357601002e-15,-44.90279765795853 " />
<polygon  style="stroke:white; stroke-width:1; fill:steelblue; " points="-11.80339887498948,36.32712640026804 -16.31189606246319,50.20285397155682 -4.508497187473704,58.77852522924731 7.105427357601002e-15,44.90279765795853 " />
<polygon  style="stroke:white; stroke-width:1; fill:lightskyblue; " points="-11.803398874989478,64.0785815428456 -16.31189606246319,50.20285397155682 -4.508497187473704,58.77852522924731 7.105427357601002e-15,72.65425280053609 " />
<polygon  style="stroke:white; stroke-width:1; fill:steelblue; " points="0,-0 4.508497187473713,-13.875727571288776 -7.29490168751577,-22.45139882897927 -11.803398874989483,-8.575671257690493 " />
<polygon  style="stroke:white; stroke-width:1; fill:steelblue; " points="0,0 -11.803398874989483,8.575671257690495 -7.29490168751577,22.45139882897927 4.508497187473714,13.875727571288774 " />
<polygon  style="stroke:white; stroke-width:1; fill:lightskyblue; " points="2.6645352591003757e-15,-27.751455142577555 -11.80339887498948,-36.32712640026804 -7.29490168751577,-22.45139882897927 4.508497187473711,-13.875727571288778 " />
<polygon  style="stroke:white; stroke-width:1; fill:lightskyblue; " points="2.6645352591003757e-15,27.751455142577555 -11.80339887498948,36.32712640026804 -7.29490168751577,22.45139882897927 4.508497187473711,13.875727571288778 " />
<polygon  style="stroke:white; stroke-width:1; fill:steelblue; " points="8.881784197001252e-15,-72.65425280053609 4.508497187473718,-86.52998037182486 -7.29490168751577,-95.10565162951536 -11.80339887498948,-81.22992405822659 " />
<polygon  style="stroke:white; stroke-width:1; fill:steelblue; " points="8.881784197001252e-15,72.65425280053609 -11.803398874989474,81.22992405822657 -7.29490168751577,95.10565162951536 4.508497187473713,86.52998037182488 " />
<polygon  style="stroke:white; stroke-width:1; fill:steelblue; " points="-11.80339887498948,-36.32712640026804 2.6645352591003757e-15,-27.751455142577555 11.803398874989488,-36.32712640026805 4.440892098500626e-15,-44.90279765795853 " />
<polygon  style="stroke:white; stroke-width:1; fill:steelblue; " points="-11.80339887498948,36.32712640026804 2.6645352591003757e-15,27.751455142577555 11.803398874989488,36.32712640026805 4.440892098500626e-15,44.90279765795853 " />
<polygon  style="stroke:white; stroke-width:1; fill:lightskyblue; " points="4.508497187473717,-58.77852522924731 3.552713678800501e-15,-44.90279765795853 -4.508497187473704,-58.77852522924731 8.881784197001252e-15,-72.65425280053609 " />
<polygon  style="stroke:white; stroke-width:1; fill:lightskyblue; " points="4.508497187473717,58.77852522924731 8.881784197001252e-15,72.65425280053609 -4.508497187473704,58.77852522924731 3.552713678800501e-15,44.90279765795853 " />
<polygon  style="stroke:white; stroke-width:1; fill:steelblue; " points="16.3118960624632,-95.10565162951536 4.508497187473718,-86.52998037182486 -7.29490168751577,-95.10565162951536 4.508497187473712,-103.68132288720587 " />
<polygon  style="stroke:white; stroke-width:1; fill:steelblue; " points="16.3118960624632,95.10565162951536 4.508497187473718,86.52998037182486 -7.29490168751577,95.10565162951536 4.508497187473712,103.68132288720587 " />
<polygon  style="stroke:white; stroke-width:1; fill:steelblue; " points="4.508497187473713,-13.875727571288776 16.311896062463198,-22.45139882897927 11.803398874989488,-36.32712640026805 3.552713678800501e-15,-27.75145514257755 " />
<polygon  style="stroke:white; stroke-width:1; fill:steelblue; " points="4.508497187473713,13.875727571288776 2.6645352591003757e-15,27.751455142577555 11.803398874989488,36.32712640026805 16.311896062463198,22.451398828979265 " />
<polygon  style="stroke:white; stroke-width:1; fill:lightskyblue; " points="4.508497187473718,-86.52998037182486 8.881784197001252e-15,-72.65425280053609 11.80339887498949,-81.22992405822657 16.311896062463198,-95.10565162951536 " />
<polygon  style="stroke:white; stroke-width:1; fill:lightskyblue; " points="4.508497187473718,86.52998037182486 16.3118960624632,95.10565162951536 11.80339887498949,81.22992405822657 7.105427357601002e-15,72.65425280053609 " />
<polygon  style="stroke:white; stroke-width:1; fill:steelblue; " points="0,-0 4.508497187473713,-13.875727571288776 19.098300562505255,-13.875727571288774 14.589803375031542,1.7763568394002505e-15 " />
<polygon  style="stroke:white; stroke-width:1; fill:steelblue; " points="0,0 4.508497187473713,13.875727571288776 19.098300562505255,13.875727571288774 14.589803375031542,-1.7763568394002505e-15 " />
<polygon  style="stroke:white; stroke-width:1; fill:steelblue; " points="3.552713678800501e-15,-44.90279765795853 14.589803375031549,-44.902797657958544 19.098300562505262,-58.778525229247315 4.508497187473717,-58.77852522924731 " />
<polygon  style="stroke:white; stroke-width:1; fill:steelblue; " points="3.552713678800501e-15,44.90279765795853 14.589803375031549,44.902797657958544 19.098300562505262,58.778525229247315 4.508497187473717,58.77852522924731 " />
<polygon  style="stroke:white; stroke-width:1; fill:steelblue; " points="8.881784197001252e-15,-72.65425280053609 14.58980337503155,-72.65425280053609 19.098300562505262,-58.778525229247315 4.5084971874737185,-58.77852522924732 " />
<polygon  style="stroke:white; stroke-width:1; fill:steelblue; " points="8.881784197001252e-15,72.65425280053609 4.508497187473717,58.77852522924731 19.098300562505262,58.778525229247315 14.589803375031552,72.6542528005361 " />
<polygon  style="stroke:white; stroke-width:1; fill:lightskyblue; " points="14.589803375031549,-44.902797657958544 3.552713678800501e-15,-44.90279765795853 11.803398874989488,-36.32712640026805 26.393202250021034,-36.32712640026807 " />
<polygon  style="stroke:white; stroke-width:1; fill:lightskyblue; " points="14.589803375031549,44.902797657958544 26.393202250021027,36.32712640026804 11.803398874989488,36.32712640026805 1.0658141036401503e-14,44.90279765795856 " />
<polygon  style="stroke:white; stroke-width:1; fill:lightskyblue; " points="14.58980337503155,-72.65425280053609 8.881784197001252e-15,-72.65425280053609 11.80339887498949,-81.22992405822657 26.393202250021034,-81.22992405822657 " />
<polygon  style="stroke:white; stroke-width:1; fill:lightskyblue; " points="14.58980337503155,72.65425280053609 8.881784197001252e-15,72.65425280053609 11.80339887498949,81.22992405822657 26.393202250021034,81.22992405822657 " />
<polygon  style="stroke:white; stroke-width:1; fill:lightskyblue; " points="16.311896062463198,-22.45139882897927 30.901699437494738,-22.451398828979265 19.098300562505255,-13.875727571288774 4.508497187473711,-13.875727571288778 " />
<polygon  style="stroke:white; stroke-width:1; fill:lightskyblue; " points="16.311896062463198,22.45139882897927 4.508497187473713,13.875727571288776 19.098300562505255,13.875727571288774 30.901699437494734,22.451398828979265 " />
<polygon  style="stroke:white; stroke-width:1; fill:steelblue; " points="30.901699437494738,-22.451398828979265 26.393202250021027,-36.32712640026804 11.803398874989488,-36.32712640026805 16.311896062463198,-22.451398828979272 " />
<polygon  style="stroke:white; stroke-width:1; fill:steelblue; " points="30.901699437494738,22.451398828979265 26.393202250021027,36.32712640026804 11.803398874989488,36.32712640026805 16.311896062463198,22.451398828979272 " />
<polygon  style="stroke:white; stroke-width:1; fill:steelblue; " points="30.901699437494745,-95.10565162951535 26.393202250021034,-81.22992405822657 11.80339887498949,-81.22992405822657 16.311896062463205,-95.10565162951536 " />
<polygon  style="stroke:white; stroke-width:1; fill:steelblue; " points="30.901699437494745,95.10565162951535 26.393202250021034,81.22992405822657 11.80339887498949,81.22992405822657 16.311896062463205,95.10565162951536 " />
<polygon  style="stroke:white; stroke-width:1; fill:steelblue; " points="26.393202250021034,-81.22992405822657 30.90169943749475,-67.35419648693781 19.098300562505262,-58.778525229247315 14.589803375031543,-72.65425280053609 " />
<polygon  style="stroke:white; stroke-width:1; fill:steelblue; " points="26.393202250021027,-36.32712640026804 14.589803375031549,-44.902797657958544 19.098300562505262,-58.778525229247315 30.90169943749474,-50.20285397155682 " />
<polygon  style="stroke:white; stroke-width:1; fill:lightskyblue; " points="26.393202250021034,-8.575671257690493 14.589803375031547,-0 19.098300562505255,-13.875727571288774 30.901699437494745,-22.451398828979265 " />
<polygon  style="stroke:white; stroke-width:1; fill:lightskyblue; " points="26.393202250021034,8.575671257690493 14.589803375031547,0 19.098300562505255,13.875727571288774 30.901699437494745,22.451398828979265 " />
<polygon  style="stroke:white; stroke-width:1; fill:steelblue; " points="26.393202250021027,36.32712640026804 14.589803375031549,44.902797657958544 19.098300562505262,58.778525229247315 30.90169943749474,50.20285397155682 " />
<polygon  style="stroke:white; stroke-width:1; fill:steelblue; " points="26.393202250021034,81.22992405822657 30.90169943749475,67.35419648693781 19.098300562505262,58.778525229247315 14.589803375031543,72.65425280053609 " />
<polygon  style="stroke:white; stroke-width:1; fill:steelblue; " points="14.589803375031547,-0 26.393202250021034,-8.575671257690493 38.196601125010524,-0 26.393202250021034,8.575671257690493 " />
<polygon  style="stroke:white; stroke-width:1; fill:steelblue; " points="42.705098312484225,-58.778525229247315 30.90169943749475,-67.35419648693781 19.098300562505262,-58.778525229247315 30.901699437494734,-50.20285397155682 " />
<polygon  style="stroke:white; stroke-width:1; fill:steelblue; " points="42.705098312484225,58.778525229247315 30.90169943749474,50.20285397155682 19.098300562505262,58.778525229247315 30.90169943749474,67.35419648693781 " />
<polygon  style="stroke:white; stroke-width:1; fill:lightskyblue; " points="30.90169943749474,-50.20285397155682 26.393202250021027,-36.32712640026804 38.19660112501051,-44.902797657958544 42.70509831248422,-58.77852522924732 " />
<polygon  style="stroke:white; stroke-width:1; fill:steelblue; " points="30.901699437494738,-22.451398828979265 26.393202250021027,-36.32712640026804 38.19660112501051,-44.902797657958544 42.70509831248422,-31.027070086669767 " />
<polygon  style="stroke:white; stroke-width:1; fill:steelblue; " points="30.901699437494738,22.451398828979265 42.705098312484225,31.02707008666976 38.19660112501051,44.902797657958544 26.39320225002102,36.32712640026805 " />
<polygon  style="stroke:white; stroke-width:1; fill:lightskyblue; " points="30.90169943749474,50.20285397155682 26.393202250021027,36.32712640026804 38.19660112501051,44.902797657958544 42.70509831248422,58.77852522924732 " />
<polygon  style="stroke:white; stroke-width:1; fill:steelblue; " points="30.901699437494745,-95.10565162951535 26.393202250021034,-81.22992405822657 38.19660112501052,-72.65425280053609 42.705098312484225,-86.52998037182488 " />
<polygon  style="stroke:white; stroke-width:1; fill:steelblue; " points="30.901699437494738,-22.451398828979265 42.705098312484225,-13.875727571288774 38.196601125010524,-0 26.393202250021034,-8.575671257690491 " />
<polygon  style="stroke:white; stroke-width:1; fill:steelblue; " points="30.901699437494738,22.451398828979265 42.705098312484225,13.875727571288774 38.196601125010524,0 26.393202250021034,8.575671257690491 " />
<polygon  style="stroke:white; stroke-width:1; fill:steelblue; " points="30.901699437494745,95.10565162951535 26.393202250021034,81.22992405822657 38.19660112501052,72.65425280053609 42.705098312484225,86.52998037182488 " />
<polygon  style="stroke:white; stroke-width:1; fill:lightskyblue; " points="30.90169943749475,-67.35419648693781 42.705098312484225,-58.778525229247315 38.19660112501052,-72.65425280053609 26.393202250021048,-81.22992405822657 " />
<polygon  style="stroke:white; stroke-width:1; fill:lightskyblue; " points="30.90169943749475,67.35419648693781 26.393202250021034,81.22992405822657 38.19660112501052,72.65425280053609 42.70509831248424,58.77852522924732 " />
<polygon  style="stroke:white; stroke-width:1; fill:lightskyblue; " points="47.21359549995794,-44.902797657958544 42.705098312484225,-31.02707008666976 38.19660112501051,-44.902797657958544 42.705098312484225,-58.77852522924733 " />
<polygon  style="stroke:white; stroke-width:1; fill:steelblue; " points="30.901699437494738,-22.451398828979265 42.705098312484225,-31.02707008666976 54.508497187473715,-22.451398828979265 42.705098312484225,-13.87572757128877 " />
<polygon  style="stroke:white; stroke-width:1; fill:steelblue; " points="30.901699437494738,22.451398828979265 42.705098312484225,31.02707008666976 54.508497187473715,22.451398828979265 42.705098312484225,13.87572757128877 " />
<polygon  style="stroke:white; stroke-width:1; fill:lightskyblue; " points="47.21359549995794,44.902797657958544 42.705098312484225,58.778525229247315 38.19660112501051,44.902797657958544 42.705098312484225,31.027070086669774 " />
<polygon  style="stroke:white; stroke-width:1; fill:lightskyblue; " points="47.21359549995795,-72.65425280053609 42.70509831248423,-86.52998037182486 38.19660112501052,-72.65425280053609 42.70509831248423,-58.77852522924731 " />
<polygon  style="stroke:white; stroke-width:1; fill:lightskyblue; " points="47.21359549995795,72.65425280053609 42.705098312484225,58.778525229247315 38.19660112501052,72.65425280053609 42.70509831248424,86.52998037182485 " />
<polygon  style="stroke:white; stroke-width:1; fill:lightskyblue; " points="47.21359549995795,0 42.705098312484225,13.875727571288774 38.196601125010524,0 42.70509831248425,-13.875727571288774 " />
<polygon  style="stroke:white; stroke-width:1; fill:steelblue; " points="42.70509831248423,-86.52998037182486 47.21359549995795,-72.65425280053609 61.80339887498949,-72.65425280053609 57.294901687515775,-86.52998037182488 " />
<polygon  style="stroke:white; stroke-width:1; fill:steelblue; " points="42.705098312484225,-58.778525229247315 57.29490168751577,-58.778525229247315 61.80339887498949,-72.65425280053609 47.213595499957954,-72.65425280053609 " />
<polygon  style="stroke:white; stroke-width:1; fill:steelblue; " points="42.705098312484225,-58.778525229247315 47.21359549995794,-44.902797657958544 61.80339887498949,-44.902797657958544 57.29490168751578,-58.77852522924731 " />
<polygon  style="stroke:white; stroke-width:1; fill:steelblue; " points="42.705098312484225,-31.02707008666976 47.21359549995794,-44.902797657958544 61.80339887498949,-44.902797657958544 57.29490168751578,-31.027070086669752 " />
<polygon  style="stroke:white; stroke-width:1; fill:steelblue; " points="42.705098312484225,-13.875727571288774 57.294901687515775,-13.875727571288774 61.80339887498949,-0 47.21359549995795,0 " />
<polygon  style="stroke:white; stroke-width:1; fill:steelblue; " points="42.705098312484225,13.875727571288774 57.294901687515775,13.875727571288774 61.80339887498949,0 47.21359549995795,0 " />
<polygon  style="stroke:white; stroke-width:1; fill:steelblue; " points="42.705098312484225,31.02707008666976 47.21359549995794,44.902797657958544 61.80339887498949,44.902797657958544 57.29490168751578,31.027070086669752 " />
<polygon  style="stroke:white; stroke-width:1; fill:steelblue; " points="42.705098312484225,58.778525229247315 57.29490168751577,58.778525229247315 61.80339887498949,44.902797657958544 47.213595499957954,44.90279765795854 " />
<polygon  style="stroke:white; stroke-width:1; fill:steelblue; " points="42.705098312484225,58.778525229247315 57.29490168751577,58.778525229247315 61.80339887498949,72.65425280053609 47.213595499957954,72.65425280053609 " />
<polygon  style="stroke:white; stroke-width:1; fill:steelblue; " points="42.70509831248423,86.52998037182486 47.21359549995795,72.65425280053609 61.80339887498949,72.65425280053609 57.294901687515775,86.52998037182488 " />
<polygon  style="stroke:white; stroke-width:1; fill:lightskyblue; " points="57.294901687515775,-31.02707008666976 69.09830056250526,-22.451398828979265 54.508497187473715,-22.451398828979265 42.705098312484225,-31.02707008666976 " />
<polygon  style="stroke:white; stroke-width:1; fill:lightskyblue; " points="57.294901687515775,-13.875727571288774 42.705098312484225,-13.875727571288774 54.508497187473715,-22.451398828979265 69.09830056250526,-22.45139882897927 " />
<polygon  style="stroke:white; stroke-width:1; fill:lightskyblue; " points="57.294901687515775,13.875727571288774 69.09830056250526,22.451398828979265 54.508497187473715,22.451398828979265 42.705098312484225,13.875727571288778 " />
<polygon  style="stroke:white; stroke-width:1; fill:lightskyblue; " points="57.294901687515775,31.02707008666976 69.09830056250526,22.451398828979265 54.508497187473715,22.451398828979265 42.705098312484225,31.02707008666976 " />
<polygon  style="stroke:white; stroke-width:1; fill:lightskyblue; " points="69.09830056250526,-67.35419648693781 57.29490168751577,-58.778525229247315 61.80339887498949,-72.65425280053609 73.606797749979,-81.22992405822657 " />
<polygon  style="stroke:white; stroke-width:1; fill:lightskyblue; " points="69.09830056250526,-50.20285397155682 73.60679774997897,-36.32712640026804 61.80339887498949,-44.902797657958544 57.29490168751579,-58.77852522924732 " />
<polygon  style="stroke:white; stroke-width:1; fill:steelblue; " points="69.09830056250526,-22.451398828979265 73.60679774997897,-36.32712640026804 61.80339887498949,-44.902797657958544 57.29490168751579,-31.027070086669767 " />
<polygon  style="stroke:white; stroke-width:1; fill:steelblue; " points="69.09830056250526,-22.451398828979265 73.60679774997898,-8.575671257690493 61.80339887498949,-0 57.294901687515775,-13.875727571288772 " />
<polygon  style="stroke:white; stroke-width:1; fill:steelblue; " points="69.09830056250526,22.451398828979265 73.60679774997898,8.575671257690493 61.80339887498949,0 57.294901687515775,13.875727571288772 " />
<polygon  style="stroke:white; stroke-width:1; fill:steelblue; " points="69.09830056250526,22.451398828979265 57.294901687515775,31.02707008666976 61.80339887498949,44.902797657958544 73.60679774997898,36.32712640026805 " />
<polygon  style="stroke:white; stroke-width:1; fill:lightskyblue; " points="69.09830056250526,50.20285397155682 73.60679774997897,36.32712640026804 61.80339887498949,44.902797657958544 57.29490168751579,58.77852522924732 " />
<polygon  style="stroke:white; stroke-width:1; fill:lightskyblue; " points="69.09830056250526,67.35419648693781 57.29490168751577,58.778525229247315 61.80339887498949,72.65425280053609 73.606797749979,81.22992405822657 " />
<polygon  style="stroke:white; stroke-width:1; fill:steelblue; " points="57.29490168751577,-58.778525229247315 69.09830056250526,-50.20285397155682 80.90169943749474,-58.778525229247315 69.09830056250526,-67.35419648693781 " />
<polygon  style="stroke:white; stroke-width:1; fill:steelblue; " points="57.29490168751577,58.778525229247315 69.09830056250526,50.20285397155682 80.90169943749474,58.778525229247315 69.09830056250526,67.35419648693781 " />
<polygon  style="stroke:white; stroke-width:1; fill:steelblue; " points="85.41019662496846,0 73.60679774997898,8.575671257690493 61.80339887498949,0 73.60679774997898,-8.575671257690493 " />
<polygon  style="stroke:white; stroke-width:1; fill:steelblue; " points="73.60679774997897,-36.32712640026804 85.41019662496845,-44.902797657958544 80.90169943749474,-58.778525229247315 69.09830056250527,-50.20285397155682 " />
<polygon  style="stroke:white; stroke-width:1; fill:lightskyblue; " points="73.60679774997898,-8.575671257690493 85.41019662496846,-0 80.90169943749474,-13.875727571288774 69.09830056250526,-22.451398828979265 " />
<polygon  style="stroke:white; stroke-width:1; fill:lightskyblue; " points="73.60679774997898,8.575671257690493 85.41019662496846,0 80.90169943749474,13.875727571288774 69.09830056250526,22.451398828979265 " />
<polygon  style="stroke:white; stroke-width:1; fill:steelblue; " points="73.60679774997897,36.32712640026804 69.09830056250526,50.20285397155682 80.90169943749474,58.778525229247315 85.41019662496846,44.902797657958544 " />
<polygon  style="stroke:white; stroke-width:1; fill:steelblue; " points="69.09830056250526,-22.451398828979265 83.68810393753681,-22.45139882897927 88.19660112501052,-36.32712640026805 73.60679774997898,-36.32712640026804 " />
<polygon  style="stroke:white; stroke-width:1; fill:steelblue; " points="69.09830056250526,22.451398828979265 83.68810393753681,22.45139882897927 88.19660112501052,36.32712640026805 73.60679774997898,36.32712640026804 " />
<polygon  style="stroke:white; stroke-width:1; fill:lightskyblue; " points="83.68810393753681,-22.45139882897927 95.49150281252629,-13.875727571288776 80.90169943749474,-13.875727571288774 69.09830056250526,-22.451398828979265 " />
<polygon  style="stroke:white; stroke-width:1; fill:lightskyblue; " points="83.68810393753681,22.45139882897927 69.09830056250526,22.451398828979265 80.90169943749474,13.875727571288774 95.49150281252629,13.875727571288778 " />
<polygon  style="stroke:white; stroke-width:1; fill:lightskyblue; " points="85.41019662496845,-44.902797657958544 73.60679774997897,-36.32712640026804 88.19660112501052,-36.32712640026805 100,-44.90279765795856 " />
<polygon  style="stroke:white; stroke-width:1; fill:lightskyblue; " points="85.41019662496845,44.902797657958544 73.60679774997897,36.32712640026804 88.19660112501052,36.32712640026805 100,44.90279765795856 " />
<polygon  style="stroke:white; stroke-width:1; fill:steelblue; " points="100,-0 85.41019662496846,-0 80.90169943749474,-13.875727571288774 95.49150281252629,-13.875727571288774 " />
<polygon  style="stroke:white; stroke-width:1; fill:steelblue; " points="100,0 85.41019662496846,0 80.90169943749474,13.875727571288774 95.49150281252629,13.875727571288774 " />
<polygon  style="stroke:white; stroke-width:1; fill:steelblue; " points="95.49150281252629,-13.875727571288776 83.68810393753681,-22.45139882897927 88.19660112501052,-36.32712640026805 100.00000000000001,-27.75145514257755 " />
<polygon  style="stroke:white; stroke-width:1; fill:steelblue; " points="95.49150281252629,13.875727571288776 83.68810393753681,22.45139882897927 88.19660112501052,36.32712640026805 100.00000000000001,27.75145514257755 " />
</svg>
