<svg viewBox="-110 -80 220 160" style="stroke-width:0.4 ;stroke:#ffffff" xmlns="http://www.w3.org/2000/svg">
<polygon style="fill:burlywood;"   points="-81.9660112501052,-0 -90.9830056250526,-6.52477867672113 -100,-0 -90.9830056250526,6.52477867672113" />
<polygon style="fill:brown;"   points="-90.9830056250526,-6.52477867672113 -81.9660112501052,-0 -85.4101966249684,-10.5573136680053 -94.4271909999159,-17.0820923447265" />
<polygon style="fill:brown;"   points="-90.9830056250526,6.52477867672113 -81.9660112501052,0 -85.4101966249684,10.5573136680053 -94.4271909999159,17.0820923447265" />
<polygon style="fill:burlywood;"   points="-70.8203932499369,-0 -81.9660112501052,-0 -85.4101966249684,-10.5573136680053 -74.2645786248002,-10.5573136680053" />
<polygon style="fill:burlywood;"   points="-70.8203932499369,0 -74.2645786248002,10.5573136680053 -85.4101966249684,10.5573136680053 -81.9660112501052,0" />
<polygon style="fill:burlywood;"   points="-70.8203932499369,-21.1146273360107 -74.2645786248002,-10.5573136680053 -85.4101966249684,-10.5573136680053 -81.9660112501051,-21.1146273360107" />
<polygon style="fill:burlywood;"   points="-70.8203932499369,21.1146273360107 -74.2645786248002,10.5573136680053 -85.4101966249684,10.5573136680053 -81.9660112501051,21.1146273360107" />
<polygon style="fill:brown;"   points="-74.2645786248002,-10.5573136680053 -70.8203932499369,-0 -67.3762078750736,-10.5573136680053 -70.8203932499369,-21.1146273360107" />
<polygon style="fill:brown;"   points="-74.2645786248002,10.5573136680053 -70.8203932499369,21.1146273360107 -67.3762078750736,10.5573136680053 -70.8203932499369,-3.5527136788005e-15" />
<polygon style="fill:burlywood;"   points="-61.8033988749895,-27.6394060127318 -58.3592135001262,-17.0820923447265 -67.3762078750736,-10.5573136680053 -70.8203932499369,-21.1146273360107" />
<polygon style="fill:brown;"   points="-61.8033988749895,-6.52477867672113 -70.8203932499369,-0 -67.3762078750736,-10.5573136680053 -58.3592135001262,-17.0820923447265" />
<polygon style="fill:brown;"   points="-61.8033988749895,6.52477867672113 -70.8203932499369,0 -67.3762078750736,10.5573136680053 -58.3592135001262,17.0820923447265" />
<polygon style="fill:burlywood;"   points="-61.8033988749895,27.6394060127318 -70.8203932499369,21.1146273360107 -67.3762078750736,10.5573136680053 -58.3592135001262,17.0820923447265" />
<polygon style="fill:burlywood;"   points="-70.8203932499369,0 -61.8033988749895,6.52477867672113 -52.7864045000421,0 -61.8033988749895,-6.52477867672113" />
<polygon style="fill:burlywood;"   points="-58.3592135001262,-17.0820923447265 -49.3422191251788,-10.5573136680053 -52.7864045000421,-0 -61.8033988749895,-6.52477867672113" />
<polygon style="fill:burlywood;"   points="-58.3592135001262,17.0820923447265 -61.8033988749895,6.52477867672113 -52.7864045000421,0 -49.3422191251788,10.5573136680053" />
<polygon style="fill:burlywood;"   points="-61.8033988749895,-27.6394060127318 -50.6577808748212,-27.6394060127318 -47.2135954999579,-17.0820923447265 -58.3592135001262,-17.0820923447265" />
<polygon style="fill:burlywood;"   points="-61.8033988749895,27.6394060127318 -58.3592135001262,17.0820923447265 -47.2135954999579,17.0820923447265 -50.6577808748212,27.6394060127318" />
<polygon style="fill:brown;"   points="-50.6577808748212,-27.6394060127318 -61.8033988749895,-27.6394060127318 -52.7864045000421,-34.164184689453 -41.6407864998738,-34.164184689453" />
<polygon style="fill:brown;"   points="-50.6577808748212,27.6394060127318 -41.6407864998738,34.1641846894529 -52.7864045000421,34.164184689453 -61.8033988749895,27.6394060127318" />
<polygon style="fill:brown;"   points="-49.3422191251788,-10.5573136680053 -58.3592135001262,-17.0820923447265 -47.2135954999579,-17.0820923447265 -38.1966011250105,-10.5573136680053" />
<polygon style="fill:brown;"   points="-49.3422191251788,10.5573136680053 -38.1966011250105,10.5573136680053 -47.2135954999579,17.0820923447265 -58.3592135001262,17.0820923447265" />
<polygon style="fill:burlywood;"   points="-38.1966011250105,-10.5573136680053 -41.6407864998738,-0 -52.7864045000421,-0 -49.3422191251788,-10.5573136680053" />
<polygon style="fill:burlywood;"   points="-38.1966011250105,10.5573136680053 -49.3422191251788,10.5573136680053 -52.7864045000421,0 -41.6407864998738,3.5527136788005e-15" />
<polygon style="fill:burlywood;"   points="-38.1966011250105,-44.7214983574583 -41.6407864998738,-34.1641846894529 -52.7864045000421,-34.164184689453 -49.3422191251788,-44.7214983574583" />
<polygon style="fill:burlywood;"   points="-38.1966011250105,44.7214983574583 -41.6407864998738,34.1641846894529 -52.7864045000421,34.164184689453 -49.3422191251788,44.7214983574583" />
<polygon style="fill:burlywood;"   points="-41.6407864998738,-34.1641846894529 -50.6577808748212,-27.6394060127318 -47.2135954999579,-17.0820923447265 -38.1966011250105,-23.6068710214476" />
<polygon style="fill:burlywood;"   points="-41.6407864998738,34.1641846894529 -50.6577808748212,27.6394060127318 -47.2135954999579,17.0820923447265 -38.1966011250105,23.6068710214476" />
<polygon style="fill:brown;"   points="-41.6407864998738,-0 -38.1966011250105,-10.5573136680053 -34.7524157501472,-0 -38.1966011250105,10.5573136680053" />
<polygon style="fill:burlywood;"   points="-29.1796067500631,-17.0820923447265 -38.1966011250105,-23.6068710214476 -47.2135954999579,-17.0820923447265 -38.1966011250105,-10.5573136680053" />
<polygon style="fill:burlywood;"   points="-29.1796067500631,17.0820923447265 -38.1966011250105,23.6068710214476 -47.2135954999579,17.0820923447265 -38.1966011250105,10.5573136680053" />
<polygon style="fill:burlywood;"   points="-38.1966011250105,-44.7214983574583 -29.1796067500631,-38.1967196807372 -32.6237921249264,-27.6394060127318 -41.6407864998738,-34.1641846894529" />
<polygon style="fill:brown;"   points="-38.1966011250105,-23.6068710214476 -29.1796067500631,-17.0820923447265 -32.6237921249264,-27.6394060127318 -41.6407864998738,-34.164184689453" />
<polygon style="fill:brown;"   points="-38.1966011250105,23.6068710214476 -29.1796067500631,17.0820923447265 -32.6237921249264,27.6394060127318 -41.6407864998738,34.164184689453" />
<polygon style="fill:burlywood;"   points="-38.1966011250105,44.7214983574583 -41.6407864998738,34.1641846894529 -32.6237921249264,27.6394060127318 -29.1796067500631,38.1967196807372" />
<polygon style="fill:burlywood;"   points="-29.1796067500631,-17.0820923447265 -38.1966011250105,-10.5573136680053 -34.7524157501472,-0 -25.7354213751998,-6.52477867672113" />
<polygon style="fill:burlywood;"   points="-29.1796067500631,17.0820923447265 -38.1966011250105,10.5573136680053 -34.7524157501472,0 -25.7354213751998,6.52477867672113" />
<polygon style="fill:burlywood;"   points="-38.1966011250105,-44.7214983574583 -29.1796067500631,-38.1967196807372 -20.1626123751157,-44.7214983574583 -29.1796067500631,-51.2462770341794" />
<polygon style="fill:brown;"   points="-25.7354213751998,-27.6394060127318 -29.1796067500631,-38.1967196807372 -32.6237921249264,-27.6394060127318 -29.1796067500631,-17.0820923447265" />
<polygon style="fill:brown;"   points="-25.7354213751998,27.6394060127318 -29.1796067500631,17.0820923447265 -32.6237921249264,27.6394060127318 -29.1796067500631,38.1967196807372" />
<polygon style="fill:burlywood;"   points="-38.1966011250105,44.7214983574583 -29.1796067500631,51.2462770341794 -20.1626123751157,44.7214983574583 -29.1796067500631,38.1967196807372" />
<polygon style="fill:burlywood;"   points="-16.7184270002524,-0 -25.7354213751998,-6.52477867672113 -34.7524157501472,-0 -25.7354213751998,6.52477867672113" />
<polygon style="fill:brown;"   points="-25.7354213751998,-6.52477867672113 -29.1796067500631,-17.0820923447265 -20.1626123751157,-10.5573136680053 -16.7184270002524,-3.5527136788005e-15" />
<polygon style="fill:brown;"   points="-25.7354213751998,6.52477867672113 -29.1796067500631,17.0820923447265 -20.1626123751157,10.5573136680053 -16.7184270002524,3.5527136788005e-15" />
<polygon style="fill:burlywood;"   points="-29.1796067500631,-38.1967196807372 -18.0339887498948,-38.1967196807372 -14.5898033750315,-27.6394060127318 -25.7354213751998,-27.6394060127318" />
<polygon style="fill:burlywood;"   points="-29.1796067500631,-17.0820923447265 -18.0339887498948,-17.0820923447265 -14.5898033750315,-27.6394060127318 -25.7354213751998,-27.6394060127318" />
<polygon style="fill:burlywood;"   points="-29.1796067500631,17.0820923447265 -25.7354213751998,27.6394060127318 -14.5898033750315,27.6394060127318 -18.0339887498948,17.0820923447265" />
<polygon style="fill:burlywood;"   points="-29.1796067500631,38.1967196807372 -25.7354213751998,27.6394060127318 -14.5898033750315,27.6394060127318 -18.0339887498948,38.1967196807372" />
<polygon style="fill:burlywood;"   points="-29.1796067500631,-51.2462770341794 -18.0339887498948,-51.2462770341794 -14.5898033750315,-61.8035907021848 -25.7354213751998,-61.8035907021848" />
<polygon style="fill:burlywood;"   points="-29.1796067500631,51.2462770341794 -18.0339887498948,51.2462770341794 -14.5898033750315,61.8035907021848 -25.7354213751998,61.8035907021848" />
<polygon style="fill:brown;"   points="-18.0339887498948,-51.2462770341794 -9.01699437494742,-44.7214983574583 -20.1626123751157,-44.7214983574583 -29.1796067500631,-51.2462770341794" />
<polygon style="fill:brown;"   points="-18.0339887498948,-38.1967196807372 -29.1796067500631,-38.1967196807372 -20.1626123751157,-44.7214983574583 -9.01699437494742,-44.7214983574583" />
<polygon style="fill:brown;"   points="-18.0339887498948,-17.0820923447265 -9.01699437494742,-10.5573136680053 -20.1626123751157,-10.5573136680053 -29.1796067500631,-17.0820923447265" />
<polygon style="fill:brown;"   points="-18.0339887498948,17.0820923447265 -9.01699437494742,10.5573136680053 -20.1626123751157,10.5573136680053 -29.1796067500631,17.0820923447265" />
<polygon style="fill:brown;"   points="-18.0339887498948,38.1967196807372 -29.1796067500631,38.1967196807372 -20.1626123751157,44.7214983574583 -9.01699437494742,44.7214983574583" />
<polygon style="fill:brown;"   points="-18.0339887498948,51.2462770341794 -29.1796067500631,51.2462770341794 -20.1626123751157,44.7214983574583 -9.01699437494742,44.7214983574583" />
<polygon style="fill:burlywood;"   points="-5.57280900008411,-0 -16.7184270002524,-0 -20.1626123751157,-10.5573136680053 -9.01699437494742,-10.5573136680053" />
<polygon style="fill:burlywood;"   points="-5.57280900008411,0 -9.01699437494742,10.5573136680053 -20.1626123751157,10.5573136680053 -16.7184270002524,3.5527136788005e-15" />
<polygon style="fill:brown;"   points="-9.01699437494742,-65.836125693469 -5.57280900008412,-55.2788120254636 -14.5898033750315,-61.8035907021848 -18.0339887498948,-72.3609043701901" />
<polygon style="fill:burlywood;"   points="-9.01699437494742,-44.7214983574583 -5.57280900008412,-55.2788120254636 -14.5898033750315,-61.8035907021848 -18.0339887498948,-51.2462770341794" />
<polygon style="fill:burlywood;"   points="-9.01699437494742,-44.7214983574583 -18.0339887498948,-38.1967196807372 -14.5898033750315,-27.6394060127318 -5.57280900008412,-34.164184689453" />
<polygon style="fill:burlywood;"   points="-9.01699437494742,44.7214983574583 -5.57280900008412,34.1641846894529 -14.5898033750315,27.6394060127318 -18.0339887498948,38.1967196807372" />
<polygon style="fill:burlywood;"   points="-9.01699437494742,44.7214983574583 -18.0339887498948,51.2462770341794 -14.5898033750315,61.8035907021848 -5.57280900008412,55.2788120254636" />
<polygon style="fill:brown;"   points="-9.01699437494742,65.836125693469 -5.57280900008412,55.2788120254636 -14.5898033750315,61.8035907021848 -18.0339887498948,72.3609043701901" />
<polygon style="fill:burlywood;"   points="-9.01699437494742,-10.5573136680053 -18.0339887498948,-17.0820923447265 -14.5898033750315,-27.6394060127318 -5.57280900008411,-21.1146273360107" />
<polygon style="fill:burlywood;"   points="-9.01699437494742,10.5573136680053 -18.0339887498948,17.0820923447265 -14.5898033750315,27.6394060127318 -5.57280900008411,21.1146273360107" />
<polygon style="fill:burlywood;"   points="3.44418537486331,-27.6394060127318 -5.57280900008412,-34.1641846894529 -14.5898033750315,-27.6394060127318 -5.57280900008411,-21.1146273360107" />
<polygon style="fill:burlywood;"   points="3.44418537486331,27.6394060127318 -5.57280900008412,34.1641846894529 -14.5898033750315,27.6394060127318 -5.57280900008411,21.1146273360107" />
<polygon style="fill:burlywood;"   points="-5.57280900008412,-55.2788120254636 -9.01699437494742,-65.836125693469 0,-72.3609043701901 3.4441853748633,-61.8035907021848" />
<polygon style="fill:burlywood;"   points="-5.57280900008412,55.2788120254636 3.4441853748633,61.8035907021848 0,72.3609043701901 -9.01699437494743,65.836125693469" />
<polygon style="fill:brown;"   points="-5.57280900008412,-34.1641846894529 -9.01699437494742,-44.7214983574583 2.66453525910038e-15,-38.1967196807372 3.44418537486331,-27.6394060127318" />
<polygon style="fill:brown;"   points="-5.57280900008412,34.1641846894529 3.44418537486331,27.6394060127318 2.66453525910038e-15,38.1967196807372 -9.01699437494743,44.7214983574583" />
<polygon style="fill:brown;"   points="-5.57280900008412,-21.1146273360107 3.44418537486331,-27.6394060127318 3.5527136788005e-15,-17.0820923447265 -9.01699437494742,-10.5573136680054" />
<polygon style="fill:brown;"   points="-5.57280900008412,21.1146273360107 3.44418537486331,27.6394060127318 3.5527136788005e-15,17.0820923447265 -9.01699437494742,10.5573136680054" />
<polygon style="fill:burlywood;"   points="-5.57280900008411,-0 -9.01699437494742,-10.5573136680053 3.5527136788005e-15,-17.0820923447265 3.44418537486331,-6.52477867672113" />
<polygon style="fill:burlywood;"   points="-5.57280900008411,0 -9.01699437494742,10.5573136680053 3.5527136788005e-15,17.0820923447265 3.44418537486331,6.52477867672113" />
<polygon style="fill:burlywood;"   points="-9.01699437494742,-44.7214983574583 -5.57280900008412,-55.2788120254636 5.57280900008412,-55.2788120254636 2.12862362522082,-44.7214983574583" />
<polygon style="fill:burlywood;"   points="-9.01699437494742,44.7214983574583 -5.57280900008412,55.2788120254636 5.57280900008412,55.2788120254636 2.12862362522082,44.7214983574583" />
<polygon style="fill:brown;"   points="2.12862362522082,-44.7214983574583 11.1456180001683,-38.1967196807372 2.66453525910038e-15,-38.1967196807372 -9.01699437494742,-44.7214983574583" />
<polygon style="fill:brown;"   points="2.12862362522082,44.7214983574583 11.1456180001683,38.1967196807372 2.66453525910038e-15,38.1967196807372 -9.01699437494742,44.7214983574583" />
<polygon style="fill:brown;"   points="3.4441853748633,-61.8035907021848 14.5898033750315,-61.8035907021848 5.57280900008412,-55.2788120254636 -5.57280900008412,-55.2788120254636" />
<polygon style="fill:brown;"   points="3.4441853748633,61.8035907021848 14.5898033750315,61.8035907021848 5.57280900008412,55.2788120254636 -5.57280900008412,55.2788120254636" />
<polygon style="fill:brown;"   points="3.44418537486331,-6.52477867672113 -5.57280900008411,-0 5.57280900008413,-0 14.5898033750316,-6.52477867672113" />
<polygon style="fill:brown;"   points="3.44418537486331,6.52477867672113 -5.57280900008411,0 5.57280900008413,0 14.5898033750316,6.52477867672113" />
<polygon style="fill:burlywood;"   points="14.5898033750315,-61.8035907021848 3.4441853748633,-61.8035907021848 0,-72.3609043701901 11.1456180001682,-72.3609043701901" />
<polygon style="fill:burlywood;"   points="14.5898033750315,61.8035907021848 3.4441853748633,61.8035907021848 0,72.3609043701901 11.1456180001682,72.3609043701901" />
<polygon style="fill:burlywood;"   points="14.5898033750316,-27.6394060127318 3.44418537486331,-27.6394060127318 2.66453525910038e-15,-38.1967196807372 11.1456180001682,-38.1967196807372" />
<polygon style="fill:burlywood;"   points="14.5898033750316,-27.6394060127318 3.44418537486331,-27.6394060127318 3.5527136788005e-15,-17.0820923447265 11.1456180001682,-17.0820923447265" />
<polygon style="fill:burlywood;"   points="14.5898033750316,27.6394060127318 3.44418537486331,27.6394060127318 3.5527136788005e-15,17.0820923447265 11.1456180001682,17.0820923447265" />
<polygon style="fill:burlywood;"   points="14.5898033750316,27.6394060127318 3.44418537486331,27.6394060127318 2.66453525910038e-15,38.1967196807372 11.1456180001682,38.1967196807372" />
<polygon style="fill:burlywood;"   points="14.5898033750316,-6.52477867672113 3.44418537486331,-6.52477867672113 3.5527136788005e-15,-17.0820923447265 11.1456180001683,-17.0820923447265" />
<polygon style="fill:burlywood;"   points="14.5898033750316,6.52477867672113 3.44418537486331,6.52477867672113 3.5527136788005e-15,17.0820923447265 11.1456180001683,17.0820923447265" />
<polygon style="fill:burlywood;"   points="11.1456180001683,-38.1967196807372 2.12862362522082,-44.7214983574583 5.57280900008412,-55.2788120254636 14.5898033750316,-48.7540333487425" />
<polygon style="fill:burlywood;"   points="11.1456180001683,38.1967196807372 14.5898033750316,48.7540333487425 5.57280900008412,55.2788120254636 2.12862362522083,44.7214983574583" />
<polygon style="fill:burlywood;"   points="23.606797749979,-55.2788120254636 14.5898033750316,-48.7540333487425 5.57280900008412,-55.2788120254636 14.5898033750315,-61.8035907021848" />
<polygon style="fill:burlywood;"   points="23.606797749979,55.2788120254636 14.5898033750315,61.8035907021848 5.57280900008412,55.2788120254636 14.5898033750315,48.7540333487425" />
<polygon style="fill:brown;"   points="11.1456180001683,-17.0820923447265 14.5898033750316,-27.6394060127318 18.0339887498949,-17.0820923447265 14.5898033750316,-6.52477867672113" />
<polygon style="fill:burlywood;"   points="23.606797749979,-0 14.5898033750316,-6.52477867672113 5.57280900008413,-0 14.5898033750316,6.52477867672113" />
<polygon style="fill:brown;"   points="11.1456180001683,17.0820923447265 14.5898033750316,6.52477867672113 18.0339887498949,17.0820923447265 14.5898033750316,27.6394060127318" />
<polygon style="fill:brown;"   points="14.5898033750316,-48.7540333487425 11.1456180001683,-38.1967196807372 20.1626123751157,-44.7214983574583 23.606797749979,-55.2788120254636" />
<polygon style="fill:burlywood;"   points="14.5898033750316,-27.6394060127318 11.1456180001683,-38.1967196807372 20.1626123751157,-44.7214983574583 23.606797749979,-34.1641846894529" />
<polygon style="fill:burlywood;"   points="14.5898033750316,27.6394060127318 11.1456180001683,38.1967196807372 20.1626123751157,44.7214983574583 23.606797749979,34.1641846894529" />
<polygon style="fill:brown;"   points="14.5898033750316,48.7540333487425 23.606797749979,55.2788120254636 20.1626123751157,44.7214983574583 11.1456180001683,38.1967196807372" />
<polygon style="fill:brown;"   points="23.606797749979,-21.1146273360107 14.5898033750316,-27.6394060127318 18.0339887498949,-17.0820923447265 27.0509831248423,-10.5573136680053" />
<polygon style="fill:brown;"   points="23.606797749979,21.1146273360107 14.5898033750316,27.6394060127318 18.0339887498949,17.0820923447265 27.0509831248423,10.5573136680053" />
<polygon style="fill:burlywood;"   points="23.606797749979,-0 14.5898033750316,-6.52477867672113 18.0339887498949,-17.0820923447265 27.0509831248423,-10.5573136680053" />
<polygon style="fill:burlywood;"   points="23.606797749979,0 27.0509831248423,10.5573136680053 18.0339887498949,17.0820923447265 14.5898033750316,6.52477867672113" />
<polygon style="fill:brown;"   points="27.0509831248423,-44.7214983574583 23.606797749979,-55.2788120254636 20.1626123751157,-44.7214983574583 23.606797749979,-34.1641846894529" />
<polygon style="fill:burlywood;"   points="14.5898033750316,-27.6394060127318 23.606797749979,-34.1641846894529 32.6237921249264,-27.6394060127318 23.606797749979,-21.1146273360107" />
<polygon style="fill:burlywood;"   points="14.5898033750316,27.6394060127318 23.606797749979,34.1641846894529 32.6237921249264,27.6394060127318 23.606797749979,21.1146273360107" />
<polygon style="fill:brown;"   points="27.0509831248423,44.7214983574583 23.606797749979,55.2788120254636 20.1626123751157,44.7214983574583 23.606797749979,34.1641846894529" />
<polygon style="fill:burlywood;"   points="27.0509831248423,-10.5573136680053 23.606797749979,-21.1146273360107 32.6237921249264,-27.6394060127318 36.0679774997897,-17.0820923447265" />
<polygon style="fill:burlywood;"   points="27.0509831248423,10.5573136680053 36.0679774997897,17.0820923447265 32.6237921249264,27.6394060127318 23.606797749979,21.1146273360107" />
<polygon style="fill:burlywood;"   points="23.606797749979,-55.2788120254636 27.0509831248423,-44.7214983574583 38.1966011250105,-44.7214983574583 34.7524157501472,-55.2788120254636" />
<polygon style="fill:burlywood;"   points="23.606797749979,-34.1641846894529 27.0509831248423,-44.7214983574583 38.1966011250105,-44.7214983574583 34.7524157501472,-34.164184689453" />
<polygon style="fill:burlywood;"   points="23.606797749979,34.1641846894529 34.7524157501472,34.164184689453 38.1966011250105,44.7214983574583 27.0509831248423,44.7214983574583" />
<polygon style="fill:burlywood;"   points="23.606797749979,55.2788120254636 27.0509831248423,44.7214983574583 38.1966011250105,44.7214983574583 34.7524157501472,55.2788120254636" />
<polygon style="fill:burlywood;"   points="23.606797749979,-0 27.0509831248423,-10.5573136680053 38.1966011250105,-10.5573136680053 34.7524157501472,0" />
<polygon style="fill:burlywood;"   points="23.606797749979,0 34.7524157501472,0 38.1966011250105,10.5573136680053 27.0509831248423,10.5573136680053" />
<polygon style="fill:brown;"   points="34.7524157501472,-34.164184689453 43.7694101250946,-27.6394060127318 32.6237921249264,-27.6394060127318 23.606797749979,-34.164184689453" />
<polygon style="fill:brown;"   points="34.7524157501472,34.164184689453 23.606797749979,34.1641846894529 32.6237921249264,27.6394060127318 43.7694101250946,27.6394060127318" />
<polygon style="fill:brown;"   points="36.0679774997897,-17.0820923447265 27.0509831248423,-10.5573136680053 38.1966011250105,-10.5573136680053 47.213595499958,-17.0820923447265" />
<polygon style="fill:brown;"   points="36.0679774997897,17.0820923447265 47.2135954999579,17.0820923447265 38.1966011250105,10.5573136680053 27.0509831248423,10.5573136680053" />
<polygon style="fill:burlywood;"   points="47.2135954999579,-17.0820923447265 43.7694101250946,-27.6394060127318 32.6237921249264,-27.6394060127318 36.0679774997897,-17.0820923447265" />
<polygon style="fill:burlywood;"   points="47.2135954999579,17.0820923447265 43.7694101250946,27.6394060127318 32.6237921249264,27.6394060127318 36.0679774997897,17.0820923447265" />
<polygon style="fill:burlywood;"   points="43.7694101250946,-27.6394060127318 47.2135954999579,-38.1967196807372 38.1966011250105,-44.7214983574583 34.7524157501472,-34.164184689453" />
<polygon style="fill:burlywood;"   points="43.7694101250946,27.6394060127318 34.7524157501472,34.164184689453 38.1966011250105,44.7214983574583 47.2135954999579,38.1967196807372" />
<polygon style="fill:brown;"   points="43.7694101250946,-6.52477867672113 34.7524157501472,-0 38.1966011250105,-10.5573136680053 47.2135954999579,-17.0820923447265" />
<polygon style="fill:brown;"   points="43.7694101250946,6.52477867672113 34.7524157501472,0 38.1966011250105,10.5573136680053 47.2135954999579,17.0820923447265" />
<polygon style="fill:burlywood;"   points="34.7524157501472,0 43.7694101250946,6.52477867672113 52.7864045000421,0 43.7694101250946,-6.52477867672113" />
<polygon style="fill:brown;"   points="47.2135954999579,-38.1967196807372 43.7694101250946,-27.6394060127318 52.7864045000421,-34.1641846894529 56.2305898749053,-44.7214983574583" />
<polygon style="fill:brown;"   points="47.2135954999579,38.1967196807372 43.7694101250946,27.6394060127318 52.7864045000421,34.1641846894529 56.2305898749053,44.7214983574583" />
<polygon style="fill:burlywood;"   points="47.2135954999579,-17.0820923447265 43.7694101250946,-27.6394060127318 52.7864045000421,-34.1641846894529 56.2305898749054,-23.6068710214476" />
<polygon style="fill:burlywood;"   points="47.2135954999579,17.0820923447265 56.2305898749054,23.6068710214476 52.7864045000421,34.1641846894529 43.7694101250946,27.6394060127318" />
<polygon style="fill:burlywood;"   points="47.2135954999579,-17.0820923447265 43.7694101250946,-6.52477867672113 52.7864045000421,-0 56.2305898749054,-10.5573136680053" />
<polygon style="fill:burlywood;"   points="47.2135954999579,17.0820923447265 43.7694101250946,6.52477867672113 52.7864045000421,0 56.2305898749054,10.5573136680053" />
<polygon style="fill:brown;"   points="56.2305898749054,-23.6068710214476 47.2135954999579,-17.0820923447265 58.3592135001262,-17.0820923447265 67.3762078750736,-23.6068710214476" />
<polygon style="fill:brown;"   points="56.2305898749054,23.6068710214476 47.2135954999579,17.0820923447265 58.3592135001262,17.0820923447265 67.3762078750736,23.6068710214476" />
<polygon style="fill:brown;"   points="56.2305898749054,-10.5573136680053 67.3762078750736,-10.5573136680053 58.3592135001262,-17.0820923447265 47.2135954999579,-17.0820923447265" />
<polygon style="fill:brown;"   points="56.2305898749054,10.5573136680053 47.2135954999579,17.0820923447265 58.3592135001262,17.0820923447265 67.3762078750736,10.5573136680053" />
<polygon style="fill:burlywood;"   points="67.3762078750736,-23.6068710214476 56.2305898749054,-23.6068710214476 52.7864045000421,-34.1641846894529 63.9320225002103,-34.1641846894529" />
<polygon style="fill:burlywood;"   points="67.3762078750736,23.6068710214476 56.2305898749054,23.6068710214476 52.7864045000421,34.1641846894529 63.9320225002103,34.1641846894529" />
<polygon style="fill:burlywood;"   points="67.3762078750736,-10.5573136680053 63.9320225002103,-0 52.7864045000421,-0 56.2305898749054,-10.5573136680053" />
<polygon style="fill:burlywood;"   points="67.3762078750736,10.5573136680053 63.9320225002103,0 52.7864045000421,0 56.2305898749054,10.5573136680053" />
<polygon style="fill:burlywood;"   points="76.393202250021,-17.0820923447265 67.3762078750736,-10.5573136680053 58.3592135001262,-17.0820923447265 67.3762078750736,-23.6068710214476" />
<polygon style="fill:brown;"   points="63.9320225002103,0 67.3762078750736,10.5573136680053 70.8203932499369,0 67.3762078750736,-10.5573136680053" />
<polygon style="fill:burlywood;"   points="76.393202250021,17.0820923447265 67.3762078750736,23.6068710214476 58.3592135001262,17.0820923447265 67.3762078750736,10.5573136680053" />
<polygon style="fill:burlywood;"   points="76.393202250021,-17.0820923447265 79.8373876248843,-6.52477867672113 70.8203932499369,-0 67.3762078750736,-10.5573136680053" />
<polygon style="fill:burlywood;"   points="76.393202250021,17.0820923447265 79.8373876248843,6.52477867672113 70.8203932499369,0 67.3762078750736,10.5573136680053" />
<polygon style="fill:burlywood;"   points="88.8543819998318,-0 79.8373876248843,-6.52477867672113 70.8203932499369,-0 79.8373876248844,6.52477867672113" />
<polygon style="fill:brown;"   points="79.8373876248843,-6.52477867672113 76.393202250021,-17.0820923447265 85.4101966249684,-10.5573136680053 88.8543819998317,0" />
<polygon style="fill:brown;"   points="79.8373876248843,6.52477867672113 88.8543819998318,0 85.4101966249684,10.5573136680053 76.393202250021,17.0820923447265" />
<polygon style="fill:burlywood;"   points="100,-0 88.8543819998318,-0 85.4101966249684,-10.5573136680053 96.5558146251367,-10.5573136680053" />
<polygon style="fill:burlywood;"   points="100,0 88.8543819998318,0 85.4101966249684,10.5573136680053 96.5558146251367,10.5573136680053" />
</svg>

