<svg xmlns="http://www.w3.org/2000/svg" viewBox="-5 -5 220 220"  style="stroke-width:3; stroke:royalblue; " > 
<path d="M 5 0 A 5 5 -45 0 1 0 5M 10 5 A 5 5 -45 0 0 5 10" />
<path d="M 0 15 A 5 5 -45 0 1 5 20M 5 10 A 5 5 -45 0 0 10 15" />
<path d="M 5 20 A 5 5 -45 0 1 0 25M 10 25 A 5 5 -45 0 0 5 30" />
<path d="M 5 30 A 5 5 -45 0 1 0 35M 10 35 A 5 5 -45 0 0 5 40" />
<path d="M 0 45 A 5 5 -45 0 1 5 50M 5 40 A 5 5 -45 0 0 10 45" />
<path d="M 0 55 A 5 5 -45 0 1 5 60M 5 50 A 5 5 -45 0 0 10 55" />
<path d="M 5 60 A 5 5 -45 0 1 0 65M 10 65 A 5 5 -45 0 0 5 70" />
<path d="M 0 75 A 5 5 -45 0 1 5 80M 5 70 A 5 5 -45 0 0 10 75" />
<path d="M 5 80 A 5 5 -45 0 1 0 85M 10 85 A 5 5 -45 0 0 5 90" />
<path d="M 5 90 A 5 5 -45 0 1 0 95M 10 95 A 5 5 -45 0 0 5 100" />
<path d="M 0 105 A 5 5 -45 0 1 5 110M 5 100 A 5 5 -45 0 0 10 105" />
<path d="M 5 110 A 5 5 -45 0 1 0 115M 10 115 A 5 5 -45 0 0 5 120" />
<path d="M 0 125 A 5 5 -45 0 1 5 130M 5 120 A 5 5 -45 0 0 10 125" />
<path d="M 5 130 A 5 5 -45 0 1 0 135M 10 135 A 5 5 -45 0 0 5 140" />
<path d="M 5 140 A 5 5 -45 0 1 0 145M 10 145 A 5 5 -45 0 0 5 150" />
<path d="M 5 150 A 5 5 -45 0 1 0 155M 10 155 A 5 5 -45 0 0 5 160" />
<path d="M 0 165 A 5 5 -45 0 1 5 170M 5 160 A 5 5 -45 0 0 10 165" />
<path d="M 0 175 A 5 5 -45 0 1 5 180M 5 170 A 5 5 -45 0 0 10 175" />
<path d="M 5 180 A 5 5 -45 0 1 0 185M 10 185 A 5 5 -45 0 0 5 190" />
<path d="M 5 190 A 5 5 -45 0 1 0 195M 10 195 A 5 5 -45 0 0 5 200" />
<path d="M 5 200 A 5 5 -45 0 1 0 205M 10 205 A 5 5 -45 0 0 5 210" />
<path d="M 15 0 A 5 5 -45 0 1 10 5M 20 5 A 5 5 -45 0 0 15 10" />
<path d="M 15 10 A 5 5 -45 0 1 10 15M 20 15 A 5 5 -45 0 0 15 20" />
<path d="M 15 20 A 5 5 -45 0 1 10 25M 20 25 A 5 5 -45 0 0 15 30" />
<path d="M 10 35 A 5 5 -45 0 1 15 40M 15 30 A 5 5 -45 0 0 20 35" />
<path d="M 10 45 A 5 5 -45 0 1 15 50M 15 40 A 5 5 -45 0 0 20 45" />
<path d="M 10 55 A 5 5 -45 0 1 15 60M 15 50 A 5 5 -45 0 0 20 55" />
<path d="M 15 60 A 5 5 -45 0 1 10 65M 20 65 A 5 5 -45 0 0 15 70" />
<path d="M 15 70 A 5 5 -45 0 1 10 75M 20 75 A 5 5 -45 0 0 15 80" />
<path d="M 15 80 A 5 5 -45 0 1 10 85M 20 85 A 5 5 -45 0 0 15 90" />
<path d="M 10 95 A 5 5 -45 0 1 15 100M 15 90 A 5 5 -45 0 0 20 95" />
<path d="M 15 100 A 5 5 -45 0 1 10 105M 20 105 A 5 5 -45 0 0 15 110" />
<path d="M 15 110 A 5 5 -45 0 1 10 115M 20 115 A 5 5 -45 0 0 15 120" />
<path d="M 10 125 A 5 5 -45 0 1 15 130M 15 120 A 5 5 -45 0 0 20 125" />
<path d="M 15 130 A 5 5 -45 0 1 10 135M 20 135 A 5 5 -45 0 0 15 140" />
<path d="M 15 140 A 5 5 -45 0 1 10 145M 20 145 A 5 5 -45 0 0 15 150" />
<path d="M 10 155 A 5 5 -45 0 1 15 160M 15 150 A 5 5 -45 0 0 20 155" />
<path d="M 15 160 A 5 5 -45 0 1 10 165M 20 165 A 5 5 -45 0 0 15 170" />
<path d="M 10 175 A 5 5 -45 0 1 15 180M 15 170 A 5 5 -45 0 0 20 175" />
<path d="M 10 185 A 5 5 -45 0 1 15 190M 15 180 A 5 5 -45 0 0 20 185" />
<path d="M 15 190 A 5 5 -45 0 1 10 195M 20 195 A 5 5 -45 0 0 15 200" />
<path d="M 10 205 A 5 5 -45 0 1 15 210M 15 200 A 5 5 -45 0 0 20 205" />
<path d="M 20 5 A 5 5 -45 0 1 25 10M 25 0 A 5 5 -45 0 0 30 5" />
<path d="M 20 15 A 5 5 -45 0 1 25 20M 25 10 A 5 5 -45 0 0 30 15" />
<path d="M 25 20 A 5 5 -45 0 1 20 25M 30 25 A 5 5 -45 0 0 25 30" />
<path d="M 25 30 A 5 5 -45 0 1 20 35M 30 35 A 5 5 -45 0 0 25 40" />
<path d="M 25 40 A 5 5 -45 0 1 20 45M 30 45 A 5 5 -45 0 0 25 50" />
<path d="M 25 50 A 5 5 -45 0 1 20 55M 30 55 A 5 5 -45 0 0 25 60" />
<path d="M 25 60 A 5 5 -45 0 1 20 65M 30 65 A 5 5 -45 0 0 25 70" />
<path d="M 20 75 A 5 5 -45 0 1 25 80M 25 70 A 5 5 -45 0 0 30 75" />
<path d="M 20 85 A 5 5 -45 0 1 25 90M 25 80 A 5 5 -45 0 0 30 85" />
<path d="M 20 95 A 5 5 -45 0 1 25 100M 25 90 A 5 5 -45 0 0 30 95" />
<path d="M 20 105 A 5 5 -45 0 1 25 110M 25 100 A 5 5 -45 0 0 30 105" />
<path d="M 25 110 A 5 5 -45 0 1 20 115M 30 115 A 5 5 -45 0 0 25 120" />
<path d="M 20 125 A 5 5 -45 0 1 25 130M 25 120 A 5 5 -45 0 0 30 125" />
<path d="M 25 130 A 5 5 -45 0 1 20 135M 30 135 A 5 5 -45 0 0 25 140" />
<path d="M 20 145 A 5 5 -45 0 1 25 150M 25 140 A 5 5 -45 0 0 30 145" />
<path d="M 20 155 A 5 5 -45 0 1 25 160M 25 150 A 5 5 -45 0 0 30 155" />
<path d="M 25 160 A 5 5 -45 0 1 20 165M 30 165 A 5 5 -45 0 0 25 170" />
<path d="M 20 175 A 5 5 -45 0 1 25 180M 25 170 A 5 5 -45 0 0 30 175" />
<path d="M 25 180 A 5 5 -45 0 1 20 185M 30 185 A 5 5 -45 0 0 25 190" />
<path d="M 20 195 A 5 5 -45 0 1 25 200M 25 190 A 5 5 -45 0 0 30 195" />
<path d="M 20 205 A 5 5 -45 0 1 25 210M 25 200 A 5 5 -45 0 0 30 205" />
<path d="M 35 0 A 5 5 -45 0 1 30 5M 40 5 A 5 5 -45 0 0 35 10" />
<path d="M 35 10 A 5 5 -45 0 1 30 15M 40 15 A 5 5 -45 0 0 35 20" />
<path d="M 30 25 A 5 5 -45 0 1 35 30M 35 20 A 5 5 -45 0 0 40 25" />
<path d="M 30 35 A 5 5 -45 0 1 35 40M 35 30 A 5 5 -45 0 0 40 35" />
<path d="M 35 40 A 5 5 -45 0 1 30 45M 40 45 A 5 5 -45 0 0 35 50" />
<path d="M 30 55 A 5 5 -45 0 1 35 60M 35 50 A 5 5 -45 0 0 40 55" />
<path d="M 30 65 A 5 5 -45 0 1 35 70M 35 60 A 5 5 -45 0 0 40 65" />
<path d="M 30 75 A 5 5 -45 0 1 35 80M 35 70 A 5 5 -45 0 0 40 75" />
<path d="M 30 85 A 5 5 -45 0 1 35 90M 35 80 A 5 5 -45 0 0 40 85" />
<path d="M 30 95 A 5 5 -45 0 1 35 100M 35 90 A 5 5 -45 0 0 40 95" />
<path d="M 30 105 A 5 5 -45 0 1 35 110M 35 100 A 5 5 -45 0 0 40 105" />
<path d="M 35 110 A 5 5 -45 0 1 30 115M 40 115 A 5 5 -45 0 0 35 120" />
<path d="M 35 120 A 5 5 -45 0 1 30 125M 40 125 A 5 5 -45 0 0 35 130" />
<path d="M 30 135 A 5 5 -45 0 1 35 140M 35 130 A 5 5 -45 0 0 40 135" />
<path d="M 35 140 A 5 5 -45 0 1 30 145M 40 145 A 5 5 -45 0 0 35 150" />
<path d="M 30 155 A 5 5 -45 0 1 35 160M 35 150 A 5 5 -45 0 0 40 155" />
<path d="M 35 160 A 5 5 -45 0 1 30 165M 40 165 A 5 5 -45 0 0 35 170" />
<path d="M 30 175 A 5 5 -45 0 1 35 180M 35 170 A 5 5 -45 0 0 40 175" />
<path d="M 30 185 A 5 5 -45 0 1 35 190M 35 180 A 5 5 -45 0 0 40 185" />
<path d="M 35 190 A 5 5 -45 0 1 30 195M 40 195 A 5 5 -45 0 0 35 200" />
<path d="M 35 200 A 5 5 -45 0 1 30 205M 40 205 A 5 5 -45 0 0 35 210" />
<path d="M 40 5 A 5 5 -45 0 1 45 10M 45 0 A 5 5 -45 0 0 50 5" />
<path d="M 45 10 A 5 5 -45 0 1 40 15M 50 15 A 5 5 -45 0 0 45 20" />
<path d="M 40 25 A 5 5 -45 0 1 45 30M 45 20 A 5 5 -45 0 0 50 25" />
<path d="M 45 30 A 5 5 -45 0 1 40 35M 50 35 A 5 5 -45 0 0 45 40" />
<path d="M 45 40 A 5 5 -45 0 1 40 45M 50 45 A 5 5 -45 0 0 45 50" />
<path d="M 40 55 A 5 5 -45 0 1 45 60M 45 50 A 5 5 -45 0 0 50 55" />
<path d="M 40 65 A 5 5 -45 0 1 45 70M 45 60 A 5 5 -45 0 0 50 65" />
<path d="M 40 75 A 5 5 -45 0 1 45 80M 45 70 A 5 5 -45 0 0 50 75" />
<path d="M 45 80 A 5 5 -45 0 1 40 85M 50 85 A 5 5 -45 0 0 45 90" />
<path d="M 45 90 A 5 5 -45 0 1 40 95M 50 95 A 5 5 -45 0 0 45 100" />
<path d="M 45 100 A 5 5 -45 0 1 40 105M 50 105 A 5 5 -45 0 0 45 110" />
<path d="M 45 110 A 5 5 -45 0 1 40 115M 50 115 A 5 5 -45 0 0 45 120" />
<path d="M 45 120 A 5 5 -45 0 1 40 125M 50 125 A 5 5 -45 0 0 45 130" />
<path d="M 40 135 A 5 5 -45 0 1 45 140M 45 130 A 5 5 -45 0 0 50 135" />
<path d="M 45 140 A 5 5 -45 0 1 40 145M 50 145 A 5 5 -45 0 0 45 150" />
<path d="M 40 155 A 5 5 -45 0 1 45 160M 45 150 A 5 5 -45 0 0 50 155" />
<path d="M 40 165 A 5 5 -45 0 1 45 170M 45 160 A 5 5 -45 0 0 50 165" />
<path d="M 40 175 A 5 5 -45 0 1 45 180M 45 170 A 5 5 -45 0 0 50 175" />
<path d="M 40 185 A 5 5 -45 0 1 45 190M 45 180 A 5 5 -45 0 0 50 185" />
<path d="M 40 195 A 5 5 -45 0 1 45 200M 45 190 A 5 5 -45 0 0 50 195" />
<path d="M 45 200 A 5 5 -45 0 1 40 205M 50 205 A 5 5 -45 0 0 45 210" />
<path d="M 55 0 A 5 5 -45 0 1 50 5M 60 5 A 5 5 -45 0 0 55 10" />
<path d="M 55 10 A 5 5 -45 0 1 50 15M 60 15 A 5 5 -45 0 0 55 20" />
<path d="M 55 20 A 5 5 -45 0 1 50 25M 60 25 A 5 5 -45 0 0 55 30" />
<path d="M 55 30 A 5 5 -45 0 1 50 35M 60 35 A 5 5 -45 0 0 55 40" />
<path d="M 55 40 A 5 5 -45 0 1 50 45M 60 45 A 5 5 -45 0 0 55 50" />
<path d="M 50 55 A 5 5 -45 0 1 55 60M 55 50 A 5 5 -45 0 0 60 55" />
<path d="M 50 65 A 5 5 -45 0 1 55 70M 55 60 A 5 5 -45 0 0 60 65" />
<path d="M 50 75 A 5 5 -45 0 1 55 80M 55 70 A 5 5 -45 0 0 60 75" />
<path d="M 50 85 A 5 5 -45 0 1 55 90M 55 80 A 5 5 -45 0 0 60 85" />
<path d="M 50 95 A 5 5 -45 0 1 55 100M 55 90 A 5 5 -45 0 0 60 95" />
<path d="M 55 100 A 5 5 -45 0 1 50 105M 60 105 A 5 5 -45 0 0 55 110" />
<path d="M 55 110 A 5 5 -45 0 1 50 115M 60 115 A 5 5 -45 0 0 55 120" />
<path d="M 55 120 A 5 5 -45 0 1 50 125M 60 125 A 5 5 -45 0 0 55 130" />
<path d="M 55 130 A 5 5 -45 0 1 50 135M 60 135 A 5 5 -45 0 0 55 140" />
<path d="M 55 140 A 5 5 -45 0 1 50 145M 60 145 A 5 5 -45 0 0 55 150" />
<path d="M 50 155 A 5 5 -45 0 1 55 160M 55 150 A 5 5 -45 0 0 60 155" />
<path d="M 50 165 A 5 5 -45 0 1 55 170M 55 160 A 5 5 -45 0 0 60 165" />
<path d="M 55 170 A 5 5 -45 0 1 50 175M 60 175 A 5 5 -45 0 0 55 180" />
<path d="M 55 180 A 5 5 -45 0 1 50 185M 60 185 A 5 5 -45 0 0 55 190" />
<path d="M 55 190 A 5 5 -45 0 1 50 195M 60 195 A 5 5 -45 0 0 55 200" />
<path d="M 55 200 A 5 5 -45 0 1 50 205M 60 205 A 5 5 -45 0 0 55 210" />
<path d="M 65 0 A 5 5 -45 0 1 60 5M 70 5 A 5 5 -45 0 0 65 10" />
<path d="M 65 10 A 5 5 -45 0 1 60 15M 70 15 A 5 5 -45 0 0 65 20" />
<path d="M 60 25 A 5 5 -45 0 1 65 30M 65 20 A 5 5 -45 0 0 70 25" />
<path d="M 60 35 A 5 5 -45 0 1 65 40M 65 30 A 5 5 -45 0 0 70 35" />
<path d="M 60 45 A 5 5 -45 0 1 65 50M 65 40 A 5 5 -45 0 0 70 45" />
<path d="M 60 55 A 5 5 -45 0 1 65 60M 65 50 A 5 5 -45 0 0 70 55" />
<path d="M 60 65 A 5 5 -45 0 1 65 70M 65 60 A 5 5 -45 0 0 70 65" />
<path d="M 60 75 A 5 5 -45 0 1 65 80M 65 70 A 5 5 -45 0 0 70 75" />
<path d="M 65 80 A 5 5 -45 0 1 60 85M 70 85 A 5 5 -45 0 0 65 90" />
<path d="M 65 90 A 5 5 -45 0 1 60 95M 70 95 A 5 5 -45 0 0 65 100" />
<path d="M 65 100 A 5 5 -45 0 1 60 105M 70 105 A 5 5 -45 0 0 65 110" />
<path d="M 65 110 A 5 5 -45 0 1 60 115M 70 115 A 5 5 -45 0 0 65 120" />
<path d="M 65 120 A 5 5 -45 0 1 60 125M 70 125 A 5 5 -45 0 0 65 130" />
<path d="M 60 135 A 5 5 -45 0 1 65 140M 65 130 A 5 5 -45 0 0 70 135" />
<path d="M 65 140 A 5 5 -45 0 1 60 145M 70 145 A 5 5 -45 0 0 65 150" />
<path d="M 65 150 A 5 5 -45 0 1 60 155M 70 155 A 5 5 -45 0 0 65 160" />
<path d="M 60 165 A 5 5 -45 0 1 65 170M 65 160 A 5 5 -45 0 0 70 165" />
<path d="M 65 170 A 5 5 -45 0 1 60 175M 70 175 A 5 5 -45 0 0 65 180" />
<path d="M 65 180 A 5 5 -45 0 1 60 185M 70 185 A 5 5 -45 0 0 65 190" />
<path d="M 60 195 A 5 5 -45 0 1 65 200M 65 190 A 5 5 -45 0 0 70 195" />
<path d="M 65 200 A 5 5 -45 0 1 60 205M 70 205 A 5 5 -45 0 0 65 210" />
<path d="M 70 5 A 5 5 -45 0 1 75 10M 75 0 A 5 5 -45 0 0 80 5" />
<path d="M 70 15 A 5 5 -45 0 1 75 20M 75 10 A 5 5 -45 0 0 80 15" />
<path d="M 70 25 A 5 5 -45 0 1 75 30M 75 20 A 5 5 -45 0 0 80 25" />
<path d="M 75 30 A 5 5 -45 0 1 70 35M 80 35 A 5 5 -45 0 0 75 40" />
<path d="M 70 45 A 5 5 -45 0 1 75 50M 75 40 A 5 5 -45 0 0 80 45" />
<path d="M 70 55 A 5 5 -45 0 1 75 60M 75 50 A 5 5 -45 0 0 80 55" />
<path d="M 70 65 A 5 5 -45 0 1 75 70M 75 60 A 5 5 -45 0 0 80 65" />
<path d="M 75 70 A 5 5 -45 0 1 70 75M 80 75 A 5 5 -45 0 0 75 80" />
<path d="M 75 80 A 5 5 -45 0 1 70 85M 80 85 A 5 5 -45 0 0 75 90" />
<path d="M 75 90 A 5 5 -45 0 1 70 95M 80 95 A 5 5 -45 0 0 75 100" />
<path d="M 75 100 A 5 5 -45 0 1 70 105M 80 105 A 5 5 -45 0 0 75 110" />
<path d="M 70 115 A 5 5 -45 0 1 75 120M 75 110 A 5 5 -45 0 0 80 115" />
<path d="M 70 125 A 5 5 -45 0 1 75 130M 75 120 A 5 5 -45 0 0 80 125" />
<path d="M 70 135 A 5 5 -45 0 1 75 140M 75 130 A 5 5 -45 0 0 80 135" />
<path d="M 75 140 A 5 5 -45 0 1 70 145M 80 145 A 5 5 -45 0 0 75 150" />
<path d="M 75 150 A 5 5 -45 0 1 70 155M 80 155 A 5 5 -45 0 0 75 160" />
<path d="M 70 165 A 5 5 -45 0 1 75 170M 75 160 A 5 5 -45 0 0 80 165" />
<path d="M 70 175 A 5 5 -45 0 1 75 180M 75 170 A 5 5 -45 0 0 80 175" />
<path d="M 75 180 A 5 5 -45 0 1 70 185M 80 185 A 5 5 -45 0 0 75 190" />
<path d="M 75 190 A 5 5 -45 0 1 70 195M 80 195 A 5 5 -45 0 0 75 200" />
<path d="M 75 200 A 5 5 -45 0 1 70 205M 80 205 A 5 5 -45 0 0 75 210" />
<path d="M 80 5 A 5 5 -45 0 1 85 10M 85 0 A 5 5 -45 0 0 90 5" />
<path d="M 85 10 A 5 5 -45 0 1 80 15M 90 15 A 5 5 -45 0 0 85 20" />
<path d="M 85 20 A 5 5 -45 0 1 80 25M 90 25 A 5 5 -45 0 0 85 30" />
<path d="M 80 35 A 5 5 -45 0 1 85 40M 85 30 A 5 5 -45 0 0 90 35" />
<path d="M 80 45 A 5 5 -45 0 1 85 50M 85 40 A 5 5 -45 0 0 90 45" />
<path d="M 80 55 A 5 5 -45 0 1 85 60M 85 50 A 5 5 -45 0 0 90 55" />
<path d="M 85 60 A 5 5 -45 0 1 80 65M 90 65 A 5 5 -45 0 0 85 70" />
<path d="M 80 75 A 5 5 -45 0 1 85 80M 85 70 A 5 5 -45 0 0 90 75" />
<path d="M 80 85 A 5 5 -45 0 1 85 90M 85 80 A 5 5 -45 0 0 90 85" />
<path d="M 80 95 A 5 5 -45 0 1 85 100M 85 90 A 5 5 -45 0 0 90 95" />
<path d="M 85 100 A 5 5 -45 0 1 80 105M 90 105 A 5 5 -45 0 0 85 110" />
<path d="M 80 115 A 5 5 -45 0 1 85 120M 85 110 A 5 5 -45 0 0 90 115" />
<path d="M 85 120 A 5 5 -45 0 1 80 125M 90 125 A 5 5 -45 0 0 85 130" />
<path d="M 80 135 A 5 5 -45 0 1 85 140M 85 130 A 5 5 -45 0 0 90 135" />
<path d="M 80 145 A 5 5 -45 0 1 85 150M 85 140 A 5 5 -45 0 0 90 145" />
<path d="M 85 150 A 5 5 -45 0 1 80 155M 90 155 A 5 5 -45 0 0 85 160" />
<path d="M 80 165 A 5 5 -45 0 1 85 170M 85 160 A 5 5 -45 0 0 90 165" />
<path d="M 80 175 A 5 5 -45 0 1 85 180M 85 170 A 5 5 -45 0 0 90 175" />
<path d="M 80 185 A 5 5 -45 0 1 85 190M 85 180 A 5 5 -45 0 0 90 185" />
<path d="M 85 190 A 5 5 -45 0 1 80 195M 90 195 A 5 5 -45 0 0 85 200" />
<path d="M 80 205 A 5 5 -45 0 1 85 210M 85 200 A 5 5 -45 0 0 90 205" />
<path d="M 95 0 A 5 5 -45 0 1 90 5M 100 5 A 5 5 -45 0 0 95 10" />
<path d="M 95 10 A 5 5 -45 0 1 90 15M 100 15 A 5 5 -45 0 0 95 20" />
<path d="M 95 20 A 5 5 -45 0 1 90 25M 100 25 A 5 5 -45 0 0 95 30" />
<path d="M 95 30 A 5 5 -45 0 1 90 35M 100 35 A 5 5 -45 0 0 95 40" />
<path d="M 90 45 A 5 5 -45 0 1 95 50M 95 40 A 5 5 -45 0 0 100 45" />
<path d="M 95 50 A 5 5 -45 0 1 90 55M 100 55 A 5 5 -45 0 0 95 60" />
<path d="M 90 65 A 5 5 -45 0 1 95 70M 95 60 A 5 5 -45 0 0 100 65" />
<path d="M 95 70 A 5 5 -45 0 1 90 75M 100 75 A 5 5 -45 0 0 95 80" />
<path d="M 90 85 A 5 5 -45 0 1 95 90M 95 80 A 5 5 -45 0 0 100 85" />
<path d="M 95 90 A 5 5 -45 0 1 90 95M 100 95 A 5 5 -45 0 0 95 100" />
<path d="M 95 100 A 5 5 -45 0 1 90 105M 100 105 A 5 5 -45 0 0 95 110" />
<path d="M 90 115 A 5 5 -45 0 1 95 120M 95 110 A 5 5 -45 0 0 100 115" />
<path d="M 95 120 A 5 5 -45 0 1 90 125M 100 125 A 5 5 -45 0 0 95 130" />
<path d="M 95 130 A 5 5 -45 0 1 90 135M 100 135 A 5 5 -45 0 0 95 140" />
<path d="M 95 140 A 5 5 -45 0 1 90 145M 100 145 A 5 5 -45 0 0 95 150" />
<path d="M 90 155 A 5 5 -45 0 1 95 160M 95 150 A 5 5 -45 0 0 100 155" />
<path d="M 90 165 A 5 5 -45 0 1 95 170M 95 160 A 5 5 -45 0 0 100 165" />
<path d="M 95 170 A 5 5 -45 0 1 90 175M 100 175 A 5 5 -45 0 0 95 180" />
<path d="M 90 185 A 5 5 -45 0 1 95 190M 95 180 A 5 5 -45 0 0 100 185" />
<path d="M 95 190 A 5 5 -45 0 1 90 195M 100 195 A 5 5 -45 0 0 95 200" />
<path d="M 95 200 A 5 5 -45 0 1 90 205M 100 205 A 5 5 -45 0 0 95 210" />
<path d="M 100 5 A 5 5 -45 0 1 105 10M 105 0 A 5 5 -45 0 0 110 5" />
<path d="M 105 10 A 5 5 -45 0 1 100 15M 110 15 A 5 5 -45 0 0 105 20" />
<path d="M 100 25 A 5 5 -45 0 1 105 30M 105 20 A 5 5 -45 0 0 110 25" />
<path d="M 105 30 A 5 5 -45 0 1 100 35M 110 35 A 5 5 -45 0 0 105 40" />
<path d="M 100 45 A 5 5 -45 0 1 105 50M 105 40 A 5 5 -45 0 0 110 45" />
<path d="M 105 50 A 5 5 -45 0 1 100 55M 110 55 A 5 5 -45 0 0 105 60" />
<path d="M 105 60 A 5 5 -45 0 1 100 65M 110 65 A 5 5 -45 0 0 105 70" />
<path d="M 100 75 A 5 5 -45 0 1 105 80M 105 70 A 5 5 -45 0 0 110 75" />
<path d="M 105 80 A 5 5 -45 0 1 100 85M 110 85 A 5 5 -45 0 0 105 90" />
<path d="M 100 95 A 5 5 -45 0 1 105 100M 105 90 A 5 5 -45 0 0 110 95" />
<path d="M 100 105 A 5 5 -45 0 1 105 110M 105 100 A 5 5 -45 0 0 110 105" />
<path d="M 100 115 A 5 5 -45 0 1 105 120M 105 110 A 5 5 -45 0 0 110 115" />
<path d="M 100 125 A 5 5 -45 0 1 105 130M 105 120 A 5 5 -45 0 0 110 125" />
<path d="M 105 130 A 5 5 -45 0 1 100 135M 110 135 A 5 5 -45 0 0 105 140" />
<path d="M 100 145 A 5 5 -45 0 1 105 150M 105 140 A 5 5 -45 0 0 110 145" />
<path d="M 100 155 A 5 5 -45 0 1 105 160M 105 150 A 5 5 -45 0 0 110 155" />
<path d="M 100 165 A 5 5 -45 0 1 105 170M 105 160 A 5 5 -45 0 0 110 165" />
<path d="M 105 170 A 5 5 -45 0 1 100 175M 110 175 A 5 5 -45 0 0 105 180" />
<path d="M 100 185 A 5 5 -45 0 1 105 190M 105 180 A 5 5 -45 0 0 110 185" />
<path d="M 100 195 A 5 5 -45 0 1 105 200M 105 190 A 5 5 -45 0 0 110 195" />
<path d="M 105 200 A 5 5 -45 0 1 100 205M 110 205 A 5 5 -45 0 0 105 210" />
<path d="M 110 5 A 5 5 -45 0 1 115 10M 115 0 A 5 5 -45 0 0 120 5" />
<path d="M 110 15 A 5 5 -45 0 1 115 20M 115 10 A 5 5 -45 0 0 120 15" />
<path d="M 115 20 A 5 5 -45 0 1 110 25M 120 25 A 5 5 -45 0 0 115 30" />
<path d="M 110 35 A 5 5 -45 0 1 115 40M 115 30 A 5 5 -45 0 0 120 35" />
<path d="M 110 45 A 5 5 -45 0 1 115 50M 115 40 A 5 5 -45 0 0 120 45" />
<path d="M 110 55 A 5 5 -45 0 1 115 60M 115 50 A 5 5 -45 0 0 120 55" />
<path d="M 115 60 A 5 5 -45 0 1 110 65M 120 65 A 5 5 -45 0 0 115 70" />
<path d="M 110 75 A 5 5 -45 0 1 115 80M 115 70 A 5 5 -45 0 0 120 75" />
<path d="M 115 80 A 5 5 -45 0 1 110 85M 120 85 A 5 5 -45 0 0 115 90" />
<path d="M 115 90 A 5 5 -45 0 1 110 95M 120 95 A 5 5 -45 0 0 115 100" />
<path d="M 115 100 A 5 5 -45 0 1 110 105M 120 105 A 5 5 -45 0 0 115 110" />
<path d="M 110 115 A 5 5 -45 0 1 115 120M 115 110 A 5 5 -45 0 0 120 115" />
<path d="M 110 125 A 5 5 -45 0 1 115 130M 115 120 A 5 5 -45 0 0 120 125" />
<path d="M 110 135 A 5 5 -45 0 1 115 140M 115 130 A 5 5 -45 0 0 120 135" />
<path d="M 115 140 A 5 5 -45 0 1 110 145M 120 145 A 5 5 -45 0 0 115 150" />
<path d="M 115 150 A 5 5 -45 0 1 110 155M 120 155 A 5 5 -45 0 0 115 160" />
<path d="M 115 160 A 5 5 -45 0 1 110 165M 120 165 A 5 5 -45 0 0 115 170" />
<path d="M 110 175 A 5 5 -45 0 1 115 180M 115 170 A 5 5 -45 0 0 120 175" />
<path d="M 115 180 A 5 5 -45 0 1 110 185M 120 185 A 5 5 -45 0 0 115 190" />
<path d="M 115 190 A 5 5 -45 0 1 110 195M 120 195 A 5 5 -45 0 0 115 200" />
<path d="M 115 200 A 5 5 -45 0 1 110 205M 120 205 A 5 5 -45 0 0 115 210" />
<path d="M 125 0 A 5 5 -45 0 1 120 5M 130 5 A 5 5 -45 0 0 125 10" />
<path d="M 125 10 A 5 5 -45 0 1 120 15M 130 15 A 5 5 -45 0 0 125 20" />
<path d="M 125 20 A 5 5 -45 0 1 120 25M 130 25 A 5 5 -45 0 0 125 30" />
<path d="M 120 35 A 5 5 -45 0 1 125 40M 125 30 A 5 5 -45 0 0 130 35" />
<path d="M 125 40 A 5 5 -45 0 1 120 45M 130 45 A 5 5 -45 0 0 125 50" />
<path d="M 120 55 A 5 5 -45 0 1 125 60M 125 50 A 5 5 -45 0 0 130 55" />
<path d="M 120 65 A 5 5 -45 0 1 125 70M 125 60 A 5 5 -45 0 0 130 65" />
<path d="M 120 75 A 5 5 -45 0 1 125 80M 125 70 A 5 5 -45 0 0 130 75" />
<path d="M 125 80 A 5 5 -45 0 1 120 85M 130 85 A 5 5 -45 0 0 125 90" />
<path d="M 120 95 A 5 5 -45 0 1 125 100M 125 90 A 5 5 -45 0 0 130 95" />
<path d="M 125 100 A 5 5 -45 0 1 120 105M 130 105 A 5 5 -45 0 0 125 110" />
<path d="M 120 115 A 5 5 -45 0 1 125 120M 125 110 A 5 5 -45 0 0 130 115" />
<path d="M 120 125 A 5 5 -45 0 1 125 130M 125 120 A 5 5 -45 0 0 130 125" />
<path d="M 125 130 A 5 5 -45 0 1 120 135M 130 135 A 5 5 -45 0 0 125 140" />
<path d="M 125 140 A 5 5 -45 0 1 120 145M 130 145 A 5 5 -45 0 0 125 150" />
<path d="M 120 155 A 5 5 -45 0 1 125 160M 125 150 A 5 5 -45 0 0 130 155" />
<path d="M 120 165 A 5 5 -45 0 1 125 170M 125 160 A 5 5 -45 0 0 130 165" />
<path d="M 120 175 A 5 5 -45 0 1 125 180M 125 170 A 5 5 -45 0 0 130 175" />
<path d="M 125 180 A 5 5 -45 0 1 120 185M 130 185 A 5 5 -45 0 0 125 190" />
<path d="M 125 190 A 5 5 -45 0 1 120 195M 130 195 A 5 5 -45 0 0 125 200" />
<path d="M 125 200 A 5 5 -45 0 1 120 205M 130 205 A 5 5 -45 0 0 125 210" />
<path d="M 135 0 A 5 5 -45 0 1 130 5M 140 5 A 5 5 -45 0 0 135 10" />
<path d="M 135 10 A 5 5 -45 0 1 130 15M 140 15 A 5 5 -45 0 0 135 20" />
<path d="M 135 20 A 5 5 -45 0 1 130 25M 140 25 A 5 5 -45 0 0 135 30" />
<path d="M 130 35 A 5 5 -45 0 1 135 40M 135 30 A 5 5 -45 0 0 140 35" />
<path d="M 130 45 A 5 5 -45 0 1 135 50M 135 40 A 5 5 -45 0 0 140 45" />
<path d="M 135 50 A 5 5 -45 0 1 130 55M 140 55 A 5 5 -45 0 0 135 60" />
<path d="M 130 65 A 5 5 -45 0 1 135 70M 135 60 A 5 5 -45 0 0 140 65" />
<path d="M 130 75 A 5 5 -45 0 1 135 80M 135 70 A 5 5 -45 0 0 140 75" />
<path d="M 130 85 A 5 5 -45 0 1 135 90M 135 80 A 5 5 -45 0 0 140 85" />
<path d="M 135 90 A 5 5 -45 0 1 130 95M 140 95 A 5 5 -45 0 0 135 100" />
<path d="M 130 105 A 5 5 -45 0 1 135 110M 135 100 A 5 5 -45 0 0 140 105" />
<path d="M 130 115 A 5 5 -45 0 1 135 120M 135 110 A 5 5 -45 0 0 140 115" />
<path d="M 135 120 A 5 5 -45 0 1 130 125M 140 125 A 5 5 -45 0 0 135 130" />
<path d="M 135 130 A 5 5 -45 0 1 130 135M 140 135 A 5 5 -45 0 0 135 140" />
<path d="M 135 140 A 5 5 -45 0 1 130 145M 140 145 A 5 5 -45 0 0 135 150" />
<path d="M 135 150 A 5 5 -45 0 1 130 155M 140 155 A 5 5 -45 0 0 135 160" />
<path d="M 130 165 A 5 5 -45 0 1 135 170M 135 160 A 5 5 -45 0 0 140 165" />
<path d="M 135 170 A 5 5 -45 0 1 130 175M 140 175 A 5 5 -45 0 0 135 180" />
<path d="M 130 185 A 5 5 -45 0 1 135 190M 135 180 A 5 5 -45 0 0 140 185" />
<path d="M 135 190 A 5 5 -45 0 1 130 195M 140 195 A 5 5 -45 0 0 135 200" />
<path d="M 130 205 A 5 5 -45 0 1 135 210M 135 200 A 5 5 -45 0 0 140 205" />
<path d="M 145 0 A 5 5 -45 0 1 140 5M 150 5 A 5 5 -45 0 0 145 10" />
<path d="M 140 15 A 5 5 -45 0 1 145 20M 145 10 A 5 5 -45 0 0 150 15" />
<path d="M 145 20 A 5 5 -45 0 1 140 25M 150 25 A 5 5 -45 0 0 145 30" />
<path d="M 145 30 A 5 5 -45 0 1 140 35M 150 35 A 5 5 -45 0 0 145 40" />
<path d="M 140 45 A 5 5 -45 0 1 145 50M 145 40 A 5 5 -45 0 0 150 45" />
<path d="M 145 50 A 5 5 -45 0 1 140 55M 150 55 A 5 5 -45 0 0 145 60" />
<path d="M 145 60 A 5 5 -45 0 1 140 65M 150 65 A 5 5 -45 0 0 145 70" />
<path d="M 140 75 A 5 5 -45 0 1 145 80M 145 70 A 5 5 -45 0 0 150 75" />
<path d="M 145 80 A 5 5 -45 0 1 140 85M 150 85 A 5 5 -45 0 0 145 90" />
<path d="M 145 90 A 5 5 -45 0 1 140 95M 150 95 A 5 5 -45 0 0 145 100" />
<path d="M 145 100 A 5 5 -45 0 1 140 105M 150 105 A 5 5 -45 0 0 145 110" />
<path d="M 140 115 A 5 5 -45 0 1 145 120M 145 110 A 5 5 -45 0 0 150 115" />
<path d="M 140 125 A 5 5 -45 0 1 145 130M 145 120 A 5 5 -45 0 0 150 125" />
<path d="M 145 130 A 5 5 -45 0 1 140 135M 150 135 A 5 5 -45 0 0 145 140" />
<path d="M 140 145 A 5 5 -45 0 1 145 150M 145 140 A 5 5 -45 0 0 150 145" />
<path d="M 140 155 A 5 5 -45 0 1 145 160M 145 150 A 5 5 -45 0 0 150 155" />
<path d="M 145 160 A 5 5 -45 0 1 140 165M 150 165 A 5 5 -45 0 0 145 170" />
<path d="M 145 170 A 5 5 -45 0 1 140 175M 150 175 A 5 5 -45 0 0 145 180" />
<path d="M 140 185 A 5 5 -45 0 1 145 190M 145 180 A 5 5 -45 0 0 150 185" />
<path d="M 140 195 A 5 5 -45 0 1 145 200M 145 190 A 5 5 -45 0 0 150 195" />
<path d="M 140 205 A 5 5 -45 0 1 145 210M 145 200 A 5 5 -45 0 0 150 205" />
<path d="M 155 0 A 5 5 -45 0 1 150 5M 160 5 A 5 5 -45 0 0 155 10" />
<path d="M 150 15 A 5 5 -45 0 1 155 20M 155 10 A 5 5 -45 0 0 160 15" />
<path d="M 150 25 A 5 5 -45 0 1 155 30M 155 20 A 5 5 -45 0 0 160 25" />
<path d="M 155 30 A 5 5 -45 0 1 150 35M 160 35 A 5 5 -45 0 0 155 40" />
<path d="M 150 45 A 5 5 -45 0 1 155 50M 155 40 A 5 5 -45 0 0 160 45" />
<path d="M 150 55 A 5 5 -45 0 1 155 60M 155 50 A 5 5 -45 0 0 160 55" />
<path d="M 150 65 A 5 5 -45 0 1 155 70M 155 60 A 5 5 -45 0 0 160 65" />
<path d="M 155 70 A 5 5 -45 0 1 150 75M 160 75 A 5 5 -45 0 0 155 80" />
<path d="M 150 85 A 5 5 -45 0 1 155 90M 155 80 A 5 5 -45 0 0 160 85" />
<path d="M 155 90 A 5 5 -45 0 1 150 95M 160 95 A 5 5 -45 0 0 155 100" />
<path d="M 150 105 A 5 5 -45 0 1 155 110M 155 100 A 5 5 -45 0 0 160 105" />
<path d="M 155 110 A 5 5 -45 0 1 150 115M 160 115 A 5 5 -45 0 0 155 120" />
<path d="M 150 125 A 5 5 -45 0 1 155 130M 155 120 A 5 5 -45 0 0 160 125" />
<path d="M 155 130 A 5 5 -45 0 1 150 135M 160 135 A 5 5 -45 0 0 155 140" />
<path d="M 155 140 A 5 5 -45 0 1 150 145M 160 145 A 5 5 -45 0 0 155 150" />
<path d="M 150 155 A 5 5 -45 0 1 155 160M 155 150 A 5 5 -45 0 0 160 155" />
<path d="M 155 160 A 5 5 -45 0 1 150 165M 160 165 A 5 5 -45 0 0 155 170" />
<path d="M 150 175 A 5 5 -45 0 1 155 180M 155 170 A 5 5 -45 0 0 160 175" />
<path d="M 150 185 A 5 5 -45 0 1 155 190M 155 180 A 5 5 -45 0 0 160 185" />
<path d="M 155 190 A 5 5 -45 0 1 150 195M 160 195 A 5 5 -45 0 0 155 200" />
<path d="M 155 200 A 5 5 -45 0 1 150 205M 160 205 A 5 5 -45 0 0 155 210" />
<path d="M 165 0 A 5 5 -45 0 1 160 5M 170 5 A 5 5 -45 0 0 165 10" />
<path d="M 165 10 A 5 5 -45 0 1 160 15M 170 15 A 5 5 -45 0 0 165 20" />
<path d="M 165 20 A 5 5 -45 0 1 160 25M 170 25 A 5 5 -45 0 0 165 30" />
<path d="M 160 35 A 5 5 -45 0 1 165 40M 165 30 A 5 5 -45 0 0 170 35" />
<path d="M 160 45 A 5 5 -45 0 1 165 50M 165 40 A 5 5 -45 0 0 170 45" />
<path d="M 165 50 A 5 5 -45 0 1 160 55M 170 55 A 5 5 -45 0 0 165 60" />
<path d="M 165 60 A 5 5 -45 0 1 160 65M 170 65 A 5 5 -45 0 0 165 70" />
<path d="M 160 75 A 5 5 -45 0 1 165 80M 165 70 A 5 5 -45 0 0 170 75" />
<path d="M 160 85 A 5 5 -45 0 1 165 90M 165 80 A 5 5 -45 0 0 170 85" />
<path d="M 160 95 A 5 5 -45 0 1 165 100M 165 90 A 5 5 -45 0 0 170 95" />
<path d="M 165 100 A 5 5 -45 0 1 160 105M 170 105 A 5 5 -45 0 0 165 110" />
<path d="M 160 115 A 5 5 -45 0 1 165 120M 165 110 A 5 5 -45 0 0 170 115" />
<path d="M 160 125 A 5 5 -45 0 1 165 130M 165 120 A 5 5 -45 0 0 170 125" />
<path d="M 160 135 A 5 5 -45 0 1 165 140M 165 130 A 5 5 -45 0 0 170 135" />
<path d="M 160 145 A 5 5 -45 0 1 165 150M 165 140 A 5 5 -45 0 0 170 145" />
<path d="M 160 155 A 5 5 -45 0 1 165 160M 165 150 A 5 5 -45 0 0 170 155" />
<path d="M 165 160 A 5 5 -45 0 1 160 165M 170 165 A 5 5 -45 0 0 165 170" />
<path d="M 160 175 A 5 5 -45 0 1 165 180M 165 170 A 5 5 -45 0 0 170 175" />
<path d="M 160 185 A 5 5 -45 0 1 165 190M 165 180 A 5 5 -45 0 0 170 185" />
<path d="M 160 195 A 5 5 -45 0 1 165 200M 165 190 A 5 5 -45 0 0 170 195" />
<path d="M 160 205 A 5 5 -45 0 1 165 210M 165 200 A 5 5 -45 0 0 170 205" />
<path d="M 170 5 A 5 5 -45 0 1 175 10M 175 0 A 5 5 -45 0 0 180 5" />
<path d="M 170 15 A 5 5 -45 0 1 175 20M 175 10 A 5 5 -45 0 0 180 15" />
<path d="M 175 20 A 5 5 -45 0 1 170 25M 180 25 A 5 5 -45 0 0 175 30" />
<path d="M 175 30 A 5 5 -45 0 1 170 35M 180 35 A 5 5 -45 0 0 175 40" />
<path d="M 170 45 A 5 5 -45 0 1 175 50M 175 40 A 5 5 -45 0 0 180 45" />
<path d="M 170 55 A 5 5 -45 0 1 175 60M 175 50 A 5 5 -45 0 0 180 55" />
<path d="M 175 60 A 5 5 -45 0 1 170 65M 180 65 A 5 5 -45 0 0 175 70" />
<path d="M 175 70 A 5 5 -45 0 1 170 75M 180 75 A 5 5 -45 0 0 175 80" />
<path d="M 175 80 A 5 5 -45 0 1 170 85M 180 85 A 5 5 -45 0 0 175 90" />
<path d="M 170 95 A 5 5 -45 0 1 175 100M 175 90 A 5 5 -45 0 0 180 95" />
<path d="M 170 105 A 5 5 -45 0 1 175 110M 175 100 A 5 5 -45 0 0 180 105" />
<path d="M 170 115 A 5 5 -45 0 1 175 120M 175 110 A 5 5 -45 0 0 180 115" />
<path d="M 170 125 A 5 5 -45 0 1 175 130M 175 120 A 5 5 -45 0 0 180 125" />
<path d="M 170 135 A 5 5 -45 0 1 175 140M 175 130 A 5 5 -45 0 0 180 135" />
<path d="M 170 145 A 5 5 -45 0 1 175 150M 175 140 A 5 5 -45 0 0 180 145" />
<path d="M 170 155 A 5 5 -45 0 1 175 160M 175 150 A 5 5 -45 0 0 180 155" />
<path d="M 170 165 A 5 5 -45 0 1 175 170M 175 160 A 5 5 -45 0 0 180 165" />
<path d="M 170 175 A 5 5 -45 0 1 175 180M 175 170 A 5 5 -45 0 0 180 175" />
<path d="M 175 180 A 5 5 -45 0 1 170 185M 180 185 A 5 5 -45 0 0 175 190" />
<path d="M 170 195 A 5 5 -45 0 1 175 200M 175 190 A 5 5 -45 0 0 180 195" />
<path d="M 170 205 A 5 5 -45 0 1 175 210M 175 200 A 5 5 -45 0 0 180 205" />
<path d="M 180 5 A 5 5 -45 0 1 185 10M 185 0 A 5 5 -45 0 0 190 5" />
<path d="M 180 15 A 5 5 -45 0 1 185 20M 185 10 A 5 5 -45 0 0 190 15" />
<path d="M 185 20 A 5 5 -45 0 1 180 25M 190 25 A 5 5 -45 0 0 185 30" />
<path d="M 180 35 A 5 5 -45 0 1 185 40M 185 30 A 5 5 -45 0 0 190 35" />
<path d="M 180 45 A 5 5 -45 0 1 185 50M 185 40 A 5 5 -45 0 0 190 45" />
<path d="M 180 55 A 5 5 -45 0 1 185 60M 185 50 A 5 5 -45 0 0 190 55" />
<path d="M 185 60 A 5 5 -45 0 1 180 65M 190 65 A 5 5 -45 0 0 185 70" />
<path d="M 185 70 A 5 5 -45 0 1 180 75M 190 75 A 5 5 -45 0 0 185 80" />
<path d="M 180 85 A 5 5 -45 0 1 185 90M 185 80 A 5 5 -45 0 0 190 85" />
<path d="M 185 90 A 5 5 -45 0 1 180 95M 190 95 A 5 5 -45 0 0 185 100" />
<path d="M 185 100 A 5 5 -45 0 1 180 105M 190 105 A 5 5 -45 0 0 185 110" />
<path d="M 180 115 A 5 5 -45 0 1 185 120M 185 110 A 5 5 -45 0 0 190 115" />
<path d="M 185 120 A 5 5 -45 0 1 180 125M 190 125 A 5 5 -45 0 0 185 130" />
<path d="M 185 130 A 5 5 -45 0 1 180 135M 190 135 A 5 5 -45 0 0 185 140" />
<path d="M 180 145 A 5 5 -45 0 1 185 150M 185 140 A 5 5 -45 0 0 190 145" />
<path d="M 185 150 A 5 5 -45 0 1 180 155M 190 155 A 5 5 -45 0 0 185 160" />
<path d="M 185 160 A 5 5 -45 0 1 180 165M 190 165 A 5 5 -45 0 0 185 170" />
<path d="M 185 170 A 5 5 -45 0 1 180 175M 190 175 A 5 5 -45 0 0 185 180" />
<path d="M 180 185 A 5 5 -45 0 1 185 190M 185 180 A 5 5 -45 0 0 190 185" />
<path d="M 180 195 A 5 5 -45 0 1 185 200M 185 190 A 5 5 -45 0 0 190 195" />
<path d="M 180 205 A 5 5 -45 0 1 185 210M 185 200 A 5 5 -45 0 0 190 205" />
<path d="M 190 5 A 5 5 -45 0 1 195 10M 195 0 A 5 5 -45 0 0 200 5" />
<path d="M 190 15 A 5 5 -45 0 1 195 20M 195 10 A 5 5 -45 0 0 200 15" />
<path d="M 195 20 A 5 5 -45 0 1 190 25M 200 25 A 5 5 -45 0 0 195 30" />
<path d="M 195 30 A 5 5 -45 0 1 190 35M 200 35 A 5 5 -45 0 0 195 40" />
<path d="M 195 40 A 5 5 -45 0 1 190 45M 200 45 A 5 5 -45 0 0 195 50" />
<path d="M 195 50 A 5 5 -45 0 1 190 55M 200 55 A 5 5 -45 0 0 195 60" />
<path d="M 195 60 A 5 5 -45 0 1 190 65M 200 65 A 5 5 -45 0 0 195 70" />
<path d="M 190 75 A 5 5 -45 0 1 195 80M 195 70 A 5 5 -45 0 0 200 75" />
<path d="M 195 80 A 5 5 -45 0 1 190 85M 200 85 A 5 5 -45 0 0 195 90" />
<path d="M 190 95 A 5 5 -45 0 1 195 100M 195 90 A 5 5 -45 0 0 200 95" />
<path d="M 190 105 A 5 5 -45 0 1 195 110M 195 100 A 5 5 -45 0 0 200 105" />
<path d="M 195 110 A 5 5 -45 0 1 190 115M 200 115 A 5 5 -45 0 0 195 120" />
<path d="M 195 120 A 5 5 -45 0 1 190 125M 200 125 A 5 5 -45 0 0 195 130" />
<path d="M 190 135 A 5 5 -45 0 1 195 140M 195 130 A 5 5 -45 0 0 200 135" />
<path d="M 190 145 A 5 5 -45 0 1 195 150M 195 140 A 5 5 -45 0 0 200 145" />
<path d="M 190 155 A 5 5 -45 0 1 195 160M 195 150 A 5 5 -45 0 0 200 155" />
<path d="M 195 160 A 5 5 -45 0 1 190 165M 200 165 A 5 5 -45 0 0 195 170" />
<path d="M 190 175 A 5 5 -45 0 1 195 180M 195 170 A 5 5 -45 0 0 200 175" />
<path d="M 195 180 A 5 5 -45 0 1 190 185M 200 185 A 5 5 -45 0 0 195 190" />
<path d="M 195 190 A 5 5 -45 0 1 190 195M 200 195 A 5 5 -45 0 0 195 200" />
<path d="M 195 200 A 5 5 -45 0 1 190 205M 200 205 A 5 5 -45 0 0 195 210" />
<path d="M 205 0 A 5 5 -45 0 1 200 5M 210 5 A 5 5 -45 0 0 205 10" />
<path d="M 200 15 A 5 5 -45 0 1 205 20M 205 10 A 5 5 -45 0 0 210 15" />
<path d="M 200 25 A 5 5 -45 0 1 205 30M 205 20 A 5 5 -45 0 0 210 25" />
<path d="M 205 30 A 5 5 -45 0 1 200 35M 210 35 A 5 5 -45 0 0 205 40" />
<path d="M 205 40 A 5 5 -45 0 1 200 45M 210 45 A 5 5 -45 0 0 205 50" />
<path d="M 205 50 A 5 5 -45 0 1 200 55M 210 55 A 5 5 -45 0 0 205 60" />
<path d="M 200 65 A 5 5 -45 0 1 205 70M 205 60 A 5 5 -45 0 0 210 65" />
<path d="M 205 70 A 5 5 -45 0 1 200 75M 210 75 A 5 5 -45 0 0 205 80" />
<path d="M 205 80 A 5 5 -45 0 1 200 85M 210 85 A 5 5 -45 0 0 205 90" />
<path d="M 205 90 A 5 5 -45 0 1 200 95M 210 95 A 5 5 -45 0 0 205 100" />
<path d="M 205 100 A 5 5 -45 0 1 200 105M 210 105 A 5 5 -45 0 0 205 110" />
<path d="M 205 110 A 5 5 -45 0 1 200 115M 210 115 A 5 5 -45 0 0 205 120" />
<path d="M 205 120 A 5 5 -45 0 1 200 125M 210 125 A 5 5 -45 0 0 205 130" />
<path d="M 200 135 A 5 5 -45 0 1 205 140M 205 130 A 5 5 -45 0 0 210 135" />
<path d="M 205 140 A 5 5 -45 0 1 200 145M 210 145 A 5 5 -45 0 0 205 150" />
<path d="M 205 150 A 5 5 -45 0 1 200 155M 210 155 A 5 5 -45 0 0 205 160" />
<path d="M 200 165 A 5 5 -45 0 1 205 170M 205 160 A 5 5 -45 0 0 210 165" />
<path d="M 200 175 A 5 5 -45 0 1 205 180M 205 170 A 5 5 -45 0 0 210 175" />
<path d="M 205 180 A 5 5 -45 0 1 200 185M 210 185 A 5 5 -45 0 0 205 190" />
<path d="M 200 195 A 5 5 -45 0 1 205 200M 205 190 A 5 5 -45 0 0 210 195" />
<path d="M 205 200 A 5 5 -45 0 1 200 205M 210 205 A 5 5 -45 0 0 205 210" />
</svg>
