<svg viewBox="-5 -5 220 220" style="stroke-width:3 ;stroke:royalblue; fill:none" xmlns="http://www.w3.org/2000/svg">
<path d="M 5 0 A 5 5 -45 0 1 0 5M 10 5 A 5 5 -45 0 0 5 10" style="stroke:royalblue"  />
<path d="M 5 10 A 5 5 -45 0 1 0 15M 10 15 A 5 5 -45 0 0 5 20" style="stroke:royalblue"  />
<path d="M 5 20 A 5 5 -45 0 1 0 25M 10 25 A 5 5 -45 0 0 5 30" style="stroke:royalblue"  />
<path d="M 5 30 A 5 5 -45 0 1 0 35M 10 35 A 5 5 -45 0 0 5 40" style="stroke:royalblue"  />
<path d="M 0 45 A 5 5 -45 0 1 5 50M 5 40 A 5 5 -45 0 0 10 45" style="stroke:royalblue"  />
<path d="M 0 55 A 5 5 -45 0 1 5 60M 5 50 A 5 5 -45 0 0 10 55" style="stroke:royalblue"  />
<path d="M 5 60 A 5 5 -45 0 1 0 65M 10 65 A 5 5 -45 0 0 5 70" style="stroke:royalblue"  />
<path d="M 0 75 A 5 5 -45 0 1 5 80M 5 70 A 5 5 -45 0 0 10 75" style="stroke:royalblue"  />
<path d="M 0 85 A 5 5 -45 0 1 5 90M 5 80 A 5 5 -45 0 0 10 85" style="stroke:royalblue"  />
<path d="M 5 90 A 5 5 -45 0 1 0 95M 10 95 A 5 5 -45 0 0 5 100" style="stroke:royalblue"  />
<path d="M 0 105 A 5 5 -45 0 1 5 110M 5 100 A 5 5 -45 0 0 10 105" style="stroke:royalblue"  />
<path d="M 0 115 A 5 5 -45 0 1 5 120M 5 110 A 5 5 -45 0 0 10 115" style="stroke:royalblue"  />
<path d="M 5 120 A 5 5 -45 0 1 0 125M 10 125 A 5 5 -45 0 0 5 130" style="stroke:royalblue"  />
<path d="M 0 135 A 5 5 -45 0 1 5 140M 5 130 A 5 5 -45 0 0 10 135" style="stroke:royalblue"  />
<path d="M 0 145 A 5 5 -45 0 1 5 150M 5 140 A 5 5 -45 0 0 10 145" style="stroke:royalblue"  />
<path d="M 5 150 A 5 5 -45 0 1 0 155M 10 155 A 5 5 -45 0 0 5 160" style="stroke:royalblue"  />
<path d="M 0 165 A 5 5 -45 0 1 5 170M 5 160 A 5 5 -45 0 0 10 165" style="stroke:royalblue"  />
<path d="M 5 170 A 5 5 -45 0 1 0 175M 10 175 A 5 5 -45 0 0 5 180" style="stroke:royalblue"  />
<path d="M 0 185 A 5 5 -45 0 1 5 190M 5 180 A 5 5 -45 0 0 10 185" style="stroke:royalblue"  />
<path d="M 0 195 A 5 5 -45 0 1 5 200M 5 190 A 5 5 -45 0 0 10 195" style="stroke:royalblue"  />
<path d="M 5 200 A 5 5 -45 0 1 0 205M 10 205 A 5 5 -45 0 0 5 210" style="stroke:royalblue"  />
<path d="M 15 0 A 5 5 -45 0 1 10 5M 20 5 A 5 5 -45 0 0 15 10" style="stroke:royalblue"  />
<path d="M 10 15 A 5 5 -45 0 1 15 20M 15 10 A 5 5 -45 0 0 20 15" style="stroke:royalblue"  />
<path d="M 15 20 A 5 5 -45 0 1 10 25M 20 25 A 5 5 -45 0 0 15 30" style="stroke:royalblue"  />
<path d="M 10 35 A 5 5 -45 0 1 15 40M 15 30 A 5 5 -45 0 0 20 35" style="stroke:royalblue"  />
<path d="M 15 40 A 5 5 -45 0 1 10 45M 20 45 A 5 5 -45 0 0 15 50" style="stroke:royalblue"  />
<path d="M 15 50 A 5 5 -45 0 1 10 55M 20 55 A 5 5 -45 0 0 15 60" style="stroke:royalblue"  />
<path d="M 10 65 A 5 5 -45 0 1 15 70M 15 60 A 5 5 -45 0 0 20 65" style="stroke:royalblue"  />
<path d="M 15 70 A 5 5 -45 0 1 10 75M 20 75 A 5 5 -45 0 0 15 80" style="stroke:royalblue"  />
<path d="M 15 80 A 5 5 -45 0 1 10 85M 20 85 A 5 5 -45 0 0 15 90" style="stroke:royalblue"  />
<path d="M 10 95 A 5 5 -45 0 1 15 100M 15 90 A 5 5 -45 0 0 20 95" style="stroke:royalblue"  />
<path d="M 10 105 A 5 5 -45 0 1 15 110M 15 100 A 5 5 -45 0 0 20 105" style="stroke:royalblue"  />
<path d="M 15 110 A 5 5 -45 0 1 10 115M 20 115 A 5 5 -45 0 0 15 120" style="stroke:royalblue"  />
<path d="M 15 120 A 5 5 -45 0 1 10 125M 20 125 A 5 5 -45 0 0 15 130" style="stroke:royalblue"  />
<path d="M 10 135 A 5 5 -45 0 1 15 140M 15 130 A 5 5 -45 0 0 20 135" style="stroke:royalblue"  />
<path d="M 10 145 A 5 5 -45 0 1 15 150M 15 140 A 5 5 -45 0 0 20 145" style="stroke:royalblue"  />
<path d="M 10 155 A 5 5 -45 0 1 15 160M 15 150 A 5 5 -45 0 0 20 155" style="stroke:royalblue"  />
<path d="M 10 165 A 5 5 -45 0 1 15 170M 15 160 A 5 5 -45 0 0 20 165" style="stroke:royalblue"  />
<path d="M 10 175 A 5 5 -45 0 1 15 180M 15 170 A 5 5 -45 0 0 20 175" style="stroke:royalblue"  />
<path d="M 10 185 A 5 5 -45 0 1 15 190M 15 180 A 5 5 -45 0 0 20 185" style="stroke:royalblue"  />
<path d="M 15 190 A 5 5 -45 0 1 10 195M 20 195 A 5 5 -45 0 0 15 200" style="stroke:royalblue"  />
<path d="M 15 200 A 5 5 -45 0 1 10 205M 20 205 A 5 5 -45 0 0 15 210" style="stroke:royalblue"  />
<path d="M 25 0 A 5 5 -45 0 1 20 5M 30 5 A 5 5 -45 0 0 25 10" style="stroke:royalblue"  />
<path d="M 20 15 A 5 5 -45 0 1 25 20M 25 10 A 5 5 -45 0 0 30 15" style="stroke:royalblue"  />
<path d="M 25 20 A 5 5 -45 0 1 20 25M 30 25 A 5 5 -45 0 0 25 30" style="stroke:royalblue"  />
<path d="M 20 35 A 5 5 -45 0 1 25 40M 25 30 A 5 5 -45 0 0 30 35" style="stroke:royalblue"  />
<path d="M 20 45 A 5 5 -45 0 1 25 50M 25 40 A 5 5 -45 0 0 30 45" style="stroke:royalblue"  />
<path d="M 20 55 A 5 5 -45 0 1 25 60M 25 50 A 5 5 -45 0 0 30 55" style="stroke:royalblue"  />
<path d="M 25 60 A 5 5 -45 0 1 20 65M 30 65 A 5 5 -45 0 0 25 70" style="stroke:royalblue"  />
<path d="M 20 75 A 5 5 -45 0 1 25 80M 25 70 A 5 5 -45 0 0 30 75" style="stroke:royalblue"  />
<path d="M 25 80 A 5 5 -45 0 1 20 85M 30 85 A 5 5 -45 0 0 25 90" style="stroke:royalblue"  />
<path d="M 20 95 A 5 5 -45 0 1 25 100M 25 90 A 5 5 -45 0 0 30 95" style="stroke:royalblue"  />
<path d="M 25 100 A 5 5 -45 0 1 20 105M 30 105 A 5 5 -45 0 0 25 110" style="stroke:royalblue"  />
<path d="M 25 110 A 5 5 -45 0 1 20 115M 30 115 A 5 5 -45 0 0 25 120" style="stroke:royalblue"  />
<path d="M 25 120 A 5 5 -45 0 1 20 125M 30 125 A 5 5 -45 0 0 25 130" style="stroke:royalblue"  />
<path d="M 20 135 A 5 5 -45 0 1 25 140M 25 130 A 5 5 -45 0 0 30 135" style="stroke:royalblue"  />
<path d="M 25 140 A 5 5 -45 0 1 20 145M 30 145 A 5 5 -45 0 0 25 150" style="stroke:royalblue"  />
<path d="M 20 155 A 5 5 -45 0 1 25 160M 25 150 A 5 5 -45 0 0 30 155" style="stroke:royalblue"  />
<path d="M 25 160 A 5 5 -45 0 1 20 165M 30 165 A 5 5 -45 0 0 25 170" style="stroke:royalblue"  />
<path d="M 20 175 A 5 5 -45 0 1 25 180M 25 170 A 5 5 -45 0 0 30 175" style="stroke:royalblue"  />
<path d="M 20 185 A 5 5 -45 0 1 25 190M 25 180 A 5 5 -45 0 0 30 185" style="stroke:royalblue"  />
<path d="M 25 190 A 5 5 -45 0 1 20 195M 30 195 A 5 5 -45 0 0 25 200" style="stroke:royalblue"  />
<path d="M 25 200 A 5 5 -45 0 1 20 205M 30 205 A 5 5 -45 0 0 25 210" style="stroke:royalblue"  />
<path d="M 35 0 A 5 5 -45 0 1 30 5M 40 5 A 5 5 -45 0 0 35 10" style="stroke:royalblue"  />
<path d="M 35 10 A 5 5 -45 0 1 30 15M 40 15 A 5 5 -45 0 0 35 20" style="stroke:royalblue"  />
<path d="M 35 20 A 5 5 -45 0 1 30 25M 40 25 A 5 5 -45 0 0 35 30" style="stroke:royalblue"  />
<path d="M 35 30 A 5 5 -45 0 1 30 35M 40 35 A 5 5 -45 0 0 35 40" style="stroke:royalblue"  />
<path d="M 35 40 A 5 5 -45 0 1 30 45M 40 45 A 5 5 -45 0 0 35 50" style="stroke:royalblue"  />
<path d="M 35 50 A 5 5 -45 0 1 30 55M 40 55 A 5 5 -45 0 0 35 60" style="stroke:royalblue"  />
<path d="M 30 65 A 5 5 -45 0 1 35 70M 35 60 A 5 5 -45 0 0 40 65" style="stroke:royalblue"  />
<path d="M 35 70 A 5 5 -45 0 1 30 75M 40 75 A 5 5 -45 0 0 35 80" style="stroke:royalblue"  />
<path d="M 30 85 A 5 5 -45 0 1 35 90M 35 80 A 5 5 -45 0 0 40 85" style="stroke:royalblue"  />
<path d="M 30 95 A 5 5 -45 0 1 35 100M 35 90 A 5 5 -45 0 0 40 95" style="stroke:royalblue"  />
<path d="M 35 100 A 5 5 -45 0 1 30 105M 40 105 A 5 5 -45 0 0 35 110" style="stroke:royalblue"  />
<path d="M 35 110 A 5 5 -45 0 1 30 115M 40 115 A 5 5 -45 0 0 35 120" style="stroke:royalblue"  />
<path d="M 30 125 A 5 5 -45 0 1 35 130M 35 120 A 5 5 -45 0 0 40 125" style="stroke:royalblue"  />
<path d="M 35 130 A 5 5 -45 0 1 30 135M 40 135 A 5 5 -45 0 0 35 140" style="stroke:royalblue"  />
<path d="M 30 145 A 5 5 -45 0 1 35 150M 35 140 A 5 5 -45 0 0 40 145" style="stroke:royalblue"  />
<path d="M 30 155 A 5 5 -45 0 1 35 160M 35 150 A 5 5 -45 0 0 40 155" style="stroke:royalblue"  />
<path d="M 30 165 A 5 5 -45 0 1 35 170M 35 160 A 5 5 -45 0 0 40 165" style="stroke:royalblue"  />
<path d="M 30 175 A 5 5 -45 0 1 35 180M 35 170 A 5 5 -45 0 0 40 175" style="stroke:royalblue"  />
<path d="M 30 185 A 5 5 -45 0 1 35 190M 35 180 A 5 5 -45 0 0 40 185" style="stroke:royalblue"  />
<path d="M 35 190 A 5 5 -45 0 1 30 195M 40 195 A 5 5 -45 0 0 35 200" style="stroke:royalblue"  />
<path d="M 30 205 A 5 5 -45 0 1 35 210M 35 200 A 5 5 -45 0 0 40 205" style="stroke:royalblue"  />
<path d="M 40 5 A 5 5 -45 0 1 45 10M 45 0 A 5 5 -45 0 0 50 5" style="stroke:royalblue"  />
<path d="M 40 15 A 5 5 -45 0 1 45 20M 45 10 A 5 5 -45 0 0 50 15" style="stroke:royalblue"  />
<path d="M 45 20 A 5 5 -45 0 1 40 25M 50 25 A 5 5 -45 0 0 45 30" style="stroke:royalblue"  />
<path d="M 45 30 A 5 5 -45 0 1 40 35M 50 35 A 5 5 -45 0 0 45 40" style="stroke:royalblue"  />
<path d="M 45 40 A 5 5 -45 0 1 40 45M 50 45 A 5 5 -45 0 0 45 50" style="stroke:royalblue"  />
<path d="M 40 55 A 5 5 -45 0 1 45 60M 45 50 A 5 5 -45 0 0 50 55" style="stroke:royalblue"  />
<path d="M 45 60 A 5 5 -45 0 1 40 65M 50 65 A 5 5 -45 0 0 45 70" style="stroke:royalblue"  />
<path d="M 40 75 A 5 5 -45 0 1 45 80M 45 70 A 5 5 -45 0 0 50 75" style="stroke:royalblue"  />
<path d="M 45 80 A 5 5 -45 0 1 40 85M 50 85 A 5 5 -45 0 0 45 90" style="stroke:royalblue"  />
<path d="M 40 95 A 5 5 -45 0 1 45 100M 45 90 A 5 5 -45 0 0 50 95" style="stroke:royalblue"  />
<path d="M 45 100 A 5 5 -45 0 1 40 105M 50 105 A 5 5 -45 0 0 45 110" style="stroke:royalblue"  />
<path d="M 40 115 A 5 5 -45 0 1 45 120M 45 110 A 5 5 -45 0 0 50 115" style="stroke:royalblue"  />
<path d="M 45 120 A 5 5 -45 0 1 40 125M 50 125 A 5 5 -45 0 0 45 130" style="stroke:royalblue"  />
<path d="M 45 130 A 5 5 -45 0 1 40 135M 50 135 A 5 5 -45 0 0 45 140" style="stroke:royalblue"  />
<path d="M 45 140 A 5 5 -45 0 1 40 145M 50 145 A 5 5 -45 0 0 45 150" style="stroke:royalblue"  />
<path d="M 45 150 A 5 5 -45 0 1 40 155M 50 155 A 5 5 -45 0 0 45 160" style="stroke:royalblue"  />
<path d="M 40 165 A 5 5 -45 0 1 45 170M 45 160 A 5 5 -45 0 0 50 165" style="stroke:royalblue"  />
<path d="M 45 170 A 5 5 -45 0 1 40 175M 50 175 A 5 5 -45 0 0 45 180" style="stroke:royalblue"  />
<path d="M 45 180 A 5 5 -45 0 1 40 185M 50 185 A 5 5 -45 0 0 45 190" style="stroke:royalblue"  />
<path d="M 40 195 A 5 5 -45 0 1 45 200M 45 190 A 5 5 -45 0 0 50 195" style="stroke:royalblue"  />
<path d="M 45 200 A 5 5 -45 0 1 40 205M 50 205 A 5 5 -45 0 0 45 210" style="stroke:royalblue"  />
<path d="M 55 0 A 5 5 -45 0 1 50 5M 60 5 A 5 5 -45 0 0 55 10" style="stroke:royalblue"  />
<path d="M 50 15 A 5 5 -45 0 1 55 20M 55 10 A 5 5 -45 0 0 60 15" style="stroke:royalblue"  />
<path d="M 50 25 A 5 5 -45 0 1 55 30M 55 20 A 5 5 -45 0 0 60 25" style="stroke:royalblue"  />
<path d="M 55 30 A 5 5 -45 0 1 50 35M 60 35 A 5 5 -45 0 0 55 40" style="stroke:royalblue"  />
<path d="M 55 40 A 5 5 -45 0 1 50 45M 60 45 A 5 5 -45 0 0 55 50" style="stroke:royalblue"  />
<path d="M 55 50 A 5 5 -45 0 1 50 55M 60 55 A 5 5 -45 0 0 55 60" style="stroke:royalblue"  />
<path d="M 50 65 A 5 5 -45 0 1 55 70M 55 60 A 5 5 -45 0 0 60 65" style="stroke:royalblue"  />
<path d="M 55 70 A 5 5 -45 0 1 50 75M 60 75 A 5 5 -45 0 0 55 80" style="stroke:royalblue"  />
<path d="M 50 85 A 5 5 -45 0 1 55 90M 55 80 A 5 5 -45 0 0 60 85" style="stroke:royalblue"  />
<path d="M 55 90 A 5 5 -45 0 1 50 95M 60 95 A 5 5 -45 0 0 55 100" style="stroke:royalblue"  />
<path d="M 50 105 A 5 5 -45 0 1 55 110M 55 100 A 5 5 -45 0 0 60 105" style="stroke:royalblue"  />
<path d="M 55 110 A 5 5 -45 0 1 50 115M 60 115 A 5 5 -45 0 0 55 120" style="stroke:royalblue"  />
<path d="M 50 125 A 5 5 -45 0 1 55 130M 55 120 A 5 5 -45 0 0 60 125" style="stroke:royalblue"  />
<path d="M 55 130 A 5 5 -45 0 1 50 135M 60 135 A 5 5 -45 0 0 55 140" style="stroke:royalblue"  />
<path d="M 55 140 A 5 5 -45 0 1 50 145M 60 145 A 5 5 -45 0 0 55 150" style="stroke:royalblue"  />
<path d="M 55 150 A 5 5 -45 0 1 50 155M 60 155 A 5 5 -45 0 0 55 160" style="stroke:royalblue"  />
<path d="M 55 160 A 5 5 -45 0 1 50 165M 60 165 A 5 5 -45 0 0 55 170" style="stroke:royalblue"  />
<path d="M 55 170 A 5 5 -45 0 1 50 175M 60 175 A 5 5 -45 0 0 55 180" style="stroke:royalblue"  />
<path d="M 50 185 A 5 5 -45 0 1 55 190M 55 180 A 5 5 -45 0 0 60 185" style="stroke:royalblue"  />
<path d="M 55 190 A 5 5 -45 0 1 50 195M 60 195 A 5 5 -45 0 0 55 200" style="stroke:royalblue"  />
<path d="M 55 200 A 5 5 -45 0 1 50 205M 60 205 A 5 5 -45 0 0 55 210" style="stroke:royalblue"  />
<path d="M 65 0 A 5 5 -45 0 1 60 5M 70 5 A 5 5 -45 0 0 65 10" style="stroke:royalblue"  />
<path d="M 65 10 A 5 5 -45 0 1 60 15M 70 15 A 5 5 -45 0 0 65 20" style="stroke:royalblue"  />
<path d="M 60 25 A 5 5 -45 0 1 65 30M 65 20 A 5 5 -45 0 0 70 25" style="stroke:royalblue"  />
<path d="M 65 30 A 5 5 -45 0 1 60 35M 70 35 A 5 5 -45 0 0 65 40" style="stroke:royalblue"  />
<path d="M 60 45 A 5 5 -45 0 1 65 50M 65 40 A 5 5 -45 0 0 70 45" style="stroke:royalblue"  />
<path d="M 65 50 A 5 5 -45 0 1 60 55M 70 55 A 5 5 -45 0 0 65 60" style="stroke:royalblue"  />
<path d="M 65 60 A 5 5 -45 0 1 60 65M 70 65 A 5 5 -45 0 0 65 70" style="stroke:royalblue"  />
<path d="M 60 75 A 5 5 -45 0 1 65 80M 65 70 A 5 5 -45 0 0 70 75" style="stroke:royalblue"  />
<path d="M 65 80 A 5 5 -45 0 1 60 85M 70 85 A 5 5 -45 0 0 65 90" style="stroke:royalblue"  />
<path d="M 60 95 A 5 5 -45 0 1 65 100M 65 90 A 5 5 -45 0 0 70 95" style="stroke:royalblue"  />
<path d="M 60 105 A 5 5 -45 0 1 65 110M 65 100 A 5 5 -45 0 0 70 105" style="stroke:royalblue"  />
<path d="M 60 115 A 5 5 -45 0 1 65 120M 65 110 A 5 5 -45 0 0 70 115" style="stroke:royalblue"  />
<path d="M 65 120 A 5 5 -45 0 1 60 125M 70 125 A 5 5 -45 0 0 65 130" style="stroke:royalblue"  />
<path d="M 60 135 A 5 5 -45 0 1 65 140M 65 130 A 5 5 -45 0 0 70 135" style="stroke:royalblue"  />
<path d="M 65 140 A 5 5 -45 0 1 60 145M 70 145 A 5 5 -45 0 0 65 150" style="stroke:royalblue"  />
<path d="M 65 150 A 5 5 -45 0 1 60 155M 70 155 A 5 5 -45 0 0 65 160" style="stroke:royalblue"  />
<path d="M 65 160 A 5 5 -45 0 1 60 165M 70 165 A 5 5 -45 0 0 65 170" style="stroke:royalblue"  />
<path d="M 65 170 A 5 5 -45 0 1 60 175M 70 175 A 5 5 -45 0 0 65 180" style="stroke:royalblue"  />
<path d="M 65 180 A 5 5 -45 0 1 60 185M 70 185 A 5 5 -45 0 0 65 190" style="stroke:royalblue"  />
<path d="M 60 195 A 5 5 -45 0 1 65 200M 65 190 A 5 5 -45 0 0 70 195" style="stroke:royalblue"  />
<path d="M 65 200 A 5 5 -45 0 1 60 205M 70 205 A 5 5 -45 0 0 65 210" style="stroke:royalblue"  />
<path d="M 75 0 A 5 5 -45 0 1 70 5M 80 5 A 5 5 -45 0 0 75 10" style="stroke:royalblue"  />
<path d="M 75 10 A 5 5 -45 0 1 70 15M 80 15 A 5 5 -45 0 0 75 20" style="stroke:royalblue"  />
<path d="M 70 25 A 5 5 -45 0 1 75 30M 75 20 A 5 5 -45 0 0 80 25" style="stroke:royalblue"  />
<path d="M 70 35 A 5 5 -45 0 1 75 40M 75 30 A 5 5 -45 0 0 80 35" style="stroke:royalblue"  />
<path d="M 70 45 A 5 5 -45 0 1 75 50M 75 40 A 5 5 -45 0 0 80 45" style="stroke:royalblue"  />
<path d="M 70 55 A 5 5 -45 0 1 75 60M 75 50 A 5 5 -45 0 0 80 55" style="stroke:royalblue"  />
<path d="M 75 60 A 5 5 -45 0 1 70 65M 80 65 A 5 5 -45 0 0 75 70" style="stroke:royalblue"  />
<path d="M 75 70 A 5 5 -45 0 1 70 75M 80 75 A 5 5 -45 0 0 75 80" style="stroke:royalblue"  />
<path d="M 70 85 A 5 5 -45 0 1 75 90M 75 80 A 5 5 -45 0 0 80 85" style="stroke:royalblue"  />
<path d="M 70 95 A 5 5 -45 0 1 75 100M 75 90 A 5 5 -45 0 0 80 95" style="stroke:royalblue"  />
<path d="M 75 100 A 5 5 -45 0 1 70 105M 80 105 A 5 5 -45 0 0 75 110" style="stroke:royalblue"  />
<path d="M 75 110 A 5 5 -45 0 1 70 115M 80 115 A 5 5 -45 0 0 75 120" style="stroke:royalblue"  />
<path d="M 75 120 A 5 5 -45 0 1 70 125M 80 125 A 5 5 -45 0 0 75 130" style="stroke:royalblue"  />
<path d="M 70 135 A 5 5 -45 0 1 75 140M 75 130 A 5 5 -45 0 0 80 135" style="stroke:royalblue"  />
<path d="M 70 145 A 5 5 -45 0 1 75 150M 75 140 A 5 5 -45 0 0 80 145" style="stroke:royalblue"  />
<path d="M 75 150 A 5 5 -45 0 1 70 155M 80 155 A 5 5 -45 0 0 75 160" style="stroke:royalblue"  />
<path d="M 75 160 A 5 5 -45 0 1 70 165M 80 165 A 5 5 -45 0 0 75 170" style="stroke:royalblue"  />
<path d="M 75 170 A 5 5 -45 0 1 70 175M 80 175 A 5 5 -45 0 0 75 180" style="stroke:royalblue"  />
<path d="M 70 185 A 5 5 -45 0 1 75 190M 75 180 A 5 5 -45 0 0 80 185" style="stroke:royalblue"  />
<path d="M 75 190 A 5 5 -45 0 1 70 195M 80 195 A 5 5 -45 0 0 75 200" style="stroke:royalblue"  />
<path d="M 70 205 A 5 5 -45 0 1 75 210M 75 200 A 5 5 -45 0 0 80 205" style="stroke:royalblue"  />
<path d="M 80 5 A 5 5 -45 0 1 85 10M 85 0 A 5 5 -45 0 0 90 5" style="stroke:royalblue"  />
<path d="M 85 10 A 5 5 -45 0 1 80 15M 90 15 A 5 5 -45 0 0 85 20" style="stroke:royalblue"  />
<path d="M 80 25 A 5 5 -45 0 1 85 30M 85 20 A 5 5 -45 0 0 90 25" style="stroke:royalblue"  />
<path d="M 80 35 A 5 5 -45 0 1 85 40M 85 30 A 5 5 -45 0 0 90 35" style="stroke:royalblue"  />
<path d="M 80 45 A 5 5 -45 0 1 85 50M 85 40 A 5 5 -45 0 0 90 45" style="stroke:royalblue"  />
<path d="M 85 50 A 5 5 -45 0 1 80 55M 90 55 A 5 5 -45 0 0 85 60" style="stroke:royalblue"  />
<path d="M 85 60 A 5 5 -45 0 1 80 65M 90 65 A 5 5 -45 0 0 85 70" style="stroke:royalblue"  />
<path d="M 80 75 A 5 5 -45 0 1 85 80M 85 70 A 5 5 -45 0 0 90 75" style="stroke:royalblue"  />
<path d="M 80 85 A 5 5 -45 0 1 85 90M 85 80 A 5 5 -45 0 0 90 85" style="stroke:royalblue"  />
<path d="M 85 90 A 5 5 -45 0 1 80 95M 90 95 A 5 5 -45 0 0 85 100" style="stroke:royalblue"  />
<path d="M 85 100 A 5 5 -45 0 1 80 105M 90 105 A 5 5 -45 0 0 85 110" style="stroke:royalblue"  />
<path d="M 80 115 A 5 5 -45 0 1 85 120M 85 110 A 5 5 -45 0 0 90 115" style="stroke:royalblue"  />
<path d="M 85 120 A 5 5 -45 0 1 80 125M 90 125 A 5 5 -45 0 0 85 130" style="stroke:royalblue"  />
<path d="M 80 135 A 5 5 -45 0 1 85 140M 85 130 A 5 5 -45 0 0 90 135" style="stroke:royalblue"  />
<path d="M 85 140 A 5 5 -45 0 1 80 145M 90 145 A 5 5 -45 0 0 85 150" style="stroke:royalblue"  />
<path d="M 80 155 A 5 5 -45 0 1 85 160M 85 150 A 5 5 -45 0 0 90 155" style="stroke:royalblue"  />
<path d="M 85 160 A 5 5 -45 0 1 80 165M 90 165 A 5 5 -45 0 0 85 170" style="stroke:royalblue"  />
<path d="M 80 175 A 5 5 -45 0 1 85 180M 85 170 A 5 5 -45 0 0 90 175" style="stroke:royalblue"  />
<path d="M 80 185 A 5 5 -45 0 1 85 190M 85 180 A 5 5 -45 0 0 90 185" style="stroke:royalblue"  />
<path d="M 80 195 A 5 5 -45 0 1 85 200M 85 190 A 5 5 -45 0 0 90 195" style="stroke:royalblue"  />
<path d="M 80 205 A 5 5 -45 0 1 85 210M 85 200 A 5 5 -45 0 0 90 205" style="stroke:royalblue"  />
<path d="M 90 5 A 5 5 -45 0 1 95 10M 95 0 A 5 5 -45 0 0 100 5" style="stroke:royalblue"  />
<path d="M 90 15 A 5 5 -45 0 1 95 20M 95 10 A 5 5 -45 0 0 100 15" style="stroke:royalblue"  />
<path d="M 90 25 A 5 5 -45 0 1 95 30M 95 20 A 5 5 -45 0 0 100 25" style="stroke:royalblue"  />
<path d="M 90 35 A 5 5 -45 0 1 95 40M 95 30 A 5 5 -45 0 0 100 35" style="stroke:royalblue"  />
<path d="M 95 40 A 5 5 -45 0 1 90 45M 100 45 A 5 5 -45 0 0 95 50" style="stroke:royalblue"  />
<path d="M 90 55 A 5 5 -45 0 1 95 60M 95 50 A 5 5 -45 0 0 100 55" style="stroke:royalblue"  />
<path d="M 90 65 A 5 5 -45 0 1 95 70M 95 60 A 5 5 -45 0 0 100 65" style="stroke:royalblue"  />
<path d="M 90 75 A 5 5 -45 0 1 95 80M 95 70 A 5 5 -45 0 0 100 75" style="stroke:royalblue"  />
<path d="M 90 85 A 5 5 -45 0 1 95 90M 95 80 A 5 5 -45 0 0 100 85" style="stroke:royalblue"  />
<path d="M 90 95 A 5 5 -45 0 1 95 100M 95 90 A 5 5 -45 0 0 100 95" style="stroke:royalblue"  />
<path d="M 90 105 A 5 5 -45 0 1 95 110M 95 100 A 5 5 -45 0 0 100 105" style="stroke:royalblue"  />
<path d="M 95 110 A 5 5 -45 0 1 90 115M 100 115 A 5 5 -45 0 0 95 120" style="stroke:royalblue"  />
<path d="M 95 120 A 5 5 -45 0 1 90 125M 100 125 A 5 5 -45 0 0 95 130" style="stroke:royalblue"  />
<path d="M 90 135 A 5 5 -45 0 1 95 140M 95 130 A 5 5 -45 0 0 100 135" style="stroke:royalblue"  />
<path d="M 95 140 A 5 5 -45 0 1 90 145M 100 145 A 5 5 -45 0 0 95 150" style="stroke:royalblue"  />
<path d="M 90 155 A 5 5 -45 0 1 95 160M 95 150 A 5 5 -45 0 0 100 155" style="stroke:royalblue"  />
<path d="M 90 165 A 5 5 -45 0 1 95 170M 95 160 A 5 5 -45 0 0 100 165" style="stroke:royalblue"  />
<path d="M 90 175 A 5 5 -45 0 1 95 180M 95 170 A 5 5 -45 0 0 100 175" style="stroke:royalblue"  />
<path d="M 95 180 A 5 5 -45 0 1 90 185M 100 185 A 5 5 -45 0 0 95 190" style="stroke:royalblue"  />
<path d="M 95 190 A 5 5 -45 0 1 90 195M 100 195 A 5 5 -45 0 0 95 200" style="stroke:royalblue"  />
<path d="M 95 200 A 5 5 -45 0 1 90 205M 100 205 A 5 5 -45 0 0 95 210" style="stroke:royalblue"  />
<path d="M 105 0 A 5 5 -45 0 1 100 5M 110 5 A 5 5 -45 0 0 105 10" style="stroke:royalblue"  />
<path d="M 105 10 A 5 5 -45 0 1 100 15M 110 15 A 5 5 -45 0 0 105 20" style="stroke:royalblue"  />
<path d="M 105 20 A 5 5 -45 0 1 100 25M 110 25 A 5 5 -45 0 0 105 30" style="stroke:royalblue"  />
<path d="M 100 35 A 5 5 -45 0 1 105 40M 105 30 A 5 5 -45 0 0 110 35" style="stroke:royalblue"  />
<path d="M 105 40 A 5 5 -45 0 1 100 45M 110 45 A 5 5 -45 0 0 105 50" style="stroke:royalblue"  />
<path d="M 105 50 A 5 5 -45 0 1 100 55M 110 55 A 5 5 -45 0 0 105 60" style="stroke:royalblue"  />
<path d="M 105 60 A 5 5 -45 0 1 100 65M 110 65 A 5 5 -45 0 0 105 70" style="stroke:royalblue"  />
<path d="M 105 70 A 5 5 -45 0 1 100 75M 110 75 A 5 5 -45 0 0 105 80" style="stroke:royalblue"  />
<path d="M 100 85 A 5 5 -45 0 1 105 90M 105 80 A 5 5 -45 0 0 110 85" style="stroke:royalblue"  />
<path d="M 105 90 A 5 5 -45 0 1 100 95M 110 95 A 5 5 -45 0 0 105 100" style="stroke:royalblue"  />
<path d="M 105 100 A 5 5 -45 0 1 100 105M 110 105 A 5 5 -45 0 0 105 110" style="stroke:royalblue"  />
<path d="M 100 115 A 5 5 -45 0 1 105 120M 105 110 A 5 5 -45 0 0 110 115" style="stroke:royalblue"  />
<path d="M 105 120 A 5 5 -45 0 1 100 125M 110 125 A 5 5 -45 0 0 105 130" style="stroke:royalblue"  />
<path d="M 100 135 A 5 5 -45 0 1 105 140M 105 130 A 5 5 -45 0 0 110 135" style="stroke:royalblue"  />
<path d="M 100 145 A 5 5 -45 0 1 105 150M 105 140 A 5 5 -45 0 0 110 145" style="stroke:royalblue"  />
<path d="M 100 155 A 5 5 -45 0 1 105 160M 105 150 A 5 5 -45 0 0 110 155" style="stroke:royalblue"  />
<path d="M 105 160 A 5 5 -45 0 1 100 165M 110 165 A 5 5 -45 0 0 105 170" style="stroke:royalblue"  />
<path d="M 100 175 A 5 5 -45 0 1 105 180M 105 170 A 5 5 -45 0 0 110 175" style="stroke:royalblue"  />
<path d="M 100 185 A 5 5 -45 0 1 105 190M 105 180 A 5 5 -45 0 0 110 185" style="stroke:royalblue"  />
<path d="M 105 190 A 5 5 -45 0 1 100 195M 110 195 A 5 5 -45 0 0 105 200" style="stroke:royalblue"  />
<path d="M 100 205 A 5 5 -45 0 1 105 210M 105 200 A 5 5 -45 0 0 110 205" style="stroke:royalblue"  />
<path d="M 115 0 A 5 5 -45 0 1 110 5M 120 5 A 5 5 -45 0 0 115 10" style="stroke:royalblue"  />
<path d="M 110 15 A 5 5 -45 0 1 115 20M 115 10 A 5 5 -45 0 0 120 15" style="stroke:royalblue"  />
<path d="M 115 20 A 5 5 -45 0 1 110 25M 120 25 A 5 5 -45 0 0 115 30" style="stroke:royalblue"  />
<path d="M 115 30 A 5 5 -45 0 1 110 35M 120 35 A 5 5 -45 0 0 115 40" style="stroke:royalblue"  />
<path d="M 115 40 A 5 5 -45 0 1 110 45M 120 45 A 5 5 -45 0 0 115 50" style="stroke:royalblue"  />
<path d="M 110 55 A 5 5 -45 0 1 115 60M 115 50 A 5 5 -45 0 0 120 55" style="stroke:royalblue"  />
<path d="M 115 60 A 5 5 -45 0 1 110 65M 120 65 A 5 5 -45 0 0 115 70" style="stroke:royalblue"  />
<path d="M 110 75 A 5 5 -45 0 1 115 80M 115 70 A 5 5 -45 0 0 120 75" style="stroke:royalblue"  />
<path d="M 110 85 A 5 5 -45 0 1 115 90M 115 80 A 5 5 -45 0 0 120 85" style="stroke:royalblue"  />
<path d="M 115 90 A 5 5 -45 0 1 110 95M 120 95 A 5 5 -45 0 0 115 100" style="stroke:royalblue"  />
<path d="M 115 100 A 5 5 -45 0 1 110 105M 120 105 A 5 5 -45 0 0 115 110" style="stroke:royalblue"  />
<path d="M 115 110 A 5 5 -45 0 1 110 115M 120 115 A 5 5 -45 0 0 115 120" style="stroke:royalblue"  />
<path d="M 115 120 A 5 5 -45 0 1 110 125M 120 125 A 5 5 -45 0 0 115 130" style="stroke:royalblue"  />
<path d="M 115 130 A 5 5 -45 0 1 110 135M 120 135 A 5 5 -45 0 0 115 140" style="stroke:royalblue"  />
<path d="M 115 140 A 5 5 -45 0 1 110 145M 120 145 A 5 5 -45 0 0 115 150" style="stroke:royalblue"  />
<path d="M 110 155 A 5 5 -45 0 1 115 160M 115 150 A 5 5 -45 0 0 120 155" style="stroke:royalblue"  />
<path d="M 115 160 A 5 5 -45 0 1 110 165M 120 165 A 5 5 -45 0 0 115 170" style="stroke:royalblue"  />
<path d="M 110 175 A 5 5 -45 0 1 115 180M 115 170 A 5 5 -45 0 0 120 175" style="stroke:royalblue"  />
<path d="M 115 180 A 5 5 -45 0 1 110 185M 120 185 A 5 5 -45 0 0 115 190" style="stroke:royalblue"  />
<path d="M 110 195 A 5 5 -45 0 1 115 200M 115 190 A 5 5 -45 0 0 120 195" style="stroke:royalblue"  />
<path d="M 110 205 A 5 5 -45 0 1 115 210M 115 200 A 5 5 -45 0 0 120 205" style="stroke:royalblue"  />
<path d="M 125 0 A 5 5 -45 0 1 120 5M 130 5 A 5 5 -45 0 0 125 10" style="stroke:royalblue"  />
<path d="M 120 15 A 5 5 -45 0 1 125 20M 125 10 A 5 5 -45 0 0 130 15" style="stroke:royalblue"  />
<path d="M 125 20 A 5 5 -45 0 1 120 25M 130 25 A 5 5 -45 0 0 125 30" style="stroke:royalblue"  />
<path d="M 125 30 A 5 5 -45 0 1 120 35M 130 35 A 5 5 -45 0 0 125 40" style="stroke:royalblue"  />
<path d="M 120 45 A 5 5 -45 0 1 125 50M 125 40 A 5 5 -45 0 0 130 45" style="stroke:royalblue"  />
<path d="M 120 55 A 5 5 -45 0 1 125 60M 125 50 A 5 5 -45 0 0 130 55" style="stroke:royalblue"  />
<path d="M 120 65 A 5 5 -45 0 1 125 70M 125 60 A 5 5 -45 0 0 130 65" style="stroke:royalblue"  />
<path d="M 120 75 A 5 5 -45 0 1 125 80M 125 70 A 5 5 -45 0 0 130 75" style="stroke:royalblue"  />
<path d="M 125 80 A 5 5 -45 0 1 120 85M 130 85 A 5 5 -45 0 0 125 90" style="stroke:royalblue"  />
<path d="M 120 95 A 5 5 -45 0 1 125 100M 125 90 A 5 5 -45 0 0 130 95" style="stroke:royalblue"  />
<path d="M 120 105 A 5 5 -45 0 1 125 110M 125 100 A 5 5 -45 0 0 130 105" style="stroke:royalblue"  />
<path d="M 120 115 A 5 5 -45 0 1 125 120M 125 110 A 5 5 -45 0 0 130 115" style="stroke:royalblue"  />
<path d="M 120 125 A 5 5 -45 0 1 125 130M 125 120 A 5 5 -45 0 0 130 125" style="stroke:royalblue"  />
<path d="M 120 135 A 5 5 -45 0 1 125 140M 125 130 A 5 5 -45 0 0 130 135" style="stroke:royalblue"  />
<path d="M 125 140 A 5 5 -45 0 1 120 145M 130 145 A 5 5 -45 0 0 125 150" style="stroke:royalblue"  />
<path d="M 125 150 A 5 5 -45 0 1 120 155M 130 155 A 5 5 -45 0 0 125 160" style="stroke:royalblue"  />
<path d="M 125 160 A 5 5 -45 0 1 120 165M 130 165 A 5 5 -45 0 0 125 170" style="stroke:royalblue"  />
<path d="M 120 175 A 5 5 -45 0 1 125 180M 125 170 A 5 5 -45 0 0 130 175" style="stroke:royalblue"  />
<path d="M 125 180 A 5 5 -45 0 1 120 185M 130 185 A 5 5 -45 0 0 125 190" style="stroke:royalblue"  />
<path d="M 125 190 A 5 5 -45 0 1 120 195M 130 195 A 5 5 -45 0 0 125 200" style="stroke:royalblue"  />
<path d="M 125 200 A 5 5 -45 0 1 120 205M 130 205 A 5 5 -45 0 0 125 210" style="stroke:royalblue"  />
<path d="M 130 5 A 5 5 -45 0 1 135 10M 135 0 A 5 5 -45 0 0 140 5" style="stroke:royalblue"  />
<path d="M 130 15 A 5 5 -45 0 1 135 20M 135 10 A 5 5 -45 0 0 140 15" style="stroke:royalblue"  />
<path d="M 135 20 A 5 5 -45 0 1 130 25M 140 25 A 5 5 -45 0 0 135 30" style="stroke:royalblue"  />
<path d="M 135 30 A 5 5 -45 0 1 130 35M 140 35 A 5 5 -45 0 0 135 40" style="stroke:royalblue"  />
<path d="M 135 40 A 5 5 -45 0 1 130 45M 140 45 A 5 5 -45 0 0 135 50" style="stroke:royalblue"  />
<path d="M 130 55 A 5 5 -45 0 1 135 60M 135 50 A 5 5 -45 0 0 140 55" style="stroke:royalblue"  />
<path d="M 130 65 A 5 5 -45 0 1 135 70M 135 60 A 5 5 -45 0 0 140 65" style="stroke:royalblue"  />
<path d="M 130 75 A 5 5 -45 0 1 135 80M 135 70 A 5 5 -45 0 0 140 75" style="stroke:royalblue"  />
<path d="M 135 80 A 5 5 -45 0 1 130 85M 140 85 A 5 5 -45 0 0 135 90" style="stroke:royalblue"  />
<path d="M 135 90 A 5 5 -45 0 1 130 95M 140 95 A 5 5 -45 0 0 135 100" style="stroke:royalblue"  />
<path d="M 130 105 A 5 5 -45 0 1 135 110M 135 100 A 5 5 -45 0 0 140 105" style="stroke:royalblue"  />
<path d="M 135 110 A 5 5 -45 0 1 130 115M 140 115 A 5 5 -45 0 0 135 120" style="stroke:royalblue"  />
<path d="M 130 125 A 5 5 -45 0 1 135 130M 135 120 A 5 5 -45 0 0 140 125" style="stroke:royalblue"  />
<path d="M 130 135 A 5 5 -45 0 1 135 140M 135 130 A 5 5 -45 0 0 140 135" style="stroke:royalblue"  />
<path d="M 135 140 A 5 5 -45 0 1 130 145M 140 145 A 5 5 -45 0 0 135 150" style="stroke:royalblue"  />
<path d="M 130 155 A 5 5 -45 0 1 135 160M 135 150 A 5 5 -45 0 0 140 155" style="stroke:royalblue"  />
<path d="M 130 165 A 5 5 -45 0 1 135 170M 135 160 A 5 5 -45 0 0 140 165" style="stroke:royalblue"  />
<path d="M 135 170 A 5 5 -45 0 1 130 175M 140 175 A 5 5 -45 0 0 135 180" style="stroke:royalblue"  />
<path d="M 130 185 A 5 5 -45 0 1 135 190M 135 180 A 5 5 -45 0 0 140 185" style="stroke:royalblue"  />
<path d="M 135 190 A 5 5 -45 0 1 130 195M 140 195 A 5 5 -45 0 0 135 200" style="stroke:royalblue"  />
<path d="M 130 205 A 5 5 -45 0 1 135 210M 135 200 A 5 5 -45 0 0 140 205" style="stroke:royalblue"  />
<path d="M 140 5 A 5 5 -45 0 1 145 10M 145 0 A 5 5 -45 0 0 150 5" style="stroke:royalblue"  />
<path d="M 140 15 A 5 5 -45 0 1 145 20M 145 10 A 5 5 -45 0 0 150 15" style="stroke:royalblue"  />
<path d="M 140 25 A 5 5 -45 0 1 145 30M 145 20 A 5 5 -45 0 0 150 25" style="stroke:royalblue"  />
<path d="M 140 35 A 5 5 -45 0 1 145 40M 145 30 A 5 5 -45 0 0 150 35" style="stroke:royalblue"  />
<path d="M 145 40 A 5 5 -45 0 1 140 45M 150 45 A 5 5 -45 0 0 145 50" style="stroke:royalblue"  />
<path d="M 140 55 A 5 5 -45 0 1 145 60M 145 50 A 5 5 -45 0 0 150 55" style="stroke:royalblue"  />
<path d="M 140 65 A 5 5 -45 0 1 145 70M 145 60 A 5 5 -45 0 0 150 65" style="stroke:royalblue"  />
<path d="M 140 75 A 5 5 -45 0 1 145 80M 145 70 A 5 5 -45 0 0 150 75" style="stroke:royalblue"  />
<path d="M 145 80 A 5 5 -45 0 1 140 85M 150 85 A 5 5 -45 0 0 145 90" style="stroke:royalblue"  />
<path d="M 145 90 A 5 5 -45 0 1 140 95M 150 95 A 5 5 -45 0 0 145 100" style="stroke:royalblue"  />
<path d="M 145 100 A 5 5 -45 0 1 140 105M 150 105 A 5 5 -45 0 0 145 110" style="stroke:royalblue"  />
<path d="M 140 115 A 5 5 -45 0 1 145 120M 145 110 A 5 5 -45 0 0 150 115" style="stroke:royalblue"  />
<path d="M 145 120 A 5 5 -45 0 1 140 125M 150 125 A 5 5 -45 0 0 145 130" style="stroke:royalblue"  />
<path d="M 145 130 A 5 5 -45 0 1 140 135M 150 135 A 5 5 -45 0 0 145 140" style="stroke:royalblue"  />
<path d="M 145 140 A 5 5 -45 0 1 140 145M 150 145 A 5 5 -45 0 0 145 150" style="stroke:royalblue"  />
<path d="M 140 155 A 5 5 -45 0 1 145 160M 145 150 A 5 5 -45 0 0 150 155" style="stroke:royalblue"  />
<path d="M 140 165 A 5 5 -45 0 1 145 170M 145 160 A 5 5 -45 0 0 150 165" style="stroke:royalblue"  />
<path d="M 140 175 A 5 5 -45 0 1 145 180M 145 170 A 5 5 -45 0 0 150 175" style="stroke:royalblue"  />
<path d="M 145 180 A 5 5 -45 0 1 140 185M 150 185 A 5 5 -45 0 0 145 190" style="stroke:royalblue"  />
<path d="M 145 190 A 5 5 -45 0 1 140 195M 150 195 A 5 5 -45 0 0 145 200" style="stroke:royalblue"  />
<path d="M 145 200 A 5 5 -45 0 1 140 205M 150 205 A 5 5 -45 0 0 145 210" style="stroke:royalblue"  />
<path d="M 150 5 A 5 5 -45 0 1 155 10M 155 0 A 5 5 -45 0 0 160 5" style="stroke:royalblue"  />
<path d="M 155 10 A 5 5 -45 0 1 150 15M 160 15 A 5 5 -45 0 0 155 20" style="stroke:royalblue"  />
<path d="M 155 20 A 5 5 -45 0 1 150 25M 160 25 A 5 5 -45 0 0 155 30" style="stroke:royalblue"  />
<path d="M 155 30 A 5 5 -45 0 1 150 35M 160 35 A 5 5 -45 0 0 155 40" style="stroke:royalblue"  />
<path d="M 150 45 A 5 5 -45 0 1 155 50M 155 40 A 5 5 -45 0 0 160 45" style="stroke:royalblue"  />
<path d="M 150 55 A 5 5 -45 0 1 155 60M 155 50 A 5 5 -45 0 0 160 55" style="stroke:royalblue"  />
<path d="M 155 60 A 5 5 -45 0 1 150 65M 160 65 A 5 5 -45 0 0 155 70" style="stroke:royalblue"  />
<path d="M 150 75 A 5 5 -45 0 1 155 80M 155 70 A 5 5 -45 0 0 160 75" style="stroke:royalblue"  />
<path d="M 155 80 A 5 5 -45 0 1 150 85M 160 85 A 5 5 -45 0 0 155 90" style="stroke:royalblue"  />
<path d="M 150 95 A 5 5 -45 0 1 155 100M 155 90 A 5 5 -45 0 0 160 95" style="stroke:royalblue"  />
<path d="M 150 105 A 5 5 -45 0 1 155 110M 155 100 A 5 5 -45 0 0 160 105" style="stroke:royalblue"  />
<path d="M 150 115 A 5 5 -45 0 1 155 120M 155 110 A 5 5 -45 0 0 160 115" style="stroke:royalblue"  />
<path d="M 150 125 A 5 5 -45 0 1 155 130M 155 120 A 5 5 -45 0 0 160 125" style="stroke:royalblue"  />
<path d="M 150 135 A 5 5 -45 0 1 155 140M 155 130 A 5 5 -45 0 0 160 135" style="stroke:royalblue"  />
<path d="M 155 140 A 5 5 -45 0 1 150 145M 160 145 A 5 5 -45 0 0 155 150" style="stroke:royalblue"  />
<path d="M 150 155 A 5 5 -45 0 1 155 160M 155 150 A 5 5 -45 0 0 160 155" style="stroke:royalblue"  />
<path d="M 155 160 A 5 5 -45 0 1 150 165M 160 165 A 5 5 -45 0 0 155 170" style="stroke:royalblue"  />
<path d="M 150 175 A 5 5 -45 0 1 155 180M 155 170 A 5 5 -45 0 0 160 175" style="stroke:royalblue"  />
<path d="M 150 185 A 5 5 -45 0 1 155 190M 155 180 A 5 5 -45 0 0 160 185" style="stroke:royalblue"  />
<path d="M 150 195 A 5 5 -45 0 1 155 200M 155 190 A 5 5 -45 0 0 160 195" style="stroke:royalblue"  />
<path d="M 155 200 A 5 5 -45 0 1 150 205M 160 205 A 5 5 -45 0 0 155 210" style="stroke:royalblue"  />
<path d="M 160 5 A 5 5 -45 0 1 165 10M 165 0 A 5 5 -45 0 0 170 5" style="stroke:royalblue"  />
<path d="M 160 15 A 5 5 -45 0 1 165 20M 165 10 A 5 5 -45 0 0 170 15" style="stroke:royalblue"  />
<path d="M 160 25 A 5 5 -45 0 1 165 30M 165 20 A 5 5 -45 0 0 170 25" style="stroke:royalblue"  />
<path d="M 160 35 A 5 5 -45 0 1 165 40M 165 30 A 5 5 -45 0 0 170 35" style="stroke:royalblue"  />
<path d="M 160 45 A 5 5 -45 0 1 165 50M 165 40 A 5 5 -45 0 0 170 45" style="stroke:royalblue"  />
<path d="M 160 55 A 5 5 -45 0 1 165 60M 165 50 A 5 5 -45 0 0 170 55" style="stroke:royalblue"  />
<path d="M 165 60 A 5 5 -45 0 1 160 65M 170 65 A 5 5 -45 0 0 165 70" style="stroke:royalblue"  />
<path d="M 165 70 A 5 5 -45 0 1 160 75M 170 75 A 5 5 -45 0 0 165 80" style="stroke:royalblue"  />
<path d="M 160 85 A 5 5 -45 0 1 165 90M 165 80 A 5 5 -45 0 0 170 85" style="stroke:royalblue"  />
<path d="M 160 95 A 5 5 -45 0 1 165 100M 165 90 A 5 5 -45 0 0 170 95" style="stroke:royalblue"  />
<path d="M 160 105 A 5 5 -45 0 1 165 110M 165 100 A 5 5 -45 0 0 170 105" style="stroke:royalblue"  />
<path d="M 160 115 A 5 5 -45 0 1 165 120M 165 110 A 5 5 -45 0 0 170 115" style="stroke:royalblue"  />
<path d="M 165 120 A 5 5 -45 0 1 160 125M 170 125 A 5 5 -45 0 0 165 130" style="stroke:royalblue"  />
<path d="M 165 130 A 5 5 -45 0 1 160 135M 170 135 A 5 5 -45 0 0 165 140" style="stroke:royalblue"  />
<path d="M 160 145 A 5 5 -45 0 1 165 150M 165 140 A 5 5 -45 0 0 170 145" style="stroke:royalblue"  />
<path d="M 160 155 A 5 5 -45 0 1 165 160M 165 150 A 5 5 -45 0 0 170 155" style="stroke:royalblue"  />
<path d="M 165 160 A 5 5 -45 0 1 160 165M 170 165 A 5 5 -45 0 0 165 170" style="stroke:royalblue"  />
<path d="M 160 175 A 5 5 -45 0 1 165 180M 165 170 A 5 5 -45 0 0 170 175" style="stroke:royalblue"  />
<path d="M 160 185 A 5 5 -45 0 1 165 190M 165 180 A 5 5 -45 0 0 170 185" style="stroke:royalblue"  />
<path d="M 165 190 A 5 5 -45 0 1 160 195M 170 195 A 5 5 -45 0 0 165 200" style="stroke:royalblue"  />
<path d="M 165 200 A 5 5 -45 0 1 160 205M 170 205 A 5 5 -45 0 0 165 210" style="stroke:royalblue"  />
<path d="M 170 5 A 5 5 -45 0 1 175 10M 175 0 A 5 5 -45 0 0 180 5" style="stroke:royalblue"  />
<path d="M 170 15 A 5 5 -45 0 1 175 20M 175 10 A 5 5 -45 0 0 180 15" style="stroke:royalblue"  />
<path d="M 170 25 A 5 5 -45 0 1 175 30M 175 20 A 5 5 -45 0 0 180 25" style="stroke:royalblue"  />
<path d="M 170 35 A 5 5 -45 0 1 175 40M 175 30 A 5 5 -45 0 0 180 35" style="stroke:royalblue"  />
<path d="M 175 40 A 5 5 -45 0 1 170 45M 180 45 A 5 5 -45 0 0 175 50" style="stroke:royalblue"  />
<path d="M 175 50 A 5 5 -45 0 1 170 55M 180 55 A 5 5 -45 0 0 175 60" style="stroke:royalblue"  />
<path d="M 170 65 A 5 5 -45 0 1 175 70M 175 60 A 5 5 -45 0 0 180 65" style="stroke:royalblue"  />
<path d="M 170 75 A 5 5 -45 0 1 175 80M 175 70 A 5 5 -45 0 0 180 75" style="stroke:royalblue"  />
<path d="M 170 85 A 5 5 -45 0 1 175 90M 175 80 A 5 5 -45 0 0 180 85" style="stroke:royalblue"  />
<path d="M 175 90 A 5 5 -45 0 1 170 95M 180 95 A 5 5 -45 0 0 175 100" style="stroke:royalblue"  />
<path d="M 170 105 A 5 5 -45 0 1 175 110M 175 100 A 5 5 -45 0 0 180 105" style="stroke:royalblue"  />
<path d="M 170 115 A 5 5 -45 0 1 175 120M 175 110 A 5 5 -45 0 0 180 115" style="stroke:royalblue"  />
<path d="M 170 125 A 5 5 -45 0 1 175 130M 175 120 A 5 5 -45 0 0 180 125" style="stroke:royalblue"  />
<path d="M 175 130 A 5 5 -45 0 1 170 135M 180 135 A 5 5 -45 0 0 175 140" style="stroke:royalblue"  />
<path d="M 175 140 A 5 5 -45 0 1 170 145M 180 145 A 5 5 -45 0 0 175 150" style="stroke:royalblue"  />
<path d="M 175 150 A 5 5 -45 0 1 170 155M 180 155 A 5 5 -45 0 0 175 160" style="stroke:royalblue"  />
<path d="M 170 165 A 5 5 -45 0 1 175 170M 175 160 A 5 5 -45 0 0 180 165" style="stroke:royalblue"  />
<path d="M 170 175 A 5 5 -45 0 1 175 180M 175 170 A 5 5 -45 0 0 180 175" style="stroke:royalblue"  />
<path d="M 175 180 A 5 5 -45 0 1 170 185M 180 185 A 5 5 -45 0 0 175 190" style="stroke:royalblue"  />
<path d="M 170 195 A 5 5 -45 0 1 175 200M 175 190 A 5 5 -45 0 0 180 195" style="stroke:royalblue"  />
<path d="M 175 200 A 5 5 -45 0 1 170 205M 180 205 A 5 5 -45 0 0 175 210" style="stroke:royalblue"  />
<path d="M 180 5 A 5 5 -45 0 1 185 10M 185 0 A 5 5 -45 0 0 190 5" style="stroke:royalblue"  />
<path d="M 180 15 A 5 5 -45 0 1 185 20M 185 10 A 5 5 -45 0 0 190 15" style="stroke:royalblue"  />
<path d="M 185 20 A 5 5 -45 0 1 180 25M 190 25 A 5 5 -45 0 0 185 30" style="stroke:royalblue"  />
<path d="M 180 35 A 5 5 -45 0 1 185 40M 185 30 A 5 5 -45 0 0 190 35" style="stroke:royalblue"  />
<path d="M 180 45 A 5 5 -45 0 1 185 50M 185 40 A 5 5 -45 0 0 190 45" style="stroke:royalblue"  />
<path d="M 180 55 A 5 5 -45 0 1 185 60M 185 50 A 5 5 -45 0 0 190 55" style="stroke:royalblue"  />
<path d="M 185 60 A 5 5 -45 0 1 180 65M 190 65 A 5 5 -45 0 0 185 70" style="stroke:royalblue"  />
<path d="M 185 70 A 5 5 -45 0 1 180 75M 190 75 A 5 5 -45 0 0 185 80" style="stroke:royalblue"  />
<path d="M 180 85 A 5 5 -45 0 1 185 90M 185 80 A 5 5 -45 0 0 190 85" style="stroke:royalblue"  />
<path d="M 185 90 A 5 5 -45 0 1 180 95M 190 95 A 5 5 -45 0 0 185 100" style="stroke:royalblue"  />
<path d="M 185 100 A 5 5 -45 0 1 180 105M 190 105 A 5 5 -45 0 0 185 110" style="stroke:royalblue"  />
<path d="M 185 110 A 5 5 -45 0 1 180 115M 190 115 A 5 5 -45 0 0 185 120" style="stroke:royalblue"  />
<path d="M 180 125 A 5 5 -45 0 1 185 130M 185 120 A 5 5 -45 0 0 190 125" style="stroke:royalblue"  />
<path d="M 185 130 A 5 5 -45 0 1 180 135M 190 135 A 5 5 -45 0 0 185 140" style="stroke:royalblue"  />
<path d="M 185 140 A 5 5 -45 0 1 180 145M 190 145 A 5 5 -45 0 0 185 150" style="stroke:royalblue"  />
<path d="M 180 155 A 5 5 -45 0 1 185 160M 185 150 A 5 5 -45 0 0 190 155" style="stroke:royalblue"  />
<path d="M 185 160 A 5 5 -45 0 1 180 165M 190 165 A 5 5 -45 0 0 185 170" style="stroke:royalblue"  />
<path d="M 185 170 A 5 5 -45 0 1 180 175M 190 175 A 5 5 -45 0 0 185 180" style="stroke:royalblue"  />
<path d="M 180 185 A 5 5 -45 0 1 185 190M 185 180 A 5 5 -45 0 0 190 185" style="stroke:royalblue"  />
<path d="M 185 190 A 5 5 -45 0 1 180 195M 190 195 A 5 5 -45 0 0 185 200" style="stroke:royalblue"  />
<path d="M 180 205 A 5 5 -45 0 1 185 210M 185 200 A 5 5 -45 0 0 190 205" style="stroke:royalblue"  />
<path d="M 195 0 A 5 5 -45 0 1 190 5M 200 5 A 5 5 -45 0 0 195 10" style="stroke:royalblue"  />
<path d="M 190 15 A 5 5 -45 0 1 195 20M 195 10 A 5 5 -45 0 0 200 15" style="stroke:royalblue"  />
<path d="M 195 20 A 5 5 -45 0 1 190 25M 200 25 A 5 5 -45 0 0 195 30" style="stroke:royalblue"  />
<path d="M 190 35 A 5 5 -45 0 1 195 40M 195 30 A 5 5 -45 0 0 200 35" style="stroke:royalblue"  />
<path d="M 195 40 A 5 5 -45 0 1 190 45M 200 45 A 5 5 -45 0 0 195 50" style="stroke:royalblue"  />
<path d="M 190 55 A 5 5 -45 0 1 195 60M 195 50 A 5 5 -45 0 0 200 55" style="stroke:royalblue"  />
<path d="M 195 60 A 5 5 -45 0 1 190 65M 200 65 A 5 5 -45 0 0 195 70" style="stroke:royalblue"  />
<path d="M 195 70 A 5 5 -45 0 1 190 75M 200 75 A 5 5 -45 0 0 195 80" style="stroke:royalblue"  />
<path d="M 190 85 A 5 5 -45 0 1 195 90M 195 80 A 5 5 -45 0 0 200 85" style="stroke:royalblue"  />
<path d="M 195 90 A 5 5 -45 0 1 190 95M 200 95 A 5 5 -45 0 0 195 100" style="stroke:royalblue"  />
<path d="M 190 105 A 5 5 -45 0 1 195 110M 195 100 A 5 5 -45 0 0 200 105" style="stroke:royalblue"  />
<path d="M 195 110 A 5 5 -45 0 1 190 115M 200 115 A 5 5 -45 0 0 195 120" style="stroke:royalblue"  />
<path d="M 190 125 A 5 5 -45 0 1 195 130M 195 120 A 5 5 -45 0 0 200 125" style="stroke:royalblue"  />
<path d="M 190 135 A 5 5 -45 0 1 195 140M 195 130 A 5 5 -45 0 0 200 135" style="stroke:royalblue"  />
<path d="M 190 145 A 5 5 -45 0 1 195 150M 195 140 A 5 5 -45 0 0 200 145" style="stroke:royalblue"  />
<path d="M 190 155 A 5 5 -45 0 1 195 160M 195 150 A 5 5 -45 0 0 200 155" style="stroke:royalblue"  />
<path d="M 190 165 A 5 5 -45 0 1 195 170M 195 160 A 5 5 -45 0 0 200 165" style="stroke:royalblue"  />
<path d="M 195 170 A 5 5 -45 0 1 190 175M 200 175 A 5 5 -45 0 0 195 180" style="stroke:royalblue"  />
<path d="M 195 180 A 5 5 -45 0 1 190 185M 200 185 A 5 5 -45 0 0 195 190" style="stroke:royalblue"  />
<path d="M 190 195 A 5 5 -45 0 1 195 200M 195 190 A 5 5 -45 0 0 200 195" style="stroke:royalblue"  />
<path d="M 195 200 A 5 5 -45 0 1 190 205M 200 205 A 5 5 -45 0 0 195 210" style="stroke:royalblue"  />
<path d="M 205 0 A 5 5 -45 0 1 200 5M 210 5 A 5 5 -45 0 0 205 10" style="stroke:royalblue"  />
<path d="M 200 15 A 5 5 -45 0 1 205 20M 205 10 A 5 5 -45 0 0 210 15" style="stroke:royalblue"  />
<path d="M 200 25 A 5 5 -45 0 1 205 30M 205 20 A 5 5 -45 0 0 210 25" style="stroke:royalblue"  />
<path d="M 200 35 A 5 5 -45 0 1 205 40M 205 30 A 5 5 -45 0 0 210 35" style="stroke:royalblue"  />
<path d="M 200 45 A 5 5 -45 0 1 205 50M 205 40 A 5 5 -45 0 0 210 45" style="stroke:royalblue"  />
<path d="M 200 55 A 5 5 -45 0 1 205 60M 205 50 A 5 5 -45 0 0 210 55" style="stroke:royalblue"  />
<path d="M 205 60 A 5 5 -45 0 1 200 65M 210 65 A 5 5 -45 0 0 205 70" style="stroke:royalblue"  />
<path d="M 205 70 A 5 5 -45 0 1 200 75M 210 75 A 5 5 -45 0 0 205 80" style="stroke:royalblue"  />
<path d="M 200 85 A 5 5 -45 0 1 205 90M 205 80 A 5 5 -45 0 0 210 85" style="stroke:royalblue"  />
<path d="M 205 90 A 5 5 -45 0 1 200 95M 210 95 A 5 5 -45 0 0 205 100" style="stroke:royalblue"  />
<path d="M 200 105 A 5 5 -45 0 1 205 110M 205 100 A 5 5 -45 0 0 210 105" style="stroke:royalblue"  />
<path d="M 200 115 A 5 5 -45 0 1 205 120M 205 110 A 5 5 -45 0 0 210 115" style="stroke:royalblue"  />
<path d="M 200 125 A 5 5 -45 0 1 205 130M 205 120 A 5 5 -45 0 0 210 125" style="stroke:royalblue"  />
<path d="M 205 130 A 5 5 -45 0 1 200 135M 210 135 A 5 5 -45 0 0 205 140" style="stroke:royalblue"  />
<path d="M 200 145 A 5 5 -45 0 1 205 150M 205 140 A 5 5 -45 0 0 210 145" style="stroke:royalblue"  />
<path d="M 205 150 A 5 5 -45 0 1 200 155M 210 155 A 5 5 -45 0 0 205 160" style="stroke:royalblue"  />
<path d="M 205 160 A 5 5 -45 0 1 200 165M 210 165 A 5 5 -45 0 0 205 170" style="stroke:royalblue"  />
<path d="M 200 175 A 5 5 -45 0 1 205 180M 205 170 A 5 5 -45 0 0 210 175" style="stroke:royalblue"  />
<path d="M 205 180 A 5 5 -45 0 1 200 185M 210 185 A 5 5 -45 0 0 205 190" style="stroke:royalblue"  />
<path d="M 200 195 A 5 5 -45 0 1 205 200M 205 190 A 5 5 -45 0 0 210 195" style="stroke:royalblue"  />
<path d="M 200 205 A 5 5 -45 0 1 205 210M 205 200 A 5 5 -45 0 0 210 205" style="stroke:royalblue"  />
</svg>

