<svg xmlns="http://www.w3.org/2000/svg" viewBox="-126.71582 -51.37174 61.74597 28.23795" > 
<defs>
<filter id="white-glow"><feFlood result="flood" flood-color="#333377" flood-opacity="1"></feFlood><feComposite in="flood" result="mask" in2="SourceGraphic" operator="in"></feComposite><feMorphology in="mask" result="dilated" operator="dilate" radius="0.1"></feMorphology><feGaussianBlur in="dilated" result="blurred" stdDeviation="0.2"></feGaussianBlur><feMerge><feMergeNode in="blurred"></feMergeNode><feMergeNode in="SourceGraphic"></feMergeNode></feMerge></filter>
</defs>
<path  style="fill:#0000a0; filter:url(#white-glow); " fill-rule="evenodd"   d="M -80.12801 -25.97717 L -80.42103 -25.19182 -81.11922 -25.13379 -81.25641 -25.80272 -81.71848 -25.9232 -81.8644 -26.4392 -82.39835 -26.99818 -82.6861 -27.47353 -82.40456 -27.79132 -82.84446 -27.85034 -82.6368 -28.88445 -83.0369 -29.17914 -83.65431 -29.91075 -84.35403 -30.06942 -84.85812 -29.74665 -85.30667 -29.7015 -85.52979 -30.13149 -86.50536 -30.40977 -86.45269 -30.50104 -87.19341 -30.35502 -87.90347 -30.4211 -88.01979 -30.744 -88.13568 -30.33696 -88.8857 -30.39809 -89.7285 -30.18082 -90.23967 -30.38076 -90.39548 -30.09188 -89.36399 -29.79657 -89.77171 -29.61003 -89.19335 -29.34883 -89.14435 -29.01645 -89.81746 -29.47741 -90.22768 -29.09844 -90.34756 -29.31273 -90.78281 -29.12671 -90.93643 -29.3433 -91.54775 -29.53147 -91.61565 -29.76893 -92.05963 -29.6068 -92.60728 -29.5884 -93.2335 -29.78877 -93.72183 -29.75857 -93.7602 -30.00596 -94.06541 -29.67408 -94.68252 -29.43291 -94.73572 -29.79299 -95.2484 -28.97839 -95.68303 -28.72695 -96.43716 -28.59699 -96.39072 -28.43406 -97.0264 -28.10775 -97.19546 -27.81222 -97.56856 -26.97786 -97.25312 -26.06832 -98.20069 -26.05538 -99.10673 -26.41953 -99.45506 -27.02865 -99.54919 -27.61263 -100.29792 -28.28035 -100.66877 -29.08007 -101.47047 -29.78869 -102.32433 -29.88012 -102.67636 -29.74423 -103.15346 -28.97868 -104.04563 -29.32812 -104.53525 -29.67947 -104.89068 -30.57056 -105.39031 -30.85308 -106.53897 -31.7862 -108.20266 -31.7868 -108.21006 -31.34374 -111.07132 -31.33553 -114.82097 -32.48711 -114.72126 -32.72081 -117.12723 -32.53573 -117.40927 -33.23406 -118.10582 -33.74755 -118.40418 -33.73843 -118.54094 -34.03724 -118.93843 -34.04007 -119.60533 -34.41644 -120.45521 -34.44251 -120.64029 -34.57235 -120.6374 -35.14005 -121.26923 -35.66357 -121.95422 -36.58281 -121.76033 -36.81904 -122.41355 -37.23918 -122.49713 -37.78301 -122.08823 -37.4526 -122.3786 -37.97352 -122.45718 -37.83429 -123.00962 -37.99454 -122.99354 -38.29731 -123.72077 -38.92486 -123.83697 -39.82652 -124.39147 -40.43538 -124.10827 -40.97836 -124.05677 -41.45832 -124.35104 -42.09884 -124.55839 -42.83263 -124.1571 -43.85728 -123.95538 -45.29314 -123.97608 -46.20288 -123.84019 -46.40452 -124.16075 -46.9298 -124.3723 -47.63896 -124.60536 -47.87394 -124.71582 -48.37777 -123.9899 -48.15936 -122.80165 -48.08551 -122.57929 -47.25157 -123.11417 -47.20816 -122.72694 -47.08262 -122.32414 -47.3445 -122.39325 -47.77436 -122.21574 -48.00762 -122.51557 -48.75809 -122.76383 -48.99991 -95.15752 -49 -95.15163 -49.37174 -94.83181 -49.33081 -94.57011 -48.7137 -93.78094 -48.51164 -92.94678 -48.62844 -92.36996 -48.22088 -92.03505 -48.35561 -91.57144 -48.04368 -90.86439 -48.25431 -90.74326 -48.08855 -90.14518 -48.11289 -89.53059 -48.00177 -90.50951 -47.71005 -92.0883 -46.79196 -91.92127 -46.6802 -90.86154 -46.95255 -90.92606 -46.58556 -90.40802 -46.56867 -89.79108 -46.82477 -89.38657 -46.85027 -88.61798 -47.13119 -88.44649 -46.79947 -87.66363 -46.83693 -87.3714 -46.50806 -86.63806 -46.42232 -86.14794 -46.67308 -84.95468 -46.77093 -85.01656 -46.47643 -84.31158 -46.48865 -83.90646 -45.96022 -84.68897 -46.0359 -84.73168 -45.85567 -85.50944 -46.10192 -87.12363 -45.69628 -87.83989 -44.92733 -88.04031 -44.57146 -87.36736 -44.81157 -87.51724 -44.17576 -87.87524 -43.35859 -87.75673 -42.77753 -87.83694 -42.31421 -87.39471 -41.63415 -86.61757 -41.90741 -86.28495 -42.42229 -86.27378 -43.12103 -86.54122 -43.66318 -86.51852 -44.05362 -86.27187 -44.35123 -86.25853 -44.70073 -85.61013 -45.19653 -85.52601 -44.76316 -85.12038 -45.56977 -84.72414 -45.78029 -84.1059 -45.49874 -83.49585 -45.36079 -83.28085 -44.70317 -83.35699 -44.33512 -83.91839 -43.91698 -83.6992 -43.59962 -83.32606 -43.94045 -82.94021 -44.06995 -82.61856 -43.78785 -82.41992 -42.97243 -83.48276 -41.72508 -82.54894 -41.39129 -81.73865 -41.4911 -81.36243 -41.72424 -79.76347 -42.26727 -78.85944 -42.79269 -79.06247 -43.26816 -78.4649 -43.37194 -77.57599 -43.24149 -76.91484 -43.27853 -76.22311 -43.55408 -76.12942 -43.93215 -76.36321 -44.0983 -75.3292 -44.81057 -74.73648 -44.99287 -71.50584 -45.01331 -71.29771 -45.29345 -70.95986 -45.33882 -70.25445 -45.89896 -70.30533 -46.06662 -69.98546 -46.69133 -69.23079 -47.4533 -68.89539 -47.18222 -68.23132 -47.35211 -67.79155 -47.06096 -67.80398 -45.67805 -67.43986 -45.5925 -67.47851 -45.28021 -66.96985 -44.82858 -68.13681 -44.47516 -68.42911 -44.46523 -68.55996 -44.25981 -68.9597 -44.43026 -69.21965 -43.94671 -70.15713 -43.78973 -70.81438 -42.86697 -70.59371 -42.64621 -71.03467 -42.28553 -70.77511 -42.24854 -70.53823 -41.80566 -69.95496 -41.67138 -70.66541 -41.55602 -70.62028 -41.73553 -71.20045 -41.46321 -71.19932 -41.6784 -71.39408 -41.76106 -71.49039 -41.39198 -72.90719 -41.26997 -73.65358 -40.9983 -74.11594 -40.70552 -74.27932 -40.5142 -73.97886 -40.32351 -74.17184 -39.71815 -74.87669 -38.95657 -75.59019 -39.46377 -75.08314 -38.79981 -75.046 -38.44949 -75.89711 -37.36739 -75.69608 -37.82452 -75.79417 -38.2636 -76.29427 -38.43694 -75.9788 -39.39455 -76.36403 -39.39328 -76.54913 -38.75897 -76.33017 -38.0457 -76.86418 -38.39135 -76.93646 -38.20247 -76.2592 -37.89003 -76.27519 -37.33032 -76.50719 -36.86947 -75.99536 -36.92313 -75.94193 -36.29434 -76.69015 -36.04961 -75.74896 -35.86934 -76.18162 -35.34153 -76.98319 -35.4365 -76.50713 -35.24877 -76.91311 -34.93647 -76.31471 -34.94881 -76.62531 -34.71975 -77.05053 -34.69892 -77.53863 -34.45701 -78.03481 -33.91429 -78.57972 -33.88199 -79.9968 -32.60561 -80.86735 -32.53251 -80.78073 -32.24792 -81.52856 -31.1309 -81.5183 -30.55598 -81.3167 -29.82899 -80.74741 -28.39871 -80.05115 -26.79686 Z"  />
<path  style="fill:#4444ff; filter:url(#white-glow); " fill-rule="evenodd"   d="M -97.27763619797832 -48.969873099806904 L -97.25291729622293 -48.99999316874451 -95.15752 -49 -95.15163 -49.37174 -94.83181 -49.33081 -94.57011 -48.7137 -93.78094 -48.51164 -92.94678 -48.62844 -92.36996 -48.22088 -92.03505 -48.35561 -91.57144 -48.04368 -90.86439 -48.25431 -90.74326 -48.08855 -90.14518 -48.11289 -89.53059 -48.00177 -90.50951 -47.71005 -92.0883 -46.79196 -91.92127 -46.6802 -90.86154 -46.95255 -90.92606 -46.58556 -90.40802 -46.56867 -89.79108 -46.82477 -89.38657 -46.85027 -88.61798 -47.13119 -88.44649 -46.79947 -87.66363 -46.83693 -87.3714 -46.50806 -86.63806 -46.42232 -86.14794 -46.67308 -84.95468 -46.77093 -85.01656 -46.47643 -84.31158 -46.48865 -83.90646 -45.96022 -84.68897 -46.0359 -84.73168 -45.85567 -85.50944 -46.10192 -87.12363 -45.69628 -87.83989 -44.92733 -88.04031 -44.57146 -87.36736 -44.81157 -87.51724 -44.17576 -87.87524 -43.35859 -87.75673 -42.77753 -87.83694 -42.31421 -87.39471 -41.63415 -86.61757 -41.90741 -86.28495 -42.42229 -86.27378 -43.12103 -86.54122 -43.66318 -86.51852 -44.05362 -86.27187 -44.35123 -86.25853 -44.70073 -85.61013 -45.19653 -85.52601 -44.76316 -85.12038 -45.56977 -84.72414 -45.78029 -84.1059 -45.49874 -83.49585 -45.36079 -83.28085 -44.70317 -83.35699 -44.33512 -83.91839 -43.91698 -83.6992 -43.59962 -83.32606 -43.94045 -82.94021 -44.06995 -82.61856 -43.78785 -82.41992 -42.97243 -83.48276 -41.72508 -82.54894 -41.39129 -81.73865 -41.4911 -81.36243 -41.72424 -79.76347 -42.26727 -78.85944 -42.79269 -79.06247 -43.26816 -78.4649 -43.37194 -77.57599 -43.24149 -76.91484 -43.27853 -76.22311 -43.55408 -76.12942 -43.93215 -76.36321 -44.0983 -75.3292 -44.81057 -74.73648 -44.99287 -71.50584 -45.01331 -71.29771 -45.29345 -70.95986 -45.33882 -70.25445 -45.89896 -70.30533 -46.06662 -69.98546 -46.69133 -69.23079 -47.4533 -68.89539 -47.18222 -68.23132 -47.35211 -67.79155 -47.06096 -67.80398 -45.67805 -67.43986 -45.5925 -67.47851 -45.28021 -66.96985 -44.82858 -68.13681 -44.47516 -68.42911 -44.46523 -68.55996 -44.25981 -68.9597 -44.43026 -69.21965 -43.94671 -70.15713 -43.78973 -70.81438 -42.86697 -70.59371 -42.64621 -71.03467 -42.28553 -70.77511 -42.24854 -70.53823 -41.80566 -69.95496 -41.67138 -70.66541 -41.55602 -70.62028 -41.73553 -71.20045 -41.46321 -71.19932 -41.6784 -71.39408 -41.76106 -71.49039 -41.39198 -72.90719 -41.26997 -73.65358 -40.9983 -74.11594 -40.70552 -74.27932 -40.5142 -73.97886 -40.32351 -74.17184 -39.71815 -74.87669 -38.95657 -75.59019 -39.46377 -75.08314 -38.79981 -75.046 -38.44949 -75.89711 -37.36739 -75.69608 -37.82452 -75.79417 -38.2636 -76.29427 -38.43694 -75.9788 -39.39455 -76.36403 -39.39328 -76.54913 -38.75897 -76.33017 -38.0457 -76.86418 -38.39135 -76.93646 -38.20247 -76.2592 -37.89003 -76.27519 -37.33032 -76.50719 -36.86947 -75.99536 -36.92313 -75.94193 -36.29434 -76.69015 -36.04961 -75.74896 -35.86934 -76.18162 -35.34153 -76.98319 -35.4365 -76.50713 -35.24877 -76.91311 -34.93647 -76.31471 -34.94881 -76.62531 -34.71975 -77.05053 -34.69892 -77.53863 -34.45701 -78.03481 -33.91429 -78.57972 -33.88199 -79.9968 -32.60561 -80.86735 -32.53251 -80.78073 -32.24792 -81.52856 -31.1309 -81.5183 -30.55598 -81.3167 -29.82899 -80.74741 -28.39871 -80.05115 -26.79686 -80.12801 -25.97717 -80.42103 -25.19182 -81.11922 -25.13379 -81.25641 -25.80272 -81.71848 -25.9232 -81.8644 -26.4392 -82.39835 -26.99818 -82.6861 -27.47353 -82.40456 -27.79132 -82.84446 -27.85034 -82.6368 -28.88445 -83.0369 -29.17914 -83.65431 -29.91075 -84.35403 -30.06942 -84.85812 -29.74665 -85.30667 -29.7015 -85.52979 -30.13149 -86.50536 -30.40977 -86.45269 -30.50104 -87.19341 -30.35502 -87.90347 -30.4211 -88.01979 -30.744 -88.13568 -30.33696 -88.8857 -30.39809 -89.7285 -30.18082 -90.23967 -30.38076 -90.39548 -30.09188 -89.36399 -29.79657 -89.77171 -29.61003 -89.19335 -29.34883 -89.14435 -29.01645 -89.81746 -29.47741 -90.22768 -29.09844 -90.34756 -29.31273 -90.78281 -29.12671 -90.93643 -29.3433 -91.54775 -29.53147 -91.61565 -29.76893 -92.05963 -29.6068 -92.60728 -29.5884 -93.2335 -29.78877 -93.72183 -29.75857 -93.7602 -30.00596 -94.06541 -29.67408 -94.68252 -29.43291 -94.73572 -29.79299 -95.2484 -28.97839 -95.68303 -28.72695 -96.43716 -28.59699 -96.39072 -28.43406 -97.0264 -28.10775 -97.19546 -27.81222 -97.56856 -26.97786 -97.25312 -26.06832 -98.20069 -26.05538 -99.10673 -26.41953 -99.45506 -27.02865 -99.54919 -27.61263 -100.29792 -28.28035 -100.66877 -29.08007 -101.47047 -29.78869 -102.32433 -29.88012 -102.67636 -29.74423 -103.15346 -28.97868 -104.04563 -29.32812 -104.53525 -29.67947 -104.89068 -30.57056 -105.39031 -30.85308 -106.53897 -31.7862 -108.20266 -31.7868 -108.21006 -31.34374 -111.07132 -31.33553 -114.82097 -32.48711 -114.72126 -32.72081 -117.12723 -32.53573 -117.40927 -33.23406 -118.10582 -33.74755 -118.40418 -33.73843 -118.54094 -34.03724 -118.93843 -34.04007 -119.60533 -34.41644 -120.45521 -34.44251 -120.64029 -34.57235 -120.6374 -35.14005 -121.26923 -35.66357 -121.95422 -36.58281 -121.76033 -36.81904 -122.41355 -37.23918 -122.49713 -37.78301 -122.08823 -37.4526 -122.3786 -37.97352 -122.45718 -37.83429 -123.00962 -37.99454 -122.99354 -38.29731 -123.72077 -38.92486 -123.83697 -39.82652 -124.39147 -40.43538 -124.10827 -40.97836 -124.05677 -41.45832 -124.35104 -42.09884 -124.55839 -42.83263 -124.1571 -43.85728 -123.95538 -45.29314 -123.97608 -46.20288 -123.84019 -46.40452 -124.16075 -46.9298 -124.3723 -47.63896 -124.60536 -47.87394 -124.71582 -48.37777 -123.9899 -48.15936 -122.80165 -48.08551 -122.57929 -47.25157 -123.11417 -47.20816 -122.72694 -47.08262 -122.32414 -47.3445 -122.39325 -47.77436 -122.21574 -48.00762 -122.51557 -48.75809 -122.76383 -48.99991 -97.3143373641802 -48.99999296850746 Z"  />
<path  style="fill:#5555ff; filter:url(#white-glow); " fill-rule="evenodd"   d="M -101.0531656763491 -48.998795325112866 L -99.32429766980398 -48.074696123025454 -97.80893218813452 -46.83106781186547 -96.89303002913027 -45.715037802025165 -95.99469612302546 -47.39570233019602 -94.75106781186548 -48.91106781186548 -94.67891846265414 -48.97027925253532 -94.57011 -48.7137 -93.78094 -48.51164 -92.94678 -48.62844 -92.36996 -48.22088 -92.03505 -48.35561 -91.57144 -48.04368 -90.86439 -48.25431 -90.74326 -48.08855 -90.14518 -48.11289 -89.53059 -48.00177 -90.50951 -47.71005 -92.0883 -46.79196 -91.92127 -46.6802 -90.86154 -46.95255 -90.92606 -46.58556 -90.40802 -46.56867 -89.79108 -46.82477 -89.38657 -46.85027 -88.61798 -47.13119 -88.44649 -46.79947 -87.66363 -46.83693 -87.3714 -46.50806 -86.63806 -46.42232 -86.14794 -46.67308 -84.95468 -46.77093 -85.01656 -46.47643 -84.31158 -46.48865 -83.90646 -45.96022 -84.68897 -46.0359 -84.73168 -45.85567 -85.50944 -46.10192 -87.12363 -45.69628 -87.83989 -44.92733 -88.04031 -44.57146 -87.36736 -44.81157 -87.51724 -44.17576 -87.87524 -43.35859 -87.75673 -42.77753 -87.83694 -42.31421 -87.39471 -41.63415 -86.61757 -41.90741 -86.28495 -42.42229 -86.27378 -43.12103 -86.54122 -43.66318 -86.51852 -44.05362 -86.27187 -44.35123 -86.25853 -44.70073 -85.61013 -45.19653 -85.52601 -44.76316 -85.12038 -45.56977 -84.72414 -45.78029 -84.1059 -45.49874 -83.49585 -45.36079 -83.28085 -44.70317 -83.35699 -44.33512 -83.91839 -43.91698 -83.6992 -43.59962 -83.32606 -43.94045 -82.94021 -44.06995 -82.61856 -43.78785 -82.41992 -42.97243 -83.48276 -41.72508 -82.54894 -41.39129 -81.73865 -41.4911 -81.36243 -41.72424 -79.76347 -42.26727 -78.85944 -42.79269 -79.06247 -43.26816 -78.4649 -43.37194 -77.57599 -43.24149 -76.91484 -43.27853 -76.22311 -43.55408 -76.12942 -43.93215 -76.36321 -44.0983 -75.3292 -44.81057 -74.73648 -44.99287 -71.50584 -45.01331 -71.29771 -45.29345 -70.95986 -45.33882 -70.25445 -45.89896 -70.30533 -46.06662 -69.98546 -46.69133 -69.23079 -47.4533 -68.89539 -47.18222 -68.23132 -47.35211 -67.79155 -47.06096 -67.80398 -45.67805 -67.43986 -45.5925 -67.47851 -45.28021 -66.96985 -44.82858 -68.13681 -44.47516 -68.42911 -44.46523 -68.55996 -44.25981 -68.9597 -44.43026 -69.21965 -43.94671 -70.15713 -43.78973 -70.81438 -42.86697 -70.59371 -42.64621 -71.03467 -42.28553 -70.77511 -42.24854 -70.53823 -41.80566 -69.95496 -41.67138 -70.66541 -41.55602 -70.62028 -41.73553 -71.20045 -41.46321 -71.19932 -41.6784 -71.39408 -41.76106 -71.49039 -41.39198 -72.90719 -41.26997 -73.65358 -40.9983 -74.11594 -40.70552 -74.27932 -40.5142 -73.97886 -40.32351 -74.17184 -39.71815 -74.87669 -38.95657 -75.59019 -39.46377 -75.08314 -38.79981 -75.046 -38.44949 -75.89711 -37.36739 -75.69608 -37.82452 -75.79417 -38.2636 -76.29427 -38.43694 -75.9788 -39.39455 -76.36403 -39.39328 -76.54913 -38.75897 -76.33017 -38.0457 -76.86418 -38.39135 -76.93646 -38.20247 -76.2592 -37.89003 -76.27519 -37.33032 -76.50719 -36.86947 -75.99536 -36.92313 -75.94193 -36.29434 -76.69015 -36.04961 -75.74896 -35.86934 -76.18162 -35.34153 -76.98319 -35.4365 -76.50713 -35.24877 -76.91311 -34.93647 -76.31471 -34.94881 -76.62531 -34.71975 -77.05053 -34.69892 -77.53863 -34.45701 -78.03481 -33.91429 -78.57972 -33.88199 -79.9968 -32.60561 -80.86735 -32.53251 -80.78073 -32.24792 -81.52856 -31.1309 -81.5183 -30.55598 -81.3167 -29.82899 -80.74741 -28.39871 -80.05115 -26.79686 -80.12801 -25.97717 -80.42103 -25.19182 -81.11922 -25.13379 -81.25641 -25.80272 -81.71848 -25.9232 -81.8644 -26.4392 -82.39835 -26.99818 -82.6861 -27.47353 -82.40456 -27.79132 -82.84446 -27.85034 -82.6368 -28.88445 -83.0369 -29.17914 -83.65431 -29.91075 -84.35403 -30.06942 -84.85812 -29.74665 -85.30667 -29.7015 -85.52979 -30.13149 -86.50536 -30.40977 -86.45269 -30.50104 -87.19341 -30.35502 -87.90347 -30.4211 -88.01979 -30.744 -88.13568 -30.33696 -88.8857 -30.39809 -89.7285 -30.18082 -90.23967 -30.38076 -90.39548 -30.09188 -89.36399 -29.79657 -89.77171 -29.61003 -89.19335 -29.34883 -89.14435 -29.01645 -89.81746 -29.47741 -90.22768 -29.09844 -90.34756 -29.31273 -90.78281 -29.12671 -90.93643 -29.3433 -91.54775 -29.53147 -91.61565 -29.76893 -92.05963 -29.6068 -92.60728 -29.5884 -93.2335 -29.78877 -93.72183 -29.75857 -93.7602 -30.00596 -94.06541 -29.67408 -94.68252 -29.43291 -94.73572 -29.79299 -95.2484 -28.97839 -95.68303 -28.72695 -96.43716 -28.59699 -96.39072 -28.43406 -97.0264 -28.10775 -97.19546 -27.81222 -97.56856 -26.97786 -97.25312 -26.06832 -98.20069 -26.05538 -99.10673 -26.41953 -99.45506 -27.02865 -99.54919 -27.61263 -100.29792 -28.28035 -100.66877 -29.08007 -101.47047 -29.78869 -102.32433 -29.88012 -102.67636 -29.74423 -103.15346 -28.97868 -104.04563 -29.32812 -104.53525 -29.67947 -104.89068 -30.57056 -105.39031 -30.85308 -106.53897 -31.7862 -108.20266 -31.7868 -108.21006 -31.34374 -111.07132 -31.33553 -114.82097 -32.48711 -114.72126 -32.72081 -117.12723 -32.53573 -117.40927 -33.23406 -118.10582 -33.74755 -118.40418 -33.73843 -118.54094 -34.03724 -118.93843 -34.04007 -119.60533 -34.41644 -120.45521 -34.44251 -120.64029 -34.57235 -120.6374 -35.14005 -121.26923 -35.66357 -121.95422 -36.58281 -121.76033 -36.81904 -122.41355 -37.23918 -122.49713 -37.78301 -122.08823 -37.4526 -122.3786 -37.97352 -122.45718 -37.83429 -123.00962 -37.99454 -122.99354 -38.29731 -123.72077 -38.92486 -123.83697 -39.82652 -124.39147 -40.43538 -124.10827 -40.97836 -124.05677 -41.45832 -124.35104 -42.09884 -124.55839 -42.83263 -124.1571 -43.85728 -123.95538 -45.29314 -123.97608 -46.20288 -123.84019 -46.40452 -124.16075 -46.9298 -124.3723 -47.63896 -124.60536 -47.87394 -124.71582 -48.37777 -123.9899 -48.15936 -122.80165 -48.08551 -122.57929 -47.25157 -123.11417 -47.20816 -122.72694 -47.08262 -122.32414 -47.3445 -122.39325 -47.77436 -122.21574 -48.00762 -122.51557 -48.75809 -122.76383 -48.99991 -101.0570735536187 -48.999980766722544 Z"  />
<path  style="fill:#7777ff; filter:url(#white-glow); " fill-rule="evenodd"   d="M -104.16103626009028 -29.72853254107928 L -104.54830520660687 -31.005187165785394 -104.69896373990971 -30.508532541079283 -104.79458390546097 -30.32963979381936 -104.89068 -30.57056 -105.39031 -30.85308 -106.53897 -31.7862 -108.20266 -31.7868 -108.21006 -31.34374 -111.07132 -31.33553 -114.82097 -32.48711 -114.72126 -32.72081 -117.12723 -32.53573 -117.40927 -33.23406 -118.10582 -33.74755 -118.40418 -33.73843 -118.54094 -34.03724 -118.93843 -34.04007 -119.60533 -34.41644 -120.45521 -34.44251 -120.64029 -34.57235 -120.6374 -35.14005 -121.26923 -35.66357 -121.95422 -36.58281 -121.76033 -36.81904 -122.41355 -37.23918 -122.49713 -37.78301 -122.08823 -37.4526 -122.3786 -37.97352 -122.45718 -37.83429 -123.00962 -37.99454 -122.99354 -38.29731 -123.72077 -38.92486 -123.83697 -39.82652 -124.39147 -40.43538 -124.10827 -40.97836 -124.05677 -41.45832 -124.35104 -42.09884 -124.55839 -42.83263 -124.1571 -43.85728 -123.95538 -45.29314 -123.97608 -46.20288 -123.84019 -46.40452 -124.16075 -46.9298 -124.3723 -47.63896 -124.60536 -47.87394 -124.71582 -48.37777 -123.9899 -48.15936 -122.80165 -48.08551 -122.57929 -47.25157 -123.11417 -47.20816 -122.72694 -47.08262 -122.32414 -47.3445 -122.39325 -47.77436 -122.21574 -48.00762 -122.51557 -48.75809 -122.76383 -48.99991 -114.48591193039815 -48.99993698704123 -114.4213070405105 -48.34399253213921 -113.49072257612903 -48.626282243225845 -111.93 -48.78 -110.36927742387098 -48.626282243225845 -108.86853254107929 -48.1710362600903 -107.4854381358432 -47.43175689842037 -107.35876337732115 -47.32779761076798 -106.44072257612902 -47.60628224322584 -104.88 -47.76 -103.31927742387097 -47.60628224322584 -101.81853254107928 -47.151036260090294 -100.43543813584319 -46.411756898420364 -99.22314575050761 -45.41685424949238 -98.22824310157964 -44.204561864156815 -97.4889637399097 -42.82146745892072 -97.03371775677415 -41.32072257612903 -96.97941470626048 -40.76937445169678 -96.77 -40.79 -95.56489382590215 -40.67130740171872 -95.68 -41.84 -95.52628224322585 -43.40072257612903 -95.0710362600903 -44.90146745892072 -94.33175689842037 -46.28456186415682 -93.33685424949239 -47.49685424949239 -92.41545628446976 -48.25302601729914 -92.36996 -48.22088 -92.03505 -48.35561 -91.57144 -48.04368 -90.86439 -48.25431 -90.74326 -48.08855 -90.14518 -48.11289 -89.53059 -48.00177 -90.50951 -47.71005 -92.0883 -46.79196 -91.92127 -46.6802 -90.86154 -46.95255 -90.92606 -46.58556 -90.40802 -46.56867 -89.79108 -46.82477 -89.38657 -46.85027 -88.61798 -47.13119 -88.44649 -46.79947 -87.66363 -46.83693 -87.3714 -46.50806 -86.63806 -46.42232 -86.14794 -46.67308 -84.95468 -46.77093 -85.01656 -46.47643 -84.31158 -46.48865 -83.90646 -45.96022 -84.68897 -46.0359 -84.73168 -45.85567 -85.50944 -46.10192 -87.12363 -45.69628 -87.83989 -44.92733 -88.04031 -44.57146 -87.36736 -44.81157 -87.51724 -44.17576 -87.87524 -43.35859 -87.75673 -42.77753 -87.83694 -42.31421 -87.39471 -41.63415 -86.61757 -41.90741 -86.28495 -42.42229 -86.27378 -43.12103 -86.54122 -43.66318 -86.51852 -44.05362 -86.27187 -44.35123 -86.25853 -44.70073 -85.61013 -45.19653 -85.52601 -44.76316 -85.12038 -45.56977 -84.72414 -45.78029 -84.1059 -45.49874 -83.49585 -45.36079 -83.28085 -44.70317 -83.35699 -44.33512 -83.91839 -43.91698 -83.6992 -43.59962 -83.32606 -43.94045 -82.94021 -44.06995 -82.61856 -43.78785 -82.41992 -42.97243 -83.48276 -41.72508 -82.54894 -41.39129 -81.73865 -41.4911 -81.36243 -41.72424 -79.76347 -42.26727 -78.85944 -42.79269 -79.06247 -43.26816 -78.4649 -43.37194 -77.57599 -43.24149 -76.91484 -43.27853 -76.22311 -43.55408 -76.12942 -43.93215 -76.36321 -44.0983 -75.3292 -44.81057 -74.73648 -44.99287 -71.50584 -45.01331 -71.29771 -45.29345 -70.95986 -45.33882 -70.25445 -45.89896 -70.30533 -46.06662 -69.98546 -46.69133 -69.23079 -47.4533 -68.89539 -47.18222 -68.23132 -47.35211 -67.79155 -47.06096 -67.80398 -45.67805 -67.43986 -45.5925 -67.47851 -45.28021 -66.96985 -44.82858 -68.13681 -44.47516 -68.42911 -44.46523 -68.55996 -44.25981 -68.9597 -44.43026 -69.21965 -43.94671 -70.15713 -43.78973 -70.81438 -42.86697 -70.59371 -42.64621 -71.03467 -42.28553 -70.77511 -42.24854 -70.53823 -41.80566 -69.95496 -41.67138 -70.66541 -41.55602 -70.62028 -41.73553 -71.20045 -41.46321 -71.19932 -41.6784 -71.39408 -41.76106 -71.49039 -41.39198 -72.90719 -41.26997 -73.65358 -40.9983 -74.11594 -40.70552 -74.27932 -40.5142 -73.97886 -40.32351 -74.17184 -39.71815 -74.87669 -38.95657 -75.59019 -39.46377 -75.08314 -38.79981 -75.046 -38.44949 -75.89711 -37.36739 -75.69608 -37.82452 -75.79417 -38.2636 -76.29427 -38.43694 -75.9788 -39.39455 -76.36403 -39.39328 -76.54913 -38.75897 -76.33017 -38.0457 -76.86418 -38.39135 -76.93646 -38.20247 -76.2592 -37.89003 -76.27519 -37.33032 -76.50719 -36.86947 -75.99536 -36.92313 -75.94193 -36.29434 -76.69015 -36.04961 -75.74896 -35.86934 -76.18162 -35.34153 -76.98319 -35.4365 -76.50713 -35.24877 -76.91311 -34.93647 -76.31471 -34.94881 -76.62531 -34.71975 -77.05053 -34.69892 -77.53863 -34.45701 -78.03481 -33.91429 -78.57972 -33.88199 -79.9968 -32.60561 -80.86735 -32.53251 -80.78073 -32.24792 -81.52856 -31.1309 -81.5183 -30.55598 -81.3167 -29.82899 -80.74741 -28.39871 -80.05115 -26.79686 -80.12801 -25.97717 -80.42103 -25.19182 -81.11922 -25.13379 -81.25641 -25.80272 -81.71848 -25.9232 -81.8644 -26.4392 -82.39835 -26.99818 -82.6861 -27.47353 -82.40456 -27.79132 -82.84446 -27.85034 -82.6368 -28.88445 -83.0369 -29.17914 -83.65431 -29.91075 -84.35403 -30.06942 -84.85812 -29.74665 -85.30667 -29.7015 -85.52979 -30.13149 -86.50536 -30.40977 -86.45269 -30.50104 -87.19341 -30.35502 -87.90347 -30.4211 -88.01979 -30.744 -88.13568 -30.33696 -88.8857 -30.39809 -89.7285 -30.18082 -90.23967 -30.38076 -90.39548 -30.09188 -89.36399 -29.79657 -89.77171 -29.61003 -89.19335 -29.34883 -89.14435 -29.01645 -89.81746 -29.47741 -90.22768 -29.09844 -90.34756 -29.31273 -90.78281 -29.12671 -90.93643 -29.3433 -91.54775 -29.53147 -91.61565 -29.76893 -92.05963 -29.6068 -92.60728 -29.5884 -93.2335 -29.78877 -93.72183 -29.75857 -93.7602 -30.00596 -94.06541 -29.67408 -94.68252 -29.43291 -94.73572 -29.79299 -95.2484 -28.97839 -95.68303 -28.72695 -96.43716 -28.59699 -96.39072 -28.43406 -97.0264 -28.10775 -97.19546 -27.81222 -97.56856 -26.97786 -97.25312 -26.06832 -98.20069 -26.05538 -99.10673 -26.41953 -99.45506 -27.02865 -99.54919 -27.61263 -100.29792 -28.28035 -100.66877 -29.08007 -101.47047 -29.78869 -102.32433 -29.88012 -102.67636 -29.74423 -103.15346 -28.97868 -103.92089815807176 -29.27926575154578 Z"  />
<path  style="fill:#9999ff; filter:url(#white-glow); " fill-rule="evenodd"   d="M -102.31327719506771 -30.493899405809458 L -102.65471168241938 -31.619458067903228 -102.77 -32.79 -102.65471168241938 -33.96054193209677 -102.57566490419437 -34.22112423774455 -102.58389940580946 -34.216722804932274 -103.70945806790323 -33.87528831758061 -104.88 -33.76 -106.05054193209676 -33.87528831758061 -106.12220948934261 -33.89702843339338 -106.09 -33.57 -106.20528831758062 -32.39945806790323 -106.42050972469818 -31.689968171530616 -106.53897 -31.7862 -108.20266 -31.7868 -108.21006 -31.34374 -111.07132 -31.33553 -114.82097 -32.48711 -114.72126 -32.72081 -117.12723 -32.53573 -117.40927 -33.23406 -118.10582 -33.74755 -118.40418 -33.73843 -118.54094 -34.03724 -118.93843 -34.04007 -119.60533 -34.41644 -120.45521 -34.44251 -120.64029 -34.57235 -120.6374 -35.14005 -121.26923 -35.66357 -121.95422 -36.58281 -121.76033 -36.81904 -122.41355 -37.23918 -122.49713 -37.78301 -122.08823 -37.4526 -122.3786 -37.97352 -122.45718 -37.83429 -123.00962 -37.99454 -122.99354 -38.29731 -123.72077 -38.92486 -123.83697 -39.82652 -124.39147 -40.43538 -124.10827 -40.97836 -124.05677 -41.45832 -124.35104 -42.09884 -124.55839 -42.83263 -124.1571 -43.85728 -123.95538 -45.29314 -123.97608 -46.20288 -123.84019 -46.40452 -124.16075 -46.9298 -124.3723 -47.63896 -124.60536 -47.87394 -124.71582 -48.37777 -123.9899 -48.15936 -122.80165 -48.08551 -122.57929 -47.25157 -123.11417 -47.20816 -122.72694 -47.08262 -122.32414 -47.3445 -122.39325 -47.77436 -122.21574 -48.00762 -122.51557 -48.75809 -122.76383 -48.99991 -116.52880559274645 -48.999930326954114 -116.46528831758062 -48.79054193209677 -116.35 -47.62 -116.46528831758062 -46.44945806790323 -116.80672280493228 -45.323899405809456 -117.36118232618472 -44.28657860188238 -118.1073593128807 -43.377359312880714 -119.01657860188239 -42.63118232618473 -119.06683820859803 -42.60431800670671 -118.4765786018824 -42.288817673815274 -117.8333837452575 -41.760961296613154 -117.81471168241939 -41.95054193209677 -117.47327719506772 -43.07610059419054 -116.91881767381528 -44.113421398117616 -116.1726406871193 -45.022640687119285 -115.26342139811761 -45.76881767381527 -114.22610059419056 -46.32327719506772 -113.10054193209677 -46.66471168241938 -111.93 -46.78 -110.75945806790324 -46.66471168241938 -109.63389940580947 -46.32327719506772 -108.5965786018824 -45.76881767381528 -107.69279252140086 -45.02709960611792 -107.17610059419054 -45.303277195067714 -106.05054193209676 -45.64471168241938 -104.88 -45.76 -103.70945806790323 -45.644711682419384 -102.58389940580946 -45.30327719506772 -101.54657860188239 -44.74881767381527 -100.6373593128807 -44.00264068711928 -99.89118232618472 -43.09342139811761 -99.33672280493228 -42.05610059419054 -98.99528831758062 -40.93054193209677 -98.88 -39.76 -98.99528831758062 -38.58945806790323 -99.07433509580562 -38.32887576225545 -99.06610059419054 -38.333277195067716 -97.94054193209676 -38.67471168241938 -96.77 -38.79 -95.59945806790323 -38.674711682419385 -94.47389940580946 -38.33327719506772 -93.43657860188239 -37.77881767381527 -92.52735931288072 -37.03264068711928 -91.78118232618472 -36.123421398117614 -91.22672280493228 -35.08610059419054 -90.88528831758062 -33.960541932096774 -90.85761681280903 -33.679588429269245 -90.40118232618472 -33.123421398117614 -90.34739057183452 -33.02278410408909 -90.42 -33.76 -90.30471168241938 -34.930541932096766 -89.96327719506772 -36.05610059419054 -89.85439547694955 -36.259803961239186 -89.97610059419054 -36.29672280493229 -91.01342139811761 -36.851182326184734 -91.9226406871193 -37.59735931288072 -92.66881767381528 -38.50657860188239 -93.22327719506772 -39.54389940580946 -93.56471168241939 -40.66945806790323 -93.68 -41.84 -93.56471168241939 -43.01054193209677 -93.22327719506772 -44.136100594190545 -92.66881767381528 -45.17342139811762 -91.9226406871193 -46.08264068711929 -91.01342139811761 -46.82881767381527 -90.8697965419189 -46.90558675885281 -90.92606 -46.58556 -90.40802 -46.56867 -89.79108 -46.82477 -89.38657 -46.85027 -88.61798 -47.13119 -88.44649 -46.79947 -87.66363 -46.83693 -87.3714 -46.50806 -86.63806 -46.42232 -86.14794 -46.67308 -84.95468 -46.77093 -85.01656 -46.47643 -84.31158 -46.48865 -83.90646 -45.96022 -84.68897 -46.0359 -84.73168 -45.85567 -85.50944 -46.10192 -87.12363 -45.69628 -87.83989 -44.92733 -88.04031 -44.57146 -87.36736 -44.81157 -87.51724 -44.17576 -87.87524 -43.35859 -87.75673 -42.77753 -87.83694 -42.31421 -87.39471 -41.63415 -86.61757 -41.90741 -86.28495 -42.42229 -86.27378 -43.12103 -86.54122 -43.66318 -86.51852 -44.05362 -86.27187 -44.35123 -86.25853 -44.70073 -85.61013 -45.19653 -85.52601 -44.76316 -85.12038 -45.56977 -84.72414 -45.78029 -84.1059 -45.49874 -83.49585 -45.36079 -83.28085 -44.70317 -83.35699 -44.33512 -83.91839 -43.91698 -83.6992 -43.59962 -83.32606 -43.94045 -82.94021 -44.06995 -82.61856 -43.78785 -82.41992 -42.97243 -83.48276 -41.72508 -82.54894 -41.39129 -81.73865 -41.4911 -81.36243 -41.72424 -79.76347 -42.26727 -78.85944 -42.79269 -79.06247 -43.26816 -78.4649 -43.37194 -77.57599 -43.24149 -76.91484 -43.27853 -76.22311 -43.55408 -76.12942 -43.93215 -76.36321 -44.0983 -75.3292 -44.81057 -74.73648 -44.99287 -71.50584 -45.01331 -71.29771 -45.29345 -70.95986 -45.33882 -70.25445 -45.89896 -70.30533 -46.06662 -69.98546 -46.69133 -69.23079 -47.4533 -68.89539 -47.18222 -68.23132 -47.35211 -67.79155 -47.06096 -67.80398 -45.67805 -67.43986 -45.5925 -67.47851 -45.28021 -66.96985 -44.82858 -68.13681 -44.47516 -68.42911 -44.46523 -68.55996 -44.25981 -68.9597 -44.43026 -69.21965 -43.94671 -70.15713 -43.78973 -70.81438 -42.86697 -70.59371 -42.64621 -71.03467 -42.28553 -70.77511 -42.24854 -70.53823 -41.80566 -69.95496 -41.67138 -70.66541 -41.55602 -70.62028 -41.73553 -71.20045 -41.46321 -71.19932 -41.6784 -71.39408 -41.76106 -71.49039 -41.39198 -72.90719 -41.26997 -73.65358 -40.9983 -74.11594 -40.70552 -74.27932 -40.5142 -73.97886 -40.32351 -74.17184 -39.71815 -74.87669 -38.95657 -75.59019 -39.46377 -75.08314 -38.79981 -75.046 -38.44949 -75.89711 -37.36739 -75.69608 -37.82452 -75.79417 -38.2636 -76.29427 -38.43694 -75.9788 -39.39455 -76.36403 -39.39328 -76.54913 -38.75897 -76.33017 -38.0457 -76.86418 -38.39135 -76.93646 -38.20247 -76.2592 -37.89003 -76.27519 -37.33032 -76.50719 -36.86947 -75.99536 -36.92313 -75.94193 -36.29434 -76.69015 -36.04961 -75.74896 -35.86934 -76.18162 -35.34153 -76.98319 -35.4365 -76.50713 -35.24877 -76.91311 -34.93647 -76.31471 -34.94881 -76.62531 -34.71975 -77.05053 -34.69892 -77.53863 -34.45701 -78.03481 -33.91429 -78.57972 -33.88199 -79.9968 -32.60561 -80.86735 -32.53251 -80.78073 -32.24792 -81.52856 -31.1309 -81.5183 -30.55598 -81.3167 -29.82899 -80.74741 -28.39871 -80.05115 -26.79686 -80.12801 -25.97717 -80.42103 -25.19182 -81.11922 -25.13379 -81.25641 -25.80272 -81.71848 -25.9232 -81.8644 -26.4392 -82.39835 -26.99818 -82.6861 -27.47353 -82.40456 -27.79132 -82.84446 -27.85034 -82.6368 -28.88445 -83.0369 -29.17914 -83.65431 -29.91075 -84.35403 -30.06942 -84.85812 -29.74665 -85.30667 -29.7015 -85.52979 -30.13149 -86.50536 -30.40977 -86.45269 -30.50104 -87.19341 -30.35502 -87.90347 -30.4211 -88.01979 -30.744 -88.13568 -30.33696 -88.8857 -30.39809 -89.29817209447576 -30.29175657336646 -89.40881767381528 -30.426578601882383 -89.46260942816548 -30.527215895910906 -89.43592117248834 -30.25624548867283 -89.7285 -30.18082 -90.23967 -30.38076 -90.39548 -30.09188 -89.39142056334718 -29.804423221710397 -89.39 -29.79 -89.39054974049633 -29.784418391071853 -89.77171 -29.61003 -89.42322635281631 -29.452647178497166 -89.44585201523738 -29.222924972803586 -89.81746 -29.47741 -90.22768 -29.09844 -90.34756 -29.31273 -90.78281 -29.12671 -90.93643 -29.3433 -91.54775 -29.53147 -91.61565 -29.76893 -92.05963 -29.6068 -92.60728 -29.5884 -93.2335 -29.78877 -93.72183 -29.75857 -93.7602 -30.00596 -94.06541 -29.67408 -94.68252 -29.43291 -94.73572 -29.79299 -95.2484 -28.97839 -95.68303 -28.72695 -96.43716 -28.59699 -96.39072 -28.43406 -97.0264 -28.10775 -97.19546 -27.81222 -97.56856 -26.97786 -97.25312 -26.06832 -98.20069 -26.05538 -99.10673 -26.41953 -99.45506 -27.02865 -99.54919 -27.61263 -100.29792 -28.28035 -100.66877 -29.08007 -101.47047 -29.78869 -101.96461724455641 -29.84160251794181 Z"  />
<g  style="fill:#bbbbff; filter:url(#white-glow); ">
<path  fill-rule="evenodd"   d="M -97.6122809320784 -26.46412155078982 L -98.21842712474619 -26.961572875253808 -98.71587844921018 -27.56771906792159 -99.08551813004514 -28.25926627053964 -99.31314112161292 -29.009638711935484 -99.39 -29.79 -99.38995250941281 -29.79048218002355 -99.59842712474618 -29.961572875253808 -100.09587844921018 -30.56771906792159 -100.46551813004514 -31.25926627053964 -100.69314112161291 -32.00963871193549 -100.77 -32.79 -100.69314112161291 -33.57036128806451 -100.46551813004514 -34.32073372946036 -100.09587844921018 -35.012280932078404 -99.59842712474618 -35.61842712474619 -98.9922809320784 -36.11587844921018 -98.30073372946036 -36.48551813004514 -97.55036128806451 -36.71314112161292 -96.77 -36.79 -95.98963871193548 -36.71314112161292 -95.23926627053963 -36.48551813004514 -94.54771906792159 -36.11587844921018 -93.94157287525381 -35.61842712474619 -93.44412155078982 -35.01228093207841 -93.07448186995485 -34.32073372946036 -92.84685887838708 -33.57036128806451 -92.77 -32.79 -92.77004749058719 -32.78951781997645 -92.56157287525382 -32.61842712474619 -92.06412155078982 -32.01228093207841 -91.69448186995486 -31.32073372946036 -91.46685887838709 -30.570361288064515 -91.39 -29.79 -91.41935546480138 -29.491948964064118 -91.54775 -29.53147 -91.61565 -29.76893 -92.05963 -29.6068 -92.60728 -29.5884 -93.2335 -29.78877 -93.72183 -29.75857 -93.7602 -30.00596 -94.06541 -29.67408 -94.68252 -29.43291 -94.73572 -29.79299 -95.2484 -28.97839 -95.68303 -28.72695 -96.43716 -28.59699 -96.39072 -28.43406 -97.0264 -28.10775 -97.19546 -27.81222 -97.56856 -26.97786 -97.33989547605026 -26.31852849127174 Z"  />
<path  fill-rule="evenodd"   d="M -124.03228093207841 -40.62587844921018 L -123.34073372946037 -40.99551813004514 -122.59036128806451 -41.22314112161292 -121.81 -41.3 -121.02963871193549 -41.22314112161292 -120.27926627053964 -40.99551813004514 -119.5877190679216 -40.62587844921018 -118.98157287525382 -40.12842712474619 -118.48412155078982 -39.5222809320784 -118.11448186995486 -38.830733729460356 -117.88685887838709 -38.08036128806451 -117.87573110479418 -37.9673791067411 -117.62963871193548 -37.943141121612925 -116.87926627053963 -37.71551813004515 -116.18771906792159 -37.34587844921018 -115.58157287525381 -36.848427124746195 -115.08412155078982 -36.242280932078415 -115.06931172841682 -36.21457370321657 -114.91842712474619 -36.39842712474619 -114.31228093207841 -36.89587844921018 -113.71008123965608 -37.217760890876065 -114.15228093207841 -37.45412155078982 -114.75842712474619 -37.95157287525381 -115.25587844921019 -38.557719067921596 -115.62551813004515 -39.24926627053964 -115.85314112161294 -39.99963871193549 -115.93 -40.78 -115.85314112161294 -41.56036128806451 -115.62551813004515 -42.31073372946036 -115.25587844921019 -43.002280932078406 -114.75842712474619 -43.60842712474619 -114.15228093207841 -44.10587844921018 -113.46073372946037 -44.475518130045145 -112.71036128806452 -44.70314112161292 -111.93 -44.78 -111.1496387119355 -44.70314112161292 -110.39926627053964 -44.475518130045145 -109.7077190679216 -44.10587844921018 -109.10157287525382 -43.60842712474619 -108.60412155078983 -43.002280932078406 -108.23448186995486 -42.31073372946036 -108.15401648813626 -42.045474914490875 -107.70842712474618 -42.58842712474619 -107.1022809320784 -43.08587844921018 -106.41073372946036 -43.45551813004514 -105.66036128806451 -43.68314112161292 -104.88 -43.76 -104.09963871193548 -43.68314112161292 -103.34926627053963 -43.45551813004514 -102.65771906792159 -43.08587844921018 -102.05157287525381 -42.58842712474619 -101.55412155078982 -41.98228093207841 -101.18448186995485 -41.29073372946036 -100.95685887838708 -40.54036128806451 -100.88 -39.76 -100.95685887838707 -38.979638711935486 -101.18448186995485 -38.22926627053964 -101.55412155078982 -37.537719067921586 -102.05157287525381 -36.931572875253806 -102.65771906792159 -36.43412155078982 -103.34926627053963 -36.064481869954854 -104.09963871193548 -35.836858878387076 -104.88 -35.76 -105.66036128806451 -35.836858878387076 -106.41073372946036 -36.064481869954854 -107.1022809320784 -36.43412155078982 -107.70842712474618 -36.931572875253806 -108.20587844921018 -37.537719067921586 -108.57551813004514 -38.22926627053964 -108.65598351186375 -38.49452508550912 -109.10157287525382 -37.95157287525381 -109.7077190679216 -37.45412155078982 -110.30991876034393 -37.13223910912394 -109.8677190679216 -36.89587844921018 -109.26157287525382 -36.39842712474619 -108.76412155078982 -35.79228093207841 -108.39448186995486 -35.10073372946036 -108.16685887838709 -34.35036128806451 -108.09 -33.57 -108.16685887838707 -32.78963871193549 -108.39448186995486 -32.03926627053964 -108.76412155078982 -31.34771906792159 -108.76870259421597 -31.34213705035596 -111.07132 -31.33553 -114.82097 -32.48711 -114.72126 -32.72081 -117.12723 -32.53573 -117.40927 -33.23406 -118.10582 -33.74755 -118.40418 -33.73843 -118.54094 -34.03724 -118.93843 -34.04007 -119.60533 -34.41644 -120.45521 -34.44251 -120.64029 -34.57235 -120.6374 -35.14005 -121.26923 -35.66357 -121.95422 -36.58281 -121.76033 -36.81904 -122.41355 -37.23918 -122.49713 -37.78301 -122.08823 -37.4526 -122.3786 -37.97352 -122.45718 -37.83429 -123.00962 -37.99454 -122.99354 -38.29731 -123.72077 -38.92486 -123.83697 -39.82652 -124.33712086196283 -40.37570278415634 Z"  />
<path  fill-rule="evenodd"   d="M -120.12771906792159 -44.29412155078982 L -120.81926627053963 -43.92448186995485 -121.56963871193548 -43.696858878387076 -122.35 -43.62 -123.1303612880645 -43.696858878387076 -123.88073372946036 -43.92448186995485 -124.12901505599835 -44.05719100383804 -123.95538 -45.29314 -123.97608 -46.20288 -123.84019 -46.40452 -124.16075 -46.9298 -124.3723 -47.63896 -124.60536 -47.87394 -124.71582 -48.37777 -123.9899 -48.15936 -122.80165 -48.08551 -122.57929 -47.25157 -123.11417 -47.20816 -122.72694 -47.08262 -122.32414 -47.3445 -122.39325 -47.77436 -122.21574 -48.00762 -122.51557 -48.75809 -122.76383 -48.99991 -118.60873410098701 -48.9999235461288 -118.42685887838708 -48.40036128806451 -118.35 -47.62 -118.42685887838707 -46.839638711935486 -118.65448186995485 -46.08926627053964 -119.02412155078981 -45.397719067921585 -119.52157287525381 -44.791572875253806 Z"  />
<path  fill-rule="evenodd"   d="M -82.4322809320784 -29.10587844921018 L -81.74073372946036 -29.475518130045145 -81.23684791875601 -29.62837021963911 -80.74741 -28.39871 -80.05115 -26.79686 -80.12801 -25.97717 -80.42103 -25.19182 -81.11922 -25.13379 -81.25641 -25.80272 -81.71848 -25.9232 -81.8644 -26.4392 -82.39835 -26.99818 -82.6861 -27.47353 -82.40456 -27.79132 -82.84446 -27.85034 -82.6368 -28.88445 -82.67121003820736 -28.909794399298494 Z"  />
<path  fill-rule="evenodd"   d="M -82.1977190679216 -30.43412155078982 L -82.88926627053964 -30.06448186995485 -83.60167213904968 -29.848375912359923 -83.65431 -29.91075 -84.35403 -30.06942 -84.78164255938316 -29.79561868318732 -85.20036128806451 -29.836858878387076 -85.40988772740184 -29.900418028888108 -85.52979 -30.13149 -86.50536 -30.40977 -86.45269 -30.50104 -86.67130783593511 -30.457943315148444 -87.24842712474619 -30.931572875253806 -87.74587844921018 -31.53771906792159 -88.11551813004515 -32.22926627053964 -88.34314112161292 -32.979638711935486 -88.42 -33.76 -88.34314112161292 -34.54036128806451 -88.11551813004515 -35.29073372946036 -87.74587844921018 -35.9822809320784 -87.24842712474619 -36.58842712474619 -86.6422809320784 -37.08587844921018 -85.95073372946037 -37.45551813004514 -85.20036128806451 -37.68314112161292 -84.42 -37.76 -83.63963871193549 -37.68314112161292 -82.88926627053964 -37.45551813004514 -82.1977190679216 -37.08587844921018 -81.59157287525382 -36.58842712474619 -81.09412155078982 -35.98228093207841 -80.72448186995486 -35.29073372946036 -80.49685887838709 -34.54036128806451 -80.42 -33.76 -80.49685887838709 -32.979638711935486 -80.62635527459857 -32.55274630397662 -80.86735 -32.53251 -80.78073 -32.24792 -81.52856 -31.1309 -81.52641959777496 -31.010962373565405 -81.59157287525382 -30.931572875253806 Z"  />
<path  fill-rule="evenodd"   d="M -77.02 -34.9 L -77.80036128806451 -34.97685887838708 -78.55073372946036 -35.204481869954854 -79.2422809320784 -35.57412155078982 -79.84842712474618 -36.07157287525381 -80.34587844921018 -36.677719067921586 -80.71551813004514 -37.36926627053964 -80.94314112161291 -38.11963871193549 -81.02 -38.9 -80.94314112161291 -39.68036128806451 -80.71551813004514 -40.43073372946036 -80.34587844921018 -41.122280932078404 -79.84842712474618 -41.72842712474619 -79.2422809320784 -42.22587844921018 -78.55073372946036 -42.59551813004514 -78.02752429758206 -42.75423197603751 -77.95842712474618 -42.83842712474619 -77.45932978678887 -43.2480257245668 -76.91484 -43.27853 -76.22311 -43.55408 -76.12942 -43.93215 -76.18211613627977 -43.96960011781036 -76.1622809320784 -43.985878449210176 -75.47073372946036 -44.35551813004514 -74.72036128806451 -44.58314112161292 -74.29432228412918 -44.625102300995394 -73.98861996847634 -44.99760165039879 -71.50584 -45.01331 -71.29771 -45.29345 -70.95986 -45.33882 -70.25445 -45.89896 -70.30533 -46.06662 -70.20940183835664 -46.25396886629013 -69.48926627053963 -46.03551813004515 -68.79771906792159 -45.66587844921018 -68.19157287525381 -45.168427124746195 -67.72498185991118 -44.59988432754353 -68.13681 -44.47516 -68.42911 -44.46523 -68.55996 -44.25981 -68.9597 -44.43026 -69.21965 -43.94671 -70.15713 -43.78973 -70.81438 -42.86697 -70.59371 -42.64621 -71.03467 -42.28553 -70.77511 -42.24854 -70.53823 -41.80566 -69.95496 -41.67138 -70.66541 -41.55602 -70.62028 -41.73553 -71.20045 -41.46321 -71.19932 -41.6784 -71.39408 -41.76106 -71.49039 -41.39198 -72.90719 -41.26997 -73.65358 -40.9983 -74.11594 -40.70552 -74.27932 -40.5142 -73.97886 -40.32351 -74.17184 -39.71815 -74.87669 -38.95657 -75.59019 -39.46377 -75.08314 -38.79981 -75.046 -38.44949 -75.89711 -37.36739 -75.69608 -37.82452 -75.79417 -38.2636 -76.29427 -38.43694 -75.9788 -39.39455 -76.36403 -39.39328 -76.54913 -38.75897 -76.33017 -38.0457 -76.86418 -38.39135 -76.93646 -38.20247 -76.2592 -37.89003 -76.27519 -37.33032 -76.50719 -36.86947 -75.99536 -36.92313 -75.94193 -36.29434 -76.69015 -36.04961 -75.74896 -35.86934 -76.18162 -35.34153 -76.98319 -35.4365 -76.50713 -35.24877 -76.91311 -34.93647 -76.57996066588808 -34.94334009154903 Z"  />
<path  fill-rule="evenodd"   d="M -85.4577190679216 -38.514121550789824 L -86.14926627053964 -38.14448186995486 -86.8996387119355 -37.91685887838708 -87.68 -37.84 -88.46036128806452 -37.91685887838708 -89.21073372946037 -38.14448186995486 -89.90228093207841 -38.514121550789824 -90.50842712474619 -39.01157287525381 -91.00587844921019 -39.6177190679216 -91.37551813004515 -40.309266270539645 -91.60314112161294 -41.05963871193549 -91.68 -41.84 -91.60314112161294 -42.620361288064515 -91.37551813004515 -43.37073372946036 -91.00587844921019 -44.06228093207841 -90.50842712474619 -44.668427124746195 -89.90228093207841 -45.16587844921018 -89.21073372946037 -45.53551813004515 -88.46036128806452 -45.763141121612925 -87.68 -45.84 -86.8996387119355 -45.763141121612925 -86.88057611462065 -45.757358545936526 -87.12363 -45.69628 -87.83989 -44.92733 -88.04031 -44.57146 -87.36736 -44.81157 -87.51724 -44.17576 -87.87524 -43.35859 -87.75673 -42.77753 -87.83694 -42.31421 -87.39471 -41.63415 -86.61757 -41.90741 -86.28495 -42.42229 -86.27378 -43.12103 -86.54122 -43.66318 -86.51852 -44.05362 -86.27187 -44.35123 -86.25853 -44.70073 -85.61013 -45.19653 -85.52601 -44.76316 -85.36270340166776 -45.0879011071192 -84.85157287525382 -44.668427124746195 -84.35412155078983 -44.06228093207841 -83.98448186995486 -43.37073372946036 -83.75685887838709 -42.620361288064515 -83.68 -41.84 -83.75685887838708 -41.05963871193549 -83.98448186995486 -40.309266270539645 -84.35412155078983 -39.6177190679216 -84.85157287525382 -39.01157287525381 Z"  />
</g>
<g  style="fill:#ddddff; filter:url(#white-glow); ">
<path  fill-rule="evenodd"   d="M -96.80421356237309 -28.375786437626903 L -97.0529392246051 -28.678859533960797 -97.23775906502257 -29.02463313526982 -97.35157056080646 -29.399819355967743 -97.39 -29.79 -97.35157056080646 -30.180180644032255 -97.23775906502257 -30.55536686473018 -97.09522371934425 -30.82203174052325 -97.16018064403225 -30.82842943919354 -97.53536686473018 -30.942240934977427 -97.8811404660392 -31.12706077539491 -98.18421356237309 -31.375786437626903 -98.4329392246051 -31.678859533960797 -98.61775906502257 -32.024633135269816 -98.73157056080646 -32.39981935596774 -98.77 -32.79 -98.73157056080646 -33.180180644032255 -98.61775906502257 -33.55536686473018 -98.4329392246051 -33.9011404660392 -98.18421356237309 -34.20421356237309 -97.8811404660392 -34.45293922460509 -97.53536686473018 -34.63775906502257 -97.16018064403225 -34.75157056080646 -96.77 -34.79 -96.37981935596774 -34.75157056080646 -96.00463313526981 -34.63775906502257 -95.6588595339608 -34.45293922460509 -95.3557864376269 -34.20421356237309 -95.1070607753949 -33.9011404660392 -94.92224093497742 -33.55536686473018 -94.80842943919353 -33.180180644032255 -94.77 -32.79 -94.80842943919353 -32.39981935596774 -94.92224093497742 -32.024633135269816 -95.06477628065575 -31.757968259476748 -94.99981935596774 -31.75157056080646 -94.62463313526982 -31.63775906502257 -94.2788595339608 -31.45293922460509 -93.97578643762691 -31.204213562373095 -93.7270607753949 -30.9011404660392 -93.54224093497743 -30.55536686473018 -93.42842943919354 -30.180180644032255 -93.39 -29.79 -93.39108097737196 -29.779024652557425 -93.72183 -29.75857 -93.7602 -30.00596 -94.06541 -29.67408 -94.68252 -29.43291 -94.73572 -29.79299 -95.2484 -28.97839 -95.68303 -28.72695 -96.43716 -28.59699 -96.39072 -28.43406 -96.68878449301486 -28.281056248559523 Z"  />
<path  fill-rule="evenodd"   d="M -110.9788595339608 -31.90706077539491 L -111.32463313526982 -31.722240934977428 -111.69981935596775 -31.60842943919354 -111.89675038349831 -31.589033425927486 -113.36192448271188 -32.03901280778242 -113.5042135623731 -32.15578643762691 -113.7529392246051 -32.4588595339608 -113.93775906502258 -32.80463313526982 -114.05157056080647 -33.179819355967744 -114.09 -33.57 -114.05157056080647 -33.960180644032256 -113.93775906502258 -34.33536686473018 -113.7529392246051 -34.6811404660392 -113.5042135623731 -34.98421356237309 -113.2011404660392 -35.23293922460509 -112.85536686473019 -35.41775906502257 -112.48018064403226 -35.53157056080646 -112.09 -35.57 -111.69981935596775 -35.53157056080646 -111.32463313526982 -35.41775906502257 -110.9788595339608 -35.23293922460509 -110.67578643762691 -34.98421356237309 -110.4270607753949 -34.6811404660392 -110.24224093497743 -34.33536686473018 -110.12842943919354 -33.960180644032256 -110.09 -33.57 -110.12842943919354 -33.179819355967744 -110.24224093497743 -32.80463313526982 -110.4270607753949 -32.4588595339608 -110.67578643762691 -32.15578643762691 Z"  />
<path  fill-rule="evenodd"   d="M -117.07638451499737 -32.539641304947395 L -117.12723 -32.53573 -117.40927 -33.23406 -118.10582 -33.74755 -118.40418 -33.73843 -118.54094 -34.03724 -118.93843 -34.04007 -119.60533 -34.41644 -120.362625073124 -34.43966996488486 -120.25775906502257 -34.785366864730186 -120.0729392246051 -35.131140466039206 -119.82421356237309 -35.434213562373095 -119.5211404660392 -35.68293922460509 -119.17536686473018 -35.867759065022575 -118.80018064403225 -35.98157056080646 -118.41 -36.02 -118.01981935596774 -35.98157056080646 -117.64463313526981 -35.867759065022575 -117.2988595339608 -35.68293922460509 -116.9957864376269 -35.434213562373095 -116.7470607753949 -35.131140466039206 -116.56224093497742 -34.785366864730186 -116.44842943919353 -34.41018064403226 -116.41 -34.02 -116.44842943919353 -33.62981935596775 -116.56224093497742 -33.25463313526982 -116.7470607753949 -32.9088595339608 -116.9957864376269 -32.60578643762691 Z"  />
<path  fill-rule="evenodd"   d="M -120.6988595339608 -35.63706077539491 L -121.02612135067592 -35.46213568998918 -121.26923 -35.66357 -121.95422 -36.58281 -121.76033 -36.81904 -122.41355 -37.23918 -122.49713 -37.78301 -122.08823 -37.4526 -122.3786 -37.97352 -122.45718 -37.83429 -123.00962 -37.99454 -122.99354 -38.29731 -123.32887593546012 -38.58668209177014 -123.2242135623731 -38.71421356237309 -122.9211404660392 -38.96293922460509 -122.57536686473019 -39.14775906502257 -122.20018064403226 -39.261570560806454 -121.81 -39.3 -121.41981935596775 -39.26157056080646 -121.04463313526982 -39.14775906502257 -120.6988595339608 -38.96293922460509 -120.39578643762691 -38.71421356237309 -120.1470607753949 -38.4111404660392 -119.96224093497743 -38.06536686473018 -119.84842943919354 -37.69018064403225 -119.81 -37.3 -119.84842943919354 -36.90981935596774 -119.96224093497743 -36.534633135269814 -120.1470607753949 -36.188859533960795 -120.39578643762691 -35.885786437626905 Z"  />
<path  fill-rule="evenodd"   d="M -103.76885953396079 -38.09706077539491 L -104.11463313526981 -37.912240934977426 -104.48981935596774 -37.79842943919354 -104.88 -37.76 -105.27018064403225 -37.79842943919354 -105.64536686473018 -37.912240934977426 -105.9911404660392 -38.09706077539491 -106.29421356237309 -38.345786437626906 -106.54293922460509 -38.648859533960795 -106.72775906502257 -38.994633135269815 -106.84157056080646 -39.36981935596774 -106.88 -39.76 -106.84157056080646 -40.150180644032254 -106.72775906502257 -40.52536686473018 -106.54293922460509 -40.8711404660392 -106.29421356237309 -41.17421356237309 -105.9911404660392 -41.42293922460509 -105.64536686473018 -41.60775906502257 -105.27018064403225 -41.721570560806455 -104.88 -41.76 -104.48981935596774 -41.721570560806455 -104.11463313526981 -41.60775906502257 -103.76885953396079 -41.42293922460509 -103.4657864376269 -41.17421356237309 -103.2170607753949 -40.8711404660392 -103.03224093497742 -40.52536686473018 -102.91842943919353 -40.150180644032254 -102.88 -39.76 -102.91842943919353 -39.36981935596774 -103.03224093497742 -38.994633135269815 -103.2170607753949 -38.648859533960795 -103.4657864376269 -38.345786437626906 Z"  />
<path  fill-rule="evenodd"   d="M -110.8188595339608 -39.11706077539491 L -111.16463313526982 -38.93224093497743 -111.53981935596775 -38.81842943919354 -111.93 -38.78 -112.32018064403226 -38.81842943919354 -112.69536686473019 -38.93224093497743 -113.04114046603921 -39.11706077539491 -113.3442135623731 -39.36578643762691 -113.5929392246051 -39.6688595339608 -113.77775906502258 -40.01463313526982 -113.89157056080647 -40.389819355967745 -113.93 -40.78 -113.89157056080647 -41.17018064403226 -113.77775906502258 -41.545366864730184 -113.5929392246051 -41.891140466039204 -113.3442135623731 -42.19421356237309 -113.04114046603921 -42.44293922460509 -112.69536686473019 -42.62775906502257 -112.32018064403226 -42.74157056080646 -111.93 -42.78 -111.53981935596775 -42.741570560806466 -111.16463313526982 -42.62775906502257 -110.8188595339608 -42.44293922460509 -110.51578643762691 -42.19421356237309 -110.26706077539491 -41.891140466039204 -110.08224093497743 -41.545366864730184 -109.96842943919354 -41.17018064403226 -109.93 -40.78 -109.96842943919354 -40.389819355967745 -110.08224093497743 -40.01463313526982 -110.26706077539491 -39.6688595339608 -110.51578643762691 -39.36578643762691 Z"  />
<path  fill-rule="evenodd"   d="M -121.23885953396079 -45.95706077539491 L -121.58463313526981 -45.772240934977425 -121.95981935596774 -45.65842943919354 -122.35 -45.62 -122.74018064403225 -45.65842943919354 -123.11536686473018 -45.772240934977425 -123.4611404660392 -45.95706077539491 -123.76421356237309 -46.205786437626905 -123.87947283738448 -46.34623027058499 -123.84019 -46.40452 -124.16075 -46.9298 -124.34179611758587 -47.53670458400943 -124.35 -47.62 -124.31157056080646 -48.01018064403225 -124.24319915266035 -48.235570970812965 -123.9899 -48.15936 -122.80165 -48.08551 -122.57929 -47.25157 -123.11417 -47.20816 -122.72694 -47.08262 -122.32414 -47.3445 -122.39325 -47.77436 -122.21574 -48.00762 -122.51557 -48.75809 -122.76383 -48.99991 -120.90763919780342 -48.9999160514126 -120.6870607753949 -48.7311404660392 -120.50224093497742 -48.38536686473018 -120.38842943919353 -48.01018064403225 -120.35 -47.62 -120.38842943919353 -47.22981935596774 -120.50224093497742 -46.854633135269815 -120.6870607753949 -46.508859533960795 -120.9357864376269 -46.205786437626905 Z"  />
<path  fill-rule="evenodd"   d="M -81.87293922460509 -26.891140466039204 L -81.62421356237309 -27.194213562373097 -81.3211404660392 -27.44293922460509 -80.97536686473018 -27.627759065022573 -80.60018064403225 -27.741570560806462 -80.4674596423761 -27.754642438514544 -80.05115 -26.79686 -80.12801 -25.97717 -80.42103 -25.19182 -81.11922 -25.13379 -81.25641 -25.80272 -81.71848 -25.9232 -81.8644 -26.4392 -82.02476910621449 -26.60708673657043 Z"  />
<path  fill-rule="evenodd"   d="M -83.3088595339608 -32.09706077539491 L -83.65463313526982 -31.912240934977426 -84.02981935596775 -31.798429439193537 -84.42 -31.759999999999998 -84.81018064403226 -31.798429439193537 -85.18536686473018 -31.912240934977426 -85.5311404660392 -32.09706077539491 -85.8342135623731 -32.345786437626906 -86.0829392246051 -32.648859533960795 -86.26775906502257 -32.994633135269815 -86.38157056080647 -33.36981935596774 -86.42 -33.76 -86.38157056080647 -34.150180644032254 -86.26775906502257 -34.52536686473018 -86.0829392246051 -34.8711404660392 -85.8342135623731 -35.17421356237309 -85.5311404660392 -35.42293922460509 -85.18536686473018 -35.60775906502257 -84.81018064403226 -35.721570560806455 -84.42 -35.76 -84.02981935596775 -35.721570560806455 -83.65463313526982 -35.60775906502257 -83.3088595339608 -35.42293922460509 -83.00578643762691 -35.17421356237309 -82.7570607753949 -34.8711404660392 -82.57224093497743 -34.52536686473018 -82.45842943919354 -34.150180644032254 -82.42 -33.76 -82.45842943919354 -33.36981935596774 -82.57224093497743 -32.994633135269815 -82.7570607753949 -32.648859533960795 -83.00578643762691 -32.345786437626906 Z"  />
<path  fill-rule="evenodd"   d="M -76.62981935596774 -36.93842943919354 L -77.02 -36.9 -77.41018064403225 -36.93842943919354 -77.78536686473018 -37.052240934977426 -78.1311404660392 -37.23706077539491 -78.43421356237309 -37.485786437626906 -78.6829392246051 -37.788859533960796 -78.86775906502257 -38.134633135269816 -78.98157056080646 -38.50981935596774 -79.02 -38.9 -78.98157056080646 -39.290180644032255 -78.86775906502257 -39.66536686473018 -78.6829392246051 -40.0111404660392 -78.43421356237309 -40.31421356237309 -78.1311404660392 -40.56293922460509 -77.78536686473018 -40.74775906502257 -77.41018064403225 -40.861570560806456 -77.02 -40.9 -76.9165854971564 -40.88981456048745 -76.79293922460509 -41.1211404660392 -76.54421356237309 -41.42421356237309 -76.2411404660392 -41.67293922460509 -75.89536686473018 -41.85775906502257 -75.52018064403225 -41.971570560806455 -75.43126332734442 -41.98032815210979 -75.35421356237309 -42.07421356237309 -75.0511404660392 -42.322939224605086 -74.70536686473018 -42.50775906502257 -74.33018064403225 -42.621570560806454 -73.94 -42.66 -73.54981935596774 -42.62157056080646 -73.17463313526981 -42.50775906502257 -73.01203700708649 -42.4208496238461 -72.98157056080646 -42.73018064403226 -72.86775906502257 -43.105366864730186 -72.6829392246051 -43.451140466039206 -72.43421356237309 -43.754213562373096 -72.1311404660392 -44.00293922460509 -71.78536686473018 -44.187759065022576 -71.41018064403225 -44.30157056080646 -71.02 -44.34 -70.62981935596774 -44.30157056080647 -70.25463313526981 -44.187759065022576 -69.9088595339608 -44.00293922460509 -69.73516072215315 -43.860388293762426 -70.15713 -43.78973 -70.81438 -42.86697 -70.59371 -42.64621 -71.03467 -42.28553 -70.77511 -42.24854 -70.53823 -41.80566 -69.95496 -41.67138 -70.66541 -41.55602 -70.62028 -41.73553 -71.20045 -41.46321 -71.19932 -41.6784 -71.39408 -41.76106 -71.49039 -41.39198 -72.90719 -41.26997 -73.65358 -40.9983 -74.11594 -40.70552 -74.27932 -40.5142 -73.97886 -40.32351 -74.17184 -39.71815 -74.87669 -38.95657 -75.59019 -39.46377 -75.08314 -38.79981 -75.046 -38.44949 -75.89711 -37.36739 -75.69608 -37.82452 -75.79417 -38.2636 -76.29427 -38.43694 -75.9788 -39.39455 -76.36403 -39.39328 -76.54913 -38.75897 -76.33017 -38.0457 -76.86418 -38.39135 -76.93646 -38.20247 -76.2592 -37.89003 -76.27519 -37.33032 -76.44411580450462 -36.994761995663985 Z"  />
<path  fill-rule="evenodd"   d="M -86.5688595339608 -40.177060775394914 L -86.91463313526982 -39.99224093497743 -87.28981935596775 -39.87842943919354 -87.68 -39.84 -88.07018064403226 -39.87842943919354 -88.44536686473019 -39.99224093497743 -88.79114046603921 -40.177060775394914 -89.0942135623731 -40.42578643762691 -89.3429392246051 -40.7288595339608 -89.52775906502258 -41.07463313526982 -89.64157056080647 -41.44981935596775 -89.68 -41.84 -89.64157056080647 -42.23018064403226 -89.52775906502258 -42.605366864730186 -89.3429392246051 -42.951140466039206 -89.0942135623731 -43.254213562373096 -88.79114046603921 -43.50293922460509 -88.44536686473019 -43.687759065022576 -88.07018064403226 -43.80157056080646 -87.68 -43.84 -87.66498350554855 -43.83852100438797 -87.87524 -43.35859 -87.75673 -42.77753 -87.83694 -42.31421 -87.39471 -41.63415 -86.61757 -41.90741 -86.28495 -42.42229 -86.27378 -43.12103 -86.38960523385822 -43.35582902234606 -86.26578643762691 -43.254213562373096 -86.01706077539491 -42.951140466039206 -85.83224093497743 -42.605366864730186 -85.71842943919354 -42.23018064403226 -85.68 -41.84 -85.71842943919354 -41.44981935596775 -85.83224093497743 -41.07463313526982 -86.01706077539491 -40.7288595339608 -86.26578643762691 -40.42578643762691 Z"  />
</g>
<g  style="fill:#ffffff; filter:url(#white-glow); ">
<path  fill-rule="evenodd"   d="M -95.03644660940672 -29.436446609406726 L -95.1122148834902 -29.374265193848725 -95.19865828381745 -29.328060233744356 -95.29245483899193 -29.299607359798383 -95.39 -29.29 -95.48754516100807 -29.299607359798383 -95.58134171618255 -29.328060233744356 -95.6677851165098 -29.374265193848725 -95.74355339059328 -29.436446609406726 -95.80573480615128 -29.5122148834902 -95.85193976625564 -29.598658283817453 -95.88039264020162 -29.692454838991935 -95.89 -29.79 -95.88039264020162 -29.887545161008063 -95.85193976625564 -29.981341716182545 -95.80573480615128 -30.0677851165098 -95.74355339059328 -30.143553390593272 -95.6677851165098 -30.205734806151273 -95.58134171618255 -30.251939766255642 -95.48754516100807 -30.280392640201615 -95.39 -30.29 -95.29245483899193 -30.280392640201615 -95.19865828381745 -30.251939766255642 -95.1122148834902 -30.205734806151273 -95.03644660940672 -30.143553390593272 -94.97426519384872 -30.0677851165098 -94.92806023374436 -29.981341716182545 -94.89960735979838 -29.887545161008063 -94.89 -29.79 -94.89960735979838 -29.692454838991935 -94.92806023374436 -29.598658283817453 -94.97426519384872 -29.5122148834902 Z"  />
<path  fill-rule="evenodd"   d="M -96.49221488349019 -32.37426519384873 L -96.57865828381745 -32.32806023374435 -96.67245483899192 -32.29960735979839 -96.77 -32.29 -96.86754516100807 -32.29960735979839 -96.96134171618255 -32.32806023374435 -97.0477851165098 -32.37426519384873 -97.12355339059327 -32.43644660940672 -97.18573480615127 -32.512214883490195 -97.23193976625564 -32.59865828381746 -97.26039264020162 -32.692454838991935 -97.27 -32.79 -97.26039264020162 -32.88754516100806 -97.23193976625564 -32.98134171618254 -97.18573480615127 -33.0677851165098 -97.12355339059327 -33.143553390593276 -97.0477851165098 -33.20573480615127 -96.96134171618255 -33.251939766255646 -96.86754516100807 -33.28039264020161 -96.77 -33.29 -96.67245483899192 -33.28039264020161 -96.57865828381745 -33.251939766255646 -96.49221488349019 -33.20573480615127 -96.41644660940672 -33.143553390593276 -96.35426519384872 -33.0677851165098 -96.30806023374436 -32.98134171618254 -96.27960735979838 -32.88754516100806 -96.27 -32.79 -96.27960735979838 -32.692454838991935 -96.30806023374436 -32.59865828381746 -96.35426519384872 -32.512214883490195 -96.41644660940672 -32.43644660940672 Z"  />
<path  fill-rule="evenodd"   d="M -111.8122148834902 -33.15426519384873 L -111.89865828381745 -33.108060233744354 -111.99245483899193 -33.07960735979839 -112.09 -33.07 -112.18754516100807 -33.07960735979839 -112.28134171618255 -33.108060233744354 -112.36778511650981 -33.15426519384873 -112.44355339059328 -33.216446609406724 -112.50573480615128 -33.292214883490196 -112.55193976625564 -33.37865828381746 -112.58039264020162 -33.472454838991936 -112.59 -33.57 -112.58039264020162 -33.667545161008064 -112.55193976625564 -33.76134171618254 -112.50573480615128 -33.847785116509804 -112.44355339059328 -33.92355339059328 -112.36778511650981 -33.98573480615127 -112.28134171618255 -34.03193976625565 -112.18754516100807 -34.06039264020161 -112.09 -34.07 -111.99245483899193 -34.06039264020161 -111.89865828381745 -34.03193976625565 -111.8122148834902 -33.98573480615127 -111.73644660940673 -33.92355339059328 -111.67426519384873 -33.847785116509804 -111.62806023374436 -33.76134171618254 -111.59960735979838 -33.667545161008064 -111.59 -33.57 -111.59960735979838 -33.472454838991936 -111.62806023374436 -33.37865828381746 -111.67426519384873 -33.292214883490196 -111.73644660940673 -33.216446609406724 Z"  />
<path  fill-rule="evenodd"   d="M -118.90039264020162 -34.11754516100807 L -118.87193976625564 -34.211341716182545 -118.82573480615127 -34.29778511650981 -118.76355339059327 -34.37355339059328 -118.6877851165098 -34.435734806151274 -118.60134171618255 -34.48193976625565 -118.50754516100807 -34.510392640201616 -118.41 -34.52 -118.31245483899193 -34.510392640201616 -118.21865828381745 -34.48193976625565 -118.13221488349019 -34.435734806151274 -118.05644660940672 -34.37355339059328 -117.99426519384872 -34.29778511650981 -117.94806023374436 -34.211341716182545 -117.91960735979838 -34.11754516100807 -117.91 -34.02 -117.91960735979838 -33.92245483899194 -117.94806023374436 -33.82865828381746 -117.99426519384872 -33.7422148834902 -118.03358730731448 -33.694300749598604 -118.10582 -33.74755 -118.40418 -33.73843 -118.54094 -34.03724 -118.90804458460458 -34.03985366568827 Z"  />
<path  fill-rule="evenodd"   d="M -121.5322148834902 -36.88426519384873 L -121.61865828381745 -36.83806023374435 -121.71245483899193 -36.809607359798385 -121.77296343754777 -36.80364778301144 -121.76033 -36.81904 -122.28680401196644 -37.15765913503502 -122.30039264020162 -37.20245483899193 -122.31 -37.3 -122.30039264020162 -37.39754516100806 -122.27193976625564 -37.49134171618254 -122.23098876691178 -37.56795564728619 -122.08823 -37.4526 -122.18540381908451 -37.6269285664411 -122.16355339059328 -37.653553390593274 -122.0877851165098 -37.71573480615127 -122.00134171618255 -37.761939766255644 -121.90754516100807 -37.79039264020161 -121.81 -37.8 -121.71245483899193 -37.79039264020161 -121.61865828381745 -37.761939766255644 -121.5322148834902 -37.71573480615127 -121.45644660940673 -37.653553390593274 -121.39426519384872 -37.5777851165098 -121.34806023374436 -37.49134171618254 -121.31960735979838 -37.39754516100806 -121.31 -37.3 -121.31960735979838 -37.20245483899193 -121.34806023374436 -37.108658283817455 -121.39426519384872 -37.02221488349019 -121.45644660940673 -36.94644660940672 Z"  />
<path  fill-rule="evenodd"   d="M -104.60221488349019 -39.34426519384873 L -104.68865828381745 -39.29806023374435 -104.78245483899192 -39.269607359798385 -104.88 -39.26 -104.97754516100807 -39.269607359798385 -105.07134171618254 -39.29806023374435 -105.1577851165098 -39.34426519384873 -105.23355339059327 -39.40644660940672 -105.29573480615127 -39.482214883490194 -105.34193976625563 -39.568658283817456 -105.37039264020162 -39.662454838991934 -105.38 -39.76 -105.37039264020162 -39.85754516100806 -105.34193976625563 -39.95134171618254 -105.29573480615127 -40.0377851165098 -105.23355339059327 -40.113553390593275 -105.1577851165098 -40.17573480615127 -105.07134171618254 -40.221939766255645 -104.97754516100807 -40.25039264020161 -104.88 -40.26 -104.78245483899192 -40.25039264020161 -104.68865828381745 -40.221939766255645 -104.60221488349019 -40.17573480615127 -104.52644660940672 -40.113553390593275 -104.46426519384872 -40.0377851165098 -104.41806023374436 -39.95134171618254 -104.38960735979838 -39.85754516100806 -104.38 -39.76 -104.38960735979838 -39.662454838991934 -104.41806023374436 -39.568658283817456 -104.46426519384872 -39.482214883490194 -104.52644660940672 -39.40644660940672 Z"  />
<path  fill-rule="evenodd"   d="M -111.6522148834902 -40.36426519384873 L -111.73865828381746 -40.318060233744355 -111.83245483899194 -40.28960735979839 -111.93 -40.28 -112.02754516100808 -40.28960735979839 -112.12134171618256 -40.318060233744355 -112.20778511650981 -40.36426519384873 -112.28355339059328 -40.426446609406725 -112.34573480615128 -40.5022148834902 -112.39193976625565 -40.58865828381746 -112.42039264020163 -40.68245483899194 -112.43 -40.78 -112.42039264020163 -40.877545161008065 -112.39193976625565 -40.97134171618254 -112.34573480615128 -41.057785116509805 -112.28355339059328 -41.13355339059328 -112.20778511650981 -41.19573480615127 -112.12134171618256 -41.24193976625565 -112.02754516100808 -41.270392640201614 -111.93 -41.28 -111.83245483899194 -41.270392640201614 -111.73865828381746 -41.24193976625565 -111.6522148834902 -41.19573480615127 -111.57644660940673 -41.13355339059328 -111.51426519384873 -41.057785116509805 -111.46806023374437 -40.97134171618254 -111.43960735979839 -40.877545161008065 -111.43 -40.78 -111.43960735979839 -40.68245483899194 -111.46806023374437 -40.58865828381746 -111.51426519384873 -40.5022148834902 -111.57644660940673 -40.426446609406725 Z"  />
<path  fill-rule="evenodd"   d="M -122.07221488349019 -47.20426519384873 L -122.15865828381745 -47.15806023374435 -122.25245483899192 -47.129607359798385 -122.35 -47.12 -122.44754516100807 -47.129607359798385 -122.54134171618254 -47.15806023374435 -122.57951831824226 -47.17846605267804 -122.32414 -47.3445 -122.39325 -47.77436 -122.21574 -48.00762 -122.25697801506439 -48.110838134160616 -122.25245483899192 -48.11039264020161 -122.15865828381745 -48.081939766255644 -122.07221488349019 -48.03573480615127 -121.99644660940672 -47.973553390593274 -121.93426519384872 -47.8977851165098 -121.88806023374435 -47.81134171618254 -121.85960735979837 -47.71754516100806 -121.85 -47.62 -121.85960735979837 -47.52245483899193 -121.88806023374435 -47.428658283817455 -121.93426519384872 -47.34221488349019 -121.99644660940672 -47.26644660940672 Z"  />
<path  fill-rule="evenodd"   d="M -122.70355339059327 -47.26644660940672 L -122.76573480615127 -47.34221488349019 -122.81193976625563 -47.428658283817455 -122.84039264020161 -47.52245483899193 -122.85 -47.62 -122.84039264020161 -47.71754516100806 -122.81193976625563 -47.81134171618254 -122.76573480615127 -47.8977851165098 -122.75506276976306 -47.91078903047404 -122.57929 -47.25157 -122.67587475112455 -47.243731337035754 Z"  />
<path  fill-rule="evenodd"   d="M -80.40134171618254 -25.318060233744358 L -80.4877851165098 -25.364265193848727 -80.56355339059327 -25.426446609406728 -80.62573480615127 -25.5022148834902 -80.67193976625563 -25.588658283817455 -80.70039264020161 -25.682454838991937 -80.71 -25.78 -80.70039264020161 -25.877545161008065 -80.67193976625563 -25.971341716182547 -80.62573480615127 -26.057785116509802 -80.56355339059327 -26.133553390593274 -80.4877851165098 -26.195734806151275 -80.40134171618254 -26.241939766255644 -80.30754516100806 -26.270392640201617 -80.21 -26.28 -80.11245483899192 -26.270392640201617 -80.10084556078563 -26.266871004158663 -80.12801 -25.97717 -80.3767159815909 -25.31059009882459 Z"  />
<path  fill-rule="evenodd"   d="M -84.1422148834902 -33.34426519384873 L -84.22865828381745 -33.29806023374435 -84.32245483899193 -33.269607359798385 -84.42 -33.26 -84.51754516100807 -33.269607359798385 -84.61134171618255 -33.29806023374435 -84.6977851165098 -33.34426519384873 -84.77355339059328 -33.40644660940672 -84.83573480615128 -33.482214883490194 -84.88193976625564 -33.568658283817456 -84.91039264020162 -33.662454838991934 -84.92 -33.76 -84.91039264020162 -33.85754516100806 -84.88193976625564 -33.95134171618254 -84.83573480615128 -34.0377851165098 -84.77355339059328 -34.113553390593275 -84.6977851165098 -34.17573480615127 -84.61134171618255 -34.221939766255645 -84.51754516100807 -34.25039264020161 -84.42 -34.26 -84.32245483899193 -34.25039264020161 -84.22865828381745 -34.221939766255645 -84.1422148834902 -34.17573480615127 -84.06644660940673 -34.113553390593275 -84.00426519384872 -34.0377851165098 -83.95806023374436 -33.95134171618254 -83.92960735979838 -33.85754516100806 -83.92 -33.76 -83.92960735979838 -33.662454838991934 -83.95806023374436 -33.568658283817456 -84.00426519384872 -33.482214883490194 -84.06644660940673 -33.40644660940672 Z"  />
<path  fill-rule="evenodd"   d="M -76.74221488349019 -38.48426519384873 L -76.82865828381745 -38.43806023374435 -76.92245483899192 -38.409607359798386 -77.02 -38.4 -77.11754516100807 -38.409607359798386 -77.21134171618255 -38.43806023374435 -77.2977851165098 -38.48426519384873 -77.37355339059327 -38.54644660940672 -77.43573480615127 -38.622214883490194 -77.48193976625564 -38.708658283817456 -77.51039264020162 -38.802454838991935 -77.52 -38.9 -77.51039264020162 -38.99754516100806 -77.48193976625564 -39.09134171618254 -77.43573480615127 -39.1777851165098 -77.37355339059327 -39.253553390593275 -77.2977851165098 -39.31573480615127 -77.21134171618255 -39.361939766255645 -77.11754516100807 -39.39039264020161 -77.02 -39.4 -76.92245483899192 -39.39039264020161 -76.82865828381745 -39.361939766255645 -76.74221488349019 -39.31573480615127 -76.66644660940672 -39.253553390593275 -76.60426519384872 -39.1777851165098 -76.55806023374436 -39.09134171618254 -76.52960735979838 -38.99754516100806 -76.52 -38.9 -76.52612606136005 -38.83780105520644 -76.54913 -38.75897 -76.54594532163557 -38.74859579678023 -76.55806023374436 -38.708658283817456 -76.60426519384872 -38.622214883490194 -76.66644660940672 -38.54644660940672 Z"  />
<path  fill-rule="evenodd"   d="M -74.85221488349019 -39.59426519384873 L -74.93865828381745 -39.54806023374435 -75.03245483899192 -39.519607359798385 -75.13 -39.51 -75.22754516100807 -39.519607359798385 -75.32134171618254 -39.54806023374435 -75.4077851165098 -39.59426519384873 -75.48355339059327 -39.65644660940672 -75.54573480615127 -39.732214883490194 -75.59193976625563 -39.818658283817456 -75.62039264020162 -39.912454838991934 -75.63 -40.01 -75.62039264020162 -40.10754516100806 -75.59193976625563 -40.20134171618254 -75.54573480615127 -40.2877851165098 -75.48355339059327 -40.363553390593275 -75.4077851165098 -40.42573480615127 -75.32134171618254 -40.471939766255645 -75.22754516100807 -40.50039264020161 -75.13 -40.51 -75.03245483899192 -40.50039264020161 -74.93865828381745 -40.471939766255645 -74.85221488349019 -40.42573480615127 -74.77644660940672 -40.363553390593275 -74.71426519384872 -40.2877851165098 -74.66806023374436 -40.20134171618254 -74.63960735979838 -40.10754516100806 -74.63 -40.01 -74.63960735979838 -39.912454838991934 -74.66806023374436 -39.818658283817456 -74.71426519384872 -39.732214883490194 -74.77644660940672 -39.65644660940672 Z"  />
<path  fill-rule="evenodd"   d="M -74.03754516100807 -40.169607359798384 L -74.13134171618255 -40.19806023374435 -74.2177851165098 -40.244265193848726 -74.29355339059327 -40.30644660940672 -74.35573480615128 -40.38221488349019 -74.40193976625564 -40.468658283817454 -74.43039264020162 -40.56245483899193 -74.44 -40.66 -74.43039264020162 -40.75754516100806 -74.40193976625564 -40.85134171618254 -74.35573480615128 -40.9377851165098 -74.29355339059327 -41.01355339059327 -74.2177851165098 -41.07573480615127 -74.13134171618255 -41.12193976625564 -74.03754516100807 -41.15039264020161 -73.94 -41.16 -73.84245483899193 -41.15039264020161 -73.74865828381745 -41.12193976625564 -73.6622148834902 -41.07573480615127 -73.59419714387624 -41.01991408985 -73.65358 -40.9983 -74.11594 -40.70552 -74.27932 -40.5142 -73.97886 -40.32351 -74.0282148812765 -40.16868840745391 Z"  />
<path  fill-rule="evenodd"   d="M -87.4022148834902 -41.42426519384873 L -87.48865828381746 -41.37806023374436 -87.58245483899194 -41.34960735979839 -87.68 -41.34 -87.77754516100808 -41.34960735979839 -87.87134171618256 -41.37806023374436 -87.95778511650981 -41.42426519384873 -88.03355339059328 -41.48644660940673 -88.09573480615128 -41.5622148834902 -88.14193976625565 -41.64865828381746 -88.17039264020163 -41.74245483899194 -88.18 -41.84 -88.17039264020163 -41.93754516100807 -88.14193976625565 -42.031341716182546 -88.09573480615128 -42.11778511650981 -88.03355339059328 -42.19355339059328 -87.95778511650981 -42.255734806151274 -87.87134171618256 -42.30193976625565 -87.83594356111658 -42.31267767920073 -87.39471 -41.63415 -87.20189493312681 -41.70194813826823 -87.21806023374437 -41.64865828381746 -87.26426519384873 -41.5622148834902 -87.32644660940673 -41.48644660940673 Z"  />
<path  fill-rule="evenodd"   d="M -70.74221488349019 -41.92426519384873 L -70.82865828381745 -41.87806023374436 -70.92245483899192 -41.84960735979839 -71.02 -41.84 -71.11754516100807 -41.84960735979839 -71.21134171618255 -41.87806023374436 -71.2977851165098 -41.92426519384873 -71.37355339059327 -41.98644660940673 -71.43573480615127 -42.0622148834902 -71.48193976625564 -42.14865828381746 -71.51039264020162 -42.24245483899194 -71.52 -42.34 -71.51039264020162 -42.43754516100807 -71.48193976625564 -42.531341716182546 -71.43573480615127 -42.61778511650981 -71.37355339059327 -42.69355339059328 -71.2977851165098 -42.755734806151274 -71.21134171618255 -42.80193976625565 -71.11754516100807 -42.830392640201616 -71.02 -42.84 -70.92245483899192 -42.830392640201616 -70.82865828381745 -42.80193976625565 -70.74221488349019 -42.755734806151274 -70.66644660940672 -42.69355339059328 -70.61398376146087 -42.629627225408875 -71.03467 -42.28553 -70.77511 -42.24854 -70.64736325307489 -42.00969974637711 -70.66644660940672 -41.98644660940673 Z"  />
</g>
</svg>
