<svg xmlns="http://www.w3.org/2000/svg" viewBox="-126.72 -51.370000000000005 61.75 28.240000000000006" > 
<defs>
<filter id="halo"><feFlood result="flood" flood-color="#333377" flood-opacity="1"></feFlood><feComposite in="flood" result="mask" in2="SourceGraphic" operator="in"></feComposite><feMorphology in="mask" result="dilated" operator="dilate" radius="0.1"></feMorphology><feGaussianBlur in="dilated" result="blurred" stdDeviation="0.2"></feGaussianBlur><feMerge><feMergeNode in="blurred"></feMergeNode><feMergeNode in="SourceGraphic"></feMergeNode></feMerge></filter>
</defs>
<path  style="fill:#0000a0; filter:url(#halo); " fill-rule="evenodd"   d="M -81.12 -25.13 L -81.26 -25.8 -81.72 -25.92 -81.86 -26.44 -82.4 -27 -82.69 -27.47 -82.4 -27.79 -82.84 -27.85 -82.64 -28.88 -83.04 -29.18 -83.65 -29.91 -84.35000000000001 -30.07 -84.86 -29.75 -85.31 -29.7 -85.53 -30.13 -86.51 -30.41 -86.45 -30.5 -87.19 -30.36 -87.9 -30.42 -88.02 -30.740000000000002 -88.14 -30.34 -88.89 -30.400000000000002 -89.73 -30.18 -90.24 -30.38 -90.4 -30.09 -89.36 -29.8 -89.77 -29.61 -89.19 -29.35 -89.14 -29.02 -89.82000000000001 -29.48 -90.23 -29.1 -90.35000000000001 -29.310000000000002 -90.78 -29.13 -90.94 -29.34 -91.55 -29.53 -91.62 -29.77 -92.06 -29.61 -92.61 -29.59 -93.23 -29.79 -93.72 -29.76 -93.76 -30.01 -94.07000000000001 -29.67 -94.68 -29.43 -94.74 -29.79 -95.25 -28.98 -95.68 -28.73 -96.44 -28.6 -96.39 -28.43 -97.03 -28.11 -97.2 -27.810000000000002 -97.57000000000001 -26.98 -97.25 -26.07 -98.2 -26.060000000000002 -99.11 -26.42 -99.46000000000001 -27.03 -99.55 -27.61 -100.3 -28.28 -100.67 -29.080000000000002 -101.47 -29.79 -102.32000000000001 -29.88 -102.68 -29.740000000000002 -103.15 -28.98 -104.05 -29.330000000000002 -104.54 -29.68 -104.89 -30.57 -105.39 -30.85 -106.54 -31.79 -108.2 -31.79 -108.21000000000001 -31.34 -111.07000000000001 -31.34 -114.82000000000001 -32.49 -114.72 -32.72 -117.13 -32.54 -117.41 -33.230000000000004 -118.11 -33.75 -118.4 -33.74 -118.54 -34.04 -118.94 -34.04 -119.61 -34.42 -120.46000000000001 -34.44 -120.64 -34.57 -120.64 -35.14 -121.27 -35.660000000000004 -121.95 -36.58 -121.76 -36.82 -122.41 -37.24 -122.5 -37.78 -122.09 -37.45 -122.38 -37.97 -122.46000000000001 -37.83 -123.01 -37.99 -122.99000000000001 -38.300000000000004 -123.72 -38.92 -123.84 -39.83 -124.39 -40.44 -124.11 -40.980000000000004 -124.06 -41.46 -124.35000000000001 -42.1 -124.56 -42.83 -124.16 -43.86 -123.96000000000001 -45.29 -123.98 -46.2 -123.84 -46.4 -124.16 -46.93 -124.37 -47.64 -124.61 -47.870000000000005 -124.72 -48.38 -123.99000000000001 -48.160000000000004 -122.8 -48.09 -122.58 -47.25 -123.11 -47.21 -122.73 -47.08 -122.32000000000001 -47.34 -122.39 -47.77 -122.22 -48.01 -122.52 -48.76 -122.76 -49 -95.16 -49 -95.15 -49.370000000000005 -94.83 -49.33 -94.57000000000001 -48.71 -93.78 -48.51 -92.95 -48.63 -92.37 -48.22 -92.04 -48.36 -91.57000000000001 -48.04 -90.86 -48.25 -90.74 -48.09 -90.15 -48.11 -89.53 -48 -90.51 -47.71 -92.09 -46.79 -91.92 -46.68 -90.86 -46.95 -90.93 -46.59 -90.41 -46.57 -89.79 -46.82 -89.39 -46.85 -88.62 -47.13 -88.45 -46.800000000000004 -87.66 -46.84 -87.37 -46.51 -86.64 -46.42 -86.15 -46.67 -84.95 -46.77 -85.02 -46.480000000000004 -84.31 -46.49 -83.91 -45.96 -84.69 -46.04 -84.73 -45.86 -85.51 -46.1 -87.12 -45.7 -87.84 -44.93 -88.04 -44.57 -87.37 -44.81 -87.52 -44.18 -87.88 -43.36 -87.76 -42.78 -87.84 -42.31 -87.39 -41.63 -86.62 -41.910000000000004 -86.28 -42.42 -86.27 -43.12 -86.54 -43.660000000000004 -86.52 -44.050000000000004 -86.27 -44.35 -86.26 -44.7 -85.61 -45.2 -85.53 -44.76 -85.12 -45.57 -84.72 -45.78 -84.11 -45.5 -83.5 -45.36 -83.28 -44.7 -83.36 -44.34 -83.92 -43.92 -83.7 -43.6 -83.33 -43.94 -82.94 -44.07 -82.62 -43.79 -82.42 -42.97 -83.48 -41.730000000000004 -82.55 -41.39 -81.74 -41.49 -81.36 -41.72 -79.76 -42.27 -78.86 -42.79 -79.06 -43.27 -78.46000000000001 -43.37 -77.58 -43.24 -76.91 -43.28 -76.22 -43.550000000000004 -76.13 -43.93 -76.36 -44.1 -75.33 -44.81 -74.74 -44.99 -71.51 -45.01 -71.3 -45.29 -70.96000000000001 -45.34 -70.25 -45.9 -70.31 -46.07 -69.99 -46.69 -69.23 -47.45 -68.9 -47.18 -68.23 -47.35 -67.79 -47.06 -67.8 -45.68 -67.44 -45.59 -67.48 -45.28 -66.97 -44.83 -68.14 -44.480000000000004 -68.43 -44.47 -68.56 -44.26 -68.96000000000001 -44.43 -69.22 -43.95 -70.16 -43.79 -70.81 -42.87 -70.59 -42.65 -71.03 -42.29 -70.78 -42.25 -70.54 -41.81 -69.95 -41.67 -70.67 -41.56 -70.62 -41.74 -71.2 -41.46 -71.2 -41.68 -71.39 -41.76 -71.49 -41.39 -72.91 -41.27 -73.65 -41 -74.12 -40.71 -74.28 -40.51 -73.98 -40.32 -74.17 -39.72 -74.88 -38.96 -75.59 -39.46 -75.08 -38.800000000000004 -75.05 -38.45 -75.9 -37.37 -75.7 -37.82 -75.79 -38.26 -76.29 -38.44 -75.98 -39.39 -76.36 -39.39 -76.55 -38.76 -76.33 -38.050000000000004 -76.86 -38.39 -76.94 -38.2 -76.26 -37.89 -76.28 -37.33 -76.51 -36.87 -76 -36.92 -75.94 -36.29 -76.69 -36.050000000000004 -75.75 -35.87 -76.18 -35.34 -76.98 -35.44 -76.51 -35.25 -76.91 -34.94 -76.31 -34.95 -76.63 -34.72 -77.05 -34.7 -77.54 -34.46 -78.03 -33.910000000000004 -78.58 -33.88 -80 -32.61 -80.87 -32.53 -80.78 -32.25 -81.53 -31.13 -81.52 -30.560000000000002 -81.32000000000001 -29.830000000000002 -80.75 -28.400000000000002 -80.05 -26.8 -80.13 -25.98 -80.42 -25.19 Z" ><title>Distance: 15</title></path>
<path  style="fill:#4444ff; filter:url(#halo); " fill-rule="evenodd"   d="M -97.25 -49 L -95.16 -49 -95.15 -49.370000000000005 -94.83 -49.33 -94.57000000000001 -48.71 -93.78 -48.51 -92.95 -48.63 -92.37 -48.22 -92.04 -48.36 -91.57000000000001 -48.04 -90.86 -48.25 -90.74 -48.09 -90.15 -48.11 -89.53 -48 -90.51 -47.71 -92.09 -46.79 -91.92 -46.68 -90.86 -46.95 -90.93 -46.59 -90.41 -46.57 -89.79 -46.82 -89.39 -46.85 -88.62 -47.13 -88.45 -46.800000000000004 -87.66 -46.84 -87.37 -46.51 -86.64 -46.42 -86.15 -46.67 -84.95 -46.77 -85.02 -46.480000000000004 -84.31 -46.49 -83.91 -45.96 -84.69 -46.04 -84.73 -45.86 -85.51 -46.1 -87.12 -45.7 -87.84 -44.93 -88.04 -44.57 -87.37 -44.81 -87.52 -44.18 -87.88 -43.36 -87.76 -42.78 -87.84 -42.31 -87.39 -41.63 -86.62 -41.910000000000004 -86.28 -42.42 -86.27 -43.12 -86.54 -43.660000000000004 -86.52 -44.050000000000004 -86.27 -44.35 -86.26 -44.7 -85.61 -45.2 -85.53 -44.76 -85.12 -45.57 -84.72 -45.78 -84.11 -45.5 -83.5 -45.36 -83.28 -44.7 -83.36 -44.34 -83.92 -43.92 -83.7 -43.6 -83.33 -43.94 -82.94 -44.07 -82.62 -43.79 -82.42 -42.97 -83.48 -41.730000000000004 -82.55 -41.39 -81.74 -41.49 -81.36 -41.72 -79.76 -42.27 -78.86 -42.79 -79.06 -43.27 -78.46000000000001 -43.37 -77.58 -43.24 -76.91 -43.28 -76.22 -43.550000000000004 -76.13 -43.93 -76.36 -44.1 -75.33 -44.81 -74.74 -44.99 -71.51 -45.01 -71.3 -45.29 -70.96000000000001 -45.34 -70.25 -45.9 -70.31 -46.07 -69.99 -46.69 -69.23 -47.45 -68.9 -47.18 -68.23 -47.35 -67.79 -47.06 -67.8 -45.68 -67.44 -45.59 -67.48 -45.28 -66.97 -44.83 -68.14 -44.480000000000004 -68.43 -44.47 -68.56 -44.26 -68.96000000000001 -44.43 -69.22 -43.95 -70.16 -43.79 -70.81 -42.87 -70.59 -42.65 -71.03 -42.29 -70.78 -42.25 -70.54 -41.81 -69.95 -41.67 -70.67 -41.56 -70.62 -41.74 -71.2 -41.46 -71.2 -41.68 -71.39 -41.76 -71.49 -41.39 -72.91 -41.27 -73.65 -41 -74.12 -40.71 -74.28 -40.51 -73.98 -40.32 -74.17 -39.72 -74.88 -38.96 -75.59 -39.46 -75.08 -38.800000000000004 -75.05 -38.45 -75.9 -37.37 -75.7 -37.82 -75.79 -38.26 -76.29 -38.44 -75.98 -39.39 -76.36 -39.39 -76.55 -38.76 -76.33 -38.050000000000004 -76.86 -38.39 -76.94 -38.2 -76.26 -37.89 -76.28 -37.33 -76.51 -36.87 -76 -36.92 -75.94 -36.29 -76.69 -36.050000000000004 -75.75 -35.87 -76.18 -35.34 -76.98 -35.44 -76.51 -35.25 -76.91 -34.94 -76.31 -34.95 -76.63 -34.72 -77.05 -34.7 -77.54 -34.46 -78.03 -33.910000000000004 -78.58 -33.88 -80 -32.61 -80.87 -32.53 -80.78 -32.25 -81.53 -31.13 -81.52 -30.560000000000002 -81.32000000000001 -29.830000000000002 -80.75 -28.400000000000002 -80.05 -26.8 -80.13 -25.98 -80.42 -25.19 -81.12 -25.13 -81.26 -25.8 -81.72 -25.92 -81.86 -26.44 -82.4 -27 -82.69 -27.47 -82.4 -27.79 -82.84 -27.85 -82.64 -28.88 -83.04 -29.18 -83.65 -29.91 -84.35000000000001 -30.07 -84.86 -29.75 -85.31 -29.7 -85.53 -30.13 -86.51 -30.41 -86.45 -30.5 -87.19 -30.36 -87.9 -30.42 -88.02 -30.740000000000002 -88.14 -30.34 -88.89 -30.400000000000002 -89.73 -30.18 -90.24 -30.38 -90.4 -30.09 -89.36 -29.8 -89.77 -29.61 -89.19 -29.35 -89.14 -29.02 -89.82000000000001 -29.48 -90.23 -29.1 -90.35000000000001 -29.310000000000002 -90.78 -29.13 -90.94 -29.34 -91.55 -29.53 -91.62 -29.77 -92.06 -29.61 -92.61 -29.59 -93.23 -29.79 -93.72 -29.76 -93.76 -30.01 -94.07000000000001 -29.67 -94.68 -29.43 -94.74 -29.79 -95.25 -28.98 -95.68 -28.73 -96.44 -28.6 -96.39 -28.43 -97.03 -28.11 -97.2 -27.810000000000002 -97.57000000000001 -26.98 -97.25 -26.07 -98.2 -26.060000000000002 -99.11 -26.42 -99.46000000000001 -27.03 -99.55 -27.61 -100.3 -28.28 -100.67 -29.080000000000002 -101.47 -29.79 -102.32000000000001 -29.88 -102.68 -29.740000000000002 -103.15 -28.98 -104.05 -29.330000000000002 -104.54 -29.68 -104.89 -30.57 -105.39 -30.85 -106.54 -31.79 -108.2 -31.79 -108.21000000000001 -31.34 -111.07000000000001 -31.34 -114.82000000000001 -32.49 -114.72 -32.72 -117.13 -32.54 -117.41 -33.230000000000004 -118.11 -33.75 -118.4 -33.74 -118.54 -34.04 -118.94 -34.04 -119.61 -34.42 -120.46000000000001 -34.44 -120.64 -34.57 -120.64 -35.14 -121.27 -35.660000000000004 -121.95 -36.58 -121.76 -36.82 -122.41 -37.24 -122.5 -37.78 -122.09 -37.45 -122.38 -37.97 -122.46000000000001 -37.83 -123.01 -37.99 -122.99000000000001 -38.300000000000004 -123.72 -38.92 -123.84 -39.83 -124.39 -40.44 -124.11 -40.980000000000004 -124.06 -41.46 -124.35000000000001 -42.1 -124.56 -42.83 -124.16 -43.86 -123.96000000000001 -45.29 -123.98 -46.2 -123.84 -46.4 -124.16 -46.93 -124.37 -47.64 -124.61 -47.870000000000005 -124.72 -48.38 -123.99000000000001 -48.160000000000004 -122.8 -48.09 -122.58 -47.25 -123.11 -47.21 -122.73 -47.08 -122.32000000000001 -47.34 -122.39 -47.77 -122.22 -48.01 -122.52 -48.76 -122.76 -49 -97.31 -49 -97.28 -48.97 Z" ><title>Distance: 12</title></path>
<path  style="fill:#5555ff; filter:url(#halo); " fill-rule="evenodd"   d="M -99.32000000000001 -48.07 L -97.81 -46.83 -96.89 -45.72 -95.99000000000001 -47.4 -94.75 -48.910000000000004 -94.68 -48.97 -94.57000000000001 -48.71 -93.78 -48.51 -92.95 -48.63 -92.37 -48.22 -92.04 -48.36 -91.57000000000001 -48.04 -90.86 -48.25 -90.74 -48.09 -90.15 -48.11 -89.53 -48 -90.51 -47.71 -92.09 -46.79 -91.92 -46.68 -90.86 -46.95 -90.93 -46.59 -90.41 -46.57 -89.79 -46.82 -89.39 -46.85 -88.62 -47.13 -88.45 -46.800000000000004 -87.66 -46.84 -87.37 -46.51 -86.64 -46.42 -86.15 -46.67 -84.95 -46.77 -85.02 -46.480000000000004 -84.31 -46.49 -83.91 -45.96 -84.69 -46.04 -84.73 -45.86 -85.51 -46.1 -87.12 -45.7 -87.84 -44.93 -88.04 -44.57 -87.37 -44.81 -87.52 -44.18 -87.88 -43.36 -87.76 -42.78 -87.84 -42.31 -87.39 -41.63 -86.62 -41.910000000000004 -86.28 -42.42 -86.27 -43.12 -86.54 -43.660000000000004 -86.52 -44.050000000000004 -86.27 -44.35 -86.26 -44.7 -85.61 -45.2 -85.53 -44.76 -85.12 -45.57 -84.72 -45.78 -84.11 -45.5 -83.5 -45.36 -83.28 -44.7 -83.36 -44.34 -83.92 -43.92 -83.7 -43.6 -83.33 -43.94 -82.94 -44.07 -82.62 -43.79 -82.42 -42.97 -83.48 -41.730000000000004 -82.55 -41.39 -81.74 -41.49 -81.36 -41.72 -79.76 -42.27 -78.86 -42.79 -79.06 -43.27 -78.46000000000001 -43.37 -77.58 -43.24 -76.91 -43.28 -76.22 -43.550000000000004 -76.13 -43.93 -76.36 -44.1 -75.33 -44.81 -74.74 -44.99 -71.51 -45.01 -71.3 -45.29 -70.96000000000001 -45.34 -70.25 -45.9 -70.31 -46.07 -69.99 -46.69 -69.23 -47.45 -68.9 -47.18 -68.23 -47.35 -67.79 -47.06 -67.8 -45.68 -67.44 -45.59 -67.48 -45.28 -66.97 -44.83 -68.14 -44.480000000000004 -68.43 -44.47 -68.56 -44.26 -68.96000000000001 -44.43 -69.22 -43.95 -70.16 -43.79 -70.81 -42.87 -70.59 -42.65 -71.03 -42.29 -70.78 -42.25 -70.54 -41.81 -69.95 -41.67 -70.67 -41.56 -70.62 -41.74 -71.2 -41.46 -71.2 -41.68 -71.39 -41.76 -71.49 -41.39 -72.91 -41.27 -73.65 -41 -74.12 -40.71 -74.28 -40.51 -73.98 -40.32 -74.17 -39.72 -74.88 -38.96 -75.59 -39.46 -75.08 -38.800000000000004 -75.05 -38.45 -75.9 -37.37 -75.7 -37.82 -75.79 -38.26 -76.29 -38.44 -75.98 -39.39 -76.36 -39.39 -76.55 -38.76 -76.33 -38.050000000000004 -76.86 -38.39 -76.94 -38.2 -76.26 -37.89 -76.28 -37.33 -76.51 -36.87 -76 -36.92 -75.94 -36.29 -76.69 -36.050000000000004 -75.75 -35.87 -76.18 -35.34 -76.98 -35.44 -76.51 -35.25 -76.91 -34.94 -76.31 -34.95 -76.63 -34.72 -77.05 -34.7 -77.54 -34.46 -78.03 -33.910000000000004 -78.58 -33.88 -80 -32.61 -80.87 -32.53 -80.78 -32.25 -81.53 -31.13 -81.52 -30.560000000000002 -81.32000000000001 -29.830000000000002 -80.75 -28.400000000000002 -80.05 -26.8 -80.13 -25.98 -80.42 -25.19 -81.12 -25.13 -81.26 -25.8 -81.72 -25.92 -81.86 -26.44 -82.4 -27 -82.69 -27.47 -82.4 -27.79 -82.84 -27.85 -82.64 -28.88 -83.04 -29.18 -83.65 -29.91 -84.35000000000001 -30.07 -84.86 -29.75 -85.31 -29.7 -85.53 -30.13 -86.51 -30.41 -86.45 -30.5 -87.19 -30.36 -87.9 -30.42 -88.02 -30.740000000000002 -88.14 -30.34 -88.89 -30.400000000000002 -89.73 -30.18 -90.24 -30.38 -90.4 -30.09 -89.36 -29.8 -89.77 -29.61 -89.19 -29.35 -89.14 -29.02 -89.82000000000001 -29.48 -90.23 -29.1 -90.35000000000001 -29.310000000000002 -90.78 -29.13 -90.94 -29.34 -91.55 -29.53 -91.62 -29.77 -92.06 -29.61 -92.61 -29.59 -93.23 -29.79 -93.72 -29.76 -93.76 -30.01 -94.07000000000001 -29.67 -94.68 -29.43 -94.74 -29.79 -95.25 -28.98 -95.68 -28.73 -96.44 -28.6 -96.39 -28.43 -97.03 -28.11 -97.2 -27.810000000000002 -97.57000000000001 -26.98 -97.25 -26.07 -98.2 -26.060000000000002 -99.11 -26.42 -99.46000000000001 -27.03 -99.55 -27.61 -100.3 -28.28 -100.67 -29.080000000000002 -101.47 -29.79 -102.32000000000001 -29.88 -102.68 -29.740000000000002 -103.15 -28.98 -104.05 -29.330000000000002 -104.54 -29.68 -104.89 -30.57 -105.39 -30.85 -106.54 -31.79 -108.2 -31.79 -108.21000000000001 -31.34 -111.07000000000001 -31.34 -114.82000000000001 -32.49 -114.72 -32.72 -117.13 -32.54 -117.41 -33.230000000000004 -118.11 -33.75 -118.4 -33.74 -118.54 -34.04 -118.94 -34.04 -119.61 -34.42 -120.46000000000001 -34.44 -120.64 -34.57 -120.64 -35.14 -121.27 -35.660000000000004 -121.95 -36.58 -121.76 -36.82 -122.41 -37.24 -122.5 -37.78 -122.09 -37.45 -122.38 -37.97 -122.46000000000001 -37.83 -123.01 -37.99 -122.99000000000001 -38.300000000000004 -123.72 -38.92 -123.84 -39.83 -124.39 -40.44 -124.11 -40.980000000000004 -124.06 -41.46 -124.35000000000001 -42.1 -124.56 -42.83 -124.16 -43.86 -123.96000000000001 -45.29 -123.98 -46.2 -123.84 -46.4 -124.16 -46.93 -124.37 -47.64 -124.61 -47.870000000000005 -124.72 -48.38 -123.99000000000001 -48.160000000000004 -122.8 -48.09 -122.58 -47.25 -123.11 -47.21 -122.73 -47.08 -122.32000000000001 -47.34 -122.39 -47.77 -122.22 -48.01 -122.52 -48.76 -122.76 -49 -101.06 -49 -101.05 -49 Z" ><title>Distance: 10</title></path>
<path  style="fill:#7777ff; filter:url(#halo); " fill-rule="evenodd"   d="M -104.55 -31.01 L -104.7 -30.51 -104.8 -30.330000000000002 -104.89 -30.57 -105.39 -30.85 -106.54 -31.79 -108.2 -31.79 -108.21000000000001 -31.34 -111.07000000000001 -31.34 -114.82000000000001 -32.49 -114.72 -32.72 -117.13 -32.54 -117.41 -33.230000000000004 -118.11 -33.75 -118.4 -33.74 -118.54 -34.04 -118.94 -34.04 -119.61 -34.42 -120.46000000000001 -34.44 -120.64 -34.57 -120.64 -35.14 -121.27 -35.660000000000004 -121.95 -36.58 -121.76 -36.82 -122.41 -37.24 -122.5 -37.78 -122.09 -37.45 -122.38 -37.97 -122.46000000000001 -37.83 -123.01 -37.99 -122.99000000000001 -38.300000000000004 -123.72 -38.92 -123.84 -39.83 -124.39 -40.44 -124.11 -40.980000000000004 -124.06 -41.46 -124.35000000000001 -42.1 -124.56 -42.83 -124.16 -43.86 -123.96000000000001 -45.29 -123.98 -46.2 -123.84 -46.4 -124.16 -46.93 -124.37 -47.64 -124.61 -47.870000000000005 -124.72 -48.38 -123.99000000000001 -48.160000000000004 -122.8 -48.09 -122.58 -47.25 -123.11 -47.21 -122.73 -47.08 -122.32000000000001 -47.34 -122.39 -47.77 -122.22 -48.01 -122.52 -48.76 -122.76 -49 -114.49000000000001 -49 -114.42 -48.34 -113.49000000000001 -48.63 -111.93 -48.78 -110.37 -48.63 -108.87 -48.17 -107.49000000000001 -47.43 -107.36 -47.33 -106.44 -47.61 -104.88 -47.76 -103.32000000000001 -47.61 -101.82000000000001 -47.15 -100.44 -46.410000000000004 -99.22 -45.42 -98.23 -44.2 -97.49000000000001 -42.82 -97.03 -41.32 -96.98 -40.77 -96.77 -40.79 -95.56 -40.67 -95.68 -41.84 -95.53 -43.4 -95.07000000000001 -44.9 -94.33 -46.28 -93.34 -47.5 -92.42 -48.25 -92.37 -48.22 -92.04 -48.36 -91.57000000000001 -48.04 -90.86 -48.25 -90.74 -48.09 -90.15 -48.11 -89.53 -48 -90.51 -47.71 -92.09 -46.79 -91.92 -46.68 -90.86 -46.95 -90.93 -46.59 -90.41 -46.57 -89.79 -46.82 -89.39 -46.85 -88.62 -47.13 -88.45 -46.800000000000004 -87.66 -46.84 -87.37 -46.51 -86.64 -46.42 -86.15 -46.67 -84.95 -46.77 -85.02 -46.480000000000004 -84.31 -46.49 -83.91 -45.96 -84.69 -46.04 -84.73 -45.86 -85.51 -46.1 -87.12 -45.7 -87.84 -44.93 -88.04 -44.57 -87.37 -44.81 -87.52 -44.18 -87.88 -43.36 -87.76 -42.78 -87.84 -42.31 -87.39 -41.63 -86.62 -41.910000000000004 -86.28 -42.42 -86.27 -43.12 -86.54 -43.660000000000004 -86.52 -44.050000000000004 -86.27 -44.35 -86.26 -44.7 -85.61 -45.2 -85.53 -44.76 -85.12 -45.57 -84.72 -45.78 -84.11 -45.5 -83.5 -45.36 -83.28 -44.7 -83.36 -44.34 -83.92 -43.92 -83.7 -43.6 -83.33 -43.94 -82.94 -44.07 -82.62 -43.79 -82.42 -42.97 -83.48 -41.730000000000004 -82.55 -41.39 -81.74 -41.49 -81.36 -41.72 -79.76 -42.27 -78.86 -42.79 -79.06 -43.27 -78.46000000000001 -43.37 -77.58 -43.24 -76.91 -43.28 -76.22 -43.550000000000004 -76.13 -43.93 -76.36 -44.1 -75.33 -44.81 -74.74 -44.99 -71.51 -45.01 -71.3 -45.29 -70.96000000000001 -45.34 -70.25 -45.9 -70.31 -46.07 -69.99 -46.69 -69.23 -47.45 -68.9 -47.18 -68.23 -47.35 -67.79 -47.06 -67.8 -45.68 -67.44 -45.59 -67.48 -45.28 -66.97 -44.83 -68.14 -44.480000000000004 -68.43 -44.47 -68.56 -44.26 -68.96000000000001 -44.43 -69.22 -43.95 -70.16 -43.79 -70.81 -42.87 -70.59 -42.65 -71.03 -42.29 -70.78 -42.25 -70.54 -41.81 -69.95 -41.67 -70.67 -41.56 -70.62 -41.74 -71.2 -41.46 -71.2 -41.68 -71.39 -41.76 -71.49 -41.39 -72.91 -41.27 -73.65 -41 -74.12 -40.71 -74.28 -40.51 -73.98 -40.32 -74.17 -39.72 -74.88 -38.96 -75.59 -39.46 -75.08 -38.800000000000004 -75.05 -38.45 -75.9 -37.37 -75.7 -37.82 -75.79 -38.26 -76.29 -38.44 -75.98 -39.39 -76.36 -39.39 -76.55 -38.76 -76.33 -38.050000000000004 -76.86 -38.39 -76.94 -38.2 -76.26 -37.89 -76.28 -37.33 -76.51 -36.87 -76 -36.92 -75.94 -36.29 -76.69 -36.050000000000004 -75.75 -35.87 -76.18 -35.34 -76.98 -35.44 -76.51 -35.25 -76.91 -34.94 -76.31 -34.95 -76.63 -34.72 -77.05 -34.7 -77.54 -34.46 -78.03 -33.910000000000004 -78.58 -33.88 -80 -32.61 -80.87 -32.53 -80.78 -32.25 -81.53 -31.13 -81.52 -30.560000000000002 -81.32000000000001 -29.830000000000002 -80.75 -28.400000000000002 -80.05 -26.8 -80.13 -25.98 -80.42 -25.19 -81.12 -25.13 -81.26 -25.8 -81.72 -25.92 -81.86 -26.44 -82.4 -27 -82.69 -27.47 -82.4 -27.79 -82.84 -27.85 -82.64 -28.88 -83.04 -29.18 -83.65 -29.91 -84.35000000000001 -30.07 -84.86 -29.75 -85.31 -29.7 -85.53 -30.13 -86.51 -30.41 -86.45 -30.5 -87.19 -30.36 -87.9 -30.42 -88.02 -30.740000000000002 -88.14 -30.34 -88.89 -30.400000000000002 -89.73 -30.18 -90.24 -30.38 -90.4 -30.09 -89.36 -29.8 -89.77 -29.61 -89.19 -29.35 -89.14 -29.02 -89.82000000000001 -29.48 -90.23 -29.1 -90.35000000000001 -29.310000000000002 -90.78 -29.13 -90.94 -29.34 -91.55 -29.53 -91.62 -29.77 -92.06 -29.61 -92.61 -29.59 -93.23 -29.79 -93.72 -29.76 -93.76 -30.01 -94.07000000000001 -29.67 -94.68 -29.43 -94.74 -29.79 -95.25 -28.98 -95.68 -28.73 -96.44 -28.6 -96.39 -28.43 -97.03 -28.11 -97.2 -27.810000000000002 -97.57000000000001 -26.98 -97.25 -26.07 -98.2 -26.060000000000002 -99.11 -26.42 -99.46000000000001 -27.03 -99.55 -27.61 -100.3 -28.28 -100.67 -29.080000000000002 -101.47 -29.79 -102.32000000000001 -29.88 -102.68 -29.740000000000002 -103.15 -28.98 -103.92 -29.28 -104.16 -29.73 Z" ><title>Distance: 8</title></path>
<path  style="fill:#9999ff; filter:url(#halo); " fill-rule="evenodd"   d="M -102.65 -31.62 L -102.77 -32.79 -102.65 -33.96 -102.58 -34.22 -103.71000000000001 -33.88 -104.88 -33.76 -106.05 -33.88 -106.12 -33.9 -106.09 -33.57 -106.21000000000001 -32.4 -106.42 -31.69 -106.54 -31.79 -108.2 -31.79 -108.21000000000001 -31.34 -111.07000000000001 -31.34 -114.82000000000001 -32.49 -114.72 -32.72 -117.13 -32.54 -117.41 -33.230000000000004 -118.11 -33.75 -118.4 -33.74 -118.54 -34.04 -118.94 -34.04 -119.61 -34.42 -120.46000000000001 -34.44 -120.64 -34.57 -120.64 -35.14 -121.27 -35.660000000000004 -121.95 -36.58 -121.76 -36.82 -122.41 -37.24 -122.5 -37.78 -122.09 -37.45 -122.38 -37.97 -122.46000000000001 -37.83 -123.01 -37.99 -122.99000000000001 -38.300000000000004 -123.72 -38.92 -123.84 -39.83 -124.39 -40.44 -124.11 -40.980000000000004 -124.06 -41.46 -124.35000000000001 -42.1 -124.56 -42.83 -124.16 -43.86 -123.96000000000001 -45.29 -123.98 -46.2 -123.84 -46.4 -124.16 -46.93 -124.37 -47.64 -124.61 -47.870000000000005 -124.72 -48.38 -123.99000000000001 -48.160000000000004 -122.8 -48.09 -122.58 -47.25 -123.11 -47.21 -122.73 -47.08 -122.32000000000001 -47.34 -122.39 -47.77 -122.22 -48.01 -122.52 -48.76 -122.76 -49 -116.53 -49 -116.47 -48.79 -116.35000000000001 -47.62 -116.47 -46.45 -116.81 -45.32 -117.36 -44.29 -118.11 -43.38 -119.02 -42.63 -119.07000000000001 -42.6 -118.48 -42.29 -117.83 -41.76 -117.81 -41.95 -117.47 -43.08 -116.92 -44.11 -116.17 -45.02 -115.26 -45.77 -114.23 -46.32 -113.10000000000001 -46.660000000000004 -111.93 -46.78 -110.76 -46.660000000000004 -109.63 -46.32 -108.60000000000001 -45.77 -107.69 -45.03 -107.18 -45.300000000000004 -106.05 -45.64 -104.88 -45.76 -103.71000000000001 -45.64 -102.58 -45.300000000000004 -101.55 -44.75 -100.64 -44 -99.89 -43.09 -99.34 -42.06 -99 -40.93 -98.88 -39.76 -99 -38.59 -99.07000000000001 -38.33 -97.94 -38.67 -96.77 -38.79 -95.60000000000001 -38.67 -94.47 -38.33 -93.44 -37.78 -92.53 -37.03 -91.78 -36.12 -91.23 -35.09 -90.89 -33.96 -90.86 -33.68 -90.4 -33.12 -90.35000000000001 -33.02 -90.42 -33.76 -90.3 -34.93 -89.96000000000001 -36.06 -89.85000000000001 -36.26 -89.98 -36.300000000000004 -91.01 -36.85 -91.92 -37.6 -92.67 -38.51 -93.22 -39.54 -93.56 -40.67 -93.68 -41.84 -93.56 -43.01 -93.22 -44.14 -92.67 -45.17 -91.92 -46.08 -91.01 -46.83 -90.87 -46.910000000000004 -90.93 -46.59 -90.41 -46.57 -89.79 -46.82 -89.39 -46.85 -88.62 -47.13 -88.45 -46.800000000000004 -87.66 -46.84 -87.37 -46.51 -86.64 -46.42 -86.15 -46.67 -84.95 -46.77 -85.02 -46.480000000000004 -84.31 -46.49 -83.91 -45.96 -84.69 -46.04 -84.73 -45.86 -85.51 -46.1 -87.12 -45.7 -87.84 -44.93 -88.04 -44.57 -87.37 -44.81 -87.52 -44.18 -87.88 -43.36 -87.76 -42.78 -87.84 -42.31 -87.39 -41.63 -86.62 -41.910000000000004 -86.28 -42.42 -86.27 -43.12 -86.54 -43.660000000000004 -86.52 -44.050000000000004 -86.27 -44.35 -86.26 -44.7 -85.61 -45.2 -85.53 -44.76 -85.12 -45.57 -84.72 -45.78 -84.11 -45.5 -83.5 -45.36 -83.28 -44.7 -83.36 -44.34 -83.92 -43.92 -83.7 -43.6 -83.33 -43.94 -82.94 -44.07 -82.62 -43.79 -82.42 -42.97 -83.48 -41.730000000000004 -82.55 -41.39 -81.74 -41.49 -81.36 -41.72 -79.76 -42.27 -78.86 -42.79 -79.06 -43.27 -78.46000000000001 -43.37 -77.58 -43.24 -76.91 -43.28 -76.22 -43.550000000000004 -76.13 -43.93 -76.36 -44.1 -75.33 -44.81 -74.74 -44.99 -71.51 -45.01 -71.3 -45.29 -70.96000000000001 -45.34 -70.25 -45.9 -70.31 -46.07 -69.99 -46.69 -69.23 -47.45 -68.9 -47.18 -68.23 -47.35 -67.79 -47.06 -67.8 -45.68 -67.44 -45.59 -67.48 -45.28 -66.97 -44.83 -68.14 -44.480000000000004 -68.43 -44.47 -68.56 -44.26 -68.96000000000001 -44.43 -69.22 -43.95 -70.16 -43.79 -70.81 -42.87 -70.59 -42.65 -71.03 -42.29 -70.78 -42.25 -70.54 -41.81 -69.95 -41.67 -70.67 -41.56 -70.62 -41.74 -71.2 -41.46 -71.2 -41.68 -71.39 -41.76 -71.49 -41.39 -72.91 -41.27 -73.65 -41 -74.12 -40.71 -74.28 -40.51 -73.98 -40.32 -74.17 -39.72 -74.88 -38.96 -75.59 -39.46 -75.08 -38.800000000000004 -75.05 -38.45 -75.9 -37.37 -75.7 -37.82 -75.79 -38.26 -76.29 -38.44 -75.98 -39.39 -76.36 -39.39 -76.55 -38.76 -76.33 -38.050000000000004 -76.86 -38.39 -76.94 -38.2 -76.26 -37.89 -76.28 -37.33 -76.51 -36.87 -76 -36.92 -75.94 -36.29 -76.69 -36.050000000000004 -75.75 -35.87 -76.18 -35.34 -76.98 -35.44 -76.51 -35.25 -76.91 -34.94 -76.31 -34.95 -76.63 -34.72 -77.05 -34.7 -77.54 -34.46 -78.03 -33.910000000000004 -78.58 -33.88 -80 -32.61 -80.87 -32.53 -80.78 -32.25 -81.53 -31.13 -81.52 -30.560000000000002 -81.32000000000001 -29.830000000000002 -80.75 -28.400000000000002 -80.05 -26.8 -80.13 -25.98 -80.42 -25.19 -81.12 -25.13 -81.26 -25.8 -81.72 -25.92 -81.86 -26.44 -82.4 -27 -82.69 -27.47 -82.4 -27.79 -82.84 -27.85 -82.64 -28.88 -83.04 -29.18 -83.65 -29.91 -84.35000000000001 -30.07 -84.86 -29.75 -85.31 -29.7 -85.53 -30.13 -86.51 -30.41 -86.45 -30.5 -87.19 -30.36 -87.9 -30.42 -88.02 -30.740000000000002 -88.14 -30.34 -88.89 -30.400000000000002 -89.3 -30.29 -89.41 -30.43 -89.46000000000001 -30.53 -89.44 -30.26 -89.73 -30.18 -90.24 -30.38 -90.4 -30.09 -89.39 -29.810000000000002 -89.39 -29.79 -89.77 -29.61 -89.42 -29.45 -89.45 -29.23 -89.82000000000001 -29.48 -90.23 -29.1 -90.35000000000001 -29.310000000000002 -90.78 -29.13 -90.94 -29.34 -91.55 -29.53 -91.62 -29.77 -92.06 -29.61 -92.61 -29.59 -93.23 -29.79 -93.72 -29.76 -93.76 -30.01 -94.07000000000001 -29.67 -94.68 -29.43 -94.74 -29.79 -95.25 -28.98 -95.68 -28.73 -96.44 -28.6 -96.39 -28.43 -97.03 -28.11 -97.2 -27.810000000000002 -97.57000000000001 -26.98 -97.25 -26.07 -98.2 -26.060000000000002 -99.11 -26.42 -99.46000000000001 -27.03 -99.55 -27.61 -100.3 -28.28 -100.67 -29.080000000000002 -101.47 -29.79 -101.97 -29.84 -102.31 -30.490000000000002 Z" ><title>Distance: 6</title></path>
<g  style="fill:#bbbbff; filter:url(#halo); ">
<path  fill-rule="evenodd"   d="M -98.22 -26.96 L -98.72 -27.57 -99.09 -28.26 -99.31 -29.01 -99.39 -29.79 -99.60000000000001 -29.96 -100.10000000000001 -30.57 -100.47 -31.26 -100.69 -32.01 -100.77 -32.79 -100.69 -33.57 -100.47 -34.32 -100.10000000000001 -35.01 -99.60000000000001 -35.62 -98.99000000000001 -36.12 -98.3 -36.49 -97.55 -36.71 -96.77 -36.79 -95.99000000000001 -36.71 -95.24 -36.49 -94.55 -36.12 -93.94 -35.62 -93.44 -35.01 -93.07000000000001 -34.32 -92.85000000000001 -33.57 -92.77 -32.79 -92.56 -32.62 -92.06 -32.01 -91.69 -31.32 -91.47 -30.57 -91.39 -29.79 -91.42 -29.490000000000002 -91.55 -29.53 -91.62 -29.77 -92.06 -29.61 -92.61 -29.59 -93.23 -29.79 -93.72 -29.76 -93.76 -30.01 -94.07000000000001 -29.67 -94.68 -29.43 -94.74 -29.79 -95.25 -28.98 -95.68 -28.73 -96.44 -28.6 -96.39 -28.43 -97.03 -28.11 -97.2 -27.810000000000002 -97.57000000000001 -26.98 -97.34 -26.32 -97.61 -26.46 Z"  />
<path  fill-rule="evenodd"   d="M -123.34 -41 L -122.59 -41.22 -121.81 -41.300000000000004 -121.03 -41.22 -120.28 -41 -119.59 -40.63 -118.98 -40.13 -118.48 -39.52 -118.11 -38.83 -117.89 -38.08 -117.88 -37.97 -117.63 -37.94 -116.88 -37.72 -116.19 -37.35 -115.58 -36.85 -115.08 -36.24 -115.07000000000001 -36.21 -114.92 -36.4 -114.31 -36.9 -113.71000000000001 -37.22 -114.15 -37.45 -114.76 -37.95 -115.26 -38.56 -115.63 -39.25 -115.85000000000001 -40 -115.93 -40.78 -115.85000000000001 -41.56 -115.63 -42.31 -115.26 -43 -114.76 -43.61 -114.15 -44.11 -113.46000000000001 -44.480000000000004 -112.71000000000001 -44.7 -111.93 -44.78 -111.15 -44.7 -110.4 -44.480000000000004 -109.71000000000001 -44.11 -109.10000000000001 -43.61 -108.60000000000001 -43 -108.23 -42.31 -108.15 -42.050000000000004 -107.71000000000001 -42.59 -107.10000000000001 -43.09 -106.41 -43.46 -105.66 -43.68 -104.88 -43.76 -104.10000000000001 -43.68 -103.35000000000001 -43.46 -102.66 -43.09 -102.05 -42.59 -101.55 -41.980000000000004 -101.18 -41.29 -100.96000000000001 -40.54 -100.88 -39.76 -100.96000000000001 -38.980000000000004 -101.18 -38.230000000000004 -101.55 -37.54 -102.05 -36.93 -102.66 -36.43 -103.35000000000001 -36.06 -104.10000000000001 -35.84 -104.88 -35.76 -105.66 -35.84 -106.41 -36.06 -107.10000000000001 -36.43 -107.71000000000001 -36.93 -108.21000000000001 -37.54 -108.58 -38.230000000000004 -108.66 -38.49 -109.10000000000001 -37.95 -109.71000000000001 -37.45 -110.31 -37.13 -109.87 -36.9 -109.26 -36.4 -108.76 -35.79 -108.39 -35.1 -108.17 -34.35 -108.09 -33.57 -108.17 -32.79 -108.39 -32.04 -108.76 -31.35 -108.77 -31.34 -111.07000000000001 -31.34 -114.82000000000001 -32.49 -114.72 -32.72 -117.13 -32.54 -117.41 -33.230000000000004 -118.11 -33.75 -118.4 -33.74 -118.54 -34.04 -118.94 -34.04 -119.61 -34.42 -120.46000000000001 -34.44 -120.64 -34.57 -120.64 -35.14 -121.27 -35.660000000000004 -121.95 -36.58 -121.76 -36.82 -122.41 -37.24 -122.5 -37.78 -122.09 -37.45 -122.38 -37.97 -122.46000000000001 -37.83 -123.01 -37.99 -122.99000000000001 -38.300000000000004 -123.72 -38.92 -123.84 -39.83 -124.33 -40.38 -124.03 -40.63 Z"  />
<path  fill-rule="evenodd"   d="M -120.82000000000001 -43.92 L -121.57000000000001 -43.7 -122.35000000000001 -43.62 -123.13000000000001 -43.7 -123.88000000000001 -43.92 -124.13000000000001 -44.06 -123.96000000000001 -45.29 -123.98 -46.2 -123.84 -46.4 -124.16 -46.93 -124.37 -47.64 -124.61 -47.870000000000005 -124.72 -48.38 -123.99000000000001 -48.160000000000004 -122.8 -48.09 -122.58 -47.25 -123.11 -47.21 -122.73 -47.08 -122.32000000000001 -47.34 -122.39 -47.77 -122.22 -48.01 -122.52 -48.76 -122.76 -49 -118.61 -49 -118.43 -48.4 -118.35000000000001 -47.62 -118.43 -46.84 -118.65 -46.09 -119.02 -45.4 -119.52 -44.79 -120.13 -44.29 Z"  />
<path  fill-rule="evenodd"   d="M -81.74 -29.48 L -81.24 -29.63 -80.75 -28.400000000000002 -80.05 -26.8 -80.13 -25.98 -80.42 -25.19 -81.12 -25.13 -81.26 -25.8 -81.72 -25.92 -81.86 -26.44 -82.4 -27 -82.69 -27.47 -82.4 -27.79 -82.84 -27.85 -82.64 -28.88 -82.68 -28.91 -82.43 -29.11 Z"  />
<path  fill-rule="evenodd"   d="M -82.89 -30.060000000000002 L -83.60000000000001 -29.85 -83.65 -29.91 -84.35000000000001 -30.07 -84.79 -29.8 -85.2 -29.84 -85.41 -29.900000000000002 -85.53 -30.13 -86.51 -30.41 -86.45 -30.5 -86.67 -30.46 -87.25 -30.93 -87.75 -31.54 -88.12 -32.230000000000004 -88.34 -32.980000000000004 -88.42 -33.76 -88.34 -34.54 -88.12 -35.29 -87.75 -35.980000000000004 -87.25 -36.59 -86.64 -37.09 -85.95 -37.46 -85.2 -37.68 -84.42 -37.76 -83.64 -37.68 -82.89 -37.46 -82.2 -37.09 -81.59 -36.59 -81.09 -35.980000000000004 -80.72 -35.29 -80.5 -34.54 -80.42 -33.76 -80.5 -32.980000000000004 -80.63 -32.55 -80.87 -32.53 -80.78 -32.25 -81.53 -31.13 -81.53 -31.01 -81.59 -30.93 -82.2 -30.43 Z"  />
<path  fill-rule="evenodd"   d="M -77.8 -34.980000000000004 L -78.55 -35.2 -79.24 -35.57 -79.85000000000001 -36.07 -80.35000000000001 -36.68 -80.72 -37.37 -80.94 -38.12 -81.02 -38.9 -80.94 -39.68 -80.72 -40.43 -80.35000000000001 -41.12 -79.85000000000001 -41.730000000000004 -79.24 -42.230000000000004 -78.55 -42.6 -78.03 -42.75 -77.96000000000001 -42.84 -77.46000000000001 -43.25 -76.91 -43.28 -76.22 -43.550000000000004 -76.13 -43.93 -76.18 -43.97 -76.16 -43.99 -75.47 -44.36 -74.72 -44.58 -74.29 -44.63 -73.99 -44.99 -71.51 -45.01 -71.3 -45.29 -70.96000000000001 -45.34 -70.25 -45.9 -70.31 -46.07 -70.21000000000001 -46.26 -69.49 -46.04 -68.8 -45.67 -68.19 -45.17 -67.73 -44.6 -68.14 -44.480000000000004 -68.43 -44.47 -68.56 -44.26 -68.96000000000001 -44.43 -69.22 -43.95 -70.16 -43.79 -70.81 -42.87 -70.59 -42.65 -71.03 -42.29 -70.78 -42.25 -70.54 -41.81 -69.95 -41.67 -70.67 -41.56 -70.62 -41.74 -71.2 -41.46 -71.2 -41.68 -71.39 -41.76 -71.49 -41.39 -72.91 -41.27 -73.65 -41 -74.12 -40.71 -74.28 -40.51 -73.98 -40.32 -74.17 -39.72 -74.88 -38.96 -75.59 -39.46 -75.08 -38.800000000000004 -75.05 -38.45 -75.9 -37.37 -75.7 -37.82 -75.79 -38.26 -76.29 -38.44 -75.98 -39.39 -76.36 -39.39 -76.55 -38.76 -76.33 -38.050000000000004 -76.86 -38.39 -76.94 -38.2 -76.26 -37.89 -76.28 -37.33 -76.51 -36.87 -76 -36.92 -75.94 -36.29 -76.69 -36.050000000000004 -75.75 -35.87 -76.18 -35.34 -76.98 -35.44 -76.51 -35.25 -76.91 -34.94 -76.55 -34.95 -77.02 -34.9 Z"  />
<path  fill-rule="evenodd"   d="M -86.15 -38.14 L -86.9 -37.92 -87.68 -37.84 -88.46000000000001 -37.92 -89.21000000000001 -38.14 -89.9 -38.51 -90.51 -39.01 -91.01 -39.62 -91.38 -40.31 -91.60000000000001 -41.06 -91.68 -41.84 -91.60000000000001 -42.62 -91.38 -43.37 -91.01 -44.06 -90.51 -44.67 -89.9 -45.17 -89.21000000000001 -45.54 -88.46000000000001 -45.76 -87.68 -45.84 -86.9 -45.76 -87.12 -45.7 -87.84 -44.93 -88.04 -44.57 -87.37 -44.81 -87.52 -44.18 -87.88 -43.36 -87.76 -42.78 -87.84 -42.31 -87.39 -41.63 -86.62 -41.910000000000004 -86.28 -42.42 -86.27 -43.12 -86.54 -43.660000000000004 -86.52 -44.050000000000004 -86.27 -44.35 -86.26 -44.7 -85.61 -45.2 -85.53 -44.76 -85.36 -45.09 -84.85000000000001 -44.67 -84.35000000000001 -44.06 -83.98 -43.37 -83.76 -42.62 -83.68 -41.84 -83.76 -41.06 -83.98 -40.31 -84.35000000000001 -39.62 -84.85000000000001 -39.01 -85.46000000000001 -38.51 Z"  />
<title>Distance: 4</title></g>
<g  style="fill:#ddddff; filter:url(#halo); ">
<path  fill-rule="evenodd"   d="M -97.05 -28.68 L -97.24000000000001 -29.02 -97.35000000000001 -29.400000000000002 -97.39 -29.79 -97.35000000000001 -30.18 -97.24000000000001 -30.560000000000002 -97.10000000000001 -30.82 -97.16 -30.830000000000002 -97.54 -30.94 -97.88 -31.13 -98.18 -31.38 -98.43 -31.68 -98.62 -32.02 -98.73 -32.4 -98.77 -32.79 -98.73 -33.18 -98.62 -33.56 -98.43 -33.9 -98.18 -34.2 -97.88 -34.45 -97.54 -34.64 -97.16 -34.75 -96.77 -34.79 -96.38 -34.75 -96 -34.64 -95.66 -34.45 -95.36 -34.2 -95.11 -33.9 -94.92 -33.56 -94.81 -33.18 -94.77 -32.79 -94.81 -32.4 -94.92 -32.02 -95.06 -31.76 -95 -31.75 -94.62 -31.64 -94.28 -31.45 -93.98 -31.2 -93.73 -30.900000000000002 -93.54 -30.560000000000002 -93.43 -30.18 -93.39 -29.79 -93.39 -29.78 -93.72 -29.76 -93.76 -30.01 -94.07000000000001 -29.67 -94.68 -29.43 -94.74 -29.79 -95.25 -28.98 -95.68 -28.73 -96.44 -28.6 -96.39 -28.43 -96.69 -28.28 -96.8 -28.38 Z"  />
<path  fill-rule="evenodd"   d="M -111.32000000000001 -31.720000000000002 L -111.7 -31.61 -111.89 -31.59 -113.37 -32.05 -113.5 -32.160000000000004 -113.75 -32.46 -113.94 -32.8 -114.05 -33.18 -114.09 -33.57 -114.05 -33.96 -113.94 -34.34 -113.75 -34.68 -113.5 -34.980000000000004 -113.2 -35.230000000000004 -112.86 -35.42 -112.48 -35.53 -112.09 -35.57 -111.7 -35.53 -111.32000000000001 -35.42 -110.98 -35.230000000000004 -110.68 -34.980000000000004 -110.43 -34.68 -110.24000000000001 -34.34 -110.13 -33.96 -110.09 -33.57 -110.13 -33.18 -110.24000000000001 -32.8 -110.43 -32.46 -110.68 -32.160000000000004 -110.98 -31.91 Z"  />
<path  fill-rule="evenodd"   d="M -117.13 -32.54 L -117.41 -33.230000000000004 -118.11 -33.75 -118.4 -33.74 -118.54 -34.04 -118.94 -34.04 -119.61 -34.42 -120.36 -34.44 -120.26 -34.79 -120.07000000000001 -35.13 -119.82000000000001 -35.43 -119.52 -35.68 -119.18 -35.87 -118.8 -35.980000000000004 -118.41 -36.02 -118.02 -35.980000000000004 -117.64 -35.87 -117.3 -35.68 -117 -35.43 -116.75 -35.13 -116.56 -34.79 -116.45 -34.410000000000004 -116.41 -34.02 -116.45 -33.63 -116.56 -33.25 -116.75 -32.910000000000004 -117 -32.61 -117.07000000000001 -32.54 Z"  />
<path  fill-rule="evenodd"   d="M -121.03 -35.46 L -121.27 -35.660000000000004 -121.95 -36.58 -121.76 -36.82 -122.41 -37.24 -122.5 -37.78 -122.09 -37.45 -122.38 -37.97 -122.46000000000001 -37.83 -123.01 -37.99 -122.99000000000001 -38.300000000000004 -123.33 -38.59 -123.22 -38.71 -122.92 -38.96 -122.58 -39.15 -122.2 -39.26 -121.81 -39.300000000000004 -121.42 -39.26 -121.04 -39.15 -120.7 -38.96 -120.4 -38.71 -120.15 -38.410000000000004 -119.96000000000001 -38.07 -119.85000000000001 -37.69 -119.81 -37.300000000000004 -119.85000000000001 -36.910000000000004 -119.96000000000001 -36.53 -120.15 -36.19 -120.4 -35.89 -120.7 -35.64 Z"  />
<path  fill-rule="evenodd"   d="M -104.11 -37.910000000000004 L -104.49000000000001 -37.800000000000004 -104.88 -37.76 -105.27 -37.800000000000004 -105.65 -37.910000000000004 -105.99000000000001 -38.1 -106.29 -38.35 -106.54 -38.65 -106.73 -38.99 -106.84 -39.37 -106.88 -39.76 -106.84 -40.15 -106.73 -40.53 -106.54 -40.87 -106.29 -41.17 -105.99000000000001 -41.42 -105.65 -41.61 -105.27 -41.72 -104.88 -41.76 -104.49000000000001 -41.72 -104.11 -41.61 -103.77 -41.42 -103.47 -41.17 -103.22 -40.87 -103.03 -40.53 -102.92 -40.15 -102.88 -39.76 -102.92 -39.37 -103.03 -38.99 -103.22 -38.65 -103.47 -38.35 -103.77 -38.1 Z"  />
<path  fill-rule="evenodd"   d="M -111.16 -38.93 L -111.54 -38.82 -111.93 -38.78 -112.32000000000001 -38.82 -112.7 -38.93 -113.04 -39.12 -113.34 -39.37 -113.59 -39.67 -113.78 -40.01 -113.89 -40.39 -113.93 -40.78 -113.89 -41.17 -113.78 -41.550000000000004 -113.59 -41.89 -113.34 -42.19 -113.04 -42.44 -112.7 -42.63 -112.32000000000001 -42.74 -111.93 -42.78 -111.54 -42.74 -111.16 -42.63 -110.82000000000001 -42.44 -110.52 -42.19 -110.27 -41.89 -110.08 -41.550000000000004 -109.97 -41.17 -109.93 -40.78 -109.97 -40.39 -110.08 -40.01 -110.27 -39.67 -110.52 -39.37 -110.82000000000001 -39.12 Z"  />
<path  fill-rule="evenodd"   d="M -121.58 -45.77 L -121.96000000000001 -45.660000000000004 -122.35000000000001 -45.62 -122.74000000000001 -45.660000000000004 -123.12 -45.77 -123.46000000000001 -45.96 -123.76 -46.21 -123.88000000000001 -46.35 -123.84 -46.4 -124.16 -46.93 -124.34 -47.550000000000004 -124.35000000000001 -47.62 -124.31 -48.01 -124.24000000000001 -48.24 -123.99000000000001 -48.160000000000004 -122.8 -48.09 -122.58 -47.25 -123.11 -47.21 -122.73 -47.08 -122.32000000000001 -47.34 -122.39 -47.77 -122.22 -48.01 -122.52 -48.76 -122.76 -49 -120.91 -49 -120.69 -48.730000000000004 -120.5 -48.39 -120.39 -48.01 -120.35000000000001 -47.62 -120.39 -47.230000000000004 -120.5 -46.85 -120.69 -46.51 -120.94 -46.21 -121.24000000000001 -45.96 Z"  />
<path  fill-rule="evenodd"   d="M -81.62 -27.19 L -81.32000000000001 -27.44 -80.98 -27.63 -80.60000000000001 -27.740000000000002 -80.47 -27.75 -80.05 -26.8 -80.13 -25.98 -80.42 -25.19 -81.12 -25.13 -81.26 -25.8 -81.72 -25.92 -81.86 -26.44 -82.02 -26.61 -81.87 -26.89 Z"  />
<path  fill-rule="evenodd"   d="M -83.65 -31.91 L -84.03 -31.8 -84.42 -31.76 -84.81 -31.8 -85.19 -31.91 -85.53 -32.1 -85.83 -32.35 -86.08 -32.65 -86.27 -32.99 -86.38 -33.37 -86.42 -33.76 -86.38 -34.15 -86.27 -34.53 -86.08 -34.87 -85.83 -35.17 -85.53 -35.42 -85.19 -35.61 -84.81 -35.72 -84.42 -35.76 -84.03 -35.72 -83.65 -35.61 -83.31 -35.42 -83.01 -35.17 -82.76 -34.87 -82.57000000000001 -34.53 -82.46000000000001 -34.15 -82.42 -33.76 -82.46000000000001 -33.37 -82.57000000000001 -32.99 -82.76 -32.65 -83.01 -32.35 -83.31 -32.1 Z"  />
<path  fill-rule="evenodd"   d="M -77.02 -36.9 L -77.41 -36.94 -77.79 -37.050000000000004 -78.13 -37.24 -78.43 -37.49 -78.68 -37.79 -78.87 -38.13 -78.98 -38.51 -79.02 -38.9 -78.98 -39.29 -78.87 -39.67 -78.68 -40.01 -78.43 -40.31 -78.13 -40.56 -77.79 -40.75 -77.41 -40.86 -77.02 -40.9 -76.92 -40.89 -76.79 -41.12 -76.54 -41.42 -76.24 -41.67 -75.9 -41.86 -75.52 -41.97 -75.43 -41.980000000000004 -75.35000000000001 -42.07 -75.05 -42.32 -74.71000000000001 -42.51 -74.33 -42.62 -73.94 -42.660000000000004 -73.55 -42.62 -73.17 -42.51 -73.01 -42.42 -72.98 -42.730000000000004 -72.87 -43.11 -72.68 -43.45 -72.43 -43.75 -72.13 -44 -71.79 -44.19 -71.41 -44.300000000000004 -71.02 -44.34 -70.63 -44.300000000000004 -70.25 -44.19 -69.91 -44 -69.74 -43.86 -70.16 -43.79 -70.81 -42.87 -70.59 -42.65 -71.03 -42.29 -70.78 -42.25 -70.54 -41.81 -69.95 -41.67 -70.67 -41.56 -70.62 -41.74 -71.2 -41.46 -71.2 -41.68 -71.39 -41.76 -71.49 -41.39 -72.91 -41.27 -73.65 -41 -74.12 -40.71 -74.28 -40.51 -73.98 -40.32 -74.17 -39.72 -74.88 -38.96 -75.59 -39.46 -75.08 -38.800000000000004 -75.05 -38.45 -75.9 -37.37 -75.7 -37.82 -75.79 -38.26 -76.29 -38.44 -75.98 -39.39 -76.36 -39.39 -76.55 -38.76 -76.33 -38.050000000000004 -76.86 -38.39 -76.94 -38.2 -76.26 -37.89 -76.28 -37.33 -76.45 -36.99 -76.63 -36.94 Z"  />
<path  fill-rule="evenodd"   d="M -86.91 -39.99 L -87.29 -39.88 -87.68 -39.84 -88.07000000000001 -39.88 -88.45 -39.99 -88.79 -40.18 -89.09 -40.43 -89.34 -40.730000000000004 -89.53 -41.07 -89.64 -41.45 -89.68 -41.84 -89.64 -42.230000000000004 -89.53 -42.61 -89.34 -42.95 -89.09 -43.25 -88.79 -43.5 -88.45 -43.69 -88.07000000000001 -43.800000000000004 -87.68 -43.84 -87.67 -43.84 -87.88 -43.36 -87.76 -42.78 -87.84 -42.31 -87.39 -41.63 -86.62 -41.910000000000004 -86.28 -42.42 -86.27 -43.12 -86.39 -43.35 -86.27 -43.25 -86.02 -42.95 -85.83 -42.61 -85.72 -42.230000000000004 -85.68 -41.84 -85.72 -41.45 -85.83 -41.07 -86.02 -40.730000000000004 -86.27 -40.43 -86.57000000000001 -40.18 Z"  />
<title>Distance: 2</title></g>
<g  style="fill:#ffffff; filter:url(#halo); ">
<path  fill-rule="evenodd"   d="M -95.11 -29.37 L -95.2 -29.330000000000002 -95.29 -29.3 -95.39 -29.29 -95.49 -29.3 -95.58 -29.330000000000002 -95.67 -29.37 -95.74000000000001 -29.44 -95.81 -29.51 -95.85000000000001 -29.6 -95.88 -29.69 -95.89 -29.79 -95.88 -29.89 -95.85000000000001 -29.98 -95.81 -30.07 -95.74000000000001 -30.14 -95.67 -30.21 -95.58 -30.25 -95.49 -30.28 -95.39 -30.29 -95.29 -30.28 -95.2 -30.25 -95.11 -30.21 -95.04 -30.14 -94.97 -30.07 -94.93 -29.98 -94.9 -29.89 -94.89 -29.79 -94.9 -29.69 -94.93 -29.6 -94.97 -29.51 -95.04 -29.44 Z"  />
<path  fill-rule="evenodd"   d="M -96.58 -32.33 L -96.67 -32.3 -96.77 -32.29 -96.87 -32.3 -96.96000000000001 -32.33 -97.05 -32.37 -97.12 -32.44 -97.19 -32.51 -97.23 -32.6 -97.26 -32.69 -97.27 -32.79 -97.26 -32.89 -97.23 -32.980000000000004 -97.19 -33.07 -97.12 -33.14 -97.05 -33.21 -96.96000000000001 -33.25 -96.87 -33.28 -96.77 -33.29 -96.67 -33.28 -96.58 -33.25 -96.49000000000001 -33.21 -96.42 -33.14 -96.35000000000001 -33.07 -96.31 -32.980000000000004 -96.28 -32.89 -96.27 -32.79 -96.28 -32.69 -96.31 -32.6 -96.35000000000001 -32.51 -96.42 -32.44 -96.49000000000001 -32.37 Z"  />
<path  fill-rule="evenodd"   d="M -111.9 -33.11 L -111.99000000000001 -33.08 -112.09 -33.07 -112.19 -33.08 -112.28 -33.11 -112.37 -33.15 -112.44 -33.22 -112.51 -33.29 -112.55 -33.38 -112.58 -33.47 -112.59 -33.57 -112.58 -33.67 -112.55 -33.76 -112.51 -33.85 -112.44 -33.92 -112.37 -33.99 -112.28 -34.03 -112.19 -34.06 -112.09 -34.07 -111.99000000000001 -34.06 -111.9 -34.03 -111.81 -33.99 -111.74000000000001 -33.92 -111.67 -33.85 -111.63 -33.76 -111.60000000000001 -33.67 -111.59 -33.57 -111.60000000000001 -33.47 -111.63 -33.38 -111.67 -33.29 -111.74000000000001 -33.22 -111.81 -33.15 Z"  />
<path  fill-rule="evenodd"   d="M -118.87 -34.21 L -118.83 -34.300000000000004 -118.76 -34.37 -118.69 -34.44 -118.60000000000001 -34.480000000000004 -118.51 -34.51 -118.41 -34.52 -118.31 -34.51 -118.22 -34.480000000000004 -118.13 -34.44 -118.06 -34.37 -117.99000000000001 -34.300000000000004 -117.95 -34.21 -117.92 -34.12 -117.91 -34.02 -117.92 -33.92 -117.95 -33.83 -117.99000000000001 -33.74 -118.03 -33.69 -118.11 -33.75 -118.4 -33.74 -118.54 -34.04 -118.91 -34.04 -118.9 -34.12 Z"  />
<path  fill-rule="evenodd"   d="M -121.62 -36.84 L -121.71000000000001 -36.81 -121.77 -36.800000000000004 -121.76 -36.82 -122.29 -37.160000000000004 -122.3 -37.2 -122.31 -37.300000000000004 -122.3 -37.4 -122.27 -37.49 -122.23 -37.56 -122.09 -37.45 -122.19 -37.62 -122.16 -37.65 -122.09 -37.72 -122 -37.76 -121.91 -37.79 -121.81 -37.800000000000004 -121.71000000000001 -37.79 -121.62 -37.76 -121.53 -37.72 -121.46000000000001 -37.65 -121.39 -37.58 -121.35000000000001 -37.49 -121.32000000000001 -37.4 -121.31 -37.300000000000004 -121.32000000000001 -37.2 -121.35000000000001 -37.11 -121.39 -37.02 -121.46000000000001 -36.95 -121.53 -36.88 Z"  />
<path  fill-rule="evenodd"   d="M -104.69 -39.300000000000004 L -104.78 -39.27 -104.88 -39.26 -104.98 -39.27 -105.07000000000001 -39.300000000000004 -105.16 -39.34 -105.23 -39.410000000000004 -105.3 -39.480000000000004 -105.34 -39.57 -105.37 -39.660000000000004 -105.38 -39.76 -105.37 -39.86 -105.34 -39.95 -105.3 -40.04 -105.23 -40.11 -105.16 -40.18 -105.07000000000001 -40.22 -104.98 -40.25 -104.88 -40.26 -104.78 -40.25 -104.69 -40.22 -104.60000000000001 -40.18 -104.53 -40.11 -104.46000000000001 -40.04 -104.42 -39.95 -104.39 -39.86 -104.38 -39.76 -104.39 -39.660000000000004 -104.42 -39.57 -104.46000000000001 -39.480000000000004 -104.53 -39.410000000000004 -104.60000000000001 -39.34 Z"  />
<path  fill-rule="evenodd"   d="M -111.74000000000001 -40.32 L -111.83 -40.29 -111.93 -40.28 -112.03 -40.29 -112.12 -40.32 -112.21000000000001 -40.36 -112.28 -40.43 -112.35000000000001 -40.5 -112.39 -40.59 -112.42 -40.68 -112.43 -40.78 -112.42 -40.88 -112.39 -40.97 -112.35000000000001 -41.06 -112.28 -41.13 -112.21000000000001 -41.2 -112.12 -41.24 -112.03 -41.27 -111.93 -41.28 -111.83 -41.27 -111.74000000000001 -41.24 -111.65 -41.2 -111.58 -41.13 -111.51 -41.06 -111.47 -40.97 -111.44 -40.88 -111.43 -40.78 -111.44 -40.68 -111.47 -40.59 -111.51 -40.5 -111.58 -40.43 -111.65 -40.36 Z"  />
<path  fill-rule="evenodd"   d="M -122.16 -47.160000000000004 L -122.25 -47.13 -122.35000000000001 -47.12 -122.45 -47.13 -122.54 -47.160000000000004 -122.58 -47.18 -122.32000000000001 -47.34 -122.39 -47.77 -122.22 -48.01 -122.26 -48.11 -122.25 -48.11 -122.16 -48.08 -122.07000000000001 -48.04 -122 -47.97 -121.93 -47.9 -121.89 -47.81 -121.86 -47.72 -121.85000000000001 -47.62 -121.86 -47.52 -121.89 -47.43 -121.93 -47.34 -122 -47.27 -122.07000000000001 -47.2 Z"  />
<path  fill-rule="evenodd"   d="M -122.77 -47.34 L -122.81 -47.43 -122.84 -47.52 -122.85000000000001 -47.62 -122.84 -47.72 -122.81 -47.81 -122.77 -47.9 -122.75 -47.910000000000004 -122.58 -47.25 -122.67 -47.24 -122.7 -47.27 Z"  />
<path  fill-rule="evenodd"   d="M -80.49 -25.36 L -80.56 -25.43 -80.63 -25.5 -80.67 -25.59 -80.7 -25.68 -80.71000000000001 -25.78 -80.7 -25.88 -80.67 -25.97 -80.63 -26.060000000000002 -80.56 -26.13 -80.49 -26.2 -80.4 -26.240000000000002 -80.31 -26.27 -80.21000000000001 -26.28 -80.11 -26.27 -80.10000000000001 -26.27 -80.13 -25.98 -80.38 -25.310000000000002 -80.4 -25.32 Z"  />
<path  fill-rule="evenodd"   d="M -84.23 -33.3 L -84.32000000000001 -33.27 -84.42 -33.26 -84.52 -33.27 -84.61 -33.3 -84.7 -33.34 -84.77 -33.410000000000004 -84.84 -33.480000000000004 -84.88 -33.57 -84.91 -33.660000000000004 -84.92 -33.76 -84.91 -33.86 -84.88 -33.95 -84.84 -34.04 -84.77 -34.11 -84.7 -34.18 -84.61 -34.22 -84.52 -34.25 -84.42 -34.26 -84.32000000000001 -34.25 -84.23 -34.22 -84.14 -34.18 -84.07000000000001 -34.11 -84 -34.04 -83.96000000000001 -33.95 -83.93 -33.86 -83.92 -33.76 -83.93 -33.660000000000004 -83.96000000000001 -33.57 -84 -33.480000000000004 -84.07000000000001 -33.410000000000004 -84.14 -33.34 Z"  />
<path  fill-rule="evenodd"   d="M -76.83 -38.44 L -76.92 -38.410000000000004 -77.02 -38.4 -77.12 -38.410000000000004 -77.21000000000001 -38.44 -77.3 -38.480000000000004 -77.37 -38.550000000000004 -77.44 -38.62 -77.48 -38.71 -77.51 -38.800000000000004 -77.52 -38.9 -77.51 -39 -77.48 -39.09 -77.44 -39.18 -77.37 -39.25 -77.3 -39.32 -77.21000000000001 -39.36 -77.12 -39.39 -77.02 -39.4 -76.92 -39.39 -76.83 -39.36 -76.74 -39.32 -76.67 -39.25 -76.60000000000001 -39.18 -76.56 -39.09 -76.53 -39 -76.52 -38.9 -76.53 -38.84 -76.55 -38.76 -76.55 -38.75 -76.56 -38.71 -76.60000000000001 -38.62 -76.67 -38.550000000000004 -76.74 -38.480000000000004 Z"  />
<path  fill-rule="evenodd"   d="M -74.94 -39.550000000000004 L -75.03 -39.52 -75.13 -39.51 -75.23 -39.52 -75.32000000000001 -39.550000000000004 -75.41 -39.59 -75.48 -39.660000000000004 -75.55 -39.730000000000004 -75.59 -39.82 -75.62 -39.910000000000004 -75.63 -40.01 -75.62 -40.11 -75.59 -40.2 -75.55 -40.29 -75.48 -40.36 -75.41 -40.43 -75.32000000000001 -40.47 -75.23 -40.5 -75.13 -40.51 -75.03 -40.5 -74.94 -40.47 -74.85000000000001 -40.43 -74.78 -40.36 -74.71000000000001 -40.29 -74.67 -40.2 -74.64 -40.11 -74.63 -40.01 -74.64 -39.910000000000004 -74.67 -39.82 -74.71000000000001 -39.730000000000004 -74.78 -39.660000000000004 -74.85000000000001 -39.59 Z"  />
<path  fill-rule="evenodd"   d="M -74.13 -40.2 L -74.22 -40.24 -74.29 -40.31 -74.36 -40.38 -74.4 -40.47 -74.43 -40.56 -74.44 -40.660000000000004 -74.43 -40.76 -74.4 -40.85 -74.36 -40.94 -74.29 -41.01 -74.22 -41.08 -74.13 -41.12 -74.04 -41.15 -73.94 -41.160000000000004 -73.84 -41.15 -73.75 -41.12 -73.66 -41.08 -73.59 -41.02 -73.65 -41 -74.12 -40.71 -74.28 -40.51 -73.98 -40.32 -74.03 -40.17 -74.04 -40.17 Z"  />
<path  fill-rule="evenodd"   d="M -87.49 -41.38 L -87.58 -41.35 -87.68 -41.34 -87.78 -41.35 -87.87 -41.38 -87.96000000000001 -41.42 -88.03 -41.49 -88.10000000000001 -41.56 -88.14 -41.65 -88.17 -41.74 -88.18 -41.84 -88.17 -41.94 -88.14 -42.03 -88.10000000000001 -42.12 -88.03 -42.19 -87.96000000000001 -42.26 -87.87 -42.300000000000004 -87.84 -42.31 -87.39 -41.63 -87.2 -41.7 -87.22 -41.65 -87.26 -41.56 -87.33 -41.49 -87.4 -41.42 Z"  />
<path  fill-rule="evenodd"   d="M -70.83 -41.88 L -70.92 -41.85 -71.02 -41.84 -71.12 -41.85 -71.21000000000001 -41.88 -71.3 -41.92 -71.37 -41.99 -71.44 -42.06 -71.48 -42.15 -71.51 -42.24 -71.52 -42.34 -71.51 -42.44 -71.48 -42.53 -71.44 -42.62 -71.37 -42.69 -71.3 -42.76 -71.21000000000001 -42.800000000000004 -71.12 -42.83 -71.02 -42.84 -70.92 -42.83 -70.83 -42.800000000000004 -70.74 -42.76 -70.67 -42.69 -70.61 -42.63 -71.03 -42.29 -70.78 -42.25 -70.65 -42.01 -70.67 -41.99 -70.74 -41.92 Z"  />
<title>Distance: 0.5</title></g>
</svg>
