<svg xmlns="http://www.w3.org/2000/svg" viewBox="-126.72 -51.37 61.75 28.24" > 
<path  style=" stroke:#255580; stroke-width:.3; fill:#99b7ff;" fill-rule="evenodd"   d="M -80.13 -25.98 L -80.42 -25.19 -81.12 -25.13 -81.26 -25.8 -81.72 -25.92 -81.86 -26.44 -82.4 -27 -82.69 -27.47 -82.4 -27.79 -82.84 -27.85 -82.64 -28.88 -83.04 -29.18 -83.65 -29.91 -84.35 -30.07 -84.86 -29.75 -85.31 -29.7 -85.53 -30.13 -86.51 -30.41 -86.45 -30.5 -87.19 -30.36 -87.9 -30.42 -88.02 -30.74 -88.14 -30.34 -88.89 -30.4 -89.73 -30.18 -90.24 -30.38 -90.4 -30.09 -89.36 -29.8 -89.77 -29.61 -89.19 -29.35 -89.14 -29.02 -89.82 -29.48 -90.23 -29.1 -90.35 -29.31 -90.78 -29.13 -90.94 -29.34 -91.55 -29.53 -91.62 -29.77 -92.06 -29.61 -92.61 -29.59 -93.23 -29.79 -93.72 -29.76 -93.76 -30.01 -94.07 -29.67 -94.68 -29.43 -94.74 -29.79 -95.25 -28.98 -95.68 -28.73 -96.44 -28.6 -96.39 -28.43 -97.03 -28.11 -97.2 -27.81 -97.57 -26.98 -97.25 -26.07 -98.2 -26.06 -99.11 -26.42 -99.46 -27.03 -99.55 -27.61 -100.3 -28.28 -100.67 -29.08 -101.47 -29.79 -102.32 -29.88 -102.68 -29.74 -103.15 -28.98 -104.05 -29.33 -104.54 -29.68 -104.89 -30.57 -105.39 -30.85 -106.54 -31.79 -108.2 -31.79 -108.21 -31.34 -111.07 -31.34 -114.82 -32.49 -114.72 -32.72 -117.13 -32.54 -117.41 -33.23 -118.11 -33.75 -118.4 -33.74 -118.54 -34.04 -118.94 -34.04 -119.61 -34.42 -120.46 -34.44 -120.64 -34.57 -120.64 -35.14 -121.27 -35.66 -121.95 -36.58 -121.76 -36.82 -122.41 -37.24 -122.5 -37.78 -122.09 -37.45 -122.38 -37.97 -122.46 -37.83 -123.01 -37.99 -122.99 -38.3 -123.72 -38.92 -123.84 -39.83 -124.39 -40.44 -124.11 -40.98 -124.06 -41.46 -124.35 -42.1 -124.56 -42.83 -124.16 -43.86 -123.96 -45.29 -123.98 -46.2 -123.84 -46.4 -124.16 -46.93 -124.37 -47.64 -124.61 -47.87 -124.72 -48.38 -123.99 -48.16 -122.8 -48.09 -122.58 -47.25 -123.11 -47.21 -122.73 -47.08 -122.32 -47.34 -122.39 -47.77 -122.22 -48.01 -122.52 -48.76 -122.76 -49 -95.16 -49 -95.15 -49.37 -94.83 -49.33 -94.57 -48.71 -93.78 -48.51 -92.95 -48.63 -92.37 -48.22 -92.04 -48.36 -91.57 -48.04 -90.86 -48.25 -90.74 -48.09 -90.15 -48.11 -89.53 -48 -90.51 -47.71 -92.09 -46.79 -91.92 -46.68 -90.86 -46.95 -90.93 -46.59 -90.41 -46.57 -89.79 -46.82 -89.39 -46.85 -88.62 -47.13 -88.45 -46.8 -87.66 -46.84 -87.37 -46.51 -86.64 -46.42 -86.15 -46.67 -84.95 -46.77 -85.02 -46.48 -84.31 -46.49 -83.91 -45.96 -84.69 -46.04 -84.73 -45.86 -85.51 -46.1 -87.12 -45.7 -87.84 -44.93 -88.04 -44.57 -87.37 -44.81 -87.52 -44.18 -87.88 -43.36 -87.76 -42.78 -87.84 -42.31 -87.39 -41.63 -86.62 -41.91 -86.28 -42.42 -86.27 -43.12 -86.54 -43.66 -86.52 -44.05 -86.27 -44.35 -86.26 -44.7 -85.61 -45.2 -85.53 -44.76 -85.12 -45.57 -84.72 -45.78 -84.11 -45.5 -83.5 -45.36 -83.28 -44.7 -83.36 -44.34 -83.92 -43.92 -83.7 -43.6 -83.33 -43.94 -82.94 -44.07 -82.62 -43.79 -82.42 -42.97 -83.48 -41.73 -82.55 -41.39 -81.74 -41.49 -81.36 -41.72 -79.76 -42.27 -78.86 -42.79 -79.06 -43.27 -78.46 -43.37 -77.58 -43.24 -76.91 -43.28 -76.22 -43.55 -76.13 -43.93 -76.36 -44.1 -75.33 -44.81 -74.74 -44.99 -71.51 -45.01 -71.3 -45.29 -70.96 -45.34 -70.25 -45.9 -70.31 -46.07 -69.99 -46.69 -69.23 -47.45 -68.9 -47.18 -68.23 -47.35 -67.79 -47.06 -67.8 -45.68 -67.44 -45.59 -67.48 -45.28 -66.97 -44.83 -68.14 -44.48 -68.43 -44.47 -68.56 -44.26 -68.96 -44.43 -69.22 -43.95 -70.16 -43.79 -70.81 -42.87 -70.59 -42.65 -71.03 -42.29 -70.78 -42.25 -70.54 -41.81 -69.95 -41.67 -70.67 -41.56 -70.62 -41.74 -71.2 -41.46 -71.2 -41.68 -71.39 -41.76 -71.49 -41.39 -72.91 -41.27 -73.65 -41 -74.12 -40.71 -74.28 -40.51 -73.98 -40.32 -74.17 -39.72 -74.88 -38.96 -75.59 -39.46 -75.08 -38.8 -75.05 -38.45 -75.9 -37.37 -75.7 -37.82 -75.79 -38.26 -76.29 -38.44 -75.98 -39.39 -76.36 -39.39 -76.55 -38.76 -76.33 -38.05 -76.86 -38.39 -76.94 -38.2 -76.26 -37.89 -76.28 -37.33 -76.51 -36.87 -76 -36.92 -75.94 -36.29 -76.69 -36.05 -75.75 -35.87 -76.18 -35.34 -76.98 -35.44 -76.51 -35.25 -76.91 -34.94 -76.31 -34.95 -76.63 -34.72 -77.05 -34.7 -77.54 -34.46 -78.03 -33.91 -78.58 -33.88 -80 -32.61 -80.87 -32.53 -80.78 -32.25 -81.53 -31.13 -81.52 -30.56 -81.32 -29.83 -80.75 -28.4 -80.05 -26.8 Z" ><title>USA</title></path>
<text x="-114" y="-34"  style=" fill:#ff0000; font:bold 15px sans-serif;">U</text>
<text x="-103.5" y="-34"  style=" fill:#ffffff; font:bold 15px sans-serif;">S</text>
<text x="-94" y="-34"  style=" fill:#0000ff; font:bold 15px sans-serif;">A</text>
</svg>
