<svg xmlns="http://www.w3.org/2000/svg" viewBox="-1.4999232575641008 -1.499792900142669 2.9997070217534576 2.9997831066933727"  style="stroke-width:0.2; stroke-linecap:round; " > 
<path  style="stroke:hsl(240,100%,45.35533905932737%); " fill="none"   d="M 0 0 L 0.049979169270678 -0.198669330795061"  />
<path  style="stroke:hsl(240,100%,43.54412361638719%); " fill="none"   d="M 0.049979169270678 -0.198669330795061 L 0.099833416646828 -0.38941834230865"  />
<path  style="stroke:hsl(240,100%,41.64906533384791%); " fill="none"   d="M 0.099833416646828 -0.38941834230865 L 0.149438132473599 -0.564642473395035"  />
<path  style="stroke:hsl(240,100%,39.67490087048861%); " fill="none"   d="M 0.149438132473599 -0.564642473395035 L 0.198669330795061 -0.717356090899523"  />
<path  style="stroke:hsl(240,100%,37.62656460934271%); " fill="none"   d="M 0.198669330795061 -0.717356090899523 L 0.247403959254523 -0.841470984807896"  />
<path  style="stroke:hsl(240,100%,35.50917632431016%); " fill="none"   d="M 0.247403959254523 -0.841470984807896 L 0.29552020666134 -0.932039085967226"  />
<path  style="stroke:hsl(240,100%,33.32802838338907%); " fill="none"   d="M 0.29552020666134 -0.932039085967226 L 0.342897807455451 -0.98544972998846"  />
<path  style="stroke:hsl(240,100%,31.088572520511818%); " fill="none"   d="M 0.342897807455451 -0.98544972998846 L 0.38941834230865 -0.999573603041505"  />
<path  style="stroke:hsl(240,100%,28.79640620904955%); " fill="none"   d="M 0.38941834230865 -0.999573603041505 L 0.43496553411123 -0.973847630878195"  />
<path  style="stroke:hsl(240,100%,26.457258671043782%); " fill="none"   d="M 0.43496553411123 -0.973847630878195 L 0.479425538604203 -0.909297426825682"  />
<path  style="stroke:hsl(240,100%,24.076976557135033%); " fill="none"   d="M 0.479425538604203 -0.909297426825682 L 0.522687228930659 -0.80849640381959"  />
<path  style="stroke:hsl(240,100%,21.66150933298112%); " fill="none"   d="M 0.522687228930659 -0.80849640381959 L 0.564642473395035 -0.675463180551151"  />
<path  style="stroke:hsl(240,100%,19.216894408691417%); " fill="none"   d="M 0.564642473395035 -0.675463180551151 L 0.60518640573604 -0.515501371821464"  />
<path  style="stroke:hsl(240,100%,16.749242048445794%); " fill="none"   d="M 0.60518640573604 -0.515501371821464 L 0.644217687237691 -0.334988150155905"  />
<path  style="stroke:hsl(240,100%,14.264720098016372%); " fill="none"   d="M 0.644217687237691 -0.334988150155905 L 0.681638760023334 -0.141120008059867"  />
<path  style="stroke:hsl(240,100%,11.7695385683652%); " fill="none"   d="M 0.681638760023334 -0.141120008059867 L 0.717356090899523 0.05837414342758"  />
<path  style="stroke:hsl(240,100%,10.730065886149017%); " fill="none"   d="M 0.717356090899523 0.05837414342758 L 0.751280405140293 0.255541102026831"  />
<path  style="stroke:hsl(240,100%,13.227845556158819%); " fill="none"   d="M 0.751280405140293 0.255541102026831 L 0.783326909627483 0.442520443294852"  />
<path  style="stroke:hsl(240,100%,15.717557293307697%); " fill="none"   d="M 0.783326909627483 0.442520443294852 L 0.813415504789374 0.611857890942719"  />
<path  style="stroke:hsl(240,100%,18.19297811486958%); " fill="none"   d="M 0.813415504789374 0.611857890942719 L 0.841470984807896 0.756802495307928"  />
<path  style="stroke:hsl(240,100%,20.647920757964812%); " fill="none"   d="M 0.841470984807896 0.756802495307928 L 0.867423225594017 0.871575772413588"  />
<path  style="stroke:hsl(240,100%,23.076249144495065%); " fill="none"   d="M 0.867423225594017 0.871575772413588 L 0.891207360061435 0.951602073889516"  />
<path  style="stroke:hsl(240,100%,25.471893718142987%); " fill="none"   d="M 0.891207360061435 0.951602073889516 L 0.912763940260521 0.993691003633464"  />
<path  style="stroke:hsl(240,100%,27.82886661510203%); " fill="none"   d="M 0.912763940260521 0.993691003633464 L 0.932039085967226 0.996164608835841"  />
<path  style="stroke:hsl(240,100%,30.141276630617565%); " fill="none"   d="M 0.932039085967226 0.996164608835841 L 0.948984619355586 0.958924274663138"  />
<path  style="stroke:hsl(240,100%,32.40334394393066%); " fill="none"   d="M 0.948984619355586 0.958924274663138 L 0.963558185417193 0.883454655720153"  />
<path  style="stroke:hsl(240,100%,34.6094145648199%); " fill="none"   d="M 0.963558185417193 0.883454655720153 L 0.975723357826659 0.772764487555987"  />
<path  style="stroke:hsl(240,100%,36.753974465632446%); " fill="none"   d="M 0.975723357826659 0.772764487555987 L 0.98544972998846 0.631266637872322"  />
<path  style="stroke:hsl(240,100%,38.831663363481454%); " fill="none"   d="M 0.98544972998846 0.631266637872322 L 0.992712991037588 0.464602179413757"  />
<path  style="stroke:hsl(240,100%,40.83728811816179%); " fill="none"   d="M 0.992712991037588 0.464602179413757 L 0.997494986604054 0.279415498198926"  />
<path  style="stroke:hsl(240,100%,42.76583571229591%); " fill="none"   d="M 0.997494986604054 0.279415498198926 L 0.999783764189357 0.083089402817496"  />
<path  style="stroke:hsl(240,100%,44.61248578126666%); " fill="none"   d="M 0.999783764189357 0.083089402817496 L 0.999573603041505 -0.116549204850494"  />
<path  style="stroke:hsl(240,100%,46.37262266161838%); " fill="none"   d="M 0.999573603041505 -0.116549204850494 L 0.996865028453919 -0.311541363513378"  />
<path  style="stroke:hsl(240,100%,48.041846927811754%); " fill="none"   d="M 0.996865028453919 -0.311541363513378 L 0.991664810452469 -0.494113351138608"  />
<path  style="stroke:hsl(240,100%,49.61598638849649%); " fill="none"   d="M 0.991664810452469 -0.494113351138608 L 0.983985946873937 -0.656986598718789"  />
<path  style="stroke:hsl(240,100%,51.09110651481686%); " fill="none"   d="M 0.983985946873937 -0.656986598718789 L 0.973847630878195 -0.793667863849153"  />
<path  style="stroke:hsl(240,100%,52.46352027468478%); " fill="none"   d="M 0.973847630878195 -0.793667863849153 L 0.9612752029753 -0.898708095811627"  />
<path  style="stroke:hsl(240,100%,53.729797348439845%); " fill="none"   d="M 0.9612752029753 -0.898708095811627 L 0.946300087687414 -0.967919672031486"  />
<path  style="stroke:hsl(240,100%,54.88677270286202%); " fill="none"   d="M 0.946300087687414 -0.967919672031486 L 0.928959715003869 -0.998543345374605"  />
<path  style="stroke:hsl(240,100%,55.931554502106366%); " fill="none"   d="M 0.928959715003869 -0.998543345374605 L 0.909297426825682 -0.989358246623382"  />
<path  style="stroke:hsl(240,100%,56.86153133578661%); " fill="none"   d="M 0.909297426825682 -0.989358246623382 L 0.887362368633376 -0.940730556679773"  />
<path  style="stroke:hsl(240,100%,57.67437874614113%); " fill="none"   d="M 0.887362368633376 -0.940730556679773 L 0.863209366648874 -0.85459890808828"  />
<path  style="stroke:hsl(240,100%,58.36806503796679%); " fill="none"   d="M 0.863209366648874 -0.85459890808828 L 0.836898790798498 -0.734397097874113"  />
<path  style="stroke:hsl(240,100%,58.940856356798854%); " fill="none"   d="M 0.836898790798498 -0.734397097874113 L 0.80849640381959 -0.584917192891762"  />
<path  style="stroke:hsl(240,100%,59.3913210226442%); " fill="none"   d="M 0.80849640381959 -0.584917192891762 L 0.778073196887921 -0.412118485241757"  />
<path  style="stroke:hsl(240,100%,59.71833310843568%); " fill="none"   d="M 0.778073196887921 -0.412118485241757 L 0.74570521217672 -0.222889914100248"  />
<path  style="stroke:hsl(240,100%,59.92107525426341%); " fill="none"   d="M 0.74570521217672 -0.222889914100248 L 0.711473352790844 -0.024775425453358"  />
<path  style="stroke:hsl(240,100%,59.99904071034889%); " fill="none"   d="M 0.711473352790844 -0.024775425453358 L 0.675463180551151 0.17432678122298"  />
<path  style="stroke:hsl(240,100%,59.95203460365554%); " fill="none"   d="M 0.675463180551151 0.17432678122298 L 0.637764702134504 0.366479129251928"  />
<path  style="stroke:hsl(240,100%,59.78017442496978%); " fill="none"   d="M 0.637764702134504 0.366479129251928 L 0.598472144103956 0.54402111088937"  />
<path  style="stroke:hsl(240,100%,59.48388973523527%); " fill="none"   d="M 0.598472144103956 0.54402111088937 L 0.557683717391417 0.699874687593542"  />
<path  style="stroke:hsl(240,100%,59.06392109187428%); " fill="none"   d="M 0.557683717391417 0.699874687593542 L 0.515501371821464 0.827826469085654"  />
<path  style="stroke:hsl(240,100%,58.52131819777974%); " fill="none"   d="M 0.515501371821464 0.827826469085654 L 0.472030541289883 0.922775421612807"  />
<path  style="stroke:hsl(240,100%,57.857437277604795%); " fill="none"   d="M 0.472030541289883 0.922775421612807 L 0.42737988023383 0.980936230066492"  />
<path  style="stroke:hsl(240,100%,57.073937687907346%); " fill="none"   d="M 0.42737988023383 0.980936230066492 L 0.381660992052332 0.999990206550704"  />
<path  style="stroke:hsl(240,100%,56.172777769622975%); " fill="none"   d="M 0.381660992052332 0.999990206550704 L 0.334988150155905 0.979177729151317"  />
<path  style="stroke:hsl(240,100%,55.15620995323237%); " fill="none"   d="M 0.334988150155905 0.979177729151317 L 0.287478012342544 0.919328525664676"  />
<path  style="stroke:hsl(240,100%,54.0267751288582%); " fill="none"   d="M 0.287478012342544 0.919328525664676 L 0.239249329213982 0.822828594968709"  />
<path  style="stroke:hsl(240,100%,52.78729629536314%); " fill="none"   d="M 0.239249329213982 0.822828594968709 L 0.190422647361027 0.693525084777122"  />
<path  style="stroke:hsl(240,100%,51.44087150432282%); " fill="none"   d="M 0.190422647361027 0.693525084777122 L 0.141120008059867 0.536572918000435"  />
<path  style="stroke:hsl(240,100%,49.99086611651037%); " fill="none"   d="M 0.141120008059867 0.536572918000435 L 0.091464642232437 0.358229282236829"  />
<path  style="stroke:hsl(240,100%,48.44090439024711%); " fill="none"   d="M 0.091464642232437 0.358229282236829 L 0.04158066243329 0.165604175448309"  />
<path  style="stroke:hsl(240,100%,46.79486042264423%); " fill="none"   d="M 0.04158066243329 0.165604175448309 L -0.008407247367149 -0.033623047221137"  />
<path  style="stroke:hsl(240,100%,45.056848466377616%); " fill="none"   d="M -0.008407247367149 -0.033623047221137 L -0.05837414342758 -0.231509825101539"  />
<path  style="stroke:hsl(240,100%,43.2312126461988%); " fill="none"   d="M -0.05837414342758 -0.231509825101539 L -0.108195134530108 -0.420167036826641"  />
<path  style="stroke:hsl(240,100%,41.32251610088548%); " fill="none"   d="M -0.108195134530108 -0.420167036826641 L -0.157745694143248 -0.592073514707223"  />
<path  style="stroke:hsl(240,100%,39.33552957777101%); " fill="none"   d="M -0.157745694143248 -0.592073514707223 L -0.2069019716734 -0.740375889952449"  />
<path  style="stroke:hsl(240,100%,37.27521950836055%); " fill="none"   d="M -0.2069019716734 -0.740375889952449 L -0.255541102026831 -0.859161814856496"  />
<path  style="stroke:hsl(240,100%,35.14673559483894%); " fill="none"   d="M -0.255541102026831 -0.859161814856496 L -0.303541512708429 -0.943695669444105"  />
<path  style="stroke:hsl(240,100%,32.955397938496944%); " fill="none"   d="M -0.303541512708429 -0.943695669444105 L -0.35078322768962 -0.99060735569487"  />
<path  style="stroke:hsl(240,100%,30.70668374224887%); " fill="none"   d="M -0.35078322768962 -0.99060735569487 L -0.39714816728596 -0.998026652716362"  />
<path  style="stroke:hsl(240,100%,28.406213620477597%); " fill="none"   d="M -0.39714816728596 -0.998026652716362 L -0.442520443294852 -0.965657776549278"  />
<path  style="stroke:hsl(240,100%,26.05973755042586%); " fill="none"   d="M -0.442520443294852 -0.965657776549278 L -0.486786648655699 -0.894791172140504"  />
<path  style="stroke:hsl(240,100%,23.67312050024772%); " fill="none"   d="M -0.486786648655699 -0.894791172140504 L -0.529836140908493 -0.788252067375316"  />
<path  style="stroke:hsl(240,100%,21.252327769642434%); " fill="none"   d="M -0.529836140908493 -0.788252067375316 L -0.571561318742344 -0.650287840157117"  />
<path  style="stroke:hsl(240,100%,18.803410079712087%); " fill="none"   d="M -0.571561318742344 -0.650287840157117 L -0.611857890942719 -0.4863986888538"  />
<path  style="stroke:hsl(240,100%,16.3324884493098%); " fill="none"   d="M -0.611857890942719 -0.4863986888538 L -0.650625137065167 -0.303118356745702"  />
<path  style="stroke:hsl(240,100%,13.845738895680451%); " fill="none"   d="M -0.650625137065167 -0.303118356745702 L -0.687766159183974 -0.107753652299444"  />
<path  style="stroke:hsl(240,100%,11.349376997634021%); " fill="none"   d="M -0.687766159183974 -0.107753652299444 L -0.723188124086512 0.091906850227682"  />
<path  style="stroke:hsl(240,100%,11.150357640164561%); " fill="none"   d="M -0.723188124086512 0.091906850227682 L -0.756802495307928 0.287903316665065"  />
<path  style="stroke:hsl(240,100%,13.647216982957387%); " fill="none"   d="M -0.756802495307928 0.287903316665065 L -0.788525254426195 0.472421986398466"  />
<path  style="stroke:hsl(240,100%,16.134960182726708%); " fill="none"   d="M -0.788525254426195 0.472421986398466 L -0.81827711106441 0.638106682347947"  />
<path  style="stroke:hsl(240,100%,18.60736917706471%); " fill="none"   d="M -0.81827711106441 0.638106682347947 L -0.845983701075446 0.778352078534299"  />
<path  style="stroke:hsl(240,100%,21.058264231091307%); " fill="none"   d="M -0.845983701075446 0.778352078534299 L -0.871575772413588 0.887567033581505"  />
<path  style="stroke:hsl(240,100%,23.481519383572813%); " fill="none"   d="M -0.871575772413588 0.887567033581505 L -0.894989358228584 0.961397491879557"  />
<path  style="stroke:hsl(240,100%,25.871077758634957%); " fill="none"   d="M -0.894989358228584 0.961397491879557 L -0.916165936749455 0.996900066041596"  />
<path  style="stroke:hsl(240,100%,28.220966704798027%); " fill="none"   d="M -0.916165936749455 0.996900066041596 L -0.935052577558449 0.992659380470633"  />
<path  style="stroke:hsl(240,100%,30.525312723495126%); " fill="none"   d="M -0.935052577558449 0.992659380470633 L -0.951602073889516 0.948844497918124"  />
<path  style="stroke:hsl(240,100%,32.77835614975976%); " fill="none"   d="M -0.951602073889516 0.948844497918124 L -0.965773060620639 0.867202179485581"  />
<path  style="stroke:hsl(240,100%,34.9744655483885%); " fill="none"   d="M -0.965773060620639 0.867202179485581 L -0.977530117665097 0.750987246771676"  />
<path  style="stroke:hsl(240,100%,37.108151789596505%); " fill="none"   d="M -0.977530117665097 0.750987246771676 L -0.986843858503236 0.604832822406284"  />
<path  style="stroke:hsl(240,100%,39.17408176898306%); " fill="none"   d="M -0.986843858503236 0.604832822406284 L -0.993691003633464 0.434565622071897"  />
<path  style="stroke:hsl(240,100%,41.167091737515236%); " fill="none"   d="M -0.993691003633464 0.434565622071897 L -0.998054438758879 0.246973661736621"  />
<path  style="stroke:hsl(240,100%,43.08220020821126%); " fill="none"   d="M -0.998054438758879 0.246973661736621 L -0.999923257564101 0.049535640878367"  />
<path  style="stroke:hsl(240,100%,44.91462040726353%); " fill="none"   d="M -0.999923257564101 0.049535640878367 L -0.999292788975378 -0.149877209662952"  />
<path  style="stroke:hsl(240,100%,46.65977223848045%); " fill="none"   d="M -0.999292788975378 -0.149877209662952 L -0.996164608835841 -0.343314928819895"  />
<path  style="stroke:hsl(240,100%,48.31329373114147%); " fill="none"   d="M -0.996164608835841 -0.343314928819895 L -0.990546535966713 -0.523065765157696"  />
<path  style="stroke:hsl(240,100%,49.8710519426523%); " fill="none"   d="M -0.990546535966713 -0.523065765157696 L -0.982452612624332 -0.681963620068136"  />
<path  style="stroke:hsl(240,100%,51.32915328874898%); " fill="none"   d="M -0.982452612624332 -0.681963620068136 L -0.971903069401821 -0.813673737507105"  />
<path  style="stroke:hsl(240,100%,52.68395327543071%); " fill="none"   d="M -0.971903069401821 -0.813673737507105 L -0.958924274663138 -0.912945250727628"  />
<path  style="stroke:hsl(240,100%,53.932065608297%); " fill="none"   d="M -0.958924274663138 -0.912945250727628 L -0.943548668635907 -0.975820517766976"  />
<path  style="stroke:hsl(240,100%,55.07037065652004%); " fill="none"   d="M -0.943548668635907 -0.975820517766976 L -0.925814682327732 -0.999792900142669"  />
<path  style="stroke:hsl(240,100%,56.096023250297065%); " fill="none"   d="M -0.925814682327732 -0.999792900142669 L -0.905766641468704 -0.983906694618616"  />
<path  style="stroke:hsl(240,100%,57.00645979229321%); " fill="none"   d="M -0.905766641468704 -0.983906694618616 L -0.883454655720153 -0.92879523407724"  />
<path  style="stroke:hsl(240,100%,57.79940466529962%); " fill="none"   d="M -0.883454655720153 -0.92879523407724 L -0.858934493426592 -0.836655638536056"  />
<path  style="stroke:hsl(240,100%,58.47287592009151%); " fill="none"   d="M -0.858934493426592 -0.836655638536056 L -0.832267442223901 -0.711161222905982"  />
<path  style="stroke:hsl(240,100%,59.02519022926896%); " fill="none"   d="M -0.832267442223901 -0.711161222905982 L -0.803520155852156 -0.557315053517661"  />
<path  style="stroke:hsl(240,100%,59.45496709469874%); " fill="none"   d="M -0.803520155852156 -0.557315053517661 L -0.772764487555987 -0.38125049165494"  />
<path  style="stroke:hsl(240,100%,59.76113229804075%); " fill="none"   d="M -0.772764487555987 -0.38125049165494 L -0.740077310488894 -0.189986675795438"  />
<path  style="stroke:hsl(240,100%,59.94292058573439%); " fill="none"   d="M -0.740077310488894 -0.189986675795438 L -0.705540325570392 0.008851309290404"  />
<path  style="stroke:hsl(240,100%,59.999877581733934%); " fill="none"   d="M -0.705540325570392 0.008851309290404 L -0.669239857276262 0.207336420606759"  />
<path  style="stroke:hsl(240,100%,59.93186092321201%); " fill="none"   d="M -0.669239857276262 0.207336420606759 L -0.631266637872322 0.397555683121433"  />
<path  style="stroke:hsl(240,100%,59.739040616392536%); " fill="none"   d="M -0.631266637872322 0.397555683121433 L -0.591715580631009 0.571925655109564"  />
<path  style="stroke:hsl(240,100%,59.42189861162369%); " fill="none"   d="M -0.591715580631009 0.571925655109564 L -0.550685542597638 0.723494756044245"  />
<path  style="stroke:hsl(240,100%,58.981227598753016%); " fill="none"   d="M -0.550685542597638 0.723494756044245 L -0.508279077499258 0.846220404175171"  />
<path  style="stroke:hsl(240,100%,58.41812902581569%); " fill="none"   d="M -0.508279077499258 0.846220404175171 L -0.464602179413757 0.935209915194539"  />
<path  style="stroke:hsl(240,100%,57.73401034598797%); " fill="none"   d="M -0.464602179413757 0.935209915194539 L -0.41976401783986 0.986915558120649"  />
<path  style="stroke:hsl(240,100%,56.93058149968729%); " fill="none"   d="M -0.41976401783986 0.986915558120649 L -0.373876664830236 0.999275992136628"  />
<path  style="stroke:hsl(240,100%,56.009850640611766%); " fill="none"   d="M -0.373876664830236 0.999275992136628 L -0.327054814869741 0.971798445743863"  />
<path  style="stroke:hsl(240,100%,54.97411911640173%); " fill="none"   d="M -0.327054814869741 0.971798445743863 L -0.279415498198926 0.905578362006624"  />
<path  style="stroke:hsl(240,100%,53.82597571646915%); " fill="none"   d="M -0.279415498198926 0.905578362006624 L -0.231077788299392 0.803255726693955"  />
<path  style="stroke:hsl(240,100%,52.568290201372335%); " fill="none"   d="M -0.231077788299392 0.803255726693955 L -0.182162504272096 0.668909820378024"  />
<path  style="stroke:hsl(240,100%,51.20420612990907%); " fill="none"   d="M -0.182162504272096 0.668909820378024 L -0.132791908852517 0.507896590390622"  />
<path  style="stroke:hsl(240,100%,49.737133001856726%); " fill="none"   d="M -0.132791908852517 0.507896590390622 L -0.083089402817496 0.326635126104722"  />
<path  style="stroke:hsl(240,100%,48.170737735998586%); " fill="none"   d="M -0.083089402817496 0.326635126104722 L -0.033179216547557 0.132351750097773"  />
<path  style="stroke:hsl(240,100%,46.508935504736385%); " fill="none"   d="M -0.033179216547557 0.132351750097773 L 0.01681390048435 -0.067208072525475"  />
</svg>
