<svg xmlns="http://www.w3.org/2000/svg" viewBox="-1.4999232575641008 -1.5 2.9997070217534576 2.9999646584713417"  style="stroke-width:0.3; stroke-linecap:round; " > 
<path  style="stroke:hsl(240,100%,35%); " fill="none"   d="M 0 -1 L 0.049979169270678 -0.988771077936042"  />
<path  style="stroke:hsl(240,100%,32.80459499745166%); " fill="none"   d="M 0.049979169270678 -0.988771077936042 L 0.099833416646828 -0.955336489125606"  />
<path  style="stroke:hsl(240,100%,30.55219038381317%); " fill="none"   d="M 0.099833416646828 -0.955336489125606 L 0.149438132473599 -0.900447102352677"  />
<path  style="stroke:hsl(240,100%,28.248415997588992%); " fill="none"   d="M 0.149438132473599 -0.900447102352677 L 0.198669330795061 -0.825335614909678"  />
<path  style="stroke:hsl(240,100%,25.899030074962184%); " fill="none"   d="M 0.198669330795061 -0.825335614909678 L 0.247403959254523 -0.731688868873821"  />
<path  style="stroke:hsl(240,100%,23.509904857202763%); " fill="none"   d="M 0.247403959254523 -0.731688868873821 L 0.29552020666134 -0.621609968270665"  />
<path  style="stroke:hsl(240,100%,21.08701191312278%); " fill="none"   d="M 0.29552020666134 -0.621609968270665 L 0.342897807455451 -0.497571047891727"  />
<path  style="stroke:hsl(240,100%,18.63640721326417%); " fill="none"   d="M 0.342897807455451 -0.497571047891727 L 0.38941834230865 -0.362357754476673"  />
<path  style="stroke:hsl(240,100%,16.164215993126334%); " fill="none"   d="M 0.38941834230865 -0.362357754476673 L 0.43496553411123 -0.219006687093042"  />
<path  style="stroke:hsl(240,100%,13.676617443267311%); " fill="none"   d="M 0.43496553411123 -0.219006687093042 L 0.479425538604203 -0.070737201667703"  />
<path  style="stroke:hsl(240,100%,11.179829264545472%); " fill="none"   d="M 0.479425538604203 -0.070737201667703 L 0.522687228930659 0.079120888806734"  />
<path  style="stroke:hsl(240,100%,11.319907872894532%); " fill="none"   d="M 0.522687228930659 0.079120888806734 L 0.564642473395035 0.227202094693087"  />
<path  style="stroke:hsl(240,100%,13.816345928047028%); " fill="none"   d="M 0.564642473395035 0.227202094693087 L 0.60518640573604 0.370180831351287"  />
<path  style="stroke:hsl(240,100%,16.303245105893946%); " fill="none"   d="M 0.60518640573604 0.370180831351287 L 0.644217687237691 0.504846104599858"  />
<path  style="stroke:hsl(240,100%,18.77438945364272%); " fill="none"   d="M 0.644217687237691 0.504846104599858 L 0.681638760023334 0.628173622722739"  />
<path  style="stroke:hsl(240,100%,21.22360239737108%); " fill="none"   d="M 0.681638760023334 0.628173622722739 L 0.717356090899523 0.737393715541245"  />
<path  style="stroke:hsl(240,100%,23.644762180245152%); " fill="none"   d="M 0.717356090899523 0.737393715541245 L 0.751280405140293 0.830053535235222"  />
<path  style="stroke:hsl(240,100%,26.03181716372338%); " fill="none"   d="M 0.751280405140293 0.830053535235222 L 0.783326909627483 0.904072142017061"  />
<path  style="stroke:hsl(240,100%,28.37880095350128%); " fill="none"   d="M 0.783326909627483 0.904072142017061 L 0.813415504789374 0.95778723755309"  />
<path  style="stroke:hsl(240,100%,30.67984731238993%); " fill="none"   d="M 0.813415504789374 0.95778723755309 L 0.841470984807896 0.989992496600445"  />
<path  style="stroke:hsl(240,100%,32.9292048228539%); " fill="none"   d="M 0.841470984807896 0.989992496600445 L 0.867423225594017 0.999964658471342"  />
<path  style="stroke:hsl(240,100%,35.12125126255977%); " fill="none"   d="M 0.867423225594017 0.999964658471342 L 0.891207360061435 0.987479769908865"  />
<path  style="stroke:hsl(240,100%,37.25050765700398%); " fill="none"   d="M 0.891207360061435 0.987479769908865 L 0.912763940260521 0.952818214594305"  />
<path  style="stroke:hsl(240,100%,39.31165197409571%); " fill="none"   d="M 0.912763940260521 0.952818214594305 L 0.932039085967226 0.896758416334147"  />
<path  style="stroke:hsl(240,100%,41.299532426465476%); " fill="none"   d="M 0.932039085967226 0.896758416334147 L 0.948984619355586 0.820559357339561"  />
<path  style="stroke:hsl(240,100%,43.209180348250456%); " fill="none"   d="M 0.948984619355586 0.820559357339561 L 0.963558185417193 0.72593230420014"  />
<path  style="stroke:hsl(240,100%,45.03582261417159%); " fill="none"   d="M 0.963558185417193 0.72593230420014 L 0.975723357826659 0.615002376525574"  />
<path  style="stroke:hsl(240,100%,46.774893569861%); " fill="none"   d="M 0.975723357826659 0.615002376525574 L 0.98544972998846 0.4902608213407"  />
<path  style="stroke:hsl(240,100%,48.42204644362008%); " fill="none"   d="M 0.98544972998846 0.4902608213407 L 0.992712991037588 0.354509065048132"  />
<path  style="stroke:hsl(240,100%,49.973164211085106%); " fill="none"   d="M 0.992712991037588 0.354509065048132 L 0.997494986604054 0.21079579943078"  />
<path  style="stroke:hsl(240,100%,51.4243698856439%); " fill="none"   d="M 0.997494986604054 0.21079579943078 L 0.999783764189357 0.062348514606992"  />
<path  style="stroke:hsl(240,100%,52.77203620888338%); " fill="none"   d="M 0.999783764189357 0.062348514606992 L 0.999573603041505 -0.087498983439446"  />
<path  style="stroke:hsl(240,100%,54.01279471684651%); " fill="none"   d="M 0.999573603041505 -0.087498983439446 L 0.996865028453919 -0.235381442954451"  />
<path  style="stroke:hsl(240,100%,55.1435441594379%); " fill="none"   d="M 0.996865028453919 -0.235381442954451 L 0.991664810452469 -0.37797774271298"  />
<path  style="stroke:hsl(240,100%,56.161458251934015%); " fill="none"   d="M 0.991664810452469 -0.37797774271298 L 0.983985946873937 -0.512085477241841"  />
<path  style="stroke:hsl(240,100%,57.063992739223025%); " fill="none"   d="M 0.983985946873937 -0.512085477241841 L 0.973847630878195 -0.634692875942635"  />
<path  style="stroke:hsl(240,100%,57.84889175511757%); " fill="none"   d="M 0.973847630878195 -0.634692875942635 L 0.9612752029753 -0.74304644096641"  />
<path  style="stroke:hsl(240,100%,58.51419346084544%); " fill="none"   d="M 0.9612752029753 -0.74304644096641 L 0.946300087687414 -0.83471278483916"  />
<path  style="stroke:hsl(240,100%,59.05823494862473%); " fill="none"   d="M 0.946300087687414 -0.83471278483916 L 0.928959715003869 -0.907633279098413"  />
<path  style="stroke:hsl(240,100%,59.47965639806732%); " fill="none"   d="M 0.928959715003869 -0.907633279098413 L 0.909297426825682 -0.960170286650366"  />
<path  style="stroke:hsl(240,100%,59.77740447502166%); " fill="none"   d="M 0.909297426825682 -0.960170286650366 L 0.887362368633376 -0.991143939568469"  />
<path  style="stroke:hsl(240,100%,59.95073496435957%); " fill="none"   d="M 0.887362368633376 -0.991143939568469 L 0.863209366648874 -0.999858636383415"  />
<path  style="stroke:hsl(240,100%,59.99921463012646%); " fill="none"   d="M 0.863209366648874 -0.999858636383415 L 0.836898790798498 -0.986118663792512"  />
<path  style="stroke:hsl(240,100%,59.922722298405645%); " fill="none"   d="M 0.836898790798498 -0.986118663792512 L 0.80849640381959 -0.95023259195853"  />
<path  style="stroke:hsl(240,100%,59.72144916019%); " fill="none"   d="M 0.80849640381959 -0.95023259195853 L 0.778073196887921 -0.893006344689077"  />
<path  style="stroke:hsl(240,100%,59.395898293504025%); " fill="none"   d="M 0.778073196887921 -0.893006344689077 L 0.74570521217672 -0.815725100125357"  />
<path  style="stroke:hsl(240,100%,58.94688340597084%); " fill="none"   d="M 0.74570521217672 -0.815725100125357 L 0.711473352790844 -0.720124428411795"  />
<path  style="stroke:hsl(240,100%,58.37552680096682%); " fill="none"   d="M 0.711473352790844 -0.720124428411795 L 0.675463180551151 -0.608351314532254"  />
<path  style="stroke:hsl(240,100%,57.68325657244772%); " fill="none"   d="M 0.675463180551151 -0.608351314532254 L 0.637764702134504 -0.482915941655938"  />
<path  style="stroke:hsl(240,100%,56.87180303545747%); " fill="none"   d="M 0.637764702134504 -0.482915941655938 L 0.598472144103956 -0.346635317835026"  />
<path  style="stroke:hsl(240,100%,55.94319440124172%); " fill="none"   d="M 0.598472144103956 -0.346635317835026 L 0.557683717391417 -0.202570012076944"  />
<path  style="stroke:hsl(240,100%,54.899751707775984%); " fill="none"   d="M 0.557683717391417 -0.202570012076944 L 0.515501371821464 -0.053955420562651"  />
<path  style="stroke:hsl(240,100%,53.744083018379456%); " fill="none"   d="M 0.515501371821464 -0.053955420562651 L 0.472030541289883 0.095870893376499"  />
<path  style="stroke:hsl(240,100%,52.47907690291503%); " fill="none"   d="M 0.472030541289883 0.095870893376499 L 0.42737988023383 0.243544153735791"  />
<path  style="stroke:hsl(240,100%,51.1078952178689%); " fill="none"   d="M 0.42737988023383 0.243544153735791 L 0.381660992052332 0.385747937452222"  />
<path  style="stroke:hsl(240,100%,49.633965203356084%); " fill="none"   d="M 0.381660992052332 0.385747937452222 L 0.334988150155905 0.519288654116686"  />
<path  style="stroke:hsl(240,100%,48.06097091680494%); " fill="none"   d="M 0.334988150155905 0.519288654116686 L 0.287478012342544 0.641167267129602"  />
<path  style="stroke:hsl(240,100%,46.39284402473225%); " fill="none"   d="M 0.287478012342544 0.641167267129602 L 0.239249329213982 0.748646645597399"  />
<path  style="stroke:hsl(240,100%,44.633753975624515%); " fill="none"   d="M 0.239249329213982 0.748646645597399 L 0.190422647361027 0.839313034391484"  />
<path  style="stroke:hsl(240,100%,42.788097578488106%); " fill="none"   d="M 0.190422647361027 0.839313034391484 L 0.141120008059867 0.911130261884677"  />
<path  style="stroke:hsl(240,100%,40.860488013116615%); " fill="none"   d="M 0.141120008059867 0.911130261884677 L 0.091464642232437 0.962485467976237"  />
<path  style="stroke:hsl(240,100%,38.8557432995438%); " fill="none"   d="M 0.091464642232437 0.962485467976237 L 0.04158066243329 0.992225325452603"  />
<path  style="stroke:hsl(240,100%,36.77887425550272%); " fill="none"   d="M 0.04158066243329 0.992225325452603 L -0.008407247367149 0.999681941230185"  />
<path  style="stroke:hsl(240,100%,34.63507197199101%); " fill="none"   d="M -0.008407247367149 0.999681941230185 L -0.05837414342758 0.984687855794127"  />
<path  style="stroke:hsl(240,100%,32.42969483824678%); " fill="none"   d="M -0.05837414342758 0.984687855794127 L -0.108195134530108 0.947579803977993"  />
<path  style="stroke:hsl(240,100%,30.168255148566207%); " fill="none"   d="M -0.108195134530108 0.947579803977993 L -0.157745694143248 0.889191152625361"  />
<path  style="stroke:hsl(240,100%,27.85640532443846%); " fill="none"   d="M -0.157745694143248 0.889191152625361 L -0.2069019716734 0.810833184967147"  />
<path  style="stroke:hsl(240,100%,25.499923786435716%); " fill="none"   d="M -0.2069019716734 0.810833184967147 L -0.255541102026831 0.7142656520272"  />
<path  style="stroke:hsl(240,100%,23.104700511171167%); " fill="none"   d="M -0.255541102026831 0.7142656520272 L -0.303541512708429 0.601657252408102"  />
<path  style="stroke:hsl(240,100%,20.67672230942477%); " fill="none"   d="M -0.303541512708429 0.601657252408102 L -0.35078322768962 0.475536927995993"  />
<path  style="stroke:hsl(240,100%,18.222057862234315%); " fill="none"   d="M -0.35078322768962 0.475536927995993 L -0.39714816728596 0.338737069377881"  />
<path  style="stroke:hsl(240,100%,15.746842552353236%); " fill="none"   d="M -0.39714816728596 0.338737069377881 L -0.442520443294852 0.194329906455335"  />
<path  style="stroke:hsl(240,100%,13.257263128988996%); " fill="none"   d="M -0.442520443294852 0.194329906455335 L -0.486786648655699 0.045558512784224"  />
<path  style="stroke:hsl(240,100%,10.75954224415215%); " fill="none"   d="M -0.486786648655699 0.045558512784224 L -0.529836140908493 -0.104236026865697"  />
<path  style="stroke:hsl(240,100%,11.740077100733142%); " fill="none"   d="M -0.529836140908493 -0.104236026865697 L -0.571561318742344 -0.251689650071754"  />
<path  style="stroke:hsl(240,100%,14.235347159081215%); " fill="none"   d="M -0.571561318742344 -0.251689650071754 L -0.611857890942719 -0.393490866347891"  />
<path  style="stroke:hsl(240,100%,16.72003105525775%); " fill="none"   d="M -0.611857890942719 -0.393490866347891 L -0.650625137065167 -0.526455126081828"  />
<path  style="stroke:hsl(240,100%,19.187918373520677%); " fill="none"   d="M -0.650625137065167 -0.526455126081828 L -0.687766159183974 -0.647596338653876"  />
<path  style="stroke:hsl(240,100%,21.632840680825172%); " fill="none"   d="M -0.687766159183974 -0.647596338653876 L -0.723188124086512 -0.754193933594628"  />
<path  style="stroke:hsl(240,100%,24.04868694469394%); " fill="none"   d="M -0.723188124086512 -0.754193933594628 L -0.756802495307928 -0.843853958732492"  />
<path  style="stroke:hsl(240,100%,26.429418807615676%); " fill="none"   d="M -0.756802495307928 -0.843853958732492 L -0.788525254426195 -0.914562843198418"  />
<path  style="stroke:hsl(240,100%,28.769085679794284%); " fill="none"   d="M -0.788525254426195 -0.914562843198418 L -0.81827711106441 -0.96473261788661"  />
<path  style="stroke:hsl(240,100%,31.06183961252427%); " fill="none"   d="M -0.81827711106441 -0.96473261788661 L -0.845983701075446 -0.993236577817188"  />
<path  style="stroke:hsl(240,100%,33.30194991501702%); " fill="none"   d="M -0.845983701075446 -0.993236577817188 L -0.871575772413588 -0.999434585501005"  />
<path  style="stroke:hsl(240,100%,35.48381747814311%); " fill="none"   d="M -0.871575772413588 -0.999434585501005 L -0.894989358228584 -0.983187447047592"  />
<path  style="stroke:hsl(240,100%,37.60198876928942%); " fill="none"   d="M -0.894989358228584 -0.983187447047592 L -0.916165936749455 -0.944860038159861"  />
<path  style="stroke:hsl(240,100%,39.65116946335038%); " fill="none"   d="M -0.916165936749455 -0.944860038159861 L -0.935052577558449 -0.885313109812439"  />
<path  style="stroke:hsl(240,100%,41.62623767578351%); " fill="none"   d="M -0.935052577558449 -0.885313109812439 L -0.951602073889516 -0.805883957640451"  />
<path  style="stroke:hsl(240,100%,43.52225676465339%); " fill="none"   d="M -0.951602073889516 -0.805883957640451 L -0.965773060620639 -0.708356389162585"  />
<path  style="stroke:hsl(240,100%,45.33448766966545%); " fill="none"   d="M -0.965773060620639 -0.708356389162585 L -0.977530117665097 -0.594920663309892"  />
<path  style="stroke:hsl(240,100%,47.058400757348785%); " fill="none"   d="M -0.977530117665097 -0.594920663309892 L -0.986843858503236 -0.46812430193211"  />
<path  style="stroke:hsl(240,100%,48.68968714278077%); " fill="none"   d="M -0.986843858503236 -0.46812430193211 L -0.993691003633464 -0.330814877949047"  />
<path  style="stroke:hsl(240,100%,50.22426945955537%); " fill="none"   d="M -0.993691003633464 -0.330814877949047 L -0.998054438758879 -0.186076065001811"  />
<path  style="stroke:hsl(240,100%,51.65831205107569%); " fill="none"   d="M -0.998054438758879 -0.186076065001811 L -0.999923257564101 -0.037158384790826"  />
<path  style="stroke:hsl(240,100%,52.98823055769782%); " fill="none"   d="M -0.999923257564101 -0.037158384790826 L -0.999292788975378 0.112593792633835"  />
<path  style="stroke:hsl(240,100%,54.210700875763386%); " fill="none"   d="M -0.999292788975378 0.112593792633835 L -0.996164608835841 0.259817356213756"  />
<path  style="stroke:hsl(240,100%,55.32266746612747%); " fill="none"   d="M -0.996164608835841 0.259817356213756 L -0.990546535966713 0.401205982106099"  />
<path  style="stroke:hsl(240,100%,56.321350991415166%); " fill="none"   d="M -0.990546535966713 0.401205982106099 L -0.982452612624332 0.533584386589116"  />
<path  style="stroke:hsl(240,100%,57.2042552629176%); " fill="none"   d="M -0.982452612624332 0.533584386589116 L -0.971903069401821 0.653979636089028"  />
<path  style="stroke:hsl(240,100%,57.96917347976363%); " fill="none"   d="M -0.971903069401821 0.653979636089028 L -0.958924274663138 0.759687912858822"  />
<path  style="stroke:hsl(240,100%,58.61419374477288%); " fill="none"   d="M -0.958924274663138 0.759687912858822 L -0.943548668635907 0.848335236895769"  />
<path  style="stroke:hsl(240,100%,59.13770384320287%); " fill="none"   d="M -0.943548668635907 0.848335236895769 L -0.925814682327732 0.917930780414292"  />
<path  style="stroke:hsl(240,100%,59.538395272446316%); " fill="none"   d="M -0.925814682327732 0.917930780414292 L -0.905766641468704 0.966911577546056"  />
<path  style="stroke:hsl(240,100%,59.815266512606186%); " fill="none"   d="M -0.905766641468704 0.966911577546056 L -0.883454655720153 0.994177625183815"  />
<path  style="stroke:hsl(240,100%,59.96762552977383%); " fill="none"   d="M -0.883454655720153 0.994177625183815 L -0.858934493426592 0.999116586679734"  />
<path  style="stroke:hsl(240,100%,59.99509150575335%); " fill="none"   d="M -0.858934493426592 0.999116586679734 L -0.832267442223901 0.981617543606384"  />
<path  style="stroke:hsl(240,100%,59.89759578990882%); " fill="none"   d="M -0.832267442223901 0.981617543606384 L -0.803520155852156 0.942073486745496"  />
<path  style="stroke:hsl(240,100%,59.67538207075507%); " fill="none"   d="M -0.803520155852156 0.942073486745496 L -0.772764487555987 0.881372490362236"  />
<path  style="stroke:hsl(240,100%,59.3290057668633%); " fill="none"   d="M -0.772764487555987 0.881372490362236 L -0.740077310488894 0.800877767971784"  />
<path  style="stroke:hsl(240,100%,58.85933263860395%); " fill="none"   d="M -0.740077310488894 0.800877767971784 L -0.705540325570392 0.702397057502712"  />
<path  style="stroke:hsl(240,100%,58.26753662419665%); " fill="none"   d="M -0.705540325570392 0.702397057502712 L -0.669239857276262 0.588142023400339"  />
<path  style="stroke:hsl(240,100%,57.555096905476%); " fill="none"   d="M -0.669239857276262 0.588142023400339 L -0.631266637872322 0.460678587411364"  />
<path  style="stroke:hsl(240,100%,56.72379421070736%); " fill="none"   d="M -0.631266637872322 0.460678587411364 L -0.591715580631009 0.322869303513237"  />
<path  style="stroke:hsl(240,100%,55.77570636369357%); " fill="none"   d="M -0.591715580631009 0.322869303513237 L -0.550685542597638 0.177809071123114"  />
<path  style="stroke:hsl(240,100%,54.71320309029759%); " fill="none"   d="M -0.550685542597638 0.177809071123114 L -0.508279077499258 0.028755630329185"  />
<path  style="stroke:hsl(240,100%,53.53894009536189%); " fill="none"   d="M -0.508279077499258 0.028755630329185 L -0.464602179413757 -0.120943599928476"  />
<path  style="stroke:hsl(240,100%,52.255852424829456%); " fill="none"   d="M -0.464602179413757 -0.120943599928476 L -0.41976401783986 -0.267926697670674"  />
<path  style="stroke:hsl(240,100%,50.867147129657475%); " fill="none"   d="M -0.41976401783986 -0.267926697670674 L -0.373876664830236 -0.408892739398878"  />
<path  style="stroke:hsl(240,100%,49.37629524986013%); " fill="none"   d="M -0.373876664830236 -0.408892739398878 L -0.327054814869741 -0.540675931720632"  />
<path  style="stroke:hsl(240,100%,47.78702313871629%); " fill="none"   d="M -0.327054814869741 -0.540675931720632 L -0.279415498198926 -0.660316708244081"  />
<path  style="stroke:hsl(240,100%,46.1033031488269%); " fill="none"   d="M -0.279415498198926 -0.660316708244081 L -0.231077788299392 -0.765128195058728"  />
<path  style="stroke:hsl(240,100%,44.32934370330226%); " fill="none"   d="M -0.231077788299392 -0.765128195058728 L -0.182162504272096 -0.852756552130872"  />
<path  style="stroke:hsl(240,100%,42.46957877689594%); " fill="none"   d="M -0.182162504272096 -0.852756552130872 L -0.132791908852517 -0.921233835476203"  />
<path  style="stroke:hsl(240,100%,40.5286568133771%); " fill="none"   d="M -0.132791908852517 -0.921233835476203 L -0.083089402817496 -0.96902219293905"  />
<path  style="stroke:hsl(240,100%,38.51142910684196%); " fill="none"   d="M -0.083089402817496 -0.96902219293905 L -0.033179216547557 -0.995048401036379"  />
<path  style="stroke:hsl(240,100%,36.42293767600496%); " fill="none"   d="M -0.033179216547557 -0.995048401036379 L 0.01681390048435 -0.998727967243502"  />
</svg>
