<svg xmlns="http://www.w3.org/2000/svg" viewBox="-1.499999230697499 -1.499902258547975 2.9999811203873543 2.999901489245474"  style="stroke-width:0.12; stroke-linecap:round; background-color:#000000; " > 
<path  style="stroke:hsl(250,80%,50%); " fill="none"   d="M 0 0 L 0.059964006479445 -0.079914693969173"  />
<path  style="stroke:hsl(250,82.39424414577839%,50.34838700129911%); " fill="none"   d="M 0.059964006479445 -0.079914693969173 L 0.119712207288919 -0.159318206614246"  />
<path  style="stroke:hsl(250,84.75405252854269%,50.70063451911123%); " fill="none"   d="M 0.119712207288919 -0.159318206614246 L 0.179029573425824 -0.237702626427135"  />
<path  style="stroke:hsl(250,87.0454846655018%,51.05660165912583%); " fill="none"   d="M 0.179029573425824 -0.237702626427135 L 0.237702626427135 -0.314566560616118"  />
<path  style="stroke:hsl(250,89.23558351082966%,51.416146039233055%); " fill="none"   d="M 0.237702626427135 -0.314566560616118 L 0.29552020666134 -0.38941834230865"  />
<path  style="stroke:hsl(250,91.29284946790071%,51.77912384647473%); " fill="none"   d="M 0.29552020666134 -0.38941834230865 L 0.35227423327509 -0.461779175541483"  />
<path  style="stroke:hsl(250,93.18769343942947%,52.14538989456759%); " fill="none"   d="M 0.35227423327509 -0.461779175541483 L 0.40776045305957 -0.531186197920883"  />
<path  style="stroke:hsl(250,94.89286239941718%,52.51479768197589%); " fill="none"   d="M 0.40776045305957 -0.531186197920883 L 0.461779175541483 -0.597195441362392"  />
<path  style="stroke:hsl(250,96.38383136601996%,52.88719945051003%); " fill="none"   d="M 0.461779175541483 -0.597195441362392 L 0.514135991653113 -0.659384671971473"  />
<path  style="stroke:hsl(250,97.63915613769895%,53.26244624442789%); " fill="none"   d="M 0.514135991653113 -0.659384671971473 L 0.564642473395035 -0.717356090899523"  />
<path  style="stroke:hsl(250,98.64078171934452%,53.64038797001513%); " fill="none"   d="M 0.564642473395035 -0.717356090899523 L 0.613116851973434 -0.770738878898969"  />
<path  style="stroke:hsl(250,99.37430200236531%,54.02087345562066%); " fill="none"   d="M 0.613116851973434 -0.770738878898969 L 0.659384671971473 -0.819191568300998"  />
<path  style="stroke:hsl(250,99.82916696383373%,54.403750512123324%); " fill="none"   d="M 0.659384671971473 -0.819191568300998 L 0.70327941920041 -0.862404227243338"  />
<path  style="stroke:hsl(250,99.99883440459932%,54.788865993805466%); " fill="none"   d="M 0.70327941920041 -0.862404227243338 L 0.744643119970859 -0.900100442176505"  />
<path  style="stroke:hsl(250,99.88086404396152%,55.17606585960923%); " fill="none"   d="M 0.744643119970859 -0.900100442176505 L 0.783326909627483 -0.932039085967226"  />
<path  style="stroke:hsl(250,99.47695261756391%,55.56519523475089%); " fill="none"   d="M 0.783326909627483 -0.932039085967226 L 0.819191568300998 -0.958015860289225"  />
<path  style="stroke:hsl(250,98.7929094737065%,55.9560984726687%); " fill="none"   d="M 0.819191568300998 -0.958015860289225 L 0.852108021949363 -0.977864602435316"  />
<path  style="stroke:hsl(250,97.8385730190676%,56.34861921727948%); " fill="none"   d="M 0.852108021949363 -0.977864602435316 L 0.881957806884948 -0.991458348191686"  />
<path  style="stroke:hsl(250,96.62766921557366%,56.74260046551892%); " fill="none"   d="M 0.881957806884948 -0.991458348191686 L 0.908633496115883 -0.998710143975583"  />
<path  style="stroke:hsl(250,95.17761416361844%,57.13788463014073%); " fill="none"   d="M 0.908633496115883 -0.998710143975583 L 0.932039085967226 -0.999573603041505"  />
<path  style="stroke:hsl(250,93.50926361102302%,57.534313602749464%); " fill="none"   d="M 0.932039085967226 -0.999573603041505 L 0.952090341590516 -0.994043202198076"  />
<path  style="stroke:hsl(250,91.64661299048164%,57.931728817041716%); " fill="none"   d="M 0.952090341590516 -0.994043202198076 L 0.968715100118265 -0.982154317137618"  />
<path  style="stroke:hsl(250,89.61645229977296%,58.32997131223057%); " fill="none"   d="M 0.968715100118265 -0.982154317137618 L 0.98185353037236 -0.963982996152448"  />
<path  style="stroke:hsl(250,87.44798078850111%,58.728881796627775%); " fill="none"   d="M 0.98185353037236 -0.963982996152448 L 0.991458348191686 -0.939645473685325"  />
<path  style="stroke:hsl(250,85.17238699322222%,59.128300711358314%); " fill="none"   d="M 0.991458348191686 -0.939645473685325 L 0.997494986604054 -0.909297426825682"  />
<path  style="stroke:hsl(250,82.82240016119735%,59.528068294181814%); " fill="none"   d="M 0.997494986604054 -0.909297426825682 L 0.999941720229966 -0.873132979507516"  />
<path  style="stroke:hsl(250,80.43181951452192%,59.9280246433953%); " fill="none"   d="M 0.999941720229966 -0.873132979507516 L 0.998789743470524 -0.831383460778683"  />
<path  style="stroke:hsl(250,78.03502812509782%,60.32800978179176%); " fill="none"   d="M 0.998789743470524 -0.831383460778683 L 0.994043202198076 -0.78431592508442"  />
<path  style="stroke:hsl(250,75.66649839225241%,60.72786372064892%); " fill="none"   d="M 0.994043202198076 -0.78431592508442 L 0.985719178835554 -0.732231444030252"  />
<path  style="stroke:hsl(250,73.36029623558532%,61.127426523722534%); " fill="none"   d="M 0.985719178835554 -0.732231444030252 L 0.973847630878195 -0.675463180551151"  />
<path  style="stroke:hsl(250,71.14959113410295%,61.52653837121881%); " fill="none"   d="M 0.973847630878195 -0.675463180551151 L 0.958471283078914 -0.614374257805712"  />
<path  style="stroke:hsl(250,69.06617905861425%,61.925039623720174%); " fill="none"   d="M 0.958471283078914 -0.614374257805712 L 0.939645473685325 -0.549355436427127"  />
<path  style="stroke:hsl(250,67.14002515892182%,62.32277088603891%); " fill="none"   d="M 0.939645473685325 -0.549355436427127 L 0.91743795528181 -0.480822614988648"  />
<path  style="stroke:hsl(250,65.398832783214%,62.71957307097309%); " fill="none"   d="M 0.91743795528181 -0.480822614988648 L 0.89192865095338 -0.409214169672017"  />
<path  style="stroke:hsl(250,63.86764502833519%,63.11528746293937%); " fill="none"   d="M 0.89192865095338 -0.409214169672017 L 0.863209366648874 -0.334988150155905"  />
<path  style="stroke:hsl(250,62.56848455172824%,63.50975578145709%); " fill="none"   d="M 0.863209366648874 -0.334988150155905 L 0.831383460778683 -0.258619349661111"  />
<path  style="stroke:hsl(250,61.52003682553624%,63.90282024445835%); " fill="none"   d="M 0.831383460778683 -0.258619349661111 L 0.796565472236086 -0.180596267894233"  />
<path  style="stroke:hsl(250,60.73738138853366%,64.29432363139873%); " fill="none"   d="M 0.796565472236086 -0.180596267894233 L 0.758880708180922 -0.101417986316602"  />
<path  style="stroke:hsl(250,60.23177496121739%,64.68410934614343%); " fill="none"   d="M 0.758880708180922 -0.101417986316602 L 0.718464793069126 -0.021590975726096"  />
<path  style="stroke:hsl(250,60.01048954345432%,65.07202147960365%); " fill="none"   d="M 0.718464793069126 -0.021590975726096 L 0.675463180551151 0.05837414342758"  />
<path  style="stroke:hsl(250,60.076707823283186%,65.45790487209806%); " fill="none"   d="M 0.675463180551151 0.05837414342758 L 0.630030629995892 0.137965867271227"  />
<path  style="stroke:hsl(250,60.42947740117723%,65.84160517541473%); " fill="none"   d="M 0.630030629995892 0.137965867271227 L 0.582330649524082 0.21667508038738"  />
<path  style="stroke:hsl(250,61.06372448814782%,66.22296891454828%); " fill="none"   d="M 0.582330649524082 0.21667508038738 L 0.532534907555621 0.293998312415568"  />
<path  style="stroke:hsl(250,61.9703268806729%,66.6018435490878%); " fill="none"   d="M 0.532534907555621 0.293998312415568 L 0.480822614988648 0.369440958544477"  />
<path  style="stroke:hsl(250,63.13624516287166%,66.9780775342311%); " fill="none"   d="M 0.480822614988648 0.369440958544477 L 0.42737988023383 0.442520443294852"  />
<path  style="stroke:hsl(250,64.54471024888025%,67.35152038140052%); " fill="none"   d="M 0.42737988023383 0.442520443294852 L 0.372399039425056 0.512769307355724"  />
<path  style="stroke:hsl(250,66.17546456805746%,67.72202271843632%); " fill="none"   d="M 0.372399039425056 0.512769307355724 L 0.316077964217054 0.579738197728743"  />
<path  style="stroke:hsl(250,68.00505342411913%,68.08943634934369%); " fill="none"   d="M 0.316077964217054 0.579738197728743 L 0.258619349661111 0.642998742053909"  />
<path  style="stroke:hsl(250,70.00716233766195%,68.45361431356902%); " fill="none"   d="M 0.258619349661111 0.642998742053909 L 0.20022998472177 0.702146288730805"  />
<path  style="stroke:hsl(250,72.15299552017092%,68.8144109447823%); " fill="none"   d="M 0.20022998472177 0.702146288730805 L 0.141120008059867 0.756802495307928"  />
<path  style="stroke:hsl(250,74.41169003602148%,69.17168192914156%); " fill="none"   d="M 0.141120008059867 0.756802495307928 L 0.081502151760269 0.80661774858324"  />
<path  style="stroke:hsl(250,76.75075969569691%,69.52528436301664%); " fill="none"   d="M 0.081502151760269 0.80661774858324 L 0.021590975726096 0.851273400935574"  />
<path  style="stroke:hsl(250,79.13656229582543%,69.8750768101486%); " fill="none"   d="M 0.021590975726096 0.851273400935574 L -0.038397904505235 0.890483808581988"  />
<path  style="stroke:hsl(250,81.53478348585038%,70.22091935822243%); " fill="none"   d="M -0.038397904505235 0.890483808581988 L -0.098248593745109 0.923998158723188"  />
<path  style="stroke:hsl(250,83.91093030201088%,70.5626736748301%); " fill="none"   d="M -0.098248593745109 0.923998158723188 L -0.157745694143248 0.951602073889516"  />
<path  style="stroke:hsl(250,86.23082727026755%,70.9002030628016%); " fill="none"   d="M -0.157745694143248 0.951602073889516 L -0.21667508038738 0.973118983225174"  />
<path  style="stroke:hsl(250,88.46110794285994%,71.23337251488208%); " fill="none"   d="M -0.21667508038738 0.973118983225174 L -0.274824670323124 0.98841125193913"  />
<path  style="stroke:hsl(250,90.56969479885862%,71.5620487677329%); " fill="none"   d="M -0.274824670323124 0.98841125193913 L -0.331985188220734 0.997381061698093"  />
<path  style="stroke:hsl(250,92.52626060643311%,71.88610035523523%); " fill="none"   d="M -0.331985188220734 0.997381061698093 L -0.38795091794173 0.999971036330024"  />
<path  style="stroke:hsl(250,94.30266461118715%,72.2053976610747%); " fill="none"   d="M -0.38795091794173 0.999971036330024 L -0.442520443294852 0.996164608835841"  />
<path  style="stroke:hsl(250,95.87335727698306%,72.51981297058619%); " fill="none"   d="M -0.442520443294852 0.996164608835841 L -0.495497372916845 0.98598612736167"  />
<path  style="stroke:hsl(250,97.21574775797804%,72.82922052183807%); " fill="none"   d="M -0.495497372916845 0.98598612736167 L -0.546691047069287 0.969500699453809"  />
<path  style="stroke:hsl(250,98.3105288166218%,73.13349655593521%); " fill="none"   d="M -0.546691047069287 0.969500699453809 L -0.595917223807764 0.946813775592609"  />
<path  style="stroke:hsl(250,99.14195451440834%,73.43251936652092%); " fill="none"   d="M -0.595917223807764 0.946813775592609 L -0.642998742053909 0.918070474669267"  />
<path  style="stroke:hsl(250,99.69806668143121%,73.72616934845789%); " fill="none"   d="M -0.642998742053909 0.918070474669267 L -0.687766159183974 0.883454655720153"  />
<path  style="stroke:hsl(250,99.9708669074921%,74.01432904566863%); " fill="none"   d="M -0.687766159183974 0.883454655720153 L -0.7300583608393 0.843187741856417"  />
<path  style="stroke:hsl(250,99.95643158106148%,74.29688319811635%); " fill="none"   d="M -0.7300583608393 0.843187741856417 L -0.769723140764024 0.797527303911704"  />
<path  style="stroke:hsl(250,99.65496832151725%,74.57371878790737%); " fill="none"   d="M -0.769723140764024 0.797527303911704 L -0.80661774858324 0.746765412867812"  />
<path  style="stroke:hsl(250,99.07081299301149%,74.8447250844969%); " fill="none"   d="M -0.80661774858324 0.746765412867812 L -0.840609403550194 0.691226771597127"  />
<path  style="stroke:hsl(250,98.2123673429146%,75.10979368897965%); " fill="none"   d="M -0.840609403550194 0.691226771597127 L -0.871575772413588 0.631266637872322"  />
<path  style="stroke:hsl(250,97.09197816176561%,75.36881857744804%); " fill="none"   d="M -0.871575772413588 0.631266637872322 L -0.899405409685178 0.567268551928969"  />
<path  style="stroke:hsl(250,95.72575970273859%,75.6216961434003%); " fill="none"   d="M -0.899405409685178 0.567268551928969 L -0.923998158723188 0.499641883116902"  />
<path  style="stroke:hsl(250,94.13336191471755%,75.8683252391817%); " fill="none"   d="M -0.923998158723188 0.499641883116902 L -0.945265512188063 0.428819211333396"  />
<path  style="stroke:hsl(250,92.33768782242089%,76.10860721644228%); " fill="none"   d="M -0.945265512188063 0.428819211333396 L -0.963130930573317 0.355253559988043"  />
<path  style="stroke:hsl(250,90.36456411841951%,76.34244596559486%); " fill="none"   d="M -0.963130930573317 0.355253559988043 L -0.977530117665097 0.279415498198926"  />
<path  style="stroke:hsl(250,88.24236970483513%,76.56974795425756%); " fill="none"   d="M -0.977530117665097 0.279415498198926 L -0.98841125193913 0.201790130756129"  />
<path  style="stroke:hsl(250,86.0016275273017%,76.7904222646656%); " fill="none"   d="M -0.98841125193913 0.201790130756129 L -0.995735173062245 0.12287399510655"  />
<path  style="stroke:hsl(250,83.67456557173166%,77.00438063003708%); " fill="none"   d="M -0.995735173062245 0.12287399510655 L -0.999475522827284 0.043171885208729"  />
<path  style="stroke:hsl(250,81.29465333795132%,77.21153746987858%); " fill="none"   d="M -0.999475522827284 0.043171885208729 L -0.999618840014185 -0.036806377425827"  />
<path  style="stroke:hsl(250,78.89612045697851%,77.41180992421624%); " fill="none"   d="M -0.999618840014185 -0.036806377425827 L -0.996164608835841 -0.116549204850494"  />
<path  style="stroke:hsl(250,76.51346437554041%,77.60511788673861%); " fill="none"   d="M -0.996164608835841 -0.116549204850494 L -0.98912526079437 -0.195546515100544"  />
<path  style="stroke:hsl(250,74.18095418867019%,77.79138403683804%); " fill="none"   d="M -0.98912526079437 -0.195546515100544 L -0.978526129941138 -0.273292994977012"  />
<path  style="stroke:hsl(250,71.93213775662461%,77.97053387053802%); " fill="none"   d="M -0.978526129941138 -0.273292994977012 L -0.96440536170153 -0.349291332326735"  />
<path  style="stroke:hsl(250,69.79935919512491%,78.14249573029372%); " fill="none"   d="M -0.96440536170153 -0.349291332326735 L -0.946813775592609 -0.423055397142997"  />
<path  style="stroke:hsl(250,67.81329367872878%,78.30720083365401%); " fill="none"   d="M -0.946813775592609 -0.423055397142997 L -0.925814682327732 -0.494113351138608"  />
<path  style="stroke:hsl(250,66.00250624812915%,78.4645833007736%); " fill="none"   d="M -0.925814682327732 -0.494113351138608 L -0.901483655966355 -0.562010665900743"  />
<path  style="stroke:hsl(250,64.39304096693537%,78.61458018076405%); " fill="none"   d="M -0.901483655966355 -0.562010665900743 L -0.873908261929022 -0.626313030321656"  />
<path  style="stroke:hsl(250,63.00804633698273%,78.75713147687328%); " fill="none"   d="M -0.873908261929022 -0.626313030321656 L -0.843187741856417 -0.686609128707638"  />
<path  style="stroke:hsl(250,61.867442359720044%,78.89218017048351%); " fill="none"   d="M -0.843187741856417 -0.686609128707638 L -0.809432656446619 -0.742513271795802"  />
<path  style="stroke:hsl(250,60.9876340322414%,79.01967224391794%); " fill="none"   d="M -0.809432656446619 -0.742513271795802 L -0.772764487555987 -0.793667863849153"  />
<path  style="stroke:hsl(250,60.38127539867017%,79.13955670204703%); " fill="none"   d="M -0.772764487555987 -0.793667863849153 L -0.733315200995656 -0.83974569004898"  />
<path  style="stroke:hsl(250,60.0570875504807%,79.25178559268599%); " fill="none"   d="M -0.733315200995656 -0.83974569004898 L -0.691226771597127 -0.880452009553034"  />
<path  style="stroke:hsl(250,60.01973319340914%,79.35631402577494%); " fill="none"   d="M -0.691226771597127 -0.880452009553034 L -0.646650672256183 -0.91552644083109"  />
<path  style="stroke:hsl(250,60.26974958502379%,79.45310019133433%); " fill="none"   d="M -0.646650672256183 -0.91552644083109 L -0.599747328794044 -0.944744627218154"  />
<path  style="stroke:hsl(250,60.80354080749544%,79.54210537618837%); " fill="none"   d="M -0.599747328794044 -0.944744627218154 L -0.550685542597638 -0.967919672031486"  />
<path  style="stroke:hsl(250,61.61342948670649%,79.6232939794499%); " fill="none"   d="M -0.550685542597638 -0.967919672031486 L -0.499641883116902 -0.984903334071561"  />
<path  style="stroke:hsl(250,62.68776721383684%,79.69663352676005%); " fill="none"   d="M -0.499641883116902 -0.984903334071561 L -0.44680005240543 -0.995586975859855"  />
<path  style="stroke:hsl(250,64.01110208126309%,79.7620946832778%); " fill="none"   d="M -0.44680005240543 -0.995586975859855 L -0.392350223991454 -0.999902258547975"  />
<path  style="stroke:hsl(250,65.5644009231473%,79.81965126541331%); " fill="none"   d="M -0.392350223991454 -0.999902258547975 L -0.336488358458504 -0.997821579053074"  />
<path  style="stroke:hsl(250,67.32532306429002%,79.86928025130115%); " fill="none"   d="M -0.336488358458504 -0.997821579053074 L -0.279415498198926 -0.989358246623382"  />
<path  style="stroke:hsl(250,69.2685416399913%,79.91096179000867%); " fill="none"   d="M -0.279415498198926 -0.989358246623382 L -0.22133704387836 -0.974566397704435"  />
<path  style="stroke:hsl(250,71.36610786546437%,79.94467920947613%); " fill="none"   d="M -0.22133704387836 -0.974566397704435 L -0.162462015215154 -0.953540649650574"  />
<path  style="stroke:hsl(250,73.58785301561323%,79.97041902318533%); " fill="none"   d="M -0.162462015215154 -0.953540649650574 L -0.103002298735098 -0.926415495496766"  />
<path  style="stroke:hsl(250,75.90182233360859%,79.98817093555394%); " fill="none"   d="M -0.103002298735098 -0.926415495496766 L -0.043171885208729 -0.893364443662152"  />
<path  style="stroke:hsl(250,78.27473462747312%,79.99792784605373%); " fill="none"   d="M -0.043171885208729 -0.893364443662152 L 0.01681390048435 -0.85459890808828"  />
<path  style="stroke:hsl(250,80.67246094442274%,79.99968585205059%); " fill="none"   d="M 0.01681390048435 -0.85459890808828 L 0.076739174292519 -0.810366855911355"  />
<path  style="stroke:hsl(250,83.06051543832159%,79.99344425036554%); " fill="none"   d="M 0.076739174292519 -0.810366855911355 L 0.136388269941598 -0.760951221318774"  />
<path  style="stroke:hsl(250,85.40455137023673%,79.97920553755606%); " fill="none"   d="M 0.136388269941598 -0.760951221318774 L 0.195546515100544 -0.706668095735878"  />
<path  style="stroke:hsl(250,87.6708551082522%,79.95697540891739%); " fill="none"   d="M 0.195546515100544 -0.706668095735878 L 0.254001003970023 -0.647864705919518"  />
<path  style="stroke:hsl(250,89.8268310214763%,79.92676275620462%); " fill="none"   d="M 0.254001003970023 -0.647864705919518 L 0.311541363513378 -0.584917192891762"  />
<path  style="stroke:hsl(250,91.84147029414446%,79.888579664076%); " fill="none"   d="M 0.311541363513378 -0.584917192891762 L 0.367960510572385 -0.518228205920975"  />
<path  style="stroke:hsl(250,93.68579691699102%,79.84244140525928%); " fill="none"   d="M 0.367960510572385 -0.518228205920975 L 0.423055397142997 -0.448224326940585"  />
<path  style="stroke:hsl(250,95.33328444131732%,79.7883664344428%); " fill="none"   d="M 0.423055397142997 -0.448224326940585 L 0.4766277411289 -0.375353341880463"  />
<path  style="stroke:hsl(250,96.76023750169614%,79.72637638089392%); " fill="none"   d="M 0.4766277411289 -0.375353341880463 L 0.528484739942931 -0.300081376365085"  />
<path  style="stroke:hsl(250,97.94613261997415%,79.65649603980754%); " fill="none"   d="M 0.528484739942931 -0.300081376365085 L 0.5784397643882 -0.222889914100248"  />
<path  style="stroke:hsl(250,98.8739133888821%,79.57875336238834%); " fill="none"   d="M 0.5784397643882 -0.222889914100248 L 0.626313030321656 -0.144272717020457"  />
<path  style="stroke:hsl(250,99.53023578970596%,79.49317944467074%); " fill="none"   d="M 0.626313030321656 -0.144272717020457 L 0.671932245682862 -0.064732666897566"  />
<path  style="stroke:hsl(250,99.90566011568255%,79.39980851508088%); " fill="none"   d="M 0.671932245682862 -0.064732666897566 L 0.715133230559358 0.015221451386432"  />
<path  style="stroke:hsl(250,99.99478674073706%,79.29867792074566%); " fill="none"   d="M 0.715133230559358 0.015221451386432 L 0.755760508057054 0.095078204326361"  />
<path  style="stroke:hsl(250,99.79633378083773%,79.1898281125544%); " fill="none"   d="M 0.755760508057054 0.095078204326361 L 0.793667863849153 0.17432678122298"  />
<path  style="stroke:hsl(250,99.31315553098555%,79.07330262897909%); " fill="none"   d="M 0.793667863849153 0.17432678122298 L 0.828718872389835 0.252460261628258"  />
<path  style="stroke:hsl(250,98.55220141266491%,78.94914807865949%); " fill="none"   d="M 0.828718872389835 0.252460261628258 L 0.860787387898902 0.328978857906327"  />
<path  style="stroke:hsl(250,97.5244160222025%,78.81741412176038%); " fill="none"   d="M 0.860787387898902 0.328978857906327 L 0.88975799835036 0.40339311216877"  />
<path  style="stroke:hsl(250,96.24458171761208%,78.67815345010807%); " fill="none"   d="M 0.88975799835036 0.40339311216877 L 0.91552644083109 0.47522702713478"  />
<path  style="stroke:hsl(250,94.7311060079557%,78.53142176611443%); " fill="none"   d="M 0.91552644083109 0.47522702713478 L 0.937999976774739 0.54402111088937"  />
<path  style="stroke:hsl(250,93.00575680314233%,78.3772777604967%); " fill="none"   d="M 0.937999976774739 0.54402111088937 L 0.957097725720417 0.609335316063561"  />
<path  style="stroke:hsl(250,91.09334933199406%,78.21578308880184%); " fill="none"   d="M 0.957097725720417 0.609335316063561 L 0.972750956395014 0.670751854635837"  />
<path  style="stroke:hsl(250,89.02138923155248%,78.04700234674536%); " fill="none"   d="M 0.972750956395014 0.670751854635837 L 0.984903334071561 0.727877870349737"  />
<path  style="stroke:hsl(250,86.81967694097472%,77.87100304437365%); " fill="none"   d="M 0.984903334071561 0.727877870349737 L 0.993511123313416 0.780347951653232"  />
<path  style="stroke:hsl(250,84.51987908991386%,77.68785557906106%); " fill="none"   d="M 0.993511123313416 0.780347951653232 L 0.998543345374605 0.827826469085654"  />
<path  style="stroke:hsl(250,82.15507304598889%,77.49763320735178%); " fill="none"   d="M 0.998543345374605 0.827826469085654 L 0.999981889689856 0.870009722160873"  />
<path  style="stroke:hsl(250,79.75927117199343%,77.30041201565822%); " fill="none"   d="M 0.999981889689856 0.870009722160873 L 0.997821579053074 0.906627882013998"  />
<path  style="stroke:hsl(250,77.36693163532334%,77.0962708898275%); " fill="none"   d="M 0.997821579053074 0.906627882013998 L 0.992070188249698 0.937446717385293"  />
<path  style="stroke:hsl(250,75.01246280551734%,76.88529148358806%); " fill="none"   d="M 0.992070188249698 0.937446717385293 L 0.982748416075862 0.962269092900902"  />
<path  style="stroke:hsl(250,72.72972836802722%,76.66755818588942%); " fill="none"   d="M 0.982748416075862 0.962269092900902 L 0.969889810845086 0.980936230066492"  />
<path  style="stroke:hsl(250,70.55156027203068%,76.44315808714757%); " fill="none"   d="M 0.969889810845086 0.980936230066492 L 0.953540649650574 0.993328722907774"  />
<path  style="stroke:hsl(250,68.50928651742738%,76.21218094441002%); " fill="none"   d="M 0.953540649650574 0.993328722907774 L 0.933759771817651 0.99936730176125"  />
<path  style="stroke:hsl(250,66.63228057272823%,75.97471914545427%); " fill="none"   d="M 0.933759771817651 0.99936730176125 L 0.91061836714573 0.999013340329543"  />
<path  style="stroke:hsl(250,64.94753890443886%,75.73086767183375%); " fill="none"   d="M 0.91061836714573 0.999013340329543 L 0.884199719701913 0.992269102757886"  />
<path  style="stroke:hsl(250,63.479292694216795%,75.48072406088659%); " fill="none"   d="M 0.884199719701913 0.992269102757886 L 0.85459890808828 0.979177729151317"  />
<path  style="stroke:hsl(250,62.24865932836991%,75.22438836672198%); " fill="none"   d="M 0.85459890808828 0.979177729151317 L 0.821922463261602 0.959822959625228"  />
<path  style="stroke:hsl(250,61.27333867222656%,74.96196312019981%); " fill="none"   d="M 0.821922463261602 0.959822959625228 L 0.786287985136929 0.934328598654398"  />
<path  style="stroke:hsl(250,60.5673584977819%,74.69355328791976%); " fill="none"   d="M 0.786287985136929 0.934328598654398 L 0.74782371935489 0.90285772314685"  />
<path  style="stroke:hsl(250,60.14087272606467%,74.41926623023596%); " fill="none"   d="M 0.74782371935489 0.90285772314685 L 0.706668095735878 0.865611639308158"  />
<path  style="stroke:hsl(250,60.00001538605002%,74.1392116583144%); " fill="none"   d="M 0.706668095735878 0.865611639308158 L 0.662969230082183 0.822828594968709"  />
<path  style="stroke:hsl(250,60.146812390587336%,73.8535015902498%); " fill="none"   d="M 0.662969230082183 0.822828594968709 L 0.616884391121045 0.774782255610634"  />
<path  style="stroke:hsl(250,60.57915239824625%,73.56225030626001%); " fill="none"   d="M 0.616884391121045 0.774782255610634 L 0.56857943450707 0.721779953842635"  />
<path  style="stroke:hsl(250,61.29081718016673%,73.26557430297531%); " fill="none"   d="M 0.56857943450707 0.721779953842635 L 0.518228205920975 0.664160723520095"  />
<path  style="stroke:hsl(250,62.271571055155235%,72.96359224684137%); " fill="none"   d="M 0.518228205920975 0.664160723520095 L 0.466011915412871 0.602293131085391"  />
<path  style="stroke:hsl(250,63.507308106706176%,72.6564249266543%); " fill="none"   d="M 0.466011915412871 0.602293131085391 L 0.412118485241757 0.536572918000435"  />
<path  style="stroke:hsl(250,64.98025506456648%,72.34419520524665%); " fill="none"   d="M 0.412118485241757 0.536572918000435 L 0.356741873558329 0.467420469351827"  />
<path  style="stroke:hsl(250,66.66922693285228%,72.02702797034397%); " fill="none"   d="M 0.356741873558329 0.467420469351827 L 0.300081376365085 0.39527812482091"  />
<path  style="stroke:hsl(250,68.5499316880887%,71.70505008461139%); " fill="none"   d="M 0.300081376365085 0.39527812482091 L 0.242340910265924 0.320607349219338"  />
<path  style="stroke:hsl(250,70.5953196647833%,71.37839033491022%); " fill="none"   d="M 0.242340910265924 0.320607349219338 L 0.183728278586583 0.243885780689082"  />
<path  style="stroke:hsl(250,72.77597260341496%,71.04717938078493%); " fill="none"   d="M 0.183728278586583 0.243885780689082 L 0.124454423507062 0.165604175448309"  />
<path  style="stroke:hsl(250,75.06052676526758%,70.71154970220108%); " fill="none"   d="M 0.124454423507062 0.165604175448309 L 0.064732666897566 0.086263268626344"  />
<path  style="stroke:hsl(250,77.41612402856222%,70.37163554655513%); " fill="none"   d="M 0.064732666897566 0.086263268626344 L 0.004777942590129 0.006370571267652"  />
<path  style="stroke:hsl(250,79.80888447789505%,70.02757287497717%); " fill="none"   d="M 0.004777942590129 0.006370571267652 L -0.055193977151075 -0.073562876006908"  />
<path  style="stroke:hsl(250,82.20439368985474%,69.67949930794842%); " fill="none"   d="M -0.055193977151075 -0.073562876006908 L -0.114967258176875 -0.153025771916079"  />
<path  style="stroke:hsl(250,84.568197706324%,69.32755407025475%); " fill="none"   d="M -0.114967258176875 -0.153025771916079 L -0.17432678122298 -0.231509825101539"  />
<path  style="stroke:hsl(250,86.86629857639791%,68.9718779352987%); " fill="none"   d="M -0.17432678122298 -0.231509825101539 L -0.233058916107014 -0.308513005457991"  />
<path  style="stroke:hsl(250,89.0656433396739%,68.612613168792%); " fill="none"   d="M -0.233058916107014 -0.308513005457991 L -0.290952290566491 -0.38354275541261"  />
<path  style="stroke:hsl(250,91.13459941800075%,68.24990347185108%); " fill="none"   d="M -0.290952290566491 -0.38354275541261 L -0.347798550970695 -0.456119140612603"  />
<path  style="stroke:hsl(250,93.04340957825521%,67.88389392351867%); " fill="none"   d="M -0.347798550970695 -0.456119140612603 L -0.40339311216877 -0.525777919867246"  />
<path  style="stroke:hsl(250,94.76461992254092%,67.51473092273403%); " fill="none"   d="M -0.40339311216877 -0.525777919867246 L -0.457535893775321 -0.592073514707223"  />
<path  style="stroke:hsl(250,96.2734747501421%,67.14256212977538%); " fill="none"   d="M -0.457535893775321 -0.592073514707223 L -0.510032040243754 -0.654581859566251"  />
<path  style="stroke:hsl(250,97.54827261204093%,66.76753640719771%); " fill="none"   d="M -0.510032040243754 -0.654581859566251 L -0.560692622135816 -0.712903114353539"  />
<path  style="stroke:hsl(250,98.5706784369621%,66.38980376028978%); " fill="none"   d="M -0.560692622135816 -0.712903114353539 L -0.609335316063561 -0.766664222065866"  />
<path  style="stroke:hsl(250,99.3259872397214%,66.00951527707397%); " fill="none"   d="M -0.609335316063561 -0.766664222065866 L -0.655785060856654 -0.815521295079313"  />
<path  style="stroke:hsl(250,99.80333561903196%,65.62682306787315%); " fill="none"   d="M -0.655785060856654 -0.815521295079313 L -0.699874687593542 -0.859161814856496"  />
<path  style="stroke:hsl(250,99.99585800285338%,65.24188020446847%); " fill="none"   d="M -0.699874687593542 -0.859161814856496 L -0.74144552122906 -0.897306630998707"  />
<path  style="stroke:hsl(250,99.90078539404902%,64.85484065887282%); " fill="none"   d="M -0.74144552122906 -0.897306630998707 L -0.780347951653232 -0.929711746855837"  />
<path  style="stroke:hsl(250,99.51948519611932%,64.46585924174396%); " fill="none"   d="M -0.780347951653232 -0.929711746855837 L -0.816441972126112 -0.956169880272267"  />
<path  style="stroke:hsl(250,98.85744154620888%,64.0750915404624%); " fill="none"   d="M -0.816441972126112 -0.956169880272267 L -0.849597683150864 -0.976511789485298"  />
<path  style="stroke:hsl(250,97.92417643825203%,63.682693856898474%); " fill="none"   d="M -0.849597683150864 -0.976511789485298 L -0.87969575997167 -0.99060735569487"  />
<path  style="stroke:hsl(250,96.73311277072112%,63.288823144893726%); " fill="none"   d="M -0.87969575997167 -0.99060735569487 L -0.906627882013998 -0.998366415379848"  />
<path  style="stroke:hsl(250,95.30138128872505%,62.89363694748141%); " fill="none"   d="M -0.906627882013998 -0.998366415379848 L -0.930297122721696 -0.999739337036853"  />
<path  style="stroke:hsl(250,93.64957419715691%,62.49729333387142%); " fill="none"   d="M -0.930297122721696 -0.999739337036853 L -0.95061829838793 -0.994717338652522"  />
<path  style="stroke:hsl(250,91.80144898860587%,62.09995083622468%); " fill="none"   d="M -0.95061829838793 -0.994717338652522 L -0.967518274724538 -0.983332543878415"  />
<path  style="stroke:hsl(250,89.78358674579664%,61.701768386242414%); " fill="none"   d="M -0.967518274724538 -0.983332543878415 L -0.980936230066492 -0.965657776549278"  />
<path  style="stroke:hsl(250,87.6250098330988%,61.3029052515956%); " fill="none"   d="M -0.980936230066492 -0.965657776549278 L -0.990823874264213 -0.941806094859012"  />
<path  style="stroke:hsl(250,85.35676447574569%,60.90352097221998%); " fill="none"   d="M -0.990823874264213 -0.941806094859012 L -0.997145622475965 -0.911930068174061"  />
<path  style="stroke:hsl(250,83.0114742304122%,60.50377529650226%); " fill="none"   d="M -0.997145622475965 -0.911930068174061 L -0.999878723234854 -0.876220801110125"  />
<path  style="stroke:hsl(250,80.62287076946353%,60.10382811738286%); " fill="none"   d="M -0.999878723234854 -0.876220801110125 L -0.999013340329543 -0.83490671111478"  />
<path  style="stroke:hsl(250,78.22530872747653%,59.70383940840086%); " fill="none"   d="M -0.999013340329543 -0.83490671111478 L -0.994552588203989 -0.788252067375316"  />
<path  style="stroke:hsl(250,75.85327158786482%,59.303969159706746%); " fill="none"   d="M -0.994552588203989 -0.788252067375316 L -0.98651252074881 -0.736555300397785"  />
<path  style="stroke:hsl(250,73.54087571630669%,58.904377314068455%); " fill="none"   d="M -0.98651252074881 -0.736555300397785 L -0.974922073524615 -0.680147093070186"  />
<path  style="stroke:hsl(250,71.32137967432689%,58.50522370289644%); " fill="none"   d="M -0.974922073524615 -0.680147093070186 L -0.959822959625228 -0.619388265420471"  />
<path  style="stroke:hsl(250,69.22670587044308%,58.106667982313176%); " fill="none"   d="M -0.959822959625228 -0.619388265420471 L -0.941269519555602 -0.554667466599703"  />
<path  style="stroke:hsl(250,67.2869814288373%,57.7088695692929%); " fill="none"   d="M -0.941269519555602 -0.554667466599703 L -0.919328525664676 -0.4863986888538"  />
<path  style="stroke:hsl(250,65.5301048791151%,57.3119875778969%); " fill="none"   d="M -0.919328525664676 -0.4863986888538 L -0.894078941837027 -0.415018619385946"  />
<path  style="stroke:hsl(250,63.9813448993342%,56.91618075563006%); " fill="none"   d="M -0.894078941837027 -0.415018619385946 L -0.865611639308158 -0.340983847048736"  />
<path  style="stroke:hsl(250,62.66297688347376%,56.52160741994392%); " fill="none"   d="M -0.865611639308158 -0.340983847048736 L -0.834029069626173 -0.264767941733678"  />
<path  style="stroke:hsl(250,61.593962560495044%,56.12842539491186%); " fill="none"   d="M -0.834029069626173 -0.264767941733678 L -0.799444895936846 -0.186858425139989"  />
<path  style="stroke:hsl(250,60.78967727294604%,55.73679194810152%); " fill="none"   d="M -0.799444895936846 -0.186858425139989 L -0.761983583919033 -0.107753652299444"  />
<path  style="stroke:hsl(250,60.26168883758702%,55.346863727669934%); " fill="none"   d="M -0.761983583919033 -0.107753652299444 L -0.721779953842635 -0.027959623804861"  />
<path  style="stroke:hsl(250,60.017591168625216%,54.958796699706284%); " fill="none"   d="M -0.721779953842635 -0.027959623804861 L -0.678978695361217 0.052013250866914"  />
<path  style="stroke:hsl(250,60.06089505651009%,54.572746085847605%); " fill="none"   d="M -0.678978695361217 0.052013250866914 L -0.633733846785499 0.131653418233833"  />
<path  style="stroke:hsl(250,60.39097767318819%,54.188866301192164%); " fill="none"   d="M -0.633733846785499 0.131653418233833 L -0.586208240711783 0.2104514530052"  />
<path  style="stroke:hsl(250,61.0030915300698%,53.8073108925355%); " fill="none"   d="M -0.586208240711783 0.2104514530052 L -0.536572918000435 0.287903316665065"  />
<path  style="stroke:hsl(250,61.88843275986753%,53.42823247695373%); " fill="none"   d="M -0.536572918000435 0.287903316665065 L -0.485006512213502 0.363513581598639"  />
<path  style="stroke:hsl(250,63.03426774022721%,53.05178268075879%); " fill="none"   d="M -0.485006512213502 0.363513581598639 L -0.431694606726782 0.436798600138338"  />
<path  style="stroke:hsl(250,64.42411623795851%,52.67811207884987%); " fill="none"   d="M -0.431694606726782 0.436798600138338 L -0.376829066830075 0.507289598258339"  />
<path  style="stroke:hsl(250,66.03798843975125%,52.30737013448555%); " fill="none"   d="M -0.376829066830075 0.507289598258339 L -0.320607349219338 0.574535674128631"  />
<path  style="stroke:hsl(250,67.85267246022855%,51.9397051395004%); " fill="none"   d="M -0.320607349219338 0.574535674128631 L -0.263231791365801 0.638106682347947"  />
<path  style="stroke:hsl(250,69.84206819218755%,51.57526415499029%); " fill="none"   d="M -0.263231791365801 0.638106682347947 L -0.204908883319571 0.697595985406447"  />
<path  style="stroke:hsl(250,71.97756269734965%,51.21419295248986%); " fill="none"   d="M -0.204908883319571 0.697595985406447 L -0.145848524568428 0.752623054778058"  />
<path  style="stroke:hsl(250,74.22844173847758%,50.856635955665915%); " fill="none"   d="M -0.145848524568428 0.752623054778058 L -0.086263268626344 0.80283590500447"  />
<path  style="stroke:hsl(250,76.56233153390399%,50.502736182549796%); " fill="none"   d="M -0.086263268626344 0.80283590500447 L -0.026367558070358 0.847913345200867"  />
<path  style="stroke:hsl(250,78.94566438083706%,50.15263518833218%); " fill="none"   d="M -0.026367558070358 0.847913345200867 L 0.033623047221137 0.887567033581505"  />
<path  style="stroke:hsl(250,81.3441614505095%,49.806473008742756%); " fill="none"   d="M 0.033623047221137 0.887567033581505 L 0.093492645851169 0.921543321863127"  />
<path  style="stroke:hsl(250,83.72332581125832%,49.46438810403798%); " fill="none"   d="M 0.093492645851169 0.921543321863127 L 0.153025771916079 0.949624877748395"  />
<path  style="stroke:hsl(250,86.04893858852022%,49.12651730361862%); " fill="none"   d="M 0.153025771916079 0.949624877748395 L 0.212008170450093 0.971632075110905"  />
<path  style="stroke:hsl(250,88.28755112560675%,48.79299575129998%); " fill="none"   d="M 0.212008170450093 0.971632075110905 L 0.270227568511837 0.987424142989415"  />
<path  style="stroke:hsl(250,90.40696606664548%,48.463956851256086%); " fill="none"   d="M 0.270227568511837 0.987424142989415 L 0.327474439137693 0.996900066041596"  />
<path  style="stroke:hsl(250,92.37670044240079%,48.13953221465985%); " fill="none"   d="M 0.327474439137693 0.996900066041596 L 0.38354275541261 0.999999230697499"  />
<path  style="stroke:hsl(250,94.16842409853825%,47.81985160704026%); " fill="none"   d="M 0.38354275541261 0.999999230697499 L 0.438230731944512 0.996701812879551"  />
<path  style="stroke:hsl(250,95.7563671605368%,47.50504289637807%); " fill="none"   d="M 0.438230731944512 0.996701812879551 L 0.491341551073814 0.987028904809002"  />
<path  style="stroke:hsl(250,97.11769067479216%,47.1952320019601%); " fill="none"   d="M 0.491341551073814 0.987028904809002 L 0.542684071204453 0.971042380087687"  />
<path  style="stroke:hsl(250,98.23281509508092%,46.890542844013396%); " fill="none"   d="M 0.542684071204453 0.971042380087687 L 0.592073514707223 0.948844497918124"  />
<path  style="stroke:hsl(250,99.08570188985394%,46.59109729413864%); " fill="none"   d="M 0.592073514707223 0.948844497918124 L 0.639332132919717 0.92057724899359"  />
<path  style="stroke:hsl(250,99.664084220078%,46.29701512656326%); " fill="none"   d="M 0.639332132919717 0.92057724899359 L 0.684289845849551 0.886421447242238"  />
<path  style="stroke:hsl(250,99.95964336984841%,46.008413970233214%); " fill="none"   d="M 0.684289845849551 0.886421447242238 L 0.726784854278682 0.846595573235013"  />
<path  style="stroke:hsl(250,99.96812839221974%,45.72540926176309%); " fill="none"   d="M 0.726784854278682 0.846595573235013 L 0.766664222065866 0.801354376655569"  />
<path  style="stroke:hsl(250,99.68941724942066%,45.44811419926291%); " fill="none"   d="M 0.766664222065866 0.801354376655569 L 0.803784426551621 0.750987246771676"  />
<path  style="stroke:hsl(250,99.12751856809007%,45.17663969706049%); " fill="none"   d="M 0.803784426551621 0.750987246771676 L 0.838011875084807 0.695816361331457"  />
<path  style="stroke:hsl(250,98.29051398428932%,44.91109434133706%); " fill="none"   d="M 0.838011875084807 0.695816361331457 L 0.869223385811912 0.636194625725274"  />
<path  style="stroke:hsl(250,97.19044190752666%,44.65158434669438%); " fill="none"   d="M 0.869223385811912 0.636194625725274 L 0.897306630998707 0.572503415595565"  />
<path  style="stroke:hsl(250,95.84312437558401%,44.3982135136702%); " fill="none"   d="M 0.897306630998707 0.572503415595565 L 0.922160541288786 0.505150137334196"  />
<path  style="stroke:hsl(250,94.26793949044672%,44.1510831872195%); " fill="none"   d="M 0.922160541288786 0.505150137334196 L 0.943695669444105 0.434565622071897"  />
<path  style="stroke:hsl(250,92.48754270832782%,43.91029221617785%); " fill="none"   d="M 0.943695669444105 0.434565622071897 L 0.961834512258452 0.361201369829252"  />
<path  style="stroke:hsl(250,90.52754099239702%,43.67593691372314%); " fill="none"   d="M 0.961834512258452 0.361201369829252 L 0.976511789485298 0.285526661457391"  />
<path  style="stroke:hsl(250,88.41612451478682%,43.448111018851684%); " fill="none"   d="M 0.976511789485298 0.285526661457391 L 0.98767467877618 0.20802555684198"  />
<path  style="stroke:hsl(250,86.18366120500652%,43.226905658883766%); " fill="none"   d="M 0.98767467877618 0.20802555684198 L 0.995283005784127 0.129193798571889"  />
<path  style="stroke:hsl(250,83.86225997626326%,43.01240931301402%); " fill="none"   d="M 0.995283005784127 0.129193798571889 L 0.999309388747918 0.049535640878367"  />
<path  style="stroke:hsl(250,81.48530891168723%,42.80470777692088%); " fill="none"   d="M 0.999309388747918 0.049535640878367 L 0.999739337036853 -0.030439375871184"  />
<path  style="stroke:hsl(250,79.08699505260432%,42.603884128449465%); " fill="none"   d="M 0.999739337036853 -0.030439375871184 L 0.996571303301382 -0.110219684492737"  />
<path  style="stroke:hsl(250,76.70181269560929%,42.41001869438155%); " fill="none"   d="M 0.996571303301382 -0.110219684492737 L 0.989816689041886 -0.189294963269806"  />
<path  style="stroke:hsl(250,74.3640672704704%,42.22318901830593%); " fill="none"   d="M 0.989816689041886 -0.189294963269806 L 0.979499803575591 -0.267159400270935"  />
<path  style="stroke:hsl(250,72.10738193445377%,42.04346982960199%); " fill="none"   d="M 0.979499803575591 -0.267159400270935 L 0.965657776549278 -0.343314928819895"  />
<path  style="stroke:hsl(250,69.96421397958852%,41.87093301354901%); " fill="none"   d="M 0.965657776549278 -0.343314928819895 L 0.948340424312644 -0.417274413422736"  />
<path  style="stroke:hsl(250,67.9653880082542%,41.70564758257294%); " fill="none"   d="M 0.948340424312644 -0.417274413422736 L 0.927610070633246 -0.488564765772518"  />
<path  style="stroke:hsl(250,66.13965259130006%,41.547679648642394%); " fill="none"   d="M 0.927610070633246 -0.488564765772518 L 0.903541322398234 -0.556729970900038"  />
<path  style="stroke:hsl(250,64.51326678516165%,41.397092396824725%); " fill="none"   d="M 0.903541322398234 -0.556729970900038 L 0.876220801110125 -0.621334004113409"  />
<path  style="stroke:hsl(250,63.109622454987075%,41.25394606001288%); " fill="none"   d="M 0.876220801110125 -0.621334004113409 L 0.845746831142934 -0.681963620068136"  />
<path  style="stroke:hsl(250,61.94890783579629%,41.11829789483296%); " fill="none"   d="M 0.845746831142934 -0.681963620068136 L 0.812229085880604 -0.738230996127046"  />
<path  style="stroke:hsl(250,61.047817170581894%,40.99020215874245%); " fill="none"   d="M 0.812229085880604 -0.738230996127046 L 0.775788193011259 -0.78977621310171"  />
<path  style="stroke:hsl(250,60.41931060154839%,40.869710088327835%); " fill="none"   d="M 0.775788193011259 -0.78977621310171 L 0.736555300397785 -0.836269557506963"  />
<path  style="stroke:hsl(250,60.07242776790811%,40.756869878810775%); " fill="none"   d="M 0.736555300397785 -0.836269557506963 L 0.694671604087154 -0.877413630602046"  />
<path  style="stroke:hsl(250,60.01215779120654%,40.651726664770536%); " fill="none"   d="M 0.694671604087154 -0.877413630602046 L 0.650287840157117 -0.912945250727628"  />
<path  style="stroke:hsl(250,60.239367518142764%,40.55432250209085%); " fill="none"   d="M 0.650287840157117 -0.912945250727628 L 0.603563742229109 -0.942637136770298"  />
<path  style="stroke:hsl(250,60.7507890529489%,40.46469635113809%); " fill="none"   d="M 0.603563742229109 -0.942637136770298 L 0.554667466599703 -0.96629936198607"  />
<path  style="stroke:hsl(250,61.53906675864699%,40.38288406117762%); " fill="none"   d="M 0.554667466599703 -0.96629936198607 L 0.50377498705952 -0.983780568883396"  />
<path  style="stroke:hsl(250,62.592863051177176%,40.30891835603463%); " fill="none"   d="M 0.50377498705952 -0.983780568883396 L 0.451069461577624 -0.994968937394591"  />
<path  style="stroke:hsl(250,63.897021464788565%,40.24282882100497%); " fill="none"   d="M 0.451069461577624 -0.994968937394591 L 0.396740573130612 -0.999792900142669"  />
<path  style="stroke:hsl(250,65.43278464336814%,40.18464189102147%); " fill="none"   d="M 0.396740573130612 -0.999792900142669 L 0.340983847048736 -0.998221600228323"  />
<path  style="stroke:hsl(250,67.17806412239702%,40.13438084008031%); " fill="none"   d="M 0.340983847048736 -0.998221600228323 L 0.283999947335849 -0.990265088608778"  />
<path  style="stroke:hsl(250,69.1077580213344%,40.09206577193173%); " fill="none"   d="M 0.283999947335849 -0.990265088608778 L 0.225993954495693 -0.975974259805966"  />
<path  style="stroke:hsl(250,71.19411207714458%,40.057713612038796%); " fill="none"   d="M 0.225993954495693 -0.975974259805966 L 0.167174627463537 -0.955440526355268"  />
<path  style="stroke:hsl(250,73.40711882632127%,40.03133810080743%); " fill="none"   d="M 0.167174627463537 -0.955440526355268 L 0.107753652299444 -0.92879523407724"  />
<path  style="stroke:hsl(250,75.71494919408225%,40.01294978809047%); " fill="none"   d="M 0.107753652299444 -0.92879523407724 L 0.047944880347054 -0.896208821912602"  />
<path  style="stroke:hsl(250,78.0844102833033%,40.00255602896783%); " fill="none"   d="M 0.047944880347054 -0.896208821912602 L -0.012036441400329 -0.857889731694642"  />
<path  style="stroke:hsl(250,80.48142277893908%,40.000160980804566%); " fill="none"   d="M -0.012036441400329 -0.857889731694642 L -0.071974444956465 -0.81408307483283"  />
<path  style="stroke:hsl(250,82.87151110155159%,40.00576560158801%); " fill="none"   d="M -0.071974444956465 -0.81408307483283 L -0.131653418233833 -0.765069064436253"  />
<path  style="stroke:hsl(250,85.22029926020232%,40.01936764954459%); " fill="none"   d="M -0.131653418233833 -0.765069064436253 L -0.190858581374189 -0.711161222905982"  />
<path  style="stroke:hsl(250,87.49400527298924%,40.040961684036475%); " fill="none"   d="M -0.190858581374189 -0.711161222905982 L -0.249376859724133 -0.652704376461626"  />
<path  style="stroke:hsl(250,89.65992704411393%,40.07053906773777%); " fill="none"   d="M -0.249376859724133 -0.652704376461626 L -0.30699765067376 -0.590072449430293"  />
<path  style="stroke:hsl(250,91.68691270923995%,40.10808797008938%); " fill="none"   d="M -0.30699765067376 -0.590072449430293 L -0.363513581598639 -0.523666072406936"  />
<path  style="stroke:hsl(250,93.54580868429352%,40.15359337203099%); " fill="none"   d="M -0.363513581598639 -0.523666072406936 L -0.418721256177326 -0.453910019585758"  />
<path  style="stroke:hsl(250,95.20987897354198%,40.20703707200856%); " fill="none"   d="M -0.418721256177326 -0.453910019585758 L -0.472421986398466 -0.38125049165494"  />
<path  style="stroke:hsl(250,96.6551897061556%,40.268397693254684%); " fill="none"   d="M -0.472421986398466 -0.38125049165494 L -0.524422507623098 -0.306152261634959"  />
<path  style="stroke:hsl(250,97.86095337056949%,40.33765069233897%); " fill="none"   d="M -0.524422507623098 -0.306152261634959 L -0.574535674128631 -0.229095701917322"  />
<path  style="stroke:hsl(250,98.80982779561356%,40.414768368985165%); " fill="none"   d="M -0.574535674128631 -0.229095701917322 L -0.622581132631374 -0.15057371152061"  />
<path  style="stroke:hsl(250,99.48816557824898%,40.499719877150824%); " fill="none"   d="M -0.622581132631374 -0.15057371152061 L -0.668385971363588 -0.0710885632188"  />
<path  style="stroke:hsl(250,99.88621037045775%,40.59247123736536%); " fill="none"   d="M -0.668385971363588 -0.0710885632188 L -0.711785342369123 0.008851309290404"  />
<path  style="stroke:hsl(250,99.99823720214535%,40.69298535032134%); " fill="none"   d="M -0.711785342369123 0.008851309290404 L -0.752623054778058 0.088734563626174"  />
<path  style="stroke:hsl(250,99.82263482183018%,40.80122201171376%); " fill="none"   d="M -0.752623054778058 0.088734563626174 L -0.790752136925159 0.168050219570776"  />
<path  style="stroke:hsl(250,99.36192887083575%,40.91713792832121%); " fill="none"   d="M -0.790752136925159 0.168050219570776 L -0.82603536528916 0.246290927599182"  />
<path  style="stroke:hsl(250,98.62274555767793%,41.040686735322566%); " fill="none"   d="M -0.82603536528916 0.246290927599182 L -0.858345758349268 0.322956214184666"  />
<path  style="stroke:hsl(250,97.615716355108%,41.17181901484231%); " fill="none"   d="M -0.858345758349268 0.322956214184666 L -0.887567033581505 0.397555683121433"  />
<path  style="stroke:hsl(250,96.35532509052884%,41.31048231571705%); " fill="none"   d="M -0.887567033581505 0.397555683121433 L -0.913594025950221 0.469612152386833"  />
<path  style="stroke:hsl(250,94.85969962904096%,41.45662117447527%); " fill="none"   d="M -0.913594025950221 0.469612152386833 L -0.936333066388672 0.538664706477846"  />
<path  style="stroke:hsl(250,93.15035114528379%,41.61017713752194%); " fill="none"   d="M -0.936333066388672 0.538664706477846 L -0.955702318906493 0.604271644697403"  />
<path  style="stroke:hsl(250,91.25186473405618%,41.77108878451923%); " fill="none"   d="M -0.955702318906493 0.604271644697403 L -0.971632075110905 0.666013306531474"  />
<path  style="stroke:hsl(250,89.19154580957732%,41.9392917529538%); " fill="none"   d="M -0.971632075110905 0.666013306531474 L -0.984065005081643 0.723494756044245"  />
<path  style="stroke:hsl(250,86.99902737913324%,42.11471876388096%); " fill="none"   d="M -0.984065005081643 0.723494756044245 L -0.992956363696766 0.776348308120325"  />
<path  style="stroke:hsl(250,84.70584383958509%,42.29729964883533%); " fill="none"   d="M -0.992956363696766 0.776348308120325 L -0.998274151666775 0.824235880394741"  />
<path  style="stroke:hsl(250,82.34497742670634%,42.486961377897316%); " fill="none"   d="M -0.998274151666775 0.824235880394741 L -0.999999230697499 0.866851155826312"  />
<path  style="stroke:hsl(250,79.95038384064762%,42.68362808890406%); " fill="none"   d="M -0.999999230697499 0.866851155826312 L -0.99812539236729 0.903921542081392"  />
<path  style="stroke:hsl(250,77.55650387032793%,42.88722111779337%); " fill="none"   d="M -0.99812539236729 0.903921542081392 L -0.992659380470633 0.935209915194539"  />
<path  style="stroke:hsl(250,75.19776804092452%,43.097659030068215%); " fill="none"   d="M -0.992659380470633 0.935209915194539 L -0.983620866747772 0.960516136352698"  />
<path  style="stroke:hsl(250,72.90810140898478%,43.3148576533695%); " fill="none"   d="M -0.983620866747772 0.960516136352698 L -0.971042380087687 0.979678332100598"  />
<path  style="stroke:hsl(250,70.72043562755607%,43.538730111143835%); " fill="none"   d="M -0.971042380087687 0.979678332100598 L -0.954969189459218 0.992573929778464"  />
<path  style="stroke:hsl(250,68.66623529916683%,43.769186857393045%); " fill="none"   d="M -0.954969189459218 0.992573929778464 L -0.935459140991664 0.999120441568739"  />
<path  style="stroke:hsl(250,66.77504542899804%,44.00613571249133%); " fill="none"   d="M -0.935459140991664 0.999120441568739 L -0.912582449791184 0.999275992136628"  />
<path  style="stroke:hsl(250,65.07406648710167%,44.24948190005595%); " fill="none"   d="M -0.912582449791184 0.999275992136628 L -0.886421447242238 0.993039586489328"  />
<path  style="stroke:hsl(250,63.58776319142968%,44.49912808485642%); " fill="none"   d="M -0.886421447242238 0.993039586489328 L -0.857070284703512 0.980451116340591"  />
<path  style="stroke:hsl(250,62.33751263844378%,44.75497441174744%); " fill="none"   d="M -0.857070284703512 0.980451116340591 L -0.824634594664691 0.961591104939891"  />
<path  style="stroke:hsl(250,61.34129684214475%,45.01691854560944%); " fill="none"   d="M -0.824634594664691 0.961591104939891 L -0.789231110583572 0.936580191998417"  />
<path  style="stroke:hsl(250,60.613444103651176%,45.284855712281455%); " fill="none"   d="M -0.789231110583572 0.936580191998417 L -0.750987246771676 0.905578362006624"  />
<path  style="stroke:hsl(250,60.164422931137686%,45.55867874046924%); " fill="none"   d="M -0.750987246771676 0.905578362006624 L -0.710040639840307 0.868783920879451"  />
<path  style="stroke:hsl(250,60.00069147412596%,45.83827810461245%); " fill="none"   d="M -0.710040639840307 0.868783920879451 L -0.666538653357386 0.826432227475208"  />
<path  style="stroke:hsl(250,60.124604637675105%,46.12354196869339%); " fill="none"   d="M -0.666538653357386 0.826432227475208 L -0.620637847497748 0.778794188102074"  />
<path  style="stroke:hsl(250,60.534380212421965%,46.414356230969865%); " fill="none"   d="M -0.620637847497748 0.778794188102074 L -0.572503415595565 0.726174523642211"  />
<path  style="stroke:hsl(250,61.22412450761412%,46.71060456961446%); " fill="none"   d="M -0.572503415595565 0.726174523642211 L -0.522308589626732 0.668909820378024"  />
<path  style="stroke:hsl(250,62.18391711846277%,47.012168489241624%); " fill="none"   d="M -0.522308589626732 0.668909820378024 L -0.470234016760835 0.607366376988572"  />
<path  style="stroke:hsl(250,63.399953608629026%,47.31892736830432%); " fill="none"   d="M -0.470234016760835 0.607366376988572 L -0.416467109226396 0.541937861488077"  />
<path  style="stroke:hsl(250,64.8547440556815%,47.63075850734097%); " fill="none"   d="M -0.416467109226396 0.541937861488077 L -0.361201369829252 0.47304279309404"  />
<path  style="stroke:hsl(250,66.52736460389784%,47.947537178053686%); " fill="none"   d="M -0.361201369829252 0.47304279309404 L -0.304635695551394 0.401121865132517"  />
<path  style="stroke:hsl(250,68.39375840639711%,48.26913667319779%); " fill="none"   d="M -0.304635695551394 0.401121865132517 L -0.246973661736621 0.326635126104722"  />
<path  style="stroke:hsl(250,70.4270816282317%,48.595428357263216%); " fill="none"   d="M -0.246973661736621 0.326635126104722 L -0.188422789439148 0.250059036946603"  />
<path  style="stroke:hsl(250,72.59808953397138%,48.92628171792679%); " fill="none"   d="M -0.188422789439148 0.250059036946603 L -0.129193798571889 0.171883423304801"  />
<path  style="stroke:hsl(250,74.87555710678761%,49.2615644182556%); " fill="none"   d="M -0.129193798571889 0.171883423304801 L -0.069499849542327 0.092608342324123"  />
<path  style="stroke:hsl(250,77.2267281493863%,49.60114234963986%); " fill="none"   d="M -0.069499849542327 0.092608342324123 L -0.009555776105247 0.012740883988281"  />
<path  style="stroke:hsl(250,79.61778640749284%,49.94487968543469%); " fill="none"   d="M -0.009555776105247 0.012740883988281 L 0.050422687806811 -0.067208072525475"  />
</svg>
