<svg xmlns="http://www.w3.org/2000/svg" viewBox="-1.499999230697499 -1.499902258547975 2.9999811203873543 2.999901489245474"  style="stroke-width:0.12; stroke-linecap:round; background-color:#000000; " > 
<path  style="stroke:hsl(250,50%,50%); " fill="none"   d="M 0 0 L 0.059964006479445 -0.079914693969173"  />
<path  style="stroke:hsl(250,50.70063451911123%,50.34838700129911%); " fill="none"   d="M 0.059964006479445 -0.079914693969173 L 0.119712207288919 -0.159318206614246"  />
<path  style="stroke:hsl(250,51.416146039233055%,50.70063451911123%); " fill="none"   d="M 0.119712207288919 -0.159318206614246 L 0.179029573425824 -0.237702626427135"  />
<path  style="stroke:hsl(250,52.14538989456759%,51.05660165912583%); " fill="none"   d="M 0.179029573425824 -0.237702626427135 L 0.237702626427135 -0.314566560616118"  />
<path  style="stroke:hsl(250,52.88719945051003%,51.416146039233055%); " fill="none"   d="M 0.237702626427135 -0.314566560616118 L 0.29552020666134 -0.38941834230865"  />
<path  style="stroke:hsl(250,53.64038797001513%,51.77912384647473%); " fill="none"   d="M 0.29552020666134 -0.38941834230865 L 0.35227423327509 -0.461779175541483"  />
<path  style="stroke:hsl(250,54.403750512123324%,52.14538989456759%); " fill="none"   d="M 0.35227423327509 -0.461779175541483 L 0.40776045305957 -0.531186197920883"  />
<path  style="stroke:hsl(250,55.17606585960923%,52.51479768197589%); " fill="none"   d="M 0.40776045305957 -0.531186197920883 L 0.461779175541483 -0.597195441362392"  />
<path  style="stroke:hsl(250,55.9560984726687%,52.88719945051003%); " fill="none"   d="M 0.461779175541483 -0.597195441362392 L 0.514135991653113 -0.659384671971473"  />
<path  style="stroke:hsl(250,56.74260046551892%,53.26244624442789%); " fill="none"   d="M 0.514135991653113 -0.659384671971473 L 0.564642473395035 -0.717356090899523"  />
<path  style="stroke:hsl(250,57.534313602749464%,53.64038797001513%); " fill="none"   d="M 0.564642473395035 -0.717356090899523 L 0.613116851973434 -0.770738878898969"  />
<path  style="stroke:hsl(250,58.32997131223057%,54.02087345562066%); " fill="none"   d="M 0.613116851973434 -0.770738878898969 L 0.659384671971473 -0.819191568300998"  />
<path  style="stroke:hsl(250,59.128300711358314%,54.403750512123324%); " fill="none"   d="M 0.659384671971473 -0.819191568300998 L 0.70327941920041 -0.862404227243338"  />
<path  style="stroke:hsl(250,59.9280246433953%,54.788865993805466%); " fill="none"   d="M 0.70327941920041 -0.862404227243338 L 0.744643119970859 -0.900100442176505"  />
<path  style="stroke:hsl(250,60.72786372064892%,55.17606585960923%); " fill="none"   d="M 0.744643119970859 -0.900100442176505 L 0.783326909627483 -0.932039085967226"  />
<path  style="stroke:hsl(250,61.52653837121881%,55.56519523475089%); " fill="none"   d="M 0.783326909627483 -0.932039085967226 L 0.819191568300998 -0.958015860289225"  />
<path  style="stroke:hsl(250,62.32277088603891%,55.9560984726687%); " fill="none"   d="M 0.819191568300998 -0.958015860289225 L 0.852108021949363 -0.977864602435316"  />
<path  style="stroke:hsl(250,63.11528746293937%,56.34861921727948%); " fill="none"   d="M 0.852108021949363 -0.977864602435316 L 0.881957806884948 -0.991458348191686"  />
<path  style="stroke:hsl(250,63.90282024445835%,56.74260046551892%); " fill="none"   d="M 0.881957806884948 -0.991458348191686 L 0.908633496115883 -0.998710143975583"  />
<path  style="stroke:hsl(250,64.68410934614343%,57.13788463014073%); " fill="none"   d="M 0.908633496115883 -0.998710143975583 L 0.932039085967226 -0.999573603041505"  />
<path  style="stroke:hsl(250,65.45790487209806%,57.534313602749464%); " fill="none"   d="M 0.932039085967226 -0.999573603041505 L 0.952090341590516 -0.994043202198076"  />
<path  style="stroke:hsl(250,66.22296891454828%,57.931728817041716%); " fill="none"   d="M 0.952090341590516 -0.994043202198076 L 0.968715100118265 -0.982154317137618"  />
<path  style="stroke:hsl(250,66.9780775342311%,58.32997131223057%); " fill="none"   d="M 0.968715100118265 -0.982154317137618 L 0.98185353037236 -0.963982996152448"  />
<path  style="stroke:hsl(250,67.72202271843632%,58.728881796627775%); " fill="none"   d="M 0.98185353037236 -0.963982996152448 L 0.991458348191686 -0.939645473685325"  />
<path  style="stroke:hsl(250,68.45361431356902%,59.128300711358314%); " fill="none"   d="M 0.991458348191686 -0.939645473685325 L 0.997494986604054 -0.909297426825682"  />
<path  style="stroke:hsl(250,69.17168192914156%,59.528068294181814%); " fill="none"   d="M 0.997494986604054 -0.909297426825682 L 0.999941720229966 -0.873132979507516"  />
<path  style="stroke:hsl(250,69.8750768101486%,59.9280246433953%); " fill="none"   d="M 0.999941720229966 -0.873132979507516 L 0.998789743470524 -0.831383460778683"  />
<path  style="stroke:hsl(250,70.5626736748301%,60.32800978179176%); " fill="none"   d="M 0.998789743470524 -0.831383460778683 L 0.994043202198076 -0.78431592508442"  />
<path  style="stroke:hsl(250,71.23337251488208%,60.72786372064892%); " fill="none"   d="M 0.994043202198076 -0.78431592508442 L 0.985719178835554 -0.732231444030252"  />
<path  style="stroke:hsl(250,71.88610035523523%,61.127426523722534%); " fill="none"   d="M 0.985719178835554 -0.732231444030252 L 0.973847630878195 -0.675463180551151"  />
<path  style="stroke:hsl(250,72.51981297058619%,61.52653837121881%); " fill="none"   d="M 0.973847630878195 -0.675463180551151 L 0.958471283078914 -0.614374257805712"  />
<path  style="stroke:hsl(250,73.13349655593521%,61.925039623720174%); " fill="none"   d="M 0.958471283078914 -0.614374257805712 L 0.939645473685325 -0.549355436427127"  />
<path  style="stroke:hsl(250,73.72616934845789%,62.32277088603891%); " fill="none"   d="M 0.939645473685325 -0.549355436427127 L 0.91743795528181 -0.480822614988648"  />
<path  style="stroke:hsl(250,74.29688319811635%,62.71957307097309%); " fill="none"   d="M 0.91743795528181 -0.480822614988648 L 0.89192865095338 -0.409214169672017"  />
<path  style="stroke:hsl(250,74.8447250844969%,63.11528746293937%); " fill="none"   d="M 0.89192865095338 -0.409214169672017 L 0.863209366648874 -0.334988150155905"  />
<path  style="stroke:hsl(250,75.36881857744804%,63.50975578145709%); " fill="none"   d="M 0.863209366648874 -0.334988150155905 L 0.831383460778683 -0.258619349661111"  />
<path  style="stroke:hsl(250,75.8683252391817%,63.90282024445835%); " fill="none"   d="M 0.831383460778683 -0.258619349661111 L 0.796565472236086 -0.180596267894233"  />
<path  style="stroke:hsl(250,76.34244596559486%,64.29432363139873%); " fill="none"   d="M 0.796565472236086 -0.180596267894233 L 0.758880708180922 -0.101417986316602"  />
<path  style="stroke:hsl(250,76.7904222646656%,64.68410934614343%); " fill="none"   d="M 0.758880708180922 -0.101417986316602 L 0.718464793069126 -0.021590975726096"  />
<path  style="stroke:hsl(250,77.21153746987858%,65.07202147960365%); " fill="none"   d="M 0.718464793069126 -0.021590975726096 L 0.675463180551151 0.05837414342758"  />
<path  style="stroke:hsl(250,77.60511788673861%,65.45790487209806%); " fill="none"   d="M 0.675463180551151 0.05837414342758 L 0.630030629995892 0.137965867271227"  />
<path  style="stroke:hsl(250,77.97053387053802%,65.84160517541473%); " fill="none"   d="M 0.630030629995892 0.137965867271227 L 0.582330649524082 0.21667508038738"  />
<path  style="stroke:hsl(250,78.30720083365401%,66.22296891454828%); " fill="none"   d="M 0.582330649524082 0.21667508038738 L 0.532534907555621 0.293998312415568"  />
<path  style="stroke:hsl(250,78.61458018076405%,66.6018435490878%); " fill="none"   d="M 0.532534907555621 0.293998312415568 L 0.480822614988648 0.369440958544477"  />
<path  style="stroke:hsl(250,78.89218017048351%,66.9780775342311%); " fill="none"   d="M 0.480822614988648 0.369440958544477 L 0.42737988023383 0.442520443294852"  />
<path  style="stroke:hsl(250,79.13955670204703%,67.35152038140052%); " fill="none"   d="M 0.42737988023383 0.442520443294852 L 0.372399039425056 0.512769307355724"  />
<path  style="stroke:hsl(250,79.35631402577494%,67.72202271843632%); " fill="none"   d="M 0.372399039425056 0.512769307355724 L 0.316077964217054 0.579738197728743"  />
<path  style="stroke:hsl(250,79.54210537618837%,68.08943634934369%); " fill="none"   d="M 0.316077964217054 0.579738197728743 L 0.258619349661111 0.642998742053909"  />
<path  style="stroke:hsl(250,79.69663352676005%,68.45361431356902%); " fill="none"   d="M 0.258619349661111 0.642998742053909 L 0.20022998472177 0.702146288730805"  />
<path  style="stroke:hsl(250,79.81965126541331%,68.8144109447823%); " fill="none"   d="M 0.20022998472177 0.702146288730805 L 0.141120008059867 0.756802495307928"  />
<path  style="stroke:hsl(250,79.91096179000867%,69.17168192914156%); " fill="none"   d="M 0.141120008059867 0.756802495307928 L 0.081502151760269 0.80661774858324"  />
<path  style="stroke:hsl(250,79.97041902318533%,69.52528436301664%); " fill="none"   d="M 0.081502151760269 0.80661774858324 L 0.021590975726096 0.851273400935574"  />
<path  style="stroke:hsl(250,79.99792784605373%,69.8750768101486%); " fill="none"   d="M 0.021590975726096 0.851273400935574 L -0.038397904505235 0.890483808581988"  />
<path  style="stroke:hsl(250,79.99344425036554%,70.22091935822243%); " fill="none"   d="M -0.038397904505235 0.890483808581988 L -0.098248593745109 0.923998158723188"  />
<path  style="stroke:hsl(250,79.95697540891739%,70.5626736748301%); " fill="none"   d="M -0.098248593745109 0.923998158723188 L -0.157745694143248 0.951602073889516"  />
<path  style="stroke:hsl(250,79.888579664076%,70.9002030628016%); " fill="none"   d="M -0.157745694143248 0.951602073889516 L -0.21667508038738 0.973118983225174"  />
<path  style="stroke:hsl(250,79.7883664344428%,71.23337251488208%); " fill="none"   d="M -0.21667508038738 0.973118983225174 L -0.274824670323124 0.98841125193913"  />
<path  style="stroke:hsl(250,79.65649603980754%,71.5620487677329%); " fill="none"   d="M -0.274824670323124 0.98841125193913 L -0.331985188220734 0.997381061698093"  />
<path  style="stroke:hsl(250,79.49317944467074%,71.88610035523523%); " fill="none"   d="M -0.331985188220734 0.997381061698093 L -0.38795091794173 0.999971036330024"  />
<path  style="stroke:hsl(250,79.29867792074566%,72.2053976610747%); " fill="none"   d="M -0.38795091794173 0.999971036330024 L -0.442520443294852 0.996164608835841"  />
<path  style="stroke:hsl(250,79.07330262897909%,72.51981297058619%); " fill="none"   d="M -0.442520443294852 0.996164608835841 L -0.495497372916845 0.98598612736167"  />
<path  style="stroke:hsl(250,78.81741412176038%,72.82922052183807%); " fill="none"   d="M -0.495497372916845 0.98598612736167 L -0.546691047069287 0.969500699453809"  />
<path  style="stroke:hsl(250,78.53142176611443%,73.13349655593521%); " fill="none"   d="M -0.546691047069287 0.969500699453809 L -0.595917223807764 0.946813775592609"  />
<path  style="stroke:hsl(250,78.21578308880184%,73.43251936652092%); " fill="none"   d="M -0.595917223807764 0.946813775592609 L -0.642998742053909 0.918070474669267"  />
<path  style="stroke:hsl(250,77.87100304437365%,73.72616934845789%); " fill="none"   d="M -0.642998742053909 0.918070474669267 L -0.687766159183974 0.883454655720153"  />
<path  style="stroke:hsl(250,77.49763320735178%,74.01432904566863%); " fill="none"   d="M -0.687766159183974 0.883454655720153 L -0.7300583608393 0.843187741856417"  />
<path  style="stroke:hsl(250,77.0962708898275%,74.29688319811635%); " fill="none"   d="M -0.7300583608393 0.843187741856417 L -0.769723140764024 0.797527303911704"  />
<path  style="stroke:hsl(250,76.66755818588942%,74.57371878790737%); " fill="none"   d="M -0.769723140764024 0.797527303911704 L -0.80661774858324 0.746765412867812"  />
<path  style="stroke:hsl(250,76.21218094441002%,74.8447250844969%); " fill="none"   d="M -0.80661774858324 0.746765412867812 L -0.840609403550194 0.691226771597127"  />
<path  style="stroke:hsl(250,75.73086767183375%,75.10979368897965%); " fill="none"   d="M -0.840609403550194 0.691226771597127 L -0.871575772413588 0.631266637872322"  />
<path  style="stroke:hsl(250,75.22438836672198%,75.36881857744804%); " fill="none"   d="M -0.871575772413588 0.631266637872322 L -0.899405409685178 0.567268551928969"  />
<path  style="stroke:hsl(250,74.69355328791976%,75.6216961434003%); " fill="none"   d="M -0.899405409685178 0.567268551928969 L -0.923998158723188 0.499641883116902"  />
<path  style="stroke:hsl(250,74.1392116583144%,75.8683252391817%); " fill="none"   d="M -0.923998158723188 0.499641883116902 L -0.945265512188063 0.428819211333396"  />
<path  style="stroke:hsl(250,73.56225030626001%,76.10860721644228%); " fill="none"   d="M -0.945265512188063 0.428819211333396 L -0.963130930573317 0.355253559988043"  />
<path  style="stroke:hsl(250,72.96359224684137%,76.34244596559486%); " fill="none"   d="M -0.963130930573317 0.355253559988043 L -0.977530117665097 0.279415498198926"  />
<path  style="stroke:hsl(250,72.34419520524665%,76.56974795425756%); " fill="none"   d="M -0.977530117665097 0.279415498198926 L -0.98841125193913 0.201790130756129"  />
<path  style="stroke:hsl(250,71.70505008461139%,76.7904222646656%); " fill="none"   d="M -0.98841125193913 0.201790130756129 L -0.995735173062245 0.12287399510655"  />
<path  style="stroke:hsl(250,71.04717938078493%,77.00438063003708%); " fill="none"   d="M -0.995735173062245 0.12287399510655 L -0.999475522827284 0.043171885208729"  />
<path  style="stroke:hsl(250,70.37163554655513%,77.21153746987858%); " fill="none"   d="M -0.999475522827284 0.043171885208729 L -0.999618840014185 -0.036806377425827"  />
<path  style="stroke:hsl(250,69.67949930794842%,77.41180992421624%); " fill="none"   d="M -0.999618840014185 -0.036806377425827 L -0.996164608835841 -0.116549204850494"  />
<path  style="stroke:hsl(250,68.9718779352987%,77.60511788673861%); " fill="none"   d="M -0.996164608835841 -0.116549204850494 L -0.98912526079437 -0.195546515100544"  />
<path  style="stroke:hsl(250,68.24990347185108%,77.79138403683804%); " fill="none"   d="M -0.98912526079437 -0.195546515100544 L -0.978526129941138 -0.273292994977012"  />
<path  style="stroke:hsl(250,67.51473092273403%,77.97053387053802%); " fill="none"   d="M -0.978526129941138 -0.273292994977012 L -0.96440536170153 -0.349291332326735"  />
<path  style="stroke:hsl(250,66.76753640719771%,78.14249573029372%); " fill="none"   d="M -0.96440536170153 -0.349291332326735 L -0.946813775592609 -0.423055397142997"  />
<path  style="stroke:hsl(250,66.00951527707397%,78.30720083365401%); " fill="none"   d="M -0.946813775592609 -0.423055397142997 L -0.925814682327732 -0.494113351138608"  />
<path  style="stroke:hsl(250,65.24188020446847%,78.4645833007736%); " fill="none"   d="M -0.925814682327732 -0.494113351138608 L -0.901483655966355 -0.562010665900743"  />
<path  style="stroke:hsl(250,64.46585924174396%,78.61458018076405%); " fill="none"   d="M -0.901483655966355 -0.562010665900743 L -0.873908261929022 -0.626313030321656"  />
<path  style="stroke:hsl(250,63.682693856898474%,78.75713147687328%); " fill="none"   d="M -0.873908261929022 -0.626313030321656 L -0.843187741856417 -0.686609128707638"  />
<path  style="stroke:hsl(250,62.89363694748141%,78.89218017048351%); " fill="none"   d="M -0.843187741856417 -0.686609128707638 L -0.809432656446619 -0.742513271795802"  />
<path  style="stroke:hsl(250,62.09995083622468%,79.01967224391794%); " fill="none"   d="M -0.809432656446619 -0.742513271795802 L -0.772764487555987 -0.793667863849153"  />
<path  style="stroke:hsl(250,61.3029052515956%,79.13955670204703%); " fill="none"   d="M -0.772764487555987 -0.793667863849153 L -0.733315200995656 -0.83974569004898"  />
<path  style="stroke:hsl(250,60.50377529650226%,79.25178559268599%); " fill="none"   d="M -0.733315200995656 -0.83974569004898 L -0.691226771597127 -0.880452009553034"  />
<path  style="stroke:hsl(250,59.70383940840086%,79.35631402577494%); " fill="none"   d="M -0.691226771597127 -0.880452009553034 L -0.646650672256183 -0.91552644083109"  />
<path  style="stroke:hsl(250,58.904377314068455%,79.45310019133433%); " fill="none"   d="M -0.646650672256183 -0.91552644083109 L -0.599747328794044 -0.944744627218154"  />
<path  style="stroke:hsl(250,58.106667982313176%,79.54210537618837%); " fill="none"   d="M -0.599747328794044 -0.944744627218154 L -0.550685542597638 -0.967919672031486"  />
<path  style="stroke:hsl(250,57.3119875778969%,79.6232939794499%); " fill="none"   d="M -0.550685542597638 -0.967919672031486 L -0.499641883116902 -0.984903334071561"  />
<path  style="stroke:hsl(250,56.52160741994392%,79.69663352676005%); " fill="none"   d="M -0.499641883116902 -0.984903334071561 L -0.44680005240543 -0.995586975859855"  />
<path  style="stroke:hsl(250,55.73679194810152%,79.7620946832778%); " fill="none"   d="M -0.44680005240543 -0.995586975859855 L -0.392350223991454 -0.999902258547975"  />
<path  style="stroke:hsl(250,54.958796699706284%,79.81965126541331%); " fill="none"   d="M -0.392350223991454 -0.999902258547975 L -0.336488358458504 -0.997821579053074"  />
<path  style="stroke:hsl(250,54.188866301192164%,79.86928025130115%); " fill="none"   d="M -0.336488358458504 -0.997821579053074 L -0.279415498198926 -0.989358246623382"  />
<path  style="stroke:hsl(250,53.42823247695373%,79.91096179000867%); " fill="none"   d="M -0.279415498198926 -0.989358246623382 L -0.22133704387836 -0.974566397704435"  />
<path  style="stroke:hsl(250,52.67811207884987%,79.94467920947613%); " fill="none"   d="M -0.22133704387836 -0.974566397704435 L -0.162462015215154 -0.953540649650574"  />
<path  style="stroke:hsl(250,51.9397051395004%,79.97041902318533%); " fill="none"   d="M -0.162462015215154 -0.953540649650574 L -0.103002298735098 -0.926415495496766"  />
<path  style="stroke:hsl(250,51.21419295248986%,79.98817093555394%); " fill="none"   d="M -0.103002298735098 -0.926415495496766 L -0.043171885208729 -0.893364443662152"  />
<path  style="stroke:hsl(250,50.502736182549796%,79.99792784605373%); " fill="none"   d="M -0.043171885208729 -0.893364443662152 L 0.01681390048435 -0.85459890808828"  />
<path  style="stroke:hsl(250,49.806473008742756%,79.99968585205059%); " fill="none"   d="M 0.01681390048435 -0.85459890808828 L 0.076739174292519 -0.810366855911355"  />
<path  style="stroke:hsl(250,49.12651730361862%,79.99344425036554%); " fill="none"   d="M 0.076739174292519 -0.810366855911355 L 0.136388269941598 -0.760951221318774"  />
<path  style="stroke:hsl(250,48.463956851256086%,79.97920553755606%); " fill="none"   d="M 0.136388269941598 -0.760951221318774 L 0.195546515100544 -0.706668095735878"  />
<path  style="stroke:hsl(250,47.81985160704026%,79.95697540891739%); " fill="none"   d="M 0.195546515100544 -0.706668095735878 L 0.254001003970023 -0.647864705919518"  />
<path  style="stroke:hsl(250,47.1952320019601%,79.92676275620462%); " fill="none"   d="M 0.254001003970023 -0.647864705919518 L 0.311541363513378 -0.584917192891762"  />
<path  style="stroke:hsl(250,46.59109729413864%,79.888579664076%); " fill="none"   d="M 0.311541363513378 -0.584917192891762 L 0.367960510572385 -0.518228205920975"  />
<path  style="stroke:hsl(250,46.008413970233214%,79.84244140525928%); " fill="none"   d="M 0.367960510572385 -0.518228205920975 L 0.423055397142997 -0.448224326940585"  />
<path  style="stroke:hsl(250,45.44811419926291%,79.7883664344428%); " fill="none"   d="M 0.423055397142997 -0.448224326940585 L 0.4766277411289 -0.375353341880463"  />
<path  style="stroke:hsl(250,44.91109434133706%,79.72637638089392%); " fill="none"   d="M 0.4766277411289 -0.375353341880463 L 0.528484739942931 -0.300081376365085"  />
<path  style="stroke:hsl(250,44.3982135136702%,79.65649603980754%); " fill="none"   d="M 0.528484739942931 -0.300081376365085 L 0.5784397643882 -0.222889914100248"  />
<path  style="stroke:hsl(250,43.91029221617785%,79.57875336238834%); " fill="none"   d="M 0.5784397643882 -0.222889914100248 L 0.626313030321656 -0.144272717020457"  />
<path  style="stroke:hsl(250,43.448111018851684%,79.49317944467074%); " fill="none"   d="M 0.626313030321656 -0.144272717020457 L 0.671932245682862 -0.064732666897566"  />
<path  style="stroke:hsl(250,43.01240931301402%,79.39980851508088%); " fill="none"   d="M 0.671932245682862 -0.064732666897566 L 0.715133230559358 0.015221451386432"  />
<path  style="stroke:hsl(250,42.603884128449465%,79.29867792074566%); " fill="none"   d="M 0.715133230559358 0.015221451386432 L 0.755760508057054 0.095078204326361"  />
<path  style="stroke:hsl(250,42.22318901830593%,79.1898281125544%); " fill="none"   d="M 0.755760508057054 0.095078204326361 L 0.793667863849153 0.17432678122298"  />
<path  style="stroke:hsl(250,41.87093301354901%,79.07330262897909%); " fill="none"   d="M 0.793667863849153 0.17432678122298 L 0.828718872389835 0.252460261628258"  />
<path  style="stroke:hsl(250,41.547679648642394%,78.94914807865949%); " fill="none"   d="M 0.828718872389835 0.252460261628258 L 0.860787387898902 0.328978857906327"  />
<path  style="stroke:hsl(250,41.25394606001288%,78.81741412176038%); " fill="none"   d="M 0.860787387898902 0.328978857906327 L 0.88975799835036 0.40339311216877"  />
<path  style="stroke:hsl(250,40.99020215874245%,78.67815345010807%); " fill="none"   d="M 0.88975799835036 0.40339311216877 L 0.91552644083109 0.47522702713478"  />
<path  style="stroke:hsl(250,40.756869878810775%,78.53142176611443%); " fill="none"   d="M 0.91552644083109 0.47522702713478 L 0.937999976774739 0.54402111088937"  />
<path  style="stroke:hsl(250,40.55432250209085%,78.3772777604967%); " fill="none"   d="M 0.937999976774739 0.54402111088937 L 0.957097725720417 0.609335316063561"  />
<path  style="stroke:hsl(250,40.38288406117762%,78.21578308880184%); " fill="none"   d="M 0.957097725720417 0.609335316063561 L 0.972750956395014 0.670751854635837"  />
<path  style="stroke:hsl(250,40.24282882100497%,78.04700234674536%); " fill="none"   d="M 0.972750956395014 0.670751854635837 L 0.984903334071561 0.727877870349737"  />
<path  style="stroke:hsl(250,40.13438084008031%,77.87100304437365%); " fill="none"   d="M 0.984903334071561 0.727877870349737 L 0.993511123313416 0.780347951653232"  />
<path  style="stroke:hsl(250,40.057713612038796%,77.68785557906106%); " fill="none"   d="M 0.993511123313416 0.780347951653232 L 0.998543345374605 0.827826469085654"  />
<path  style="stroke:hsl(250,40.01294978809047%,77.49763320735178%); " fill="none"   d="M 0.998543345374605 0.827826469085654 L 0.999981889689856 0.870009722160873"  />
<path  style="stroke:hsl(250,40.000160980804566%,77.30041201565822%); " fill="none"   d="M 0.999981889689856 0.870009722160873 L 0.997821579053074 0.906627882013998"  />
<path  style="stroke:hsl(250,40.01936764954459%,77.0962708898275%); " fill="none"   d="M 0.997821579053074 0.906627882013998 L 0.992070188249698 0.937446717385293"  />
<path  style="stroke:hsl(250,40.07053906773777%,76.88529148358806%); " fill="none"   d="M 0.992070188249698 0.937446717385293 L 0.982748416075862 0.962269092900902"  />
<path  style="stroke:hsl(250,40.15359337203099%,76.66755818588942%); " fill="none"   d="M 0.982748416075862 0.962269092900902 L 0.969889810845086 0.980936230066492"  />
<path  style="stroke:hsl(250,40.268397693254684%,76.44315808714757%); " fill="none"   d="M 0.969889810845086 0.980936230066492 L 0.953540649650574 0.993328722907774"  />
<path  style="stroke:hsl(250,40.414768368985165%,76.21218094441002%); " fill="none"   d="M 0.953540649650574 0.993328722907774 L 0.933759771817651 0.99936730176125"  />
<path  style="stroke:hsl(250,40.59247123736536%,75.97471914545427%); " fill="none"   d="M 0.933759771817651 0.99936730176125 L 0.91061836714573 0.999013340329543"  />
<path  style="stroke:hsl(250,40.80122201171376%,75.73086767183375%); " fill="none"   d="M 0.91061836714573 0.999013340329543 L 0.884199719701913 0.992269102757886"  />
<path  style="stroke:hsl(250,41.040686735322566%,75.48072406088659%); " fill="none"   d="M 0.884199719701913 0.992269102757886 L 0.85459890808828 0.979177729151317"  />
<path  style="stroke:hsl(250,41.31048231571705%,75.22438836672198%); " fill="none"   d="M 0.85459890808828 0.979177729151317 L 0.821922463261602 0.959822959625228"  />
<path  style="stroke:hsl(250,41.61017713752194%,74.96196312019981%); " fill="none"   d="M 0.821922463261602 0.959822959625228 L 0.786287985136929 0.934328598654398"  />
<path  style="stroke:hsl(250,41.9392917529538%,74.69355328791976%); " fill="none"   d="M 0.786287985136929 0.934328598654398 L 0.74782371935489 0.90285772314685"  />
<path  style="stroke:hsl(250,42.29729964883533%,74.41926623023596%); " fill="none"   d="M 0.74782371935489 0.90285772314685 L 0.706668095735878 0.865611639308158"  />
<path  style="stroke:hsl(250,42.68362808890406%,74.1392116583144%); " fill="none"   d="M 0.706668095735878 0.865611639308158 L 0.662969230082183 0.822828594968709"  />
<path  style="stroke:hsl(250,43.097659030068215%,73.8535015902498%); " fill="none"   d="M 0.662969230082183 0.822828594968709 L 0.616884391121045 0.774782255610634"  />
<path  style="stroke:hsl(250,43.538730111143835%,73.56225030626001%); " fill="none"   d="M 0.616884391121045 0.774782255610634 L 0.56857943450707 0.721779953842635"  />
<path  style="stroke:hsl(250,44.00613571249133%,73.26557430297531%); " fill="none"   d="M 0.56857943450707 0.721779953842635 L 0.518228205920975 0.664160723520095"  />
<path  style="stroke:hsl(250,44.49912808485642%,72.96359224684137%); " fill="none"   d="M 0.518228205920975 0.664160723520095 L 0.466011915412871 0.602293131085391"  />
<path  style="stroke:hsl(250,45.01691854560944%,72.6564249266543%); " fill="none"   d="M 0.466011915412871 0.602293131085391 L 0.412118485241757 0.536572918000435"  />
<path  style="stroke:hsl(250,45.55867874046924%,72.34419520524665%); " fill="none"   d="M 0.412118485241757 0.536572918000435 L 0.356741873558329 0.467420469351827"  />
<path  style="stroke:hsl(250,46.12354196869339%,72.02702797034397%); " fill="none"   d="M 0.356741873558329 0.467420469351827 L 0.300081376365085 0.39527812482091"  />
<path  style="stroke:hsl(250,46.71060456961446%,71.70505008461139%); " fill="none"   d="M 0.300081376365085 0.39527812482091 L 0.242340910265924 0.320607349219338"  />
<path  style="stroke:hsl(250,47.31892736830432%,71.37839033491022%); " fill="none"   d="M 0.242340910265924 0.320607349219338 L 0.183728278586583 0.243885780689082"  />
<path  style="stroke:hsl(250,47.947537178053686%,71.04717938078493%); " fill="none"   d="M 0.183728278586583 0.243885780689082 L 0.124454423507062 0.165604175448309"  />
<path  style="stroke:hsl(250,48.595428357263216%,70.71154970220108%); " fill="none"   d="M 0.124454423507062 0.165604175448309 L 0.064732666897566 0.086263268626344"  />
<path  style="stroke:hsl(250,49.2615644182556%,70.37163554655513%); " fill="none"   d="M 0.064732666897566 0.086263268626344 L 0.004777942590129 0.006370571267652"  />
<path  style="stroke:hsl(250,49.94487968543469%,70.02757287497717%); " fill="none"   d="M 0.004777942590129 0.006370571267652 L -0.055193977151075 -0.073562876006908"  />
<path  style="stroke:hsl(250,50.64428100013916%,69.67949930794842%); " fill="none"   d="M -0.055193977151075 -0.073562876006908 L -0.114967258176875 -0.153025771916079"  />
<path  style="stroke:hsl(250,51.35864946946312%,69.32755407025475%); " fill="none"   d="M -0.114967258176875 -0.153025771916079 L -0.17432678122298 -0.231509825101539"  />
<path  style="stroke:hsl(250,52.08684225624615%,68.9718779352987%); " fill="none"   d="M -0.17432678122298 -0.231509825101539 L -0.233058916107014 -0.308513005457991"  />
<path  style="stroke:hsl(250,52.827694407368895%,68.612613168792%); " fill="none"   d="M -0.233058916107014 -0.308513005457991 L -0.290952290566491 -0.38354275541261"  />
<path  style="stroke:hsl(250,53.5800207174296%,68.24990347185108%); " fill="none"   d="M -0.290952290566491 -0.38354275541261 L -0.347798550970695 -0.456119140612603"  />
<path  style="stroke:hsl(250,54.34261762481985%,67.88389392351867%); " fill="none"   d="M -0.347798550970695 -0.456119140612603 L -0.40339311216877 -0.525777919867246"  />
<path  style="stroke:hsl(250,55.11426513716654%,67.51473092273403%); " fill="none"   d="M -0.40339311216877 -0.525777919867246 L -0.457535893775321 -0.592073514707223"  />
<path  style="stroke:hsl(250,55.89372878305925%,67.14256212977538%); " fill="none"   d="M -0.457535893775321 -0.592073514707223 L -0.510032040243754 -0.654581859566251"  />
<path  style="stroke:hsl(250,56.679761586941254%,66.76753640719771%); " fill="none"   d="M -0.510032040243754 -0.654581859566251 L -0.560692622135816 -0.712903114353539"  />
<path  style="stroke:hsl(250,57.4711060640044%,66.38980376028978%); " fill="none"   d="M -0.560692622135816 -0.712903114353539 L -0.609335316063561 -0.766664222065866"  />
<path  style="stroke:hsl(250,58.26649623189654%,66.00951527707397%); " fill="none"   d="M -0.609335316063561 -0.766664222065866 L -0.655785060856654 -0.815521295079313"  />
<path  style="stroke:hsl(250,59.06465963602323%,65.62682306787315%); " fill="none"   d="M -0.655785060856654 -0.815521295079313 L -0.699874687593542 -0.859161814856496"  />
<path  style="stroke:hsl(250,59.86431938520365%,65.24188020446847%); " fill="none"   d="M -0.699874687593542 -0.859161814856496 L -0.74144552122906 -0.897306630998707"  />
<path  style="stroke:hsl(250,60.664196194424086%,64.85484065887282%); " fill="none"   d="M -0.74144552122906 -0.897306630998707 L -0.780347951653232 -0.929711746855837"  />
<path  style="stroke:hsl(250,61.463010431421075%,64.46585924174396%); " fill="none"   d="M -0.780347951653232 -0.929711746855837 L -0.816441972126112 -0.956169880272267"  />
<path  style="stroke:hsl(250,62.259484163820034%,64.0750915404624%); " fill="none"   d="M -0.816441972126112 -0.956169880272267 L -0.849597683150864 -0.976511789485298"  />
<path  style="stroke:hsl(250,63.052343203554464%,63.682693856898474%); " fill="none"   d="M -0.849597683150864 -0.976511789485298 L -0.87969575997167 -0.99060735569487"  />
<path  style="stroke:hsl(250,63.840319145295034%,63.288823144893726%); " fill="none"   d="M -0.87969575997167 -0.99060735569487 L -0.906627882013998 -0.998366415379848"  />
<path  style="stroke:hsl(250,64.62215139562753%,62.89363694748141%); " fill="none"   d="M -0.906627882013998 -0.998366415379848 L -0.930297122721696 -0.999739337036853"  />
<path  style="stroke:hsl(250,65.39658918973338%,62.49729333387142%); " fill="none"   d="M -0.930297122721696 -0.999739337036853 L -0.95061829838793 -0.994717338652522"  />
<path  style="stroke:hsl(250,66.16239359234662%,62.09995083622468%); " fill="none"   d="M -0.95061829838793 -0.994717338652522 L -0.967518274724538 -0.983332543878415"  />
<path  style="stroke:hsl(250,66.91833947978597%,61.701768386242414%); " fill="none"   d="M -0.967518274724538 -0.983332543878415 L -0.980936230066492 -0.965657776549278"  />
<path  style="stroke:hsl(250,67.66321749989136%,61.3029052515956%); " fill="none"   d="M -0.980936230066492 -0.965657776549278 L -0.990823874264213 -0.941806094859012"  />
<path  style="stroke:hsl(250,68.39583600672948%,60.90352097221998%); " fill="none"   d="M -0.990823874264213 -0.941806094859012 L -0.997145622475965 -0.911930068174061"  />
<path  style="stroke:hsl(250,69.11502296697299%,60.50377529650226%); " fill="none"   d="M -0.997145622475965 -0.911930068174061 L -0.999878723234854 -0.876220801110125"  />
<path  style="stroke:hsl(250,69.81962783490387%,60.10382811738286%); " fill="none"   d="M -0.999878723234854 -0.876220801110125 L -0.999013340329543 -0.83490671111478"  />
<path  style="stroke:hsl(250,70.50852339304112%,59.70383940840086%); " fill="none"   d="M -0.999013340329543 -0.83490671111478 L -0.994552588203989 -0.788252067375316"  />
<path  style="stroke:hsl(250,71.18060755544826%,59.303969159706746%); " fill="none"   d="M -0.994552588203989 -0.788252067375316 L -0.98651252074881 -0.736555300397785"  />
<path  style="stroke:hsl(250,71.83480513083575%,58.904377314068455%); " fill="none"   d="M -0.98651252074881 -0.736555300397785 L -0.974922073524615 -0.680147093070186"  />
<path  style="stroke:hsl(250,72.47006954263769%,58.50522370289644%); " fill="none"   d="M -0.974922073524615 -0.680147093070186 L -0.959822959625228 -0.619388265420471"  />
<path  style="stroke:hsl(250,73.08538450331102%,58.106667982313176%); " fill="none"   d="M -0.959822959625228 -0.619388265420471 L -0.941269519555602 -0.554667466599703"  />
<path  style="stroke:hsl(250,73.67976564017889%,57.7088695692929%); " fill="none"   d="M -0.941269519555602 -0.554667466599703 L -0.919328525664676 -0.4863986888538"  />
<path  style="stroke:hsl(250,74.25226207021683%,57.3119875778969%); " fill="none"   d="M -0.919328525664676 -0.4863986888538 L -0.894078941837027 -0.415018619385946"  />
<path  style="stroke:hsl(250,74.80195792126284%,56.91618075563006%); " fill="none"   d="M -0.894078941837027 -0.415018619385946 L -0.865611639308158 -0.340983847048736"  />
<path  style="stroke:hsl(250,75.32797379721744%,56.52160741994392%); " fill="none"   d="M -0.865611639308158 -0.340983847048736 L -0.834029069626173 -0.264767941733678"  />
<path  style="stroke:hsl(250,75.82946818488985%,56.12842539491186%); " fill="none"   d="M -0.834029069626173 -0.264767941733678 L -0.799444895936846 -0.186858425139989"  />
<path  style="stroke:hsl(250,76.30563880023955%,55.73679194810152%); " fill="none"   d="M -0.799444895936846 -0.186858425139989 L -0.761983583919033 -0.107753652299444"  />
<path  style="stroke:hsl(250,76.75572387185963%,55.346863727669934%); " fill="none"   d="M -0.761983583919033 -0.107753652299444 L -0.721779953842635 -0.027959623804861"  />
<path  style="stroke:hsl(250,77.17900335964852%,54.958796699706284%); " fill="none"   d="M -0.721779953842635 -0.027959623804861 L -0.678978695361217 0.052013250866914"  />
<path  style="stroke:hsl(250,77.57480010672057%,54.572746085847605%); " fill="none"   d="M -0.678978695361217 0.052013250866914 L -0.633733846785499 0.131653418233833"  />
<path  style="stroke:hsl(250,77.94248092271259%,54.188866301192164%); " fill="none"   d="M -0.633733846785499 0.131653418233833 L -0.586208240711783 0.2104514530052"  />
<path  style="stroke:hsl(250,78.2814575967534%,53.8073108925355%); " fill="none"   d="M -0.586208240711783 0.2104514530052 L -0.536572918000435 0.287903316665065"  />
<path  style="stroke:hsl(250,78.5911878384757%,53.42823247695373%); " fill="none"   d="M -0.536572918000435 0.287903316665065 L -0.485006512213502 0.363513581598639"  />
<path  style="stroke:hsl(250,78.87117614556499%,53.05178268075879%); " fill="none"   d="M -0.485006512213502 0.363513581598639 L -0.431694606726782 0.436798600138338"  />
<path  style="stroke:hsl(250,79.12097459645759%,52.67811207884987%); " fill="none"   d="M -0.431694606726782 0.436798600138338 L -0.376829066830075 0.507289598258339"  />
<path  style="stroke:hsl(250,79.34018356691953%,52.30737013448555%); " fill="none"   d="M -0.376829066830075 0.507289598258339 L -0.320607349219338 0.574535674128631"  />
<path  style="stroke:hsl(250,79.52845236936021%,51.9397051395004%); " fill="none"   d="M -0.320607349219338 0.574535674128631 L -0.263231791365801 0.638106682347947"  />
<path  style="stroke:hsl(250,79.68547981385754%,51.57526415499029%); " fill="none"   d="M -0.263231791365801 0.638106682347947 L -0.204908883319571 0.697595985406447"  />
<path  style="stroke:hsl(250,79.81101468999779%,51.21419295248986%); " fill="none"   d="M -0.204908883319571 0.697595985406447 L -0.145848524568428 0.752623054778058"  />
<path  style="stroke:hsl(250,79.90485616875841%,50.856635955665915%); " fill="none"   d="M -0.145848524568428 0.752623054778058 L -0.086263268626344 0.80283590500447"  />
<path  style="stroke:hsl(250,79.9668541237919%,50.502736182549796%); " fill="none"   d="M -0.086263268626344 0.80283590500447 L -0.026367558070358 0.847913345200867"  />
<path  style="stroke:hsl(250,79.99690937159568%,50.15263518833218%); " fill="none"   d="M -0.026367558070358 0.847913345200867 L 0.033623047221137 0.887567033581505"  />
<path  style="stroke:hsl(250,79.99497383018473%,49.806473008742756%); " fill="none"   d="M 0.033623047221137 0.887567033581505 L 0.093492645851169 0.921543321863127"  />
<path  style="stroke:hsl(250,79.9610505960124%,49.46438810403798%); " fill="none"   d="M 0.093492645851169 0.921543321863127 L 0.153025771916079 0.949624877748395"  />
<path  style="stroke:hsl(250,79.89519393901682%,49.12651730361862%); " fill="none"   d="M 0.153025771916079 0.949624877748395 L 0.212008170450093 0.971632075110905"  />
<path  style="stroke:hsl(250,79.79750921580049%,48.79299575129998%); " fill="none"   d="M 0.212008170450093 0.971632075110905 L 0.270227568511837 0.987424142989415"  />
<path  style="stroke:hsl(250,79.66815270108225%,48.463956851256086%); " fill="none"   d="M 0.270227568511837 0.987424142989415 L 0.327474439137693 0.996900066041596"  />
<path  style="stroke:hsl(250,79.5073313376911%,48.13953221465985%); " fill="none"   d="M 0.327474439137693 0.996900066041596 L 0.38354275541261 0.999999230697499"  />
<path  style="stroke:hsl(250,79.31530240550171%,47.81985160704026%); " fill="none"   d="M 0.38354275541261 0.999999230697499 L 0.438230731944512 0.996701812879551"  />
<path  style="stroke:hsl(250,79.09237310984162%,47.50504289637807%); " fill="none"   d="M 0.438230731944512 0.996701812879551 L 0.491341551073814 0.987028904809002"  />
<path  style="stroke:hsl(250,78.83890009002813%,47.1952320019601%); " fill="none"   d="M 0.491341551073814 0.987028904809002 L 0.542684071204453 0.971042380087687"  />
<path  style="stroke:hsl(250,78.55528884882165%,46.890542844013396%); " fill="none"   d="M 0.542684071204453 0.971042380087687 L 0.592073514707223 0.948844497918124"  />
<path  style="stroke:hsl(250,78.24199310370753%,46.59109729413864%); " fill="none"   d="M 0.592073514707223 0.948844497918124 L 0.639332132919717 0.92057724899359"  />
<path  style="stroke:hsl(250,77.89951406104514%,46.29701512656326%); " fill="none"   d="M 0.639332132919717 0.92057724899359 L 0.684289845849551 0.886421447242238"  />
<path  style="stroke:hsl(250,77.5283996142444%,46.008413970233214%); " fill="none"   d="M 0.684289845849551 0.886421447242238 L 0.726784854278682 0.846595573235013"  />
<path  style="stroke:hsl(250,77.1292434672534%,45.72540926176309%); " fill="none"   d="M 0.726784854278682 0.846595573235013 L 0.766664222065866 0.801354376655569"  />
<path  style="stroke:hsl(250,76.70268418475848%,45.44811419926291%); " fill="none"   d="M 0.766664222065866 0.801354376655569 L 0.803784426551621 0.750987246771676"  />
<path  style="stroke:hsl(250,76.24940417061723%,45.17663969706049%); " fill="none"   d="M 0.803784426551621 0.750987246771676 L 0.838011875084807 0.695816361331457"  />
<path  style="stroke:hsl(250,75.77012857615767%,44.91109434133706%); " fill="none"   d="M 0.838011875084807 0.695816361331457 L 0.869223385811912 0.636194625725274"  />
<path  style="stroke:hsl(250,75.26562414009092%,44.65158434669438%); " fill="none"   d="M 0.869223385811912 0.636194625725274 L 0.897306630998707 0.572503415595565"  />
<path  style="stroke:hsl(250,74.73669796189283%,44.3982135136702%); " fill="none"   d="M 0.897306630998707 0.572503415595565 L 0.922160541288786 0.505150137334196"  />
<path  style="stroke:hsl(250,74.18419621061693%,44.1510831872195%); " fill="none"   d="M 0.922160541288786 0.505150137334196 L 0.943695669444105 0.434565622071897"  />
<path  style="stroke:hsl(250,73.60900277120454%,43.91029221617785%); " fill="none"   d="M 0.943695669444105 0.434565622071897 L 0.961834512258452 0.361201369829252"  />
<path  style="stroke:hsl(250,73.01203783045729%,43.67593691372314%); " fill="none"   d="M 0.961834512258452 0.361201369829252 L 0.976511789485298 0.285526661457391"  />
<path  style="stroke:hsl(250,72.3942564049347%,43.448111018851684%); " fill="none"   d="M 0.976511789485298 0.285526661457391 L 0.98767467877618 0.20802555684198"  />
<path  style="stroke:hsl(250,71.7566468131312%,43.226905658883766%); " fill="none"   d="M 0.98767467877618 0.20802555684198 L 0.995283005784127 0.129193798571889"  />
<path  style="stroke:hsl(250,71.10022909437761%,43.01240931301402%); " fill="none"   d="M 0.995283005784127 0.129193798571889 L 0.999309388747918 0.049535640878367"  />
<path  style="stroke:hsl(250,70.42605337699557%,42.80470777692088%); " fill="none"   d="M 0.999309388747918 0.049535640878367 L 0.999739337036853 -0.030439375871184"  />
<path  style="stroke:hsl(250,69.73519819831645%,42.603884128449465%); " fill="none"   d="M 0.999739337036853 -0.030439375871184 L 0.996571303301382 -0.110219684492737"  />
<path  style="stroke:hsl(250,69.02876877925154%,42.41001869438155%); " fill="none"   d="M 0.996571303301382 -0.110219684492737 L 0.989816689041886 -0.189294963269806"  />
<path  style="stroke:hsl(250,68.30789525617445%,42.22318901830593%); " fill="none"   d="M 0.989816689041886 -0.189294963269806 L 0.979499803575591 -0.267159400270935"  />
<path  style="stroke:hsl(250,67.57373087294393%,42.04346982960199%); " fill="none"   d="M 0.979499803575591 -0.267159400270935 L 0.965657776549278 -0.343314928819895"  />
<path  style="stroke:hsl(250,66.82745013595981%,41.87093301354901%); " fill="none"   d="M 0.965657776549278 -0.343314928819895 L 0.948340424312644 -0.417274413422736"  />
<path  style="stroke:hsl(250,66.07024693520314%,41.70564758257294%); " fill="none"   d="M 0.948340424312644 -0.417274413422736 L 0.927610070633246 -0.488564765772518"  />
<path  style="stroke:hsl(250,65.30333263426712%,41.547679648642394%); " fill="none"   d="M 0.927610070633246 -0.488564765772518 L 0.903541322398234 -0.556729970900038"  />
<path  style="stroke:hsl(250,64.52793413243354%,41.397092396824725%); " fill="none"   d="M 0.903541322398234 -0.556729970900038 L 0.876220801110125 -0.621334004113409"  />
<path  style="stroke:hsl(250,63.74529190189586%,41.25394606001288%); " fill="none"   d="M 0.876220801110125 -0.621334004113409 L 0.845746831142934 -0.681963620068136"  />
<path  style="stroke:hsl(250,62.9566580032681%,41.11829789483296%); " fill="none"   d="M 0.845746831142934 -0.681963620068136 L 0.812229085880604 -0.738230996127046"  />
<path  style="stroke:hsl(250,62.163294082555225%,40.99020215874245%); " fill="none"   d="M 0.812229085880604 -0.738230996127046 L 0.775788193011259 -0.78977621310171"  />
<path  style="stroke:hsl(250,61.36646935278835%,40.869710088327835%); " fill="none"   d="M 0.775788193011259 -0.78977621310171 L 0.736555300397785 -0.836269557506963"  />
<path  style="stroke:hsl(250,60.56745856355496%,40.756869878810775%); " fill="none"   d="M 0.736555300397785 -0.836269557506963 L 0.694671604087154 -0.877413630602046"  />
<path  style="stroke:hsl(250,59.76753996167122%,40.651726664770536%); " fill="none"   d="M 0.694671604087154 -0.877413630602046 L 0.650287840157117 -0.912945250727628"  />
<path  style="stroke:hsl(250,58.96799324626001%,40.55432250209085%); " fill="none"   d="M 0.650287840157117 -0.912945250727628 L 0.603563742229109 -0.942637136770298"  />
<path  style="stroke:hsl(250,58.17009752150508%,40.46469635113809%); " fill="none"   d="M 0.603563742229109 -0.942637136770298 L 0.554667466599703 -0.96629936198607"  />
<path  style="stroke:hsl(250,57.37512925035733%,40.38288406117762%); " fill="none"   d="M 0.554667466599703 -0.96629936198607 L 0.50377498705952 -0.983780568883396"  />
<path  style="stroke:hsl(250,56.58436021246649%,40.30891835603463%); " fill="none"   d="M 0.50377498705952 -0.983780568883396 L 0.451069461577624 -0.994968937394591"  />
<path  style="stroke:hsl(250,55.7990554696047%,40.24282882100497%); " fill="none"   d="M 0.451069461577624 -0.994968937394591 L 0.396740573130612 -0.999792900142669"  />
<path  style="stroke:hsl(250,55.02047134183788%,40.18464189102147%); " fill="none"   d="M 0.396740573130612 -0.999792900142669 L 0.340983847048736 -0.998221600228323"  />
<path  style="stroke:hsl(250,54.24985339768129%,40.13438084008031%); " fill="none"   d="M 0.340983847048736 -0.998221600228323 L 0.283999947335849 -0.990265088608778"  />
<path  style="stroke:hsl(250,53.48843446145593%,40.09206577193173%); " fill="none"   d="M 0.283999947335849 -0.990265088608778 L 0.225993954495693 -0.975974259805966"  />
<path  style="stroke:hsl(250,52.737432641032306%,40.057713612038796%); " fill="none"   d="M 0.225993954495693 -0.975974259805966 L 0.167174627463537 -0.955440526355268"  />
<path  style="stroke:hsl(250,51.99804937911799%,40.03133810080743%); " fill="none"   d="M 0.167174627463537 -0.955440526355268 L 0.107753652299444 -0.92879523407724"  />
<path  style="stroke:hsl(250,51.27146753120529%,40.01294978809047%); " fill="none"   d="M 0.107753652299444 -0.92879523407724 L 0.047944880347054 -0.896208821912602"  />
<path  style="stroke:hsl(250,50.55884947325508%,40.00255602896783%); " fill="none"   d="M 0.047944880347054 -0.896208821912602 L -0.012036441400329 -0.857889731694642"  />
<path  style="stroke:hsl(250,49.86133524214293%,40.000160980804566%); " fill="none"   d="M -0.012036441400329 -0.857889731694642 L -0.071974444956465 -0.81408307483283"  />
<path  style="stroke:hsl(250,49.180040711843596%,40.00576560158801%); " fill="none"   d="M -0.071974444956465 -0.81408307483283 L -0.131653418233833 -0.765069064436253"  />
<path  style="stroke:hsl(250,48.516055808270394%,40.01936764954459%); " fill="none"   d="M -0.131653418233833 -0.765069064436253 L -0.190858581374189 -0.711161222905982"  />
<path  style="stroke:hsl(250,47.87044276562656%,40.040961684036475%); " fill="none"   d="M -0.190858581374189 -0.711161222905982 L -0.249376859724133 -0.652704376461626"  />
<path  style="stroke:hsl(250,47.24423442705682%,40.07053906773777%); " fill="none"   d="M -0.249376859724133 -0.652704376461626 L -0.30699765067376 -0.590072449430293"  />
<path  style="stroke:hsl(250,46.63843259231895%,40.10808797008938%); " fill="none"   d="M -0.30699765067376 -0.590072449430293 L -0.363513581598639 -0.523666072406936"  />
<path  style="stroke:hsl(250,46.054006415117655%,40.15359337203099%); " fill="none"   d="M -0.363513581598639 -0.523666072406936 L -0.418721256177326 -0.453910019585758"  />
<path  style="stroke:hsl(250,45.49189085266557%,40.20703707200856%); " fill="none"   d="M -0.418721256177326 -0.453910019585758 L -0.472421986398466 -0.38125049165494"  />
<path  style="stroke:hsl(250,44.95298516995098%,40.268397693254684%); " fill="none"   d="M -0.472421986398466 -0.38125049165494 L -0.524422507623098 -0.306152261634959"  />
<path  style="stroke:hsl(250,44.43815150110585%,40.33765069233897%); " fill="none"   d="M -0.524422507623098 -0.306152261634959 L -0.574535674128631 -0.229095701917322"  />
<path  style="stroke:hsl(250,43.94821347017497%,40.414768368985165%); " fill="none"   d="M -0.574535674128631 -0.229095701917322 L -0.622581132631374 -0.15057371152061"  />
<path  style="stroke:hsl(250,43.48395487349333%,40.499719877150824%); " fill="none"   d="M -0.622581132631374 -0.15057371152061 L -0.668385971363588 -0.0710885632188"  />
<path  style="stroke:hsl(250,43.04611842577904%,40.59247123736536%); " fill="none"   d="M -0.668385971363588 -0.0710885632188 L -0.711785342369123 0.008851309290404"  />
<path  style="stroke:hsl(250,42.63540457194834%,40.69298535032134%); " fill="none"   d="M -0.711785342369123 0.008851309290404 L -0.752623054778058 0.088734563626174"  />
<path  style="stroke:hsl(250,42.25247036655307%,40.80122201171376%); " fill="none"   d="M -0.752623054778058 0.088734563626174 L -0.790752136925159 0.168050219570776"  />
<path  style="stroke:hsl(250,41.897928422633555%,40.91713792832121%); " fill="none"   d="M -0.790752136925159 0.168050219570776 L -0.82603536528916 0.246290927599182"  />
<path  style="stroke:hsl(250,41.57234593166853%,41.040686735322566%); " fill="none"   d="M -0.82603536528916 0.246290927599182 L -0.858345758349268 0.322956214184666"  />
<path  style="stroke:hsl(250,41.276243756189615%,41.17181901484231%); " fill="none"   d="M -0.858345758349268 0.322956214184666 L -0.887567033581505 0.397555683121433"  />
<path  style="stroke:hsl(250,41.01009559651251%,41.31048231571705%); " fill="none"   d="M -0.887567033581505 0.397555683121433 L -0.913594025950221 0.469612152386833"  />
<path  style="stroke:hsl(250,40.774327232917415%,41.45662117447527%); " fill="none"   d="M -0.913594025950221 0.469612152386833 L -0.936333066388672 0.538664706477846"  />
<path  style="stroke:hsl(250,40.56931584449155%,41.61017713752194%); " fill="none"   d="M -0.936333066388672 0.538664706477846 L -0.955702318906493 0.604271644697403"  />
<path  style="stroke:hsl(250,40.39538940572294%,41.77108878451923%); " fill="none"   d="M -0.955702318906493 0.604271644697403 L -0.971632075110905 0.666013306531474"  />
<path  style="stroke:hsl(250,40.252826161811306%,41.9392917529538%); " fill="none"   d="M -0.971632075110905 0.666013306531474 L -0.984065005081643 0.723494756044245"  />
<path  style="stroke:hsl(250,40.14185418353502%,42.11471876388096%); " fill="none"   d="M -0.984065005081643 0.723494756044245 L -0.992956363696766 0.776348308120325"  />
<path  style="stroke:hsl(250,40.06265100238657%,42.29729964883533%); " fill="none"   d="M -0.992956363696766 0.776348308120325 L -0.998274151666775 0.824235880394741"  />
<path  style="stroke:hsl(250,40.01534332656003%,42.486961377897316%); " fill="none"   d="M -0.998274151666775 0.824235880394741 L -0.999999230697499 0.866851155826312"  />
<path  style="stroke:hsl(250,40.00000683824494%,42.68362808890406%); " fill="none"   d="M -0.999999230697499 0.866851155826312 L -0.99812539236729 0.903921542081392"  />
<path  style="stroke:hsl(250,40.016666072551004%,42.88722111779337%); " fill="none"   d="M -0.99812539236729 0.903921542081392 L -0.992659380470633 0.935209915194539"  />
<path  style="stroke:hsl(250,40.06529437825709%,43.097659030068215%); " fill="none"   d="M -0.992659380470633 0.935209915194539 L -0.983620866747772 0.960516136352698"  />
<path  style="stroke:hsl(250,40.1458139604476%,43.3148576533695%); " fill="none"   d="M -0.983620866747772 0.960516136352698 L -0.971042380087687 0.979678332100598"  />
<path  style="stroke:hsl(250,40.25809600496757%,43.538730111143835%); " fill="none"   d="M -0.971042380087687 0.979678332100598 L -0.954969189459218 0.992573929778464"  />
<path  style="stroke:hsl(250,40.40196088449803%,43.769186857393045%); " fill="none"   d="M -0.954969189459218 0.992573929778464 L -0.935459140991664 0.999120441568739"  />
<path  style="stroke:hsl(250,40.577178445921255%,44.00613571249133%); " fill="none"   d="M -0.935459140991664 0.999120441568739 L -0.912582449791184 0.999275992136628"  />
<path  style="stroke:hsl(250,40.78346837851673%,44.24948190005595%); " fill="none"   d="M -0.912582449791184 0.999275992136628 L -0.886421447242238 0.993039586489328"  />
<path  style="stroke:hsl(250,41.020500662398454%,44.49912808485642%); " fill="none"   d="M -0.886421447242238 0.993039586489328 L -0.857070284703512 0.980451116340591"  />
<path  style="stroke:hsl(250,41.28789609647643%,44.75497441174744%); " fill="none"   d="M -0.857070284703512 0.980451116340591 L -0.824634594664691 0.961591104939891"  />
<path  style="stroke:hsl(250,41.585226905097436%,45.01691854560944%); " fill="none"   d="M -0.824634594664691 0.961591104939891 L -0.789231110583572 0.936580191998417"  />
<path  style="stroke:hsl(250,41.91201742239488%,45.284855712281455%); " fill="none"   d="M -0.789231110583572 0.936580191998417 L -0.750987246771676 0.905578362006624"  />
<path  style="stroke:hsl(250,42.26774485325266%,45.55867874046924%); " fill="none"   d="M -0.750987246771676 0.905578362006624 L -0.710040639840307 0.868783920879451"  />
<path  style="stroke:hsl(250,42.65184010966588%,45.83827810461245%); " fill="none"   d="M -0.710040639840307 0.868783920879451 L -0.666538653357386 0.826432227475208"  />
<path  style="stroke:hsl(250,43.06368872116026%,46.12354196869339%); " fill="none"   d="M -0.666538653357386 0.826432227475208 L -0.620637847497748 0.778794188102074"  />
<path  style="stroke:hsl(250,43.502631817813715%,46.414356230969865%); " fill="none"   d="M -0.620637847497748 0.778794188102074 L -0.572503415595565 0.726174523642211"  />
<path  style="stroke:hsl(250,43.96796718430784%,46.71060456961446%); " fill="none"   d="M -0.572503415595565 0.726174523642211 L -0.522308589626732 0.668909820378024"  />
<path  style="stroke:hsl(250,44.45895038332245%,47.012168489241624%); " fill="none"   d="M -0.522308589626732 0.668909820378024 L -0.470234016760835 0.607366376988572"  />
<path  style="stroke:hsl(250,44.97479594647667%,47.31892736830432%); " fill="none"   d="M -0.470234016760835 0.607366376988572 L -0.416467109226396 0.541937861488077"  />
<path  style="stroke:hsl(250,45.51467863091059%,47.63075850734097%); " fill="none"   d="M -0.416467109226396 0.541937861488077 L -0.361201369829252 0.47304279309404"  />
<path  style="stroke:hsl(250,46.077734739497984%,47.947537178053686%); " fill="none"   d="M -0.361201369829252 0.47304279309404 L -0.304635695551394 0.401121865132517"  />
<path  style="stroke:hsl(250,46.66306350257731%,48.26913667319779%); " fill="none"   d="M -0.304635695551394 0.401121865132517 L -0.246973661736621 0.326635126104722"  />
<path  style="stroke:hsl(250,47.26972851899115%,48.595428357263216%); " fill="none"   d="M -0.246973661736621 0.326635126104722 L -0.188422789439148 0.250059036946603"  />
<path  style="stroke:hsl(250,47.89675925412817%,48.92628171792679%); " fill="none"   d="M -0.188422789439148 0.250059036946603 L -0.129193798571889 0.171883423304801"  />
<path  style="stroke:hsl(250,48.54315259257163%,49.2615644182556%); " fill="none"   d="M -0.129193798571889 0.171883423304801 L -0.069499849542327 0.092608342324123"  />
<path  style="stroke:hsl(250,49.20787444286984%,49.60114234963986%); " fill="none"   d="M -0.069499849542327 0.092608342324123 L -0.009555776105247 0.012740883988281"  />
<path  style="stroke:hsl(250,49.889861391862155%,49.94487968543469%); " fill="none"   d="M -0.009555776105247 0.012740883988281 L 0.050422687806811 -0.067208072525475"  />
</svg>
