<svg xmlns="http://www.w3.org/2000/svg" viewBox="-1.499999230697499 -1.4999937428570207 2.999901489245474 2.9999839494077243"  style="stroke-width:0.12; stroke-linecap:round; background-color:#000000; " > 
<path  style="stroke:hsl(0,100%,60%); " fill="none"   d="M 0 0 L 0.079914693969173 -0.099833416646828"  />
<path  style="stroke:hsl(1.7999925000093748,100%,60%); " fill="none"   d="M 0.079914693969173 -0.099833416646828 L 0.159318206614246 -0.198669330795061"  />
<path  style="stroke:hsl(3.5999400002999993,100%,60%); " fill="none"   d="M 0.159318206614246 -0.198669330795061 L 0.237702626427135 -0.29552020666134"  />
<path  style="stroke:hsl(5.399797502278112,100%,60%); " fill="none"   d="M 0.237702626427135 -0.29552020666134 L 0.314566560616118 -0.38941834230865"  />
<path  style="stroke:hsl(7.199520009599909,100%,60%); " fill="none"   d="M 0.314566560616118 -0.38941834230865 L 0.38941834230865 -0.479425538604203"  />
<path  style="stroke:hsl(8.99906252929644,100%,60%); " fill="none"   d="M 0.38941834230865 -0.479425538604203 L 0.461779175541483 -0.564642473395035"  />
<path  style="stroke:hsl(10.798380072898437,100%,60%); " fill="none"   d="M 0.461779175541483 -0.564642473395035 L 0.531186197920883 -0.644217687237691"  />
<path  style="stroke:hsl(12.597427657561031,100%,60%); " fill="none"   d="M 0.531186197920883 -0.644217687237691 L 0.597195441362392 -0.717356090899523"  />
<path  style="stroke:hsl(14.396160307188298,100%,60%); " fill="none"   d="M 0.597195441362392 -0.717356090899523 L 0.659384671971473 -0.783326909627483"  />
<path  style="stroke:hsl(16.194533053557684,100%,60%); " fill="none"   d="M 0.659384671971473 -0.783326909627483 L 0.717356090899523 -0.841470984807896"  />
<path  style="stroke:hsl(17.9925009374442,100%,60%); " fill="none"   d="M 0.717356090899523 -0.841470984807896 L 0.770738878898969 -0.891207360061435"  />
<path  style="stroke:hsl(19.790019009744384,100%,60%); " fill="none"   d="M 0.770738878898969 -0.891207360061435 L 0.819191568300998 -0.932039085967226"  />
<path  style="stroke:hsl(21.587042332600053,100%,60%); " fill="none"   d="M 0.819191568300998 -0.932039085967226 L 0.862404227243338 -0.963558185417193"  />
<path  style="stroke:hsl(23.383525980521735,100%,60%); " fill="none"   d="M 0.862404227243338 -0.963558185417193 L 0.900100442176505 -0.98544972998846"  />
<path  style="stroke:hsl(25.179425041511795,100%,60%); " fill="none"   d="M 0.900100442176505 -0.98544972998846 L 0.932039085967226 -0.997494986604054"  />
<path  style="stroke:hsl(26.974694618187243,100%,60%); " fill="none"   d="M 0.932039085967226 -0.997494986604054 L 0.958015860289225 -0.999573603041505"  />
<path  style="stroke:hsl(28.76928982890217,100%,60%); " fill="none"   d="M 0.958015860289225 -0.999573603041505 L 0.977864602435316 -0.991664810452469"  />
<path  style="stroke:hsl(30.56316580886977,100%,60%); " fill="none"   d="M 0.977864602435316 -0.991664810452469 L 0.991458348191686 -0.973847630878195"  />
<path  style="stroke:hsl(32.35627771128397,100%,60%); " fill="none"   d="M 0.991458348191686 -0.973847630878195 L 0.998710143975583 -0.946300087687414"  />
<path  style="stroke:hsl(34.148580708440626,100%,60%); " fill="none"   d="M 0.998710143975583 -0.946300087687414 L 0.999573603041505 -0.909297426825682"  />
<path  style="stroke:hsl(35.940029992858136,100%,60%); " fill="none"   d="M 0.999573603041505 -0.909297426825682 L 0.994043202198076 -0.863209366648874"  />
<path  style="stroke:hsl(37.730580778397695,100%,60%); " fill="none"   d="M 0.994043202198076 -0.863209366648874 L 0.982154317137618 -0.80849640381959"  />
<path  style="stroke:hsl(39.52018830138293,100%,60%); " fill="none"   d="M 0.982154317137618 -0.80849640381959 L 0.963982996152448 -0.74570521217672"  />
<path  style="stroke:hsl(41.30880782171898,100%,60%); " fill="none"   d="M 0.963982996152448 -0.74570521217672 L 0.939645473685325 -0.675463180551151"  />
<path  style="stroke:hsl(43.09639462401097,100%,60%); " fill="none"   d="M 0.939645473685325 -0.675463180551151 L 0.909297426825682 -0.598472144103956"  />
<path  style="stroke:hsl(44.88290401868197,100%,60%); " fill="none"   d="M 0.909297426825682 -0.598472144103956 L 0.873132979507516 -0.515501371821464"  />
<path  style="stroke:hsl(46.66829134309015,100%,60%); " fill="none"   d="M 0.873132979507516 -0.515501371821464 L 0.831383460778683 -0.42737988023383"  />
<path  style="stroke:hsl(48.45251196264539,100%,60%); " fill="none"   d="M 0.831383460778683 -0.42737988023383 L 0.78431592508442 -0.334988150155905"  />
<path  style="stroke:hsl(50.23552127192514,100%,60%); " fill="none"   d="M 0.78431592508442 -0.334988150155905 L 0.732231444030252 -0.239249329213982"  />
<path  style="stroke:hsl(52.0172746957895,100%,60%); " fill="none"   d="M 0.732231444030252 -0.239249329213982 L 0.675463180551151 -0.141120008059867"  />
<path  style="stroke:hsl(53.79772769049572,100%,60%); " fill="none"   d="M 0.675463180551151 -0.141120008059867 L 0.614374257805712 -0.04158066243329"  />
<path  style="stroke:hsl(55.576835744811625,100%,60%); " fill="none"   d="M 0.614374257805712 -0.04158066243329 L 0.549355436427127 0.05837414342758"  />
<path  style="stroke:hsl(57.35455438112855,100%,60%); " fill="none"   d="M 0.549355436427127 0.05837414342758 L 0.480822614988648 0.157745694143248"  />
<path  style="stroke:hsl(59.13083915657315,100%,60%); " fill="none"   d="M 0.480822614988648 0.157745694143248 L 0.409214169672017 0.255541102026831"  />
<path  style="stroke:hsl(60.90564566411857,100%,60%); " fill="none"   d="M 0.409214169672017 0.255541102026831 L 0.334988150155905 0.35078322768962"  />
<path  style="stroke:hsl(62.67892953369454,100%,60%); " fill="none"   d="M 0.334988150155905 0.35078322768962 L 0.258619349661111 0.442520443294852"  />
<path  style="stroke:hsl(64.45064643329671,100%,60%); " fill="none"   d="M 0.258619349661111 0.442520443294852 L 0.180596267894233 0.529836140908493"  />
<path  style="stroke:hsl(66.22075207009483,100%,60%); " fill="none"   d="M 0.180596267894233 0.529836140908493 L 0.101417986316602 0.611857890942719"  />
<path  style="stroke:hsl(67.9892021915402,100%,60%); " fill="none"   d="M 0.101417986316602 0.611857890942719 L 0.021590975726096 0.687766159183974"  />
<path  style="stroke:hsl(69.75595258647189,100%,60%); " fill="none"   d="M 0.021590975726096 0.687766159183974 L -0.05837414342758 0.756802495307928"  />
<path  style="stroke:hsl(71.52095908622204,100%,60%); " fill="none"   d="M -0.05837414342758 0.756802495307928 L -0.137965867271227 0.81827711106441"  />
<path  style="stroke:hsl(73.28417756572007,100%,60%); " fill="none"   d="M -0.137965867271227 0.81827711106441 L -0.21667508038738 0.871575772413588"  />
<path  style="stroke:hsl(75.04556394459584,100%,60%); " fill="none"   d="M -0.21667508038738 0.871575772413588 L -0.293998312415568 0.916165936749455"  />
<path  style="stroke:hsl(76.80507418828162,100%,60%); " fill="none"   d="M -0.293998312415568 0.916165936749455 L -0.369440958544477 0.951602073889516"  />
<path  style="stroke:hsl(78.56266430911296,100%,60%); " fill="none"   d="M -0.369440958544477 0.951602073889516 L -0.442520443294852 0.977530117665097"  />
<path  style="stroke:hsl(80.31829036742836,100%,60%); " fill="none"   d="M -0.442520443294852 0.977530117665097 L -0.512769307355724 0.993691003633464"  />
<path  style="stroke:hsl(82.07190847266783,100%,60%); " fill="none"   d="M -0.512769307355724 0.993691003633464 L -0.579738197728743 0.999923257564101"  />
<path  style="stroke:hsl(83.82347478447004,100%,60%); " fill="none"   d="M -0.579738197728743 0.999923257564101 L -0.642998742053909 0.996164608835841"  />
<path  style="stroke:hsl(85.57294551376845,100%,60%); " fill="none"   d="M -0.642998742053909 0.996164608835841 L -0.702146288730805 0.982452612624332"  />
<path  style="stroke:hsl(87.32027692388594,100%,60%); " fill="none"   d="M -0.702146288730805 0.982452612624332 L -0.756802495307928 0.958924274663138"  />
<path  style="stroke:hsl(89.06542533162826,100%,60%); " fill="none"   d="M -0.756802495307928 0.958924274663138 L -0.80661774858324 0.925814682327732"  />
<path  style="stroke:hsl(90.8083471083761,100%,60%); " fill="none"   d="M -0.80661774858324 0.925814682327732 L -0.851273400935574 0.883454655720153"  />
<path  style="stroke:hsl(92.54899868117585,100%,60%); " fill="none"   d="M -0.851273400935574 0.883454655720153 L -0.890483808581988 0.832267442223901"  />
<path  style="stroke:hsl(94.28733653382879,100%,60%); " fill="none"   d="M -0.890483808581988 0.832267442223901 L -0.923998158723188 0.772764487555987"  />
<path  style="stroke:hsl(96.02331720797922,100%,60%); " fill="none"   d="M -0.923998158723188 0.772764487555987 L -0.951602073889516 0.705540325570392"  />
<path  style="stroke:hsl(97.75689730420063,100%,60%); " fill="none"   d="M -0.951602073889516 0.705540325570392 L -0.973118983225174 0.631266637872322"  />
<path  style="stroke:hsl(99.48803348308095,100%,60%); " fill="none"   d="M -0.973118983225174 0.631266637872322 L -0.98841125193913 0.550685542597638"  />
<path  style="stroke:hsl(101.21668246630584,100%,60%); " fill="none"   d="M -0.98841125193913 0.550685542597638 L -0.997381061698093 0.464602179413757"  />
<path  style="stroke:hsl(102.9428010377408,100%,60%); " fill="none"   d="M -0.997381061698093 0.464602179413757 L -0.999971036330024 0.373876664830236"  />
<path  style="stroke:hsl(104.66634604451139,100%,60%); " fill="none"   d="M -0.999971036330024 0.373876664830236 L -0.996164608835841 0.279415498198926"  />
<path  style="stroke:hsl(106.38727439808224,100%,60%); " fill="none"   d="M -0.996164608835841 0.279415498198926 L -0.98598612736167 0.182162504272096"  />
<path  style="stroke:hsl(108.10554307533415,100%,60%); " fill="none"   d="M -0.98598612736167 0.182162504272096 L -0.969500699453809 0.083089402817496"  />
<path  style="stroke:hsl(109.82110911963966,100%,60%); " fill="none"   d="M -0.969500699453809 0.083089402817496 L -0.946813775592609 -0.01681390048435"  />
<path  style="stroke:hsl(111.53392964193704,100%,60%); " fill="none"   d="M -0.946813775592609 -0.01681390048435 L -0.918070474669267 -0.116549204850494"  />
<path  style="stroke:hsl(113.2439618218024,100%,60%); " fill="none"   d="M -0.918070474669267 -0.116549204850494 L -0.883454655720153 -0.215119988087816"  />
<path  style="stroke:hsl(114.95116290852035,100%,60%); " fill="none"   d="M -0.883454655720153 -0.215119988087816 L -0.843187741856417 -0.311541363513378"  />
<path  style="stroke:hsl(116.65549022215261,100%,60%); " fill="none"   d="M -0.843187741856417 -0.311541363513378 L -0.797527303911704 -0.404849920616598"  />
<path  style="stroke:hsl(118.35690115460513,100%,60%); " fill="none"   d="M -0.797527303911704 -0.404849920616598 L -0.746765412867812 -0.494113351138608"  />
<path  style="stroke:hsl(120.05535317069318,100%,60%); " fill="none"   d="M -0.746765412867812 -0.494113351138608 L -0.691226771597127 -0.5784397643882"  />
<path  style="stroke:hsl(121.75080380920484,100%,60%); " fill="none"   d="M -0.691226771597127 -0.5784397643882 L -0.631266637872322 -0.656986598718789"  />
<path  style="stroke:hsl(123.44321068396248,100%,60%); " fill="none"   d="M -0.631266637872322 -0.656986598718789 L -0.567268551928969 -0.728969040125876"  />
<path  style="stroke:hsl(125.13253148488235,100%,60%); " fill="none"   d="M -0.567268551928969 -0.728969040125876 L -0.499641883116902 -0.793667863849153"  />
<path  style="stroke:hsl(126.81872397903238,100%,60%); " fill="none"   d="M -0.499641883116902 -0.793667863849153 L -0.428819211333396 -0.850436620628564"  />
<path  style="stroke:hsl(128.50174601168808,100%,60%); " fill="none"   d="M -0.428819211333396 -0.850436620628564 L -0.355253559988043 -0.898708095811627"  />
<path  style="stroke:hsl(130.18155550738632,100%,60%); " fill="none"   d="M -0.355253559988043 -0.898708095811627 L -0.279415498198926 -0.937999976774739"  />
<path  style="stroke:hsl(131.85811047097712,100%,60%); " fill="none"   d="M -0.279415498198926 -0.937999976774739 L -0.201790130756129 -0.967919672031486"  />
<path  style="stroke:hsl(133.53136898867376,100%,60%); " fill="none"   d="M -0.201790130756129 -0.967919672031486 L -0.12287399510655 -0.988168233877"  />
<path  style="stroke:hsl(135.20128922910044,100%,60%); " fill="none"   d="M -0.12287399510655 -0.988168233877 L -0.043171885208729 -0.998543345374605"  />
<path  style="stroke:hsl(136.86782944433813,100%,60%); " fill="none"   d="M -0.043171885208729 -0.998543345374605 L 0.036806377425827 -0.998941341839772"  />
<path  style="stroke:hsl(138.5309479709682,100%,60%); " fill="none"   d="M 0.036806377425827 -0.998941341839772 L 0.116549204850494 -0.989358246623382"  />
<path  style="stroke:hsl(140.19060323111418,100%,60%); " fill="none"   d="M 0.116549204850494 -0.989358246623382 L 0.195546515100544 -0.969889810845086"  />
<path  style="stroke:hsl(141.84675373348097,100%,60%); " fill="none"   d="M 0.195546515100544 -0.969889810845086 L 0.273292994977012 -0.940730556679773"  />
<path  style="stroke:hsl(143.49935807439223,100%,60%); " fill="none"   d="M 0.273292994977012 -0.940730556679773 L 0.349291332326735 -0.902171833756293"  />
<path  style="stroke:hsl(145.14837493882558,100%,60%); " fill="none"   d="M 0.349291332326735 -0.902171833756293 L 0.423055397142997 -0.85459890808828"  />
<path  style="stroke:hsl(146.79376310144525,100%,60%); " fill="none"   d="M 0.423055397142997 -0.85459890808828 L 0.494113351138608 -0.79848711262349"  />
<path  style="stroke:hsl(148.4354814276329,100%,60%); " fill="none"   d="M 0.494113351138608 -0.79848711262349 L 0.562010665900743 -0.734397097874113"  />
<path  style="stroke:hsl(150.07348887451587,100%,60%); " fill="none"   d="M 0.562010665900743 -0.734397097874113 L 0.626313030321656 -0.662969230082183"  />
<path  style="stroke:hsl(151.70774449199328,100%,60%); " fill="none"   d="M 0.626313030321656 -0.662969230082183 L 0.686609128707638 -0.584917192891762"  />
<path  style="stroke:hsl(153.33820742375985,100%,60%); " fill="none"   d="M 0.686609128707638 -0.584917192891762 L 0.742513271795802 -0.501020856457885"  />
<path  style="stroke:hsl(154.9648369083272,100%,60%); " fill="none"   d="M 0.742513271795802 -0.501020856457885 L 0.793667863849153 -0.412118485241757"  />
<path  style="stroke:hsl(156.58759228004288,100%,60%); " fill="none"   d="M 0.793667863849153 -0.412118485241757 L 0.83974569004898 -0.319098362349352"  />
<path  style="stroke:hsl(158.2064329701072,100%,60%); " fill="none"   d="M 0.83974569004898 -0.319098362349352 L 0.880452009553034 -0.222889914100248"  />
<path  style="stroke:hsl(159.82131850758714,100%,60%); " fill="none"   d="M 0.880452009553034 -0.222889914100248 L 0.91552644083109 -0.124454423507062"  />
<path  style="stroke:hsl(161.43220852042842,100%,60%); " fill="none"   d="M 0.91552644083109 -0.124454423507062 L 0.944744627218154 -0.024775425453358"  />
<path  style="stroke:hsl(163.0390627364646,100%,60%); " fill="none"   d="M 0.944744627218154 -0.024775425453358 L 0.967919672031486 0.075151120461809"  />
<path  style="stroke:hsl(164.64184098442396,100%,60%); " fill="none"   d="M 0.967919672031486 0.075151120461809 L 0.984903334071561 0.17432678122298"  />
<path  style="stroke:hsl(166.24050319493384,100%,60%); " fill="none"   d="M 0.984903334071561 0.17432678122298 L 0.995586975859855 0.271760626410942"  />
<path  style="stroke:hsl(167.83500940152217,100%,60%); " fill="none"   d="M 0.995586975859855 0.271760626410942 L 0.999902258547975 0.366479129251928"  />
<path  style="stroke:hsl(169.42531974161687,100%,60%); " fill="none"   d="M 0.999902258547975 0.366479129251928 L 0.997821579053074 0.457535893775321"  />
<path  style="stroke:hsl(171.01139445754228,100%,60%); " fill="none"   d="M 0.997821579053074 0.457535893775321 L 0.989358246623382 0.54402111088937"  />
<path  style="stroke:hsl(172.5931938975131,100%,60%); " fill="none"   d="M 0.989358246623382 0.54402111088937 L 0.974566397704435 0.625070648892882"  />
<path  style="stroke:hsl(174.17067851662566,100%,60%); " fill="none"   d="M 0.974566397704435 0.625070648892882 L 0.953540649650574 0.699874687593542"  />
<path  style="stroke:hsl(175.7438088778467,100%,60%); " fill="none"   d="M 0.953540649650574 0.699874687593542 L 0.926415495496766 0.767685809763582"  />
<path  style="stroke:hsl(177.31254565299912,100%,60%); " fill="none"   d="M 0.926415495496766 0.767685809763582 L 0.893364443662152 0.827826469085654"  />
<path  style="stroke:hsl(178.87684962374522,100%,60%); " fill="none"   d="M 0.893364443662152 0.827826469085654 L 0.85459890808828 0.87969575997167"  />
<path  style="stroke:hsl(180.43668168256724,100%,60%); " fill="none"   d="M 0.85459890808828 0.87969575997167 L 0.810366855911355 0.922775421612807"  />
<path  style="stroke:hsl(181.9920028337449,100%,60%); " fill="none"   d="M 0.810366855911355 0.922775421612807 L 0.760951221318774 0.956635016270188"  />
<path  style="stroke:hsl(183.54277419433052,100%,60%); " fill="none"   d="M 0.760951221318774 0.956635016270188 L 0.706668095735878 0.980936230066492"  />
<path  style="stroke:hsl(185.08895699512075,100%,60%); " fill="none"   d="M 0.706668095735878 0.980936230066492 L 0.647864705919518 0.995436253306377"  />
<path  style="stroke:hsl(186.63051258162614,100%,60%); " fill="none"   d="M 0.647864705919518 0.995436253306377 L 0.584917192891762 0.999990206550704"  />
<path  style="stroke:hsl(188.16740241503732,100%,60%); " fill="none"   d="M 0.584917192891762 0.999990206550704 L 0.518228205920975 0.994552588203989"  />
<path  style="stroke:hsl(189.6995880731885,100%,60%); " fill="none"   d="M 0.518228205920975 0.994552588203989 L 0.448224326940585 0.979177729151317"  />
<path  style="stroke:hsl(191.227031251518,100%,60%); " fill="none"   d="M 0.448224326940585 0.979177729151317 L 0.375353341880463 0.954019249902089"  />
<path  style="stroke:hsl(192.74969376402598,100%,60%); " fill="none"   d="M 0.375353341880463 0.954019249902089 L 0.300081376365085 0.919328525664676"  />
<path  style="stroke:hsl(194.2675375442289,100%,60%); " fill="none"   d="M 0.300081376365085 0.919328525664676 L 0.222889914100248 0.875452174688428"  />
<path  style="stroke:hsl(195.78052464611133,100%,60%); " fill="none"   d="M 0.222889914100248 0.875452174688428 L 0.144272717020457 0.822828594968709"  />
<path  style="stroke:hsl(197.28861724507448,100%,60%); " fill="none"   d="M 0.144272717020457 0.822828594968709 L 0.064732666897566 0.761983583919033"  />
<path  style="stroke:hsl(198.79177763888194,100%,60%); " fill="none"   d="M 0.064732666897566 0.761983583919033 L -0.015221451386432 0.693525084777122"  />
<path  style="stroke:hsl(200.28996824860215,100%,60%); " fill="none"   d="M -0.015221451386432 0.693525084777122 L -0.095078204326361 0.618137112237033"  />
<path  style="stroke:hsl(201.7831516195479,100%,60%); " fill="none"   d="M -0.095078204326361 0.618137112237033 L -0.17432678122298 0.536572918000435"  />
<path  style="stroke:hsl(203.27129042221273,100%,60%); " fill="none"   d="M -0.17432678122298 0.536572918000435 L -0.252460261628258 0.449647464534601"  />
<path  style="stroke:hsl(204.75434745320402,100%,60%); " fill="none"   d="M -0.252460261628258 0.449647464534601 L -0.328978857906327 0.358229282236829"  />
<path  style="stroke:hsl(206.23228563617326,100%,60%); " fill="none"   d="M -0.328978857906327 0.358229282236829 L -0.40339311216877 0.263231791365801"  />
<path  style="stroke:hsl(207.70506802274284,100%,60%); " fill="none"   d="M -0.40339311216877 0.263231791365801 L -0.47522702713478 0.165604175448309"  />
<path  style="stroke:hsl(209.17265779342983,100%,60%); " fill="none"   d="M -0.47522702713478 0.165604175448309 L -0.54402111088937 0.066321897351201"  />
<path  style="stroke:hsl(210.6350182585664,100%,60%); " fill="none"   d="M -0.54402111088937 0.066321897351201 L -0.609335316063561 -0.033623047221137"  />
<path  style="stroke:hsl(212.09211285921702,100%,60%); " fill="none"   d="M -0.609335316063561 -0.033623047221137 L -0.670751854635837 -0.133232041419942"  />
<path  style="stroke:hsl(213.54390516809264,100%,60%); " fill="none"   d="M -0.670751854635837 -0.133232041419942 L -0.727877870349737 -0.231509825101539"  />
<path  style="stroke:hsl(214.99035889046115,100%,60%); " fill="none"   d="M -0.727877870349737 -0.231509825101539 L -0.780347951653232 -0.327474439137693"  />
<path  style="stroke:hsl(216.4314378650548,100%,60%); " fill="none"   d="M -0.780347951653232 -0.327474439137693 L -0.827826469085654 -0.420167036826641"  />
<path  style="stroke:hsl(217.86710606497422,100%,60%); " fill="none"   d="M -0.827826469085654 -0.420167036826641 L -0.870009722160873 -0.508661464372374"  />
<path  style="stroke:hsl(219.29732759858933,100%,60%); " fill="none"   d="M -0.870009722160873 -0.508661464372374 L -0.906627882013998 -0.592073514707223"  />
<path  style="stroke:hsl(220.72206671043617,100%,60%); " fill="none"   d="M -0.906627882013998 -0.592073514707223 L -0.937446717385293 -0.669569762196602"  />
<path  style="stroke:hsl(222.1412877821112,100%,60%); " fill="none"   d="M -0.937446717385293 -0.669569762196602 L -0.962269092900902 -0.740375889952449"  />
<path  style="stroke:hsl(223.5549553331615,100%,60%); " fill="none"   d="M -0.962269092900902 -0.740375889952449 L -0.980936230066492 -0.803784426551621"  />
<path  style="stroke:hsl(224.96303402197196,100%,60%); " fill="none"   d="M -0.980936230066492 -0.803784426551621 L -0.993328722907774 -0.859161814856496"  />
<path  style="stroke:hsl(226.36548864664869,100%,60%); " fill="none"   d="M -0.993328722907774 -0.859161814856496 L -0.99936730176125 -0.905954742308462"  />
<path  style="stroke:hsl(227.7622841458991,100%,60%); " fill="none"   d="M -0.99936730176125 -0.905954742308462 L -0.999013340329543 -0.943695669444105"  />
<path  style="stroke:hsl(229.15338559990843,100%,60%); " fill="none"   d="M -0.999013340329543 -0.943695669444105 L -0.992269102757886 -0.972007501394976"  />
<path  style="stroke:hsl(230.53875823121288,100%,60%); " fill="none"   d="M -0.992269102757886 -0.972007501394976 L -0.979177729151317 -0.99060735569487"  />
<path  style="stroke:hsl(231.91836740556877,100%,60%); " fill="none"   d="M -0.979177729151317 -0.99060735569487 L -0.959822959625228 -0.999309388747918"  />
<path  style="stroke:hsl(233.29217863281858,100%,60%); " fill="none"   d="M -0.959822959625228 -0.999309388747918 L -0.934328598654398 -0.998026652716362"  />
<path  style="stroke:hsl(234.66015756775317,100%,60%); " fill="none"   d="M -0.934328598654398 -0.998026652716362 L -0.90285772314685 -0.986771964274613"  />
<path  style="stroke:hsl(236.0222700109705,100%,60%); " fill="none"   d="M -0.90285772314685 -0.986771964274613 L -0.865611639308158 -0.965657776549278"  />
<path  style="stroke:hsl(237.3784819097303,100%,60%); " fill="none"   d="M -0.865611639308158 -0.965657776549278 L -0.822828594968709 -0.934895055524683"  />
<path  style="stroke:hsl(238.7287593588059,100%,60%); " fill="none"   d="M -0.822828594968709 -0.934895055524683 L -0.774782255610634 -0.894791172140504"  />
<path  style="stroke:hsl(240.07306860133124,100%,60%); " fill="none"   d="M -0.774782255610634 -0.894791172140504 L -0.721779953842635 -0.845746831142934"  />
<path  style="stroke:hsl(241.41137602964534,100%,60%); " fill="none"   d="M -0.721779953842635 -0.845746831142934 L -0.664160723520095 -0.788252067375316"  />
<path  style="stroke:hsl(242.74364818613222,100%,60%); " fill="none"   d="M -0.664160723520095 -0.788252067375316 L -0.602293131085391 -0.722881349511976"  />
<path  style="stroke:hsl(244.06985176405735,100%,60%); " fill="none"   d="M -0.602293131085391 -0.722881349511976 L -0.536572918000435 -0.650287840157117"  />
<path  style="stroke:hsl(245.38995360840033,100%,60%); " fill="none"   d="M -0.536572918000435 -0.650287840157117 L -0.467420469351827 -0.571196869659989"  />
<path  style="stroke:hsl(246.7039207166838,100%,60%); " fill="none"   d="M -0.467420469351827 -0.571196869659989 L -0.39527812482091 -0.4863986888538"  />
<path  style="stroke:hsl(248.01172023979848,100%,60%); " fill="none"   d="M -0.39527812482091 -0.4863986888538 L -0.320607349219338 -0.396740573130612"  />
<path  style="stroke:hsl(249.31331948282448,100%,60%); " fill="none"   d="M -0.320607349219338 -0.396740573130612 L -0.243885780689082 -0.303118356745702"  />
<path  style="stroke:hsl(250.6086859058484,100%,60%); " fill="none"   d="M -0.243885780689082 -0.303118356745702 L -0.165604175448309 -0.206467481937797"  />
<path  style="stroke:hsl(251.89778712477727,100%,60%); " fill="none"   d="M -0.165604175448309 -0.206467481937797 L -0.086263268626344 -0.107753652299444"  />
<path  style="stroke:hsl(253.18059091214766,100%,60%); " fill="none"   d="M -0.086263268626344 -0.107753652299444 L -0.006370571267652 -0.007963183785937"  />
<path  style="stroke:hsl(254.45706519793174,100%,60%); " fill="none"   d="M -0.006370571267652 -0.007963183785937 L 0.073562876006908 0.091906850227682"  />
<path  style="stroke:hsl(255.72717807033882,100%,60%); " fill="none"   d="M 0.073562876006908 0.091906850227682 L 0.153025771916079 0.190858581374189"  />
<path  style="stroke:hsl(256.9908977766132,100%,60%); " fill="none"   d="M 0.153025771916079 0.190858581374189 L 0.231509825101539 0.287903316665065"  />
<path  style="stroke:hsl(258.2481927238282,100%,60%); " fill="none"   d="M 0.231509825101539 0.287903316665065 L 0.308513005457991 0.382071417184009"  />
<path  style="stroke:hsl(259.49903147967547,100%,60%); " fill="none"   d="M 0.308513005457991 0.382071417184009 L 0.38354275541261 0.472421986398466"  />
<path  style="stroke:hsl(260.74338277325126,100%,60%); " fill="none"   d="M 0.38354275541261 0.472421986398466 L 0.456119140612603 0.558052271286779"  />
<path  style="stroke:hsl(261.98121549583817,100%,60%); " fill="none"   d="M 0.456119140612603 0.558052271286779 L 0.525777919867246 0.638106682347947"  />
<path  style="stroke:hsl(263.2124987016825,100%,60%); " fill="none"   d="M 0.525777919867246 0.638106682347947 L 0.592073514707223 0.711785342369123"  />
<path  style="stroke:hsl(264.43720160876825,100%,60%); " fill="none"   d="M 0.592073514707223 0.711785342369123 L 0.654581859566251 0.778352078534299"  />
<path  style="stroke:hsl(265.65529359958657,100%,60%); " fill="none"   d="M 0.654581859566251 0.778352078534299 L 0.712903114353539 0.837141778019747"  />
<path  style="stroke:hsl(266.86674422190106,100%,60%); " fill="none"   d="M 0.712903114353539 0.837141778019747 L 0.766664222065866 0.887567033581505"  />
<path  style="stroke:hsl(268.0715231895093,100%,60%); " fill="none"   d="M 0.766664222065866 0.887567033581505 L 0.815521295079313 0.929124012734368"  />
<path  style="stroke:hsl(269.2696003829999,100%,60%); " fill="none"   d="M 0.815521295079313 0.929124012734368 L 0.859161814856496 0.961397491879557"  />
<path  style="stroke:hsl(270.4609458505053,100%,60%); " fill="none"   d="M 0.859161814856496 0.961397491879557 L 0.897306630998707 0.984065005081643"  />
<path  style="stroke:hsl(271.64552980845104,100%,60%); " fill="none"   d="M 0.897306630998707 0.984065005081643 L 0.929711746855837 0.996900066041596"  />
<path  style="stroke:hsl(272.82332264229973,100%,60%); " fill="none"   d="M 0.929711746855837 0.996900066041596 L 0.956169880272267 0.999774431073011"  />
<path  style="stroke:hsl(273.9942949072919,100%,60%); " fill="none"   d="M 0.956169880272267 0.999774431073011 L 0.976511789485298 0.992659380470633"  />
<path  style="stroke:hsl(275.1584173291818,100%,60%); " fill="none"   d="M 0.976511789485298 0.992659380470633 L 0.99060735569487 0.975626005468158"  />
<path  style="stroke:hsl(276.3156608049697,100%,60%); " fill="none"   d="M 0.99060735569487 0.975626005468158 L 0.998366415379848 0.948844497918124"  />
<path  style="stroke:hsl(277.46599640362894,100%,60%); " fill="none"   d="M 0.998366415379848 0.948844497918124 L 0.999739337036853 0.912582449791184"  />
<path  style="stroke:hsl(278.6093953668294,100%,60%); " fill="none"   d="M 0.999739337036853 0.912582449791184 L 0.994717338652522 0.867202179485581"  />
<path  style="stroke:hsl(279.7458291096566,100%,60%); " fill="none"   d="M 0.994717338652522 0.867202179485581 L 0.983332543878415 0.813157111661488"  />
<path  style="stroke:hsl(280.8752692213261,100%,60%); " fill="none"   d="M 0.983332543878415 0.813157111661488 L 0.965657776549278 0.750987246771676"  />
<path  style="stroke:hsl(281.997687465894,100%,60%); " fill="none"   d="M 0.965657776549278 0.750987246771676 L 0.941806094859012 0.6813137655555"  />
<path  style="stroke:hsl(283.11305578296265,100%,60%); " fill="none"   d="M 0.941806094859012 0.6813137655555 L 0.911930068174061 0.604832822406284"  />
<path  style="stroke:hsl(284.2213462883821,100%,60%); " fill="none"   d="M 0.911930068174061 0.604832822406284 L 0.876220801110125 0.522308589626732"  />
<path  style="stroke:hsl(285.3225312749476,100%,60%); " fill="none"   d="M 0.876220801110125 0.522308589626732 L 0.83490671111478 0.434565622071897"  />
<path  style="stroke:hsl(286.41658321309177,100%,60%); " fill="none"   d="M 0.83490671111478 0.434565622071897 L 0.788252067375316 0.342480618469613"  />
<path  style="stroke:hsl(287.50347475157315,100%,60%); " fill="none"   d="M 0.788252067375316 0.342480618469613 L 0.736555300397785 0.246973661736621"  />
<path  style="stroke:hsl(288.5831787181598,100%,60%); " fill="none"   d="M 0.736555300397785 0.246973661736621 L 0.680147093070186 0.148999025814199"  />
<path  style="stroke:hsl(289.65566812030886,100%,60%); " fill="none"   d="M 0.680147093070186 0.148999025814199 L 0.619388265420471 0.049535640878367"  />
<path  style="stroke:hsl(290.7209161458411,100%,60%); " fill="none"   d="M 0.619388265420471 0.049535640878367 L 0.554667466599703 -0.050422687806811"  />
<path  style="stroke:hsl(291.7788961636115,100%,60%); " fill="none"   d="M 0.554667466599703 -0.050422687806811 L 0.4863986888538 -0.149877209662952"  />
<path  style="stroke:hsl(292.82958172417455,100%,60%); " fill="none"   d="M 0.4863986888538 -0.149877209662952 L 0.415018619385946 -0.24783420798296"  />
<path  style="stroke:hsl(293.872946560446,100%,60%); " fill="none"   d="M 0.415018619385946 -0.24783420798296 L 0.340983847048736 -0.343314928819895"  />
<path  style="stroke:hsl(294.90896458835937,100%,60%); " fill="none"   d="M 0.340983847048736 -0.343314928819895 L 0.264767941733678 -0.435365360372893"  />
<path  style="stroke:hsl(295.9376099075178,100%,60%); " fill="none"   d="M 0.264767941733678 -0.435365360372893 L 0.186858425139989 -0.523065765157696"  />
<path  style="stroke:hsl(296.958856801842,100%,60%); " fill="none"   d="M 0.186858425139989 -0.523065765157696 L 0.107753652299444 -0.605539869719601"  />
<path  style="stroke:hsl(297.9726797402127,100%,60%); " fill="none"   d="M 0.107753652299444 -0.605539869719601 L 0.027959623804861 -0.681963620068136"  />
<path  style="stroke:hsl(298.9790533771094,100%,60%); " fill="none"   d="M 0.027959623804861 -0.681963620068136 L -0.052013250866914 -0.751573415352148"  />
<path  style="stroke:hsl(299.97795255324337,100%,60%); " fill="none"   d="M -0.052013250866914 -0.751573415352148 L -0.131653418233833 -0.813673737507105"  />
<path  style="stroke:hsl(300.96935229618737,100%,60%); " fill="none"   d="M -0.131653418233833 -0.813673737507105 L -0.2104514530052 -0.867644100641667"  />
<path  style="stroke:hsl(301.9532278209994,100%,60%); " fill="none"   d="M -0.2104514530052 -0.867644100641667 L -0.287903316665065 -0.912945250727628"  />
<path  style="stroke:hsl(302.9295545308427,100%,60%); " fill="none"   d="M -0.287903316665065 -0.912945250727628 L -0.363513581598639 -0.949124553647895"  />
<path  style="stroke:hsl(303.8983080176003,100%,60%); " fill="none"   d="M -0.363513581598639 -0.949124553647895 L -0.436798600138338 -0.975820517766976"  />
<path  style="stroke:hsl(304.8594640624855,100%,60%); " fill="none"   d="M -0.436798600138338 -0.975820517766976 L -0.507289598258339 -0.992766405835907"  />
<path  style="stroke:hsl(305.81299863664714,100%,60%); " fill="none"   d="M -0.507289598258339 -0.992766405835907 L -0.574535674128631 -0.999792900142669"  />
<path  style="stroke:hsl(306.7588879017706,100%,60%); " fill="none"   d="M -0.574535674128631 -0.999792900142669 L -0.638106682347947 -0.996829794278799"  />
<path  style="stroke:hsl(307.6971082106736,100%,60%); " fill="none"   d="M -0.638106682347947 -0.996829794278799 L -0.697595985406447 -0.983906694618616"  />
<path  style="stroke:hsl(308.6276361078972,100%,60%); " fill="none"   d="M -0.697595985406447 -0.983906694618616 L -0.752623054778058 -0.961152724502116"  />
<path  style="stroke:hsl(309.55044833029245,100%,60%); " fill="none"   d="M -0.752623054778058 -0.961152724502116 L -0.80283590500447 -0.92879523407724"  />
<path  style="stroke:hsl(310.4655218076018,100%,60%); " fill="none"   d="M -0.80283590500447 -0.92879523407724 L -0.847913345200867 -0.887157528692351"  />
<path  style="stroke:hsl(311.37283366303603,100%,60%); " fill="none"   d="M -0.847913345200867 -0.887157528692351 L -0.887567033581505 -0.836655638536056"  />
<path  style="stroke:hsl(312.27236121384607,100%,60%); " fill="none"   d="M -0.887567033581505 -0.836655638536056 L -0.921543321863127 -0.777794161801093"  />
<path  style="stroke:hsl(313.16408197188986,100%,60%); " fill="none"   d="M -0.921543321863127 -0.777794161801093 L -0.949624877748395 -0.711161222905982"  />
<path  style="stroke:hsl(314.04797364419505,100%,60%); " fill="none"   d="M -0.949624877748395 -0.711161222905982 L -0.971632075110905 -0.637422596150239"  />
<path  style="stroke:hsl(314.92401413351575,100%,60%); " fill="none"   d="M -0.971632075110905 -0.637422596150239 L -0.987424142989415 -0.557315053517661"  />
<path  style="stroke:hsl(315.7921815388854,100%,60%); " fill="none"   d="M -0.987424142989415 -0.557315053517661 L -0.996900066041596 -0.471639003094196"  />
<path  style="stroke:hsl(316.652454156164,100%,60%); " fill="none"   d="M -0.996900066041596 -0.471639003094196 L -0.999999230697499 -0.38125049165494"  />
<path  style="stroke:hsl(317.5048104785811,100%,60%); " fill="none"   d="M -0.999999230697499 -0.38125049165494 L -0.996701812879551 -0.287052651327728"  />
<path  style="stroke:hsl(318.3492291972729,100%,60%); " fill="none"   d="M -0.996701812879551 -0.287052651327728 L -0.987028904809002 -0.189986675795438"  />
<path  style="stroke:hsl(319.1856892018154,100%,60%); " fill="none"   d="M -0.987028904809002 -0.189986675795438 L -0.971042380087687 -0.091022416199848"  />
<path  style="stroke:hsl(320.01416958075214,100%,60%); " fill="none"   d="M -0.971042380087687 -0.091022416199848 L -0.948844497918124 0.008851309290404"  />
<path  style="stroke:hsl(320.83464962211673,100%,60%); " fill="none"   d="M -0.948844497918124 0.008851309290404 L -0.92057724899359 0.10863659542408"  />
<path  style="stroke:hsl(321.64710881395087,100%,60%); " fill="none"   d="M -0.92057724899359 0.10863659542408 L -0.886421447242238 0.207336420606759"  />
<path  style="stroke:hsl(322.4515268448172,100%,60%); " fill="none"   d="M -0.886421447242238 0.207336420606759 L -0.846595573235013 0.303964608811047"  />
<path  style="stroke:hsl(323.24788360430665,100%,60%); " fill="none"   d="M -0.846595573235013 0.303964608811047 L -0.801354376655569 0.397555683121433"  />
<path  style="stroke:hsl(324.0361591835418,100%,60%); " fill="none"   d="M -0.801354376655569 0.397555683121433 L -0.750987246771676 0.48717451246051"  />
<path  style="stroke:hsl(324.8163338756743,100%,60%); " fill="none"   d="M -0.750987246771676 0.48717451246051 L -0.695816361331457 0.571925655109564"  />
<path  style="stroke:hsl(325.5883881763773,100%,60%); " fill="none"   d="M -0.695816361331457 0.571925655109564 L -0.636194625725274 0.650962305666247"  />
<path  style="stroke:hsl(326.3523027843337,100%,60%); " fill="none"   d="M -0.636194625725274 0.650962305666247 L -0.572503415595565 0.723494756044245"  />
<path  style="stroke:hsl(327.10805860171797,100%,60%); " fill="none"   d="M -0.572503415595565 0.723494756044245 L -0.505150137334196 0.788798285975416"  />
<path  style="stroke:hsl(327.8556367346741,100%,60%); " fill="none"   d="M -0.505150137334196 0.788798285975416 L -0.434565622071897 0.846220404175171"  />
<path  style="stroke:hsl(328.59501849378756,100%,60%); " fill="none"   d="M -0.434565622071897 0.846220404175171 L -0.361201369829252 0.895187367819682"  />
<path  style="stroke:hsl(329.3261853945531,100%,60%); " fill="none"   d="M -0.361201369829252 0.895187367819682 L -0.285526661457391 0.935209915194539"  />
<path  style="stroke:hsl(330.04911915783606,100%,60%); " fill="none"   d="M -0.285526661457391 0.935209915194539 L -0.20802555684198 0.96588815423607"  />
<path  style="stroke:hsl(330.7638017103302,100%,60%); " fill="none"   d="M -0.20802555684198 0.96588815423607 L -0.129193798571889 0.986915558120649"  />
<path  style="stroke:hsl(331.47021518500884,100%,60%); " fill="none"   d="M -0.129193798571889 0.986915558120649 L -0.049535640878367 0.998082027979396"  />
<path  style="stroke:hsl(332.1683419215719,100%,60%); " fill="none"   d="M -0.049535640878367 0.998082027979396 L 0.030439375871184 0.999275992136628"  />
<path  style="stroke:hsl(332.85816446688733,100%,60%); " fill="none"   d="M 0.030439375871184 0.999275992136628 L 0.110219684492737 0.990485520897156"  />
<path  style="stroke:hsl(333.5396655754274,100%,60%); " fill="none"   d="M 0.110219684492737 0.990485520897156 L 0.189294963269806 0.971798445743863"  />
<path  style="stroke:hsl(334.2128282097,100%,60%); " fill="none"   d="M 0.189294963269806 0.971798445743863 L 0.267159400270935 0.943401481754556"  />
<path  style="stroke:hsl(334.87763554067425,100%,60%); " fill="none"   d="M 0.267159400270935 0.943401481754556 L 0.343314928819895 0.905578362006624"  />
<path  style="stroke:hsl(335.5340709482015,100%,60%); " fill="none"   d="M 0.343314928819895 0.905578362006624 L 0.417274413422736 0.85870700260993"  />
<path  style="stroke:hsl(336.18211802143077,100%,60%); " fill="none"   d="M 0.417274413422736 0.85870700260993 L 0.488564765772518 0.803255726693955"  />
<path  style="stroke:hsl(336.8217605592189,100%,60%); " fill="none"   d="M 0.488564765772518 0.803255726693955 L 0.556729970900038 0.739778585077893"  />
<path  style="stroke:hsl(337.45298257053594,100%,60%); " fill="none"   d="M 0.556729970900038 0.739778585077893 L 0.621334004113409 0.668909820378024"  />
<path  style="stroke:hsl(338.07576827486434,100%,60%); " fill="none"   d="M 0.621334004113409 0.668909820378024 L 0.681963620068136 0.591357529865124"  />
<path  style="stroke:hsl(338.6901021025939,100%,60%); " fill="none"   d="M 0.681963620068136 0.591357529865124 L 0.738230996127046 0.507896590390622"  />
<path  style="stroke:hsl(339.2959686954111,100%,60%); " fill="none"   d="M 0.738230996127046 0.507896590390622 L 0.78977621310171 0.419360916073231"  />
<path  style="stroke:hsl(339.89335290668254,100%,60%); " fill="none"   d="M 0.78977621310171 0.419360916073231 L 0.836269557506963 0.326635126104722"  />
<path  style="stroke:hsl(340.482239801834,100%,60%); " fill="none"   d="M 0.836269557506963 0.326635126104722 L 0.877413630602046 0.230645705927396"  />
<path  style="stroke:hsl(341.06261465872393,100%,60%); " fill="none"   d="M 0.877413630602046 0.230645705927396 L 0.912945250727628 0.132351750097773"  />
<path  style="stroke:hsl(341.634462968011,100%,60%); " fill="none"   d="M 0.912945250727628 0.132351750097773 L 0.942637136770298 0.032735379330845"  />
<path  style="stroke:hsl(342.1977704335174,100%,60%); " fill="none"   d="M 0.942637136770298 0.032735379330845 L 0.96629936198607 -0.067208072525475"  />
<path  style="stroke:hsl(342.75252297258567,100%,60%); " fill="none"   d="M 0.96629936198607 -0.067208072525475 L 0.983780568883396 -0.166480003537159"  />
<path  style="stroke:hsl(343.2987067164313,100%,60%); " fill="none"   d="M 0.983780568883396 -0.166480003537159 L 0.994968937394591 -0.264088521384469"  />
<path  style="stroke:hsl(343.83630801048923,100%,60%); " fill="none"   d="M 0.994968937394591 -0.264088521384469 L 0.999792900142669 -0.359058354022168"  />
<path  style="stroke:hsl(344.3653134147549,100%,60%); " fill="none"   d="M 0.999792900142669 -0.359058354022168 L 0.998221600228323 -0.450440594275389"  />
<path  style="stroke:hsl(344.885709704121,100%,60%); " fill="none"   d="M 0.998221600228323 -0.450440594275389 L 0.990265088608778 -0.537322181006472"  />
<path  style="stroke:hsl(345.3974838687072,100%,60%); " fill="none"   d="M 0.990265088608778 -0.537322181006472 L 0.975974259805966 -0.618835022120039"  />
<path  style="stroke:hsl(345.90062311418615,100%,60%); " fill="none"   d="M 0.975974259805966 -0.618835022120039 L 0.955440526355268 -0.694164668252242"  />
<path  style="stroke:hsl(346.39511486210284,100%,60%); " fill="none"   d="M 0.955440526355268 -0.694164668252242 L 0.92879523407724 -0.762558450479603"  />
<path  style="stroke:hsl(346.8809467501895,100%,60%); " fill="none"   d="M 0.92879523407724 -0.762558450479603 L 0.896208821912602 -0.823333000738082"  />
<path  style="stroke:hsl(347.358106632674,100%,60%); " fill="none"   d="M 0.896208821912602 -0.823333000738082 L 0.857889731694642 -0.875881079810889"  />
<path  style="stroke:hsl(347.8265825805843,100%,60%); " fill="none"   d="M 0.857889731694642 -0.875881079810889 L 0.81408307483283 -0.91967764466202"  />
<path  style="stroke:hsl(348.2863628820459,100%,60%); " fill="none"   d="M 0.81408307483283 -0.91967764466202 L 0.765069064436253 -0.954285094492697"  />
<path  style="stroke:hsl(348.7374360425755,100%,60%); " fill="none"   d="M 0.765069064436253 -0.954285094492697 L 0.711161222905982 -0.979357643103917"  />
<path  style="stroke:hsl(349.17979078536735,100%,60%); " fill="none"   d="M 0.711161222905982 -0.979357643103917 L 0.652704376461626 -0.994644773877838"  />
<path  style="stroke:hsl(349.61341605157605,100%,60%); " fill="none"   d="M 0.652704376461626 -0.994644773877838 L 0.590072449430293 -0.999993742857021"  />
<path  style="stroke:hsl(350.03830100059247,100%,60%); " fill="none"   d="M 0.590072449430293 -0.999993742857021 L 0.523666072406936 -0.995351104911559"  />
<path  style="stroke:hsl(350.45443501031497,100%,60%); " fill="none"   d="M 0.523666072406936 -0.995351104911559 L 0.453910019585758 -0.980763247745153"  />
<path  style="stroke:hsl(350.8618076774151,100%,60%); " fill="none"   d="M 0.453910019585758 -0.980763247745153 L 0.38125049165494 -0.956375928404503"  />
<path  style="stroke:hsl(351.2604088175973,100%,60%); " fill="none"   d="M 0.38125049165494 -0.956375928404503 L 0.306152261634959 -0.922432816923086"  />
<path  style="stroke:hsl(351.6502284658538,100%,60%); " fill="none"   d="M 0.306152261634959 -0.922432816923086 L 0.229095701917322 -0.879273061650724"  />
<path  style="stroke:hsl(352.0312568767138,100%,60%); " fill="none"   d="M 0.229095701917322 -0.879273061650724 L 0.15057371152061 -0.827327900595379"  />
<path  style="stroke:hsl(352.4034845244869,100%,60%); " fill="none"   d="M 0.15057371152061 -0.827327900595379 L 0.0710885632188 -0.76711635263553"  />
<path  style="stroke:hsl(352.76690210350114,100%,60%); " fill="none"   d="M 0.0710885632188 -0.76711635263553 L -0.008851309290404 -0.699240031655098"  />
<path  style="stroke:hsl(353.121500528336,100%,60%); " fill="none"   d="M -0.008851309290404 -0.699240031655098 L -0.088734563626174 -0.624377135416391"  />
<path  style="stroke:hsl(353.4672709340495,100%,60%); " fill="none"   d="M -0.088734563626174 -0.624377135416391 L -0.168050219570776 -0.543275669232248"  />
<path  style="stroke:hsl(353.8042046763993,100%,60%); " fill="none"   d="M -0.168050219570776 -0.543275669232248 L -0.246290927599182 -0.456745972144193"  />
<path  style="stroke:hsl(354.1322933320596,100%,60%); " fill="none"   d="M -0.246290927599182 -0.456745972144193 L -0.322956214184666 -0.365652620282621"  />
<path  style="stroke:hsl(354.4515286988308,100%,60%); " fill="none"   d="M -0.322956214184666 -0.365652620282621 L -0.397555683121433 -0.270905788307869"  />
<path  style="stroke:hsl(354.76190279584563,100%,60%); " fill="none"   d="M -0.397555683121433 -0.270905788307869 L -0.469612152386833 -0.173452155245892"  />
<path  style="stroke:hsl(355.06340786376774,100%,60%); " fill="none"   d="M -0.469612152386833 -0.173452155245892 L -0.538664706477846 -0.074265445584361"  />
<path  style="stroke:hsl(355.35603636498615,100%,60%); " fill="none"   d="M -0.538664706477846 -0.074265445584361 L -0.604271644697403 0.025663299860559"  />
<path  style="stroke:hsl(355.63978098380346,100%,60%); " fill="none"   d="M -0.604271644697403 0.025663299860559 L -0.666013306531474 0.125335626096429"  />
<path  style="stroke:hsl(355.9146346266191,100%,60%); " fill="none"   d="M -0.666013306531474 0.125335626096429 L -0.723494756044245 0.223755640186796"  />
<path  style="stroke:hsl(356.1805904221063,100%,60%); " fill="none"   d="M -0.723494756044245 0.223755640186796 L -0.776348308120325 0.319939961884198"  />
<path  style="stroke:hsl(356.437641721384,100%,60%); " fill="none"   d="M -0.776348308120325 0.319939961884198 L -0.824235880394741 0.41292754924054"  />
<path  style="stroke:hsl(356.6857820981831,100%,60%); " fill="none"   d="M -0.824235880394741 0.41292754924054 L -0.866851155826312 0.501789301020574"  />
<path  style="stroke:hsl(356.9250053490071,100%,60%); " fill="none"   d="M -0.866851155826312 0.501789301020574 L -0.903921542081392 0.585637339974298"  />
<path  style="stroke:hsl(357.15530549328724,100%,60%); " fill="none"   d="M -0.903921542081392 0.585637339974298 L -0.935209915194539 0.663633884212968"  />
<path  style="stroke:hsl(357.37667677353187,100%,60%); " fill="none"   d="M -0.935209915194539 0.663633884212968 L -0.960516136352698 0.734999618048778"  />
<path  style="stroke:hsl(357.5891136554705,100%,60%); " fill="none"   d="M -0.960516136352698 0.734999618048778 L -0.979678332100598 0.799021478659614"  />
<path  style="stroke:hsl(357.79261082819215,100%,60%); " fill="none"   d="M -0.979678332100598 0.799021478659614 L -0.992573929778464 0.85505978077707"  />
<path  style="stroke:hsl(357.98716320427815,100%,60%); " fill="none"   d="M -0.992573929778464 0.85505978077707 L -0.999120441568739 0.902554608210185"  />
<path  style="stroke:hsl(358.17276591992913,100%,60%); " fill="none"   d="M -0.999120441568739 0.902554608210185 L -0.999275992136628 0.941031408342954"  />
<path  style="stroke:hsl(358.3494143350869,100%,60%); " fill="none"   d="M -0.999275992136628 0.941031408342954 L -0.993039586489328 0.970105733707185"  />
<path  style="stroke:hsl(358.5171040335504,100%,60%); " fill="none"   d="M -0.993039586489328 0.970105733707185 L -0.980451116340591 0.989487083254535"  />
<path  style="stroke:hsl(358.6758308230858,100%,60%); " fill="none"   d="M -0.980451116340591 0.989487083254535 L -0.961591104939891 0.998981804946949"  />
<path  style="stroke:hsl(358.82559073553165,100%,60%); " fill="none"   d="M -0.961591104939891 0.998981804946949 L -0.936580191998417 0.998495030663815"  />
<path  style="stroke:hsl(358.96638002689787,100%,60%); " fill="none"   d="M -0.936580191998417 0.998495030663815 L -0.905578362006624 0.988031624092862"  />
<path  style="stroke:hsl(359.0981951774596,100%,60%); " fill="none"   d="M -0.905578362006624 0.988031624092862 L -0.868783920879451 0.967696132133805"  />
<path  style="stroke:hsl(359.2210328918449,100%,60%); " fill="none"   d="M -0.868783920879451 0.967696132133805 L -0.826432227475208 0.937691740300281"  />
<path  style="stroke:hsl(359.33489009911733,100%,60%); " fill="none"   d="M -0.826432227475208 0.937691740300281 L -0.778794188102074 0.898318242557355"  />
<path  style="stroke:hsl(359.4397639528526,100%,60%); " fill="none"   d="M -0.778794188102074 0.898318242557355 L -0.726174523642211 0.849969045879328"  />
<path  style="stroke:hsl(359.53565183120986,100%,60%); " fill="none"   d="M -0.726174523642211 0.849969045879328 L -0.668909820378024 0.793127239457285"  />
<path  style="stroke:hsl(359.62255133699716,100%,60%); " fill="none"   d="M -0.668909820378024 0.793127239457285 L -0.607366376988572 0.728360767831593"  />
<path  style="stroke:hsl(359.70046029773135,100%,60%); " fill="none"   d="M -0.607366376988572 0.728360767831593 L -0.541937861488077 0.65631675617779"  />
<path  style="stroke:hsl(359.76937676569247,100%,60%); " fill="none"   d="M -0.541937861488077 0.65631675617779 L -0.47304279309404 0.577715044445732"  />
<path  style="stroke:hsl(359.82929901797246,100%,60%); " fill="none"   d="M -0.47304279309404 0.577715044445732 L -0.401121865132517 0.493340994956778"  />
<path  style="stroke:hsl(359.8802255565181,100%,60%); " fill="none"   d="M -0.401121865132517 0.493340994956778 L -0.326635126104722 0.404037645323065"  />
<path  style="stroke:hsl(359.9221551081685,100%,60%); " fill="none"   d="M -0.326635126104722 0.404037645323065 L -0.250059036946603 0.310697285094372"  />
<path  style="stroke:hsl(359.95508662468717,100%,60%); " fill="none"   d="M -0.250059036946603 0.310697285094372 L -0.171883423304801 0.214252540295888"  />
<path  style="stroke:hsl(359.9790192827879,100%,60%); " fill="none"   d="M -0.171883423304801 0.214252540295888 L -0.092608342324123 0.115667054937237"  />
<path  style="stroke:hsl(359.9939524841554,100%,60%); " fill="none"   d="M -0.092608342324123 0.115667054937237 L -0.012740883988281 0.015925862600102"  />
<path  style="stroke:hsl(359.99988585546043,100%,60%); " fill="none"   d="M -0.012740883988281 0.015925862600102 L 0.067208072525475 -0.083974455691747"  />
</svg>
