<svg viewBox="9 -206 216 169" xmlns="http://www.w3.org/2000/svg">
<path  style="stroke:#0088cc; stroke-width:1; stroke-linejoin:round; fill:#88ccff; " fill-rule="evenodd"   d="M 134 -57 L 58 -65 29 -157 84 -186 176 -183 205 -139 178 -80 139 -59 Z" ><title>Convex Hull</title></path>
<g  style="stroke:#0000ff; stroke-width:1; stroke-opacity:0.5; stroke-linejoin:round; fill:#a0a0ff; ">
<circle  r="1"  cx="42" cy="-129" />
<path  fill-rule="evenodd"   d="M 134 -57 L 134 -57 58 -65 58 -65 51 -103 51 -103 41 -135 29 -157 29 -157 84 -186 84 -186 84 -186 117 -158 162 -163 176 -183 177 -167 205 -139 190 -112 178 -107 178 -80 157 -72 139 -59 Z"  />
<title>Concave Hull</title></g>
<g  style="fill:#ff0000; ">
<circle  r="2"  cx="178" cy="-80" />
<circle  r="2"  cx="174" cy="-133" />
<circle  r="2"  cx="42" cy="-129" />
<circle  r="2"  cx="66" cy="-151" />
<circle  r="2"  cx="162" cy="-163" />
<circle  r="2"  cx="127" cy="-138" />
<circle  r="2"  cx="205" cy="-139" />
<circle  r="2"  cx="160" cy="-88" />
<circle  r="2"  cx="147" cy="-143" />
<circle  r="2"  cx="29" cy="-157" />
<circle  r="2"  cx="85" cy="-160" />
<circle  r="2"  cx="146" cy="-66" />
<circle  r="2"  cx="79" cy="-129" />
<circle  r="2"  cx="139" cy="-59" />
<circle  r="2"  cx="117" cy="-158" />
<circle  r="2"  cx="110" cy="-158" />
<circle  r="2"  cx="84" cy="-186" />
<circle  r="2"  cx="134" cy="-57" />
<circle  r="2"  cx="157" cy="-72" />
<circle  r="2"  cx="177" cy="-167" />
<circle  r="2"  cx="178" cy="-107" />
<circle  r="2"  cx="156" cy="-137" />
<circle  r="2"  cx="190" cy="-112" />
<circle  r="2"  cx="58" cy="-65" />
<circle  r="2"  cx="67" cy="-129" />
<circle  r="2"  cx="152" cy="-69" />
<circle  r="2"  cx="68" cy="-103" />
<circle  r="2"  cx="176" cy="-183" />
<circle  r="2"  cx="41" cy="-135" />
<circle  r="2"  cx="51" cy="-103" />
</g>
</svg>
