<svg viewBox="9 -206 216 169" xmlns="http://www.w3.org/2000/svg">
<path  style="stroke:#0088cc; stroke-width:1; fill:#88ccff; " fill-rule="evenodd"   d="M 134 -57 L 58 -65 29 -157 84 -186 176 -183 205 -139 178 -80 Z" ><title>Convex Hull</title></path>
<path  style="stroke:#0000ff; stroke-width:1; fill:#a0a0ff; " fill-rule="evenodd"   d="M 134 -57 L 134 -57 90 -80 58 -65 51 -103 51 -103 48 -136 29 -157 29 -157 84 -186 84 -186 117 -158 162 -163 176 -183 177 -167 205 -139 190 -112 178 -107 178 -80 148 -76 Z" ><title>Concave Hull</title></path>
<path  style="stroke:#6600aa; stroke-width:1; fill:#dd90ff; " fill-rule="evenodd"   d="M 163.76473578934886 -109.09130859375 L 162.94594124277785 -100.77794804996964 160.5210234183043 -92.78406528970046 156.5831705480131 -85.41686074439849 151.28371210933625 -78.95945195316378 144.82630331810157 -73.65999351448693 137.45909877279962 -69.72214064419573 129.46521601253042 -67.29722281972215 121.15185546875007 -66.47842827315114 112.83849492496971 -67.29722281972212 104.84461216470052 -69.72214064419569 97.47740761939855 -73.65999351448684 91.01999882816384 -78.9594519531637 85.72054038948696 -85.41686074439838 81.78268751919575 -92.78406528970034 79.35776969472218 -100.77794804996951 78.53897514815114 -109.09130859374986 79.35776969472212 -117.40466913753022 81.78268751919566 -125.39855189779942 85.72054038948681 -132.7657564431014 91.01999882816364 -139.2231652343361 97.4774076193983 -144.522623673013 104.84461216470028 -148.46047654330422 112.83849492496942 -150.88539436777782 121.1518554687498 -151.70418891434886 129.46521601253014 -150.8853943677779 137.45909877279936 -148.46047654330437 144.82630331810134 -144.52262367301324 151.28371210933608 -139.2231652343364 156.58317054801296 -132.76575644310174 160.5210234183042 -125.39855189779979 162.9459412427778 -117.40466913753065 Z" ><title>Maximum Inscribed Circle</title></path>
<g  style="fill:#ff0000; ">
<circle  r="2"  cx="178" cy="-80" />
<circle  r="2"  cx="174" cy="-133" />
<circle  r="2"  cx="66" cy="-151" />
<circle  r="2"  cx="162" cy="-163" />
<circle  r="2"  cx="205" cy="-139" />
<circle  r="2"  cx="147" cy="-143" />
<circle  r="2"  cx="29" cy="-157" />
<circle  r="2"  cx="85" cy="-160" />
<circle  r="2"  cx="79" cy="-129" />
<circle  r="2"  cx="117" cy="-158" />
<circle  r="2"  cx="110" cy="-158" />
<circle  r="2"  cx="84" cy="-186" />
<circle  r="2"  cx="134" cy="-57" />
<circle  r="2"  cx="177" cy="-167" />
<circle  r="2"  cx="178" cy="-107" />
<circle  r="2"  cx="190" cy="-112" />
<circle  r="2"  cx="58" cy="-65" />
<circle  r="2"  cx="67" cy="-129" />
<circle  r="2"  cx="68" cy="-103" />
<circle  r="2"  cx="176" cy="-183" />
<circle  r="2"  cx="51" cy="-103" />
<circle  r="2"  cx="90" cy="-80" />
<circle  r="2"  cx="48" cy="-136" />
<circle  r="2"  cx="148" cy="-76" />
</g>
</svg>
