<svg xmlns="http://www.w3.org/2000/svg" viewBox="540 -1440 960 920" > 
<path  style="stroke:#0000ff; stroke-width:20; " fill="none"   d="M 1000 -1000 L 1000.9969173337331 -1000.0784590957278 1001.9753766811903 -1000.3128689300804 1002.917109761193 -1000.7003360915677 1003.8042260651806 -1001.2360679774998 1004.6193976625565 -1001.9134171618255 1005.3460391451302 -1002.7239429984372 1005.9684811504786 -1003.6574899530117 1006.4721359549995 -1004.7022820183398 1006.8436536904003 -1005.8450324349717 1007.0710678118655 -1007.0710678118654 1007.143928531632 -1008.3644656216003 1007.0534230275097 -1009.7082039324994 1006.7924813413073 -1011.0843221366032 1006.3558669963537 -1012.4740913386371 1005.7402514854764 -1013.8581929876693 1004.9442719099992 -1015.2169042607225 1003.9685711855504 -1016.5302886467605 1002.8158203707242 -1017.7783901307125 1001.490722818829 -1018.9414293409294 1000 -1020 998.3523589897153 -1020.9352640083957 996.5584417691149 -1021.729143493093 994.6307566313142 -1022.3645081691466 992.5835921350013 -1022.8253563910837 990.4329141908728 -1023.0969883127822 988.1962470067717 -1023.1661696288976 985.8925387526693 -1023.0212844375604 983.5420129358107 -1022.6524758424986 981.1660065984247 -1022.0517730024009 978.7867965644036 -1021.2132034355964 976.427415066399 -1020.1328894982357 974.1114561800017 -1018.8091280733591 971.862874576315 -1017.2424526356264 969.7057781775954 -1015.4356769911446 967.664216362105 -1013.3939201327781 965.7619654133745 -1011.1246117974981 964.022312945286 -1008.6374784626685 962.4678430573848 -1005.9445096715287 961.120223984408 -1003.0599047333859 960 -1000 959.1263893169418 -996.7831770751584 958.5170896950042 -993.4297524683103 958.1880934228999 -989.961849354196 958.1535132830132 -986.4032522475023 958.4254210369921 -982.7792455435709 959.0136998873351 -979.1164370119809 959.9259122753576 -975.4425674583504 961.1671842700025 -971.7863078899613 962.7401076855984 -968.177045631821 964.6446609406726 -964.6446609406727 966.8781495351606 -961.2192957543984 969.4351668807914 -957.9311162925028 972.3075760700547 -954.8100712892331 975.4845130140644 -951.8856476938281 978.95241121992 -949.1866257118793 982.695048315003 -946.7408350874714 986.6936142602134 -944.5749145373325 990.9268010276666 -942.714076245482 995.3709133520571 -941.1818773097455 1000 -940 1004.7860048393985 -939.1880426422792 1009.6989368324943 -938.7633228831014 1014.707057922922 -938.7406950149464 1019.7770876399966 -939.1323829571102 1024.8744231037308 -939.9478303867663 1029.9633729828101 -941.1935694035677 1035.0074038359685 -942.8731089882758 1039.9693971558881 -944.9868443825036 1044.8119153347827 -947.5319883735979 1049.4974746830583 -950.5025253169416 1053.9888235576022 -953.889188568557 1058.2492235949962 -957.6794618349419 1062.2427319978488 -961.8576047757357 1065.9344827899392 -966.4047030192735 1069.2909649383464 -971.2987425726183 1072.2802952384316 -976.5147084275039 1074.8724838706212 -982.0247069830953 1077.0396905664206 -987.798111726862 1078.7564693649172 -993.8017314375002 1080 -1000 1080.7503040323834 -1006.3551867539554 1080.9904439288014 -1012.827626133299 1080.7067033930073 -1019.3759652000401 1079.8887473687928 -1025.9574275274956 1078.5297602634594 -1032.5280917510327 1076.6265610801997 -1039.043182977601 1074.179694298806 -1045.4573751302876 1071.1934955049953 -1051.7251022017376 1067.6761309384028 -1057.8008763013863 1063.6396103067893 -1063.6396103067893 1059.0997723980468 -1069.1969428696027 1054.0762432109075 -1074.429563482495 1048.5923665185833 -1079.2955352849306 1042.6751069755173 -1083.7546132737066 1036.3549260746836 -1087.7685555885723 1029.665631459995 -1091.3014255643347 1022.6442002940228 -1094.3198822785746 1015.3305775739426 -1096.7934573783234 1007.7674504770567 -1098.6948160395796 1000 -1100 992.0756313314877 -1100.688650707046 984.0436845658966 -1100.7442107407041 975.9551275228418 -1100.1541018009607 967.8622325850055 -1098.909877694696 959.8182396016656 -1097.007350913685 951.877007027608 -1094.4466915639669 944.0926535753936 -1091.2324975858878 936.5191927524129 -1087.3738353924944 929.21016273201 -1082.8842502504033 922.2182540694798 -1077.7817459305204 915.5949378183966 -1072.0887333646504 909.3900966300059 -1065.831948256757 903.6516614279876 -1059.0423378129021 898.4252562425261 -1051.7549169703084 893.7538537612021 -1044.0085947219854 889.6774441097622 -1035.845971347494 886.2327193134719 -1027.313107571141 883.4527758097738 -1018.4592668747474 881.3668372857578 -1009.3366323916136 880 -1000 879.3730026182915 -990.5064494169308 879.5020224473932 -980.9149952650918 880.3984997910858 -971.2862202457237 882.068991979401 -961.6818926975066 884.5150584360891 -952.1645709543637 887.7331779522656 -942.7971970328173 891.7146991270303 -933.6426822810746 896.4458247200067 -924.7634877065635 901.907630437596 -916.2212017654062 908.0761184457489 -908.0761184457488 914.9223056687458 -900.386818506396 922.4123466973936 -893.209756742507 930.5076908927788 -886.5988581409057 939.1652730349006 -880.6051257587587 948.3377366307128 -875.2762631109763 957.9736887650071 -870.6563137838591 968.017985151741 -866.7853209055183 978.4120438244482 -863.699008997871 989.0941856938294 -861.4284906110952 999.9999999999999 -860 1011.0627324976261 -859.434655943629 1022.2136940357126 -859.7482556354904 1033.3826870313944 -860.9511013831323 1044.4984471899925 -863.0478616534979 1055.489097692938 -866.0374677858634 1066.2826129619739 -869.9130474684983 1076.8072890132444 -874.6618958399483 1086.992217339286 -880.2654848325077 1096.7677592011974 -886.6995111255953 1106.066017177982 -893.9339828220177 1114.8213008056046 -901.9333447021422 1122.970583144992 -910.6566416515441 1130.453945146176 -920.0577195984598 1137.2150047250086 -930.0854630401099 1143.2013275392494 -940.684067983411 1148.3648165420439 -951.7933488775082 1152.6620775024353 -963.3490778746228 1156.0547578140317 -975.2833545236433 1158.5098560635674 -987.5250037792725 1160 -999.9999999999999 1160.5036907310337 -1012.631914412183 1160.0055111764123 -1025.3423833365175 1158.4962970248214 -1038.0515943085124 1155.9732686724053 -1050.6787870774913 1152.4401228643624 -1063.1427663402399 1147.907083015269 -1075.3624229567645 1142.3909074471335 -1087.2572603075632 1135.9148550549912 -1098.7479223851353 1128.5086081864051 -1109.756720167801 1120.208152801713 -1120.2081528017131 1111.0556162644616 -1130.0294201176052 1101.0990633943054 -1139.150923032491 1090.3922516958592 -1147.506748433258 1078.9943469546813 -1155.035135208776 1066.9696006638908 -1161.678918189475 1054.3869910099909 -1167.385946867947 1041.3198294024953 -1172.1094759103887 1027.845334777161 -1175.8085246259345 1014.0441781352844 -1178.4482027382298 1000.0000000000001 -1180 985.79890367326 -1180.4420374056963 971.5289273626782 -1179.759277988315 957.2794984143695 -1177.9436954327748 943.1408730350098 -1174.9943989983083 929.2035650124584 -1170.917713514588 915.5577670484442 -1165.7272134990365 902.2927683981177 -1159.4437107342153 889.4963725690152 -1152.0951949424903 877.2543188655953 -1143.7167274984058 865.6497115745561 -1134.3502884254442 854.7624605703942 -1124.0445772310652 844.6687370800101 -1112.8547684401549 835.4404482796602 -1100.8422229901782 827.1447343074566 -1088.0741569494721 819.8434911602992 -1074.6232693111926 813.59292280615 -1060.56733089749 808.4431256816576 -1045.9887366796133 804.4377085621627 -1030.974024077966 801.6134505871075 -1015.6133600498414 800 -1000.0000000000001 799.6196159196413 -984.2297217587032 800.4869551997822 -968.4002380618733 802.6089061592716 -952.6105911372514 805.9844706757885 -936.9605331475112 810.604695835186 -921.549896365157 816.4526560171961 -906.4779570536537 823.5034859787028 -891.8427971037988 831.7244651700108 -877.7406675231657 841.0751531895935 -864.2653578989916 851.5075759508251 -851.507575950825 862.9664618023314 -839.5543412583934 875.3895265139959 -828.488397192511 888.7078057155026 -818.3876449925785 902.8460330557367 -809.3246038236895 917.7230620415055 -801.3659005100735 933.2523292150112 -794.5717924802468 949.3423560432685 -788.9957272737042 965.8972866212297 -784.6839417502599 982.8174580356022 -781.6751039124449 999.9999999999994 -780 1017.3394601558533 -779.6812692449787 1034.7284512389308 -780.7331883878794 1052.0583161398667 -783.161507751318 1069.2198067399881 -786.9633403498856 1086.1037722821452 -792.1271051849604 1102.6018529411376 -798.6325255334289 1118.6071741905205 -806.4506826916212 1134.015037522684 -815.5441252825121 1148.7236030676117 -825.8670338775926 1162.6345596729057 -837.3654403270938 1175.6537780536069 -849.9775008357274 1187.6919426949878 -863.6338214681462 1198.6651582945035 -878.2578344211838 1208.4955266600782 -893.7662230609461 1217.1116901401524 -910.0693933942041 1224.4493378456561 -927.0719893275118 1230.4516711342492 -944.6734487661499 1235.0698250616426 -962.7685973204246 1238.2632427622175 -981.2482761210448 1240 -999.9999999999998 1240.257077429684 -1018.9086420704106 1239.0205784240234 -1037.8571405397358 1236.2858906566353 -1056.7272234169852 1232.0577899760174 -1075.4001466274874 1226.3504854652654 -1093.7574409294466 1219.1876049503387 -1111.6816629359282 1210.602120595461 -1129.057145484839 1200.6362146049871 -1145.7707425685333 1189.3410854344077 -1161.7125640342156 1176.776695296637 -1176.776695296637 1163.011460130876 -1190.8618973656078 1148.1218835777038 -1203.8722825824864 1132.1921368731355 -1215.717961581585 1115.3135869338453 -1226.3156571438453 1097.5842752530982 -1235.589280790378 1079.1083505599868 -1243.4704681715593 1059.9954585109679 -1249.8990695422028 1040.3600919803796 -1254.8235918735456 1020.3209057935117 -1258.20158943688 999.9999999999998 -1260 979.522176015033 -1260.1954241043463 959.0141701594599 -1258.7743452359261 938.6038693058972 -1255.733289064589 918.419513485014 -1251.0789203019206 898.5888904232513 -1244.828076115491 879.2385270692805 -1237.0077354341058 860.4928832208416 -1227.6549238825426 842.4735523856177 -1216.8165544924864 825.298474999181 -1204.5492047464088 809.0811690796324 -1190.9188309203682 793.9299833223918 -1176.00042109748 779.9473775300145 -1159.8775886235528 767.2292351313329 -1142.6421081674541 755.8642123723872 -1124.3933969286359 745.9331285593961 -1105.2379439003996 737.5084015025375 -1085.2886904474854 730.6535320498438 -1064.6643657880863 725.4226413145518 -1043.4887812811846 721.8600638884573 -1021.8900877080691 720 -1000.0000000000002 719.866229220991 -977.9529941004757 721.4718879521711 -955.8854808586549 724.8193125274576 -933.9349620287786 729.8999493721761 -912.2391735975157 736.694333234283 -890.93522177595 745.1721340821266 -870.15871707449 755.2922728303753 -850.042911926523 767.0031056200149 -830.717847339768 780.242675941591 -812.309514032577 794.9390334559013 -794.9390334559012 811.0106179359167 -778.7218640103908 828.366706330598 -763.7670376425152 846.9079205382264 -750.1764318442513 866.5267930765727 -738.0440818886201 887.1083874522981 -727.4555379091705 908.5309696650153 -718.4872711766346 930.666726934796 -711.2061336418901 953.3825294180112 -705.6688745026489 976.5407303773745 -701.9217172137948 999.9999999999992 -700 1023.6161878140806 -699.9278825463284 1047.2432084421491 -701.7181211402683 1070.7339452483388 -705.3719141195039 1093.9411662899838 -710.8788190462733 1116.7184468713522 -718.2167425840576 1138.9210929203014 -727.3520035983595 1160.4070593677964 -738.2394695432938 1181.037857706082 -750.8227657325164 1200.6794469340261 -765.03455662959 1219.2031021678292 -780.7968978321699 1236.4862553016094 -798.0216569693125 1252.4133022449835 -816.6110012847481 1266.8763714428308 -836.4579492439078 1279.7760485951476 -857.4469830817823 1291.0220527410554 -879.4547188049968 1300.5338591492682 -902.3506297775158 1308.2412647660633 -925.9978196576773 1314.0848923092537 -950.253840117206 1318.0166294608678 -974.971548462817 1320 -999.9999999999997 1320.0104641283342 -1025.185369728638 1318.0356456716345 -1050.3718977429544 1314.0754842884494 -1075.4028525254575 1308.1423112796297 -1100.1215061774833 1300.2608480661684 -1124.3721155186536 1290.4681268854083 -1148.0009029150917 1278.8133337437885 -1170.8570306621148 1265.357574154983 -1192.793562751931 1250.1735626824102 -1213.6684079006302 1233.3452377915607 -1233.3452377915607 1214.9673039972906 -1251.6943746136103 1195.144703761102 -1268.593642132482 1173.9920220504116 -1283.9291747299123 1151.6328269130092 -1297.5961790789147 1128.1989498423056 -1309.4996433912809 1103.8297101099827 -1319.5549894751714 1078.6710876194404 -1327.688663174017 1052.8748491835981 -1333.8386591211565 1026.5976334517393 -1337.9549761355304 999.9999999999998 -1340 973.2454483568057 -1339.9488108029968 946.4994129562417 -1337.7894124835373 919.9282401974249 -1333.5228826964033 893.6981539350185 -1327.1634416055329 867.9742158340442 -1318.738438716394 842.9192870901169 -1308.2882573691754 818.6929980435657 -1295.86613703087 795.4507322022201 -1281.5379140424823 773.3426311327665 -1265.3816819944113 752.5126265847089 -1247.487373415292 733.0975060743895 -1227.956264963895 715.2260179800187 -1206.900408806951 699.0180219830056 -1184.4419933447302 684.5836904373177 -1160.7126369077996 672.0227659584932 -1135.8526184896068 661.4238801989252 -1110.010049997481 652.8639384180296 -1083.3399948965591 646.4075740669408 -1056.0035384844034 642.1066771898071 -1028.166815366297 640 -1000.0000000000003 640.1128425223408 -971.6762664422482 642.4568207045602 -943.3707236554364 647.0297188956433 -915.2593329203063 653.8154280685637 -887.5178140475201 662.78397063338 -860.320547186743 673.891612147057 -833.8394770953265 687.0810596820479 -808.2430267492473 702.2817460700192 -783.6950271563702 719.4101986935884 -760.3536701661624 738.3704909609773 -738.3704909609775 759.054774069502 -717.8893867623885 781.3438861472002 -699.0456780925194 805.1080353609503 -681.965218695924 830.2075530974088 -666.7635599535508 856.4937128630908 -653.5451753082677 883.8096101150194 -642.4027498730225 911.9910978263234 -633.416540010076 940.8677722147926 -626.6538072550379 970.2640027191468 -622.1683305151445 999.9999999999989 -620 1029.892915472308 -620.1744958476781 1059.7579656453674 -622.7030538926572 1089.4095743568112 -627.5823204876897 1118.6625258399795 -634.7942977426609 1147.3331214605594 -644.3063799831546 1175.2403328994649 -656.0714816632899 1202.2069445450722 -670.0282563949663 1228.0606778894798 -686.1014061825206 1252.6352908004408 -704.2020793815873 1275.7716446627528 -724.2283553372458 1297.3187325496117 -746.0658131028977 1317.1346617949791 -769.5881811013501 1335.087584591158 -794.6580640666318 1351.056570530217 -821.1277431026184 1364.9324153419584 -848.8400442157896 1376.6183804528805 -877.6292702275197 1386.0308583978774 -907.3221905492046 1393.0999595568646 -937.7390829139873 1397.770016159518 -968.6948208045892 1400 -999.9999999999995"  />
</svg>
