<svg xmlns="http://www.w3.org/2000/svg" viewBox="-120 -120 240 240" > 
<g  style="fill:none; stroke:black; stroke-width:0.1; ">
<path  fill="none"   d="M -100 -1.224646799147353e-14 L 100 0"  />
<path  fill="none"   d="M 100 0 L 100 0"  />
<path  fill="none"   d="M -99.80267284282715 6.279051952931335 L 99.21147013144778 -12.533323356430426"  />
<path  fill="none"   d="M 99.80267284282715 -6.279051952931337 L 99.21147013144778 -12.533323356430426"  />
<path  fill="none"   d="M 99.21147013144778 -12.533323356430426 L 96.85831611286311 -24.86898871648548"  />
<path  fill="none"   d="M -99.21147013144778 12.53332335643043 L 96.85831611286311 -24.86898871648548"  />
<path  fill="none"   d="M 98.22872507286887 -18.73813145857246 L 92.97764858882515 -36.812455268467794"  />
<path  fill="none"   d="M -98.22872507286885 18.738131458572475 L 92.97764858882515 -36.812455268467794"  />
<path  fill="none"   d="M 96.85831611286311 -24.86898871648548 L 87.63066800438637 -48.17536741017153"  />
<path  fill="none"   d="M -96.85831611286311 24.8689887164855 L 87.63066800438637 -48.17536741017153"  />
<path  fill="none"   d="M 95.10565162951535 -30.901699437494738 L 80.90169943749474 -58.778525229247315"  />
<path  fill="none"   d="M -95.10565162951535 30.901699437494774 L 80.90169943749474 -58.778525229247315"  />
<path  fill="none"   d="M 92.97764858882515 -36.812455268467794 L 72.89686274214115 -68.45471059286886"  />
<path  fill="none"   d="M -92.97764858882512 36.81245526846783 L 72.89686274214115 -68.45471059286886"  />
<path  fill="none"   d="M 90.48270524660195 -42.577929156507274 L 63.74239897486896 -77.05132427757893"  />
<path  fill="none"   d="M -90.48270524660197 42.577929156507224 L 63.74239897486896 -77.05132427757893"  />
<path  fill="none"   d="M 87.63066800438637 -48.17536741017153 L 53.582679497899655 -84.43279255020151"  />
<path  fill="none"   d="M -87.63066800438637 48.175367410171496 L 53.582679497899655 -84.43279255020151"  />
<path  fill="none"   d="M -84.43279255020151 53.58267949789964 L 42.57792915650727 -90.48270524660195"  />
<path  fill="none"   d="M 84.43279255020151 -53.58267949789967 L 42.57792915650727 -90.48270524660195"  />
<path  fill="none"   d="M -80.90169943749474 58.7785252292473 L 30.901699437494745 -95.10565162951535"  />
<path  fill="none"   d="M 80.90169943749474 -58.778525229247315 L 30.901699437494745 -95.10565162951535"  />
<path  fill="none"   d="M -77.05132427757893 63.74239897486896 L 18.738131458572475 -98.22872507286885"  />
<path  fill="none"   d="M 77.05132427757893 -63.74239897486896 L 18.738131458572475 -98.22872507286885"  />
<path  fill="none"   d="M 72.89686274214115 -68.45471059286886 L 6.279051952931352 -99.80267284282715"  />
<path  fill="none"   d="M -72.89686274214115 68.45471059286888 L 6.279051952931352 -99.80267284282715"  />
<path  fill="none"   d="M 68.45471059286886 -72.89686274214115 L -6.27905195293134 -99.80267284282715"  />
<path  fill="none"   d="M -68.45471059286889 72.89686274214114 L -6.27905195293134 -99.80267284282715"  />
<path  fill="none"   d="M -63.742398974868955 77.05132427757894 L -18.738131458572482 -98.22872507286885"  />
<path  fill="none"   d="M 63.74239897486896 -77.05132427757893 L -18.738131458572482 -98.22872507286885"  />
<path  fill="none"   d="M 58.778525229247315 -80.90169943749474 L -30.901699437494734 -95.10565162951536"  />
<path  fill="none"   d="M -58.77852522924732 80.90169943749473 L -30.901699437494734 -95.10565162951536"  />
<path  fill="none"   d="M -53.58267949789963 84.43279255020153 L -42.577929156507274 -90.48270524660195"  />
<path  fill="none"   d="M 53.582679497899655 -84.43279255020151 L -42.577929156507274 -90.48270524660195"  />
<path  fill="none"   d="M 48.17536741017152 -87.63066800438637 L -53.58267949789969 -84.4327925502015"  />
<path  fill="none"   d="M -48.175367410171525 87.63066800438637 L -53.58267949789969 -84.4327925502015"  />
<path  fill="none"   d="M 42.57792915650727 -90.48270524660195 L -63.742398974868976 -77.05132427757893"  />
<path  fill="none"   d="M -42.57792915650722 90.48270524660198 L -63.742398974868976 -77.05132427757893"  />
<path  fill="none"   d="M -36.81245526846786 92.97764858882512 L -72.89686274214114 -68.45471059286888"  />
<path  fill="none"   d="M 36.81245526846781 -92.97764858882513 L -72.89686274214114 -68.45471059286888"  />
<path  fill="none"   d="M 30.901699437494745 -95.10565162951535 L -80.90169943749473 -58.77852522924732"  />
<path  fill="none"   d="M -30.901699437494756 95.10565162951535 L -80.90169943749473 -58.77852522924732"  />
<path  fill="none"   d="M -24.86898871648553 96.8583161128631 L -87.63066800438635 -48.17536741017156"  />
<path  fill="none"   d="M 24.868988716485497 -96.85831611286311 L -87.63066800438635 -48.17536741017156"  />
<path  fill="none"   d="M 18.738131458572475 -98.22872507286885 L -92.97764858882513 -36.812455268467815"  />
<path  fill="none"   d="M -18.738131458572465 98.22872507286887 L -92.97764858882513 -36.812455268467815"  />
<path  fill="none"   d="M -12.53332335643046 99.21147013144778 L -96.85831611286311 -24.868988716485482"  />
<path  fill="none"   d="M 12.533323356430426 -99.21147013144778 L -96.85831611286311 -24.868988716485482"  />
<path  fill="none"   d="M 6.279051952931352 -99.80267284282715 L -99.21147013144778 -12.533323356430454"  />
<path  fill="none"   d="M -6.27905195293132 99.80267284282715 L -99.21147013144778 -12.533323356430454"  />
<path  fill="none"   d="M -1.83697019872103e-14 100 L -100 -1.224646799147353e-14"  />
<path  fill="none"   d="M 6.123233995736766e-15 -100 L -100 -1.224646799147353e-14"  />
<path  fill="none"   d="M 6.279051952931283 99.80267284282715 L -99.21147013144778 12.53332335643043"  />
<path  fill="none"   d="M -6.27905195293134 -99.80267284282715 L -99.21147013144778 12.53332335643043"  />
<path  fill="none"   d="M -12.533323356430436 -99.21147013144778 L -96.85831611286311 24.8689887164855"  />
<path  fill="none"   d="M 12.533323356430422 99.21147013144778 L -96.85831611286311 24.8689887164855"  />
<path  fill="none"   d="M -18.738131458572482 -98.22872507286885 L -92.97764858882512 36.81245526846783"  />
<path  fill="none"   d="M 18.738131458572425 98.22872507286887 L -92.97764858882512 36.81245526846783"  />
<path  fill="none"   d="M -24.86898871648546 -96.85831611286312 L -87.63066800438637 48.175367410171496"  />
<path  fill="none"   d="M 24.868988716485493 96.85831611286311 L -87.63066800438637 48.175367410171496"  />
<path  fill="none"   d="M 30.901699437494724 95.10565162951536 L -80.90169943749474 58.7785252292473"  />
<path  fill="none"   d="M -30.901699437494734 -95.10565162951536 L -80.90169943749474 58.7785252292473"  />
<path  fill="none"   d="M 36.81245526846782 92.97764858882512 L -72.89686274214115 68.45471059286888"  />
<path  fill="none"   d="M -36.8124552684678 -92.97764858882515 L -72.89686274214115 68.45471059286888"  />
<path  fill="none"   d="M -42.577929156507274 -90.48270524660195 L -63.742398974868955 77.05132427757894"  />
<path  fill="none"   d="M 42.57792915650718 90.482705246602 L -63.742398974868955 77.05132427757894"  />
<path  fill="none"   d="M 48.175367410171496 87.63066800438638 L -53.58267949789963 84.43279255020153"  />
<path  fill="none"   d="M -48.175367410171546 -87.63066800438635 L -53.58267949789963 84.43279255020153"  />
<path  fill="none"   d="M -53.58267949789969 -84.4327925502015 L -42.57792915650722 90.48270524660198"  />
<path  fill="none"   d="M 53.5826794978996 84.43279255020155 L -42.57792915650722 90.48270524660198"  />
<path  fill="none"   d="M -58.7785252292473 -80.90169943749474 L -30.901699437494756 95.10565162951535"  />
<path  fill="none"   d="M 58.77852522924729 80.90169943749476 L -30.901699437494756 95.10565162951535"  />
<path  fill="none"   d="M -63.742398974868976 -77.05132427757893 L -18.738131458572465 98.22872507286887"  />
<path  fill="none"   d="M 63.742398974868934 77.05132427757896 L -18.738131458572465 98.22872507286887"  />
<path  fill="none"   d="M 68.45471059286886 72.89686274214115 L -6.27905195293132 99.80267284282715"  />
<path  fill="none"   d="M -68.45471059286888 -72.89686274214114 L -6.27905195293132 99.80267284282715"  />
<path  fill="none"   d="M 72.89686274214112 68.45471059286889 L 6.279051952931283 99.80267284282715"  />
<path  fill="none"   d="M -72.89686274214114 -68.45471059286888 L 6.279051952931283 99.80267284282715"  />
<path  fill="none"   d="M 77.05132427757894 63.74239897486896 L 18.738131458572425 98.22872507286887"  />
<path  fill="none"   d="M -77.05132427757891 -63.74239897486898 L 18.738131458572425 98.22872507286887"  />
<path  fill="none"   d="M -80.90169943749473 -58.77852522924732 L 30.901699437494724 95.10565162951536"  />
<path  fill="none"   d="M 80.90169943749473 58.778525229247336 L 30.901699437494724 95.10565162951536"  />
<path  fill="none"   d="M -84.43279255020148 -53.5826794978997 L 42.57792915650718 90.482705246602"  />
<path  fill="none"   d="M 84.43279255020151 53.58267949789963 L 42.57792915650718 90.482705246602"  />
<path  fill="none"   d="M 87.63066800438637 48.17536741017153 L 53.5826794978996 84.43279255020155"  />
<path  fill="none"   d="M -87.63066800438635 -48.17536741017156 L 53.5826794978996 84.43279255020155"  />
<path  fill="none"   d="M 90.48270524660197 42.577929156507224 L 63.742398974868934 77.05132427757896"  />
<path  fill="none"   d="M -90.48270524660194 -42.57792915650729 L 63.742398974868934 77.05132427757896"  />
<path  fill="none"   d="M 92.97764858882512 36.81245526846787 L 72.89686274214112 68.45471059286889"  />
<path  fill="none"   d="M -92.97764858882513 -36.812455268467815 L 72.89686274214112 68.45471059286889"  />
<path  fill="none"   d="M 95.10565162951535 30.901699437494766 L 80.90169943749473 58.778525229247336"  />
<path  fill="none"   d="M -95.10565162951535 -30.901699437494752 L 80.90169943749473 58.778525229247336"  />
<path  fill="none"   d="M -96.85831611286311 -24.868988716485482 L 87.63066800438637 48.17536741017153"  />
<path  fill="none"   d="M 96.8583161128631 24.868988716485536 L 87.63066800438637 48.17536741017153"  />
<path  fill="none"   d="M 98.22872507286887 18.738131458572468 L 92.97764858882512 36.81245526846787"  />
<path  fill="none"   d="M -98.22872507286885 -18.7381314585725 L 92.97764858882512 36.81245526846787"  />
<path  fill="none"   d="M -99.21147013144778 -12.533323356430454 L 96.8583161128631 24.868988716485536"  />
<path  fill="none"   d="M 99.21147013144778 12.533323356430465 L 96.8583161128631 24.868988716485536"  />
<path  fill="none"   d="M -99.80267284282715 -6.279051952931358 L 99.21147013144778 12.533323356430465"  />
<path  fill="none"   d="M 99.80267284282715 6.279051952931327 L 99.21147013144778 12.533323356430465"  />
<path  fill="none"   d="M 99.80267284282715 6.279051952931327 L 100 0"  />
<path  fill="none"   d="M 100 0 L 99.80267284282715 -6.279051952931337"  />
<path  fill="none"   d="M 99.80267284282715 -6.279051952931337 L 99.21147013144778 -12.533323356430426"  />
<path  fill="none"   d="M 99.21147013144778 -12.533323356430426 L 98.22872507286887 -18.73813145857246"  />
<path  fill="none"   d="M 98.22872507286887 -18.73813145857246 L 96.85831611286311 -24.86898871648548"  />
<path  fill="none"   d="M 96.85831611286311 -24.86898871648548 L 95.10565162951535 -30.901699437494738"  />
<path  fill="none"   d="M 95.10565162951535 -30.901699437494738 L 92.97764858882515 -36.812455268467794"  />
<path  fill="none"   d="M 92.97764858882515 -36.812455268467794 L 90.48270524660195 -42.577929156507274"  />
<path  fill="none"   d="M 90.48270524660195 -42.577929156507274 L 87.63066800438637 -48.17536741017153"  />
<path  fill="none"   d="M 87.63066800438637 -48.17536741017153 L 84.43279255020151 -53.58267949789967"  />
<path  fill="none"   d="M 84.43279255020151 -53.58267949789967 L 80.90169943749474 -58.778525229247315"  />
<path  fill="none"   d="M 80.90169943749474 -58.778525229247315 L 77.05132427757893 -63.74239897486896"  />
<path  fill="none"   d="M 77.05132427757893 -63.74239897486896 L 72.89686274214115 -68.45471059286886"  />
<path  fill="none"   d="M 72.89686274214115 -68.45471059286886 L 68.45471059286886 -72.89686274214115"  />
<path  fill="none"   d="M 68.45471059286886 -72.89686274214115 L 63.74239897486896 -77.05132427757893"  />
<path  fill="none"   d="M 63.74239897486896 -77.05132427757893 L 58.778525229247315 -80.90169943749474"  />
<path  fill="none"   d="M 58.778525229247315 -80.90169943749474 L 53.582679497899655 -84.43279255020151"  />
<path  fill="none"   d="M 53.582679497899655 -84.43279255020151 L 48.17536741017152 -87.63066800438637"  />
<path  fill="none"   d="M 48.17536741017152 -87.63066800438637 L 42.57792915650727 -90.48270524660195"  />
<path  fill="none"   d="M 42.57792915650727 -90.48270524660195 L 36.81245526846781 -92.97764858882513"  />
<path  fill="none"   d="M 36.81245526846781 -92.97764858882513 L 30.901699437494745 -95.10565162951535"  />
<path  fill="none"   d="M 30.901699437494745 -95.10565162951535 L 24.868988716485497 -96.85831611286311"  />
<path  fill="none"   d="M 24.868988716485497 -96.85831611286311 L 18.738131458572475 -98.22872507286885"  />
<path  fill="none"   d="M 18.738131458572475 -98.22872507286885 L 12.533323356430426 -99.21147013144778"  />
<path  fill="none"   d="M 12.533323356430426 -99.21147013144778 L 6.279051952931352 -99.80267284282715"  />
<path  fill="none"   d="M 6.279051952931352 -99.80267284282715 L 6.123233995736766e-15 -100"  />
<path  fill="none"   d="M 6.123233995736766e-15 -100 L -6.27905195293134 -99.80267284282715"  />
<path  fill="none"   d="M -6.27905195293134 -99.80267284282715 L -12.533323356430436 -99.21147013144778"  />
<path  fill="none"   d="M -12.533323356430436 -99.21147013144778 L -18.738131458572482 -98.22872507286885"  />
<path  fill="none"   d="M -18.738131458572482 -98.22872507286885 L -24.86898871648546 -96.85831611286312"  />
<path  fill="none"   d="M -24.86898871648546 -96.85831611286312 L -30.901699437494734 -95.10565162951536"  />
<path  fill="none"   d="M -30.901699437494734 -95.10565162951536 L -36.8124552684678 -92.97764858882515"  />
<path  fill="none"   d="M -36.8124552684678 -92.97764858882515 L -42.577929156507274 -90.48270524660195"  />
<path  fill="none"   d="M -42.577929156507274 -90.48270524660195 L -48.175367410171546 -87.63066800438635"  />
<path  fill="none"   d="M -48.175367410171546 -87.63066800438635 L -53.58267949789969 -84.4327925502015"  />
<path  fill="none"   d="M -53.58267949789969 -84.4327925502015 L -58.7785252292473 -80.90169943749474"  />
<path  fill="none"   d="M -58.7785252292473 -80.90169943749474 L -63.742398974868976 -77.05132427757893"  />
<path  fill="none"   d="M -63.742398974868976 -77.05132427757893 L -68.45471059286888 -72.89686274214114"  />
<path  fill="none"   d="M -68.45471059286888 -72.89686274214114 L -72.89686274214114 -68.45471059286888"  />
<path  fill="none"   d="M -72.89686274214114 -68.45471059286888 L -77.05132427757891 -63.74239897486898"  />
<path  fill="none"   d="M -77.05132427757891 -63.74239897486898 L -80.90169943749473 -58.77852522924732"  />
<path  fill="none"   d="M -80.90169943749473 -58.77852522924732 L -84.43279255020148 -53.5826794978997"  />
<path  fill="none"   d="M -84.43279255020148 -53.5826794978997 L -87.63066800438635 -48.17536741017156"  />
<path  fill="none"   d="M -87.63066800438635 -48.17536741017156 L -90.48270524660194 -42.57792915650729"  />
<path  fill="none"   d="M -90.48270524660194 -42.57792915650729 L -92.97764858882513 -36.812455268467815"  />
<path  fill="none"   d="M -92.97764858882513 -36.812455268467815 L -95.10565162951535 -30.901699437494752"  />
<path  fill="none"   d="M -95.10565162951535 -30.901699437494752 L -96.85831611286311 -24.868988716485482"  />
<path  fill="none"   d="M -96.85831611286311 -24.868988716485482 L -98.22872507286885 -18.7381314585725"  />
<path  fill="none"   d="M -98.22872507286885 -18.7381314585725 L -99.21147013144778 -12.533323356430454"  />
<path  fill="none"   d="M -99.21147013144778 -12.533323356430454 L -99.80267284282715 -6.279051952931358"  />
<path  fill="none"   d="M -99.80267284282715 -6.279051952931358 L -100 -1.224646799147353e-14"  />
<path  fill="none"   d="M -100 -1.224646799147353e-14 L -99.80267284282715 6.279051952931335"  />
<path  fill="none"   d="M -99.80267284282715 6.279051952931335 L -99.21147013144778 12.53332335643043"  />
<path  fill="none"   d="M -99.21147013144778 12.53332335643043 L -98.22872507286885 18.738131458572475"  />
<path  fill="none"   d="M -98.22872507286885 18.738131458572475 L -96.85831611286311 24.8689887164855"  />
<path  fill="none"   d="M -96.85831611286311 24.8689887164855 L -95.10565162951535 30.901699437494774"  />
<path  fill="none"   d="M -95.10565162951535 30.901699437494774 L -92.97764858882512 36.81245526846783"  />
<path  fill="none"   d="M -92.97764858882512 36.81245526846783 L -90.48270524660197 42.577929156507224"  />
<path  fill="none"   d="M -90.48270524660197 42.577929156507224 L -87.63066800438637 48.175367410171496"  />
<path  fill="none"   d="M -87.63066800438637 48.175367410171496 L -84.43279255020151 53.58267949789964"  />
<path  fill="none"   d="M -84.43279255020151 53.58267949789964 L -80.90169943749474 58.7785252292473"  />
<path  fill="none"   d="M -80.90169943749474 58.7785252292473 L -77.05132427757893 63.74239897486896"  />
<path  fill="none"   d="M -77.05132427757893 63.74239897486896 L -72.89686274214115 68.45471059286888"  />
<path  fill="none"   d="M -72.89686274214115 68.45471059286888 L -68.45471059286889 72.89686274214114"  />
<path  fill="none"   d="M -68.45471059286889 72.89686274214114 L -63.742398974868955 77.05132427757894"  />
<path  fill="none"   d="M -63.742398974868955 77.05132427757894 L -58.77852522924732 80.90169943749473"  />
<path  fill="none"   d="M -58.77852522924732 80.90169943749473 L -53.58267949789963 84.43279255020153"  />
<path  fill="none"   d="M -53.58267949789963 84.43279255020153 L -48.175367410171525 87.63066800438637"  />
<path  fill="none"   d="M -48.175367410171525 87.63066800438637 L -42.57792915650722 90.48270524660198"  />
<path  fill="none"   d="M -42.57792915650722 90.48270524660198 L -36.81245526846786 92.97764858882512"  />
<path  fill="none"   d="M -36.81245526846786 92.97764858882512 L -30.901699437494756 95.10565162951535"  />
<path  fill="none"   d="M -30.901699437494756 95.10565162951535 L -24.86898871648553 96.8583161128631"  />
<path  fill="none"   d="M -24.86898871648553 96.8583161128631 L -18.738131458572465 98.22872507286887"  />
<path  fill="none"   d="M -18.738131458572465 98.22872507286887 L -12.53332335643046 99.21147013144778"  />
<path  fill="none"   d="M -12.53332335643046 99.21147013144778 L -6.27905195293132 99.80267284282715"  />
<path  fill="none"   d="M -6.27905195293132 99.80267284282715 L -1.83697019872103e-14 100"  />
<path  fill="none"   d="M -1.83697019872103e-14 100 L 6.279051952931283 99.80267284282715"  />
<path  fill="none"   d="M 6.279051952931283 99.80267284282715 L 12.533323356430422 99.21147013144778"  />
<path  fill="none"   d="M 12.533323356430422 99.21147013144778 L 18.738131458572425 98.22872507286887"  />
<path  fill="none"   d="M 18.738131458572425 98.22872507286887 L 24.868988716485493 96.85831611286311"  />
<path  fill="none"   d="M 24.868988716485493 96.85831611286311 L 30.901699437494724 95.10565162951536"  />
<path  fill="none"   d="M 30.901699437494724 95.10565162951536 L 36.81245526846782 92.97764858882512"  />
<path  fill="none"   d="M 36.81245526846782 92.97764858882512 L 42.57792915650718 90.482705246602"  />
<path  fill="none"   d="M 42.57792915650718 90.482705246602 L 48.175367410171496 87.63066800438638"  />
<path  fill="none"   d="M 48.175367410171496 87.63066800438638 L 53.5826794978996 84.43279255020155"  />
<path  fill="none"   d="M 53.5826794978996 84.43279255020155 L 58.77852522924729 80.90169943749476"  />
<path  fill="none"   d="M 58.77852522924729 80.90169943749476 L 63.742398974868934 77.05132427757896"  />
<path  fill="none"   d="M 63.742398974868934 77.05132427757896 L 68.45471059286886 72.89686274214115"  />
<path  fill="none"   d="M 68.45471059286886 72.89686274214115 L 72.89686274214112 68.45471059286889"  />
<path  fill="none"   d="M 72.89686274214112 68.45471059286889 L 77.05132427757894 63.74239897486896"  />
<path  fill="none"   d="M 77.05132427757894 63.74239897486896 L 80.90169943749473 58.778525229247336"  />
<path  fill="none"   d="M 80.90169943749473 58.778525229247336 L 84.43279255020151 53.58267949789963"  />
<path  fill="none"   d="M 84.43279255020151 53.58267949789963 L 87.63066800438637 48.17536741017153"  />
<path  fill="none"   d="M 87.63066800438637 48.17536741017153 L 90.48270524660197 42.577929156507224"  />
<path  fill="none"   d="M 90.48270524660197 42.577929156507224 L 92.97764858882512 36.81245526846787"  />
<path  fill="none"   d="M 92.97764858882512 36.81245526846787 L 95.10565162951535 30.901699437494766"  />
<path  fill="none"   d="M 95.10565162951535 30.901699437494766 L 96.8583161128631 24.868988716485536"  />
<path  fill="none"   d="M 96.8583161128631 24.868988716485536 L 98.22872507286887 18.738131458572468"  />
<path  fill="none"   d="M 98.22872507286887 18.738131458572468 L 99.21147013144778 12.533323356430465"  />
<path  fill="none"   d="M 99.21147013144778 12.533323356430465 L 99.80267284282715 6.279051952931327"  />
<title>Cardioid</title></g>
</svg>