<svg xmlns="http://www.w3.org/2000/svg" viewBox="-10 -10 20 20"  style="fill:#000000; " > 
<polygon  points="-8,-8 -8,-6.859 -6.859,-6.859 -6.859,-8 " />
<polygon  points="-8,-5.832 -8,-4.913 -6.859,-4.913 -6.859,-5.832 " />
<polygon  points="-8,-4.096 -8,-3.375 -6.859,-3.375 -6.859,-4.096 " />
<polygon  points="-8,-2.744 -8,-2.197 -6.859,-2.197 -6.859,-2.744 " />
<polygon  points="-8,-1.728 -8,-1.331 -6.859,-1.331 -6.859,-1.728 " />
<polygon  points="-8,-1 -8,-0.729 -6.859,-0.729 -6.859,-1 " />
<polygon  points="-8,-0.512 -8,-0.343 -6.859,-0.343 -6.859,-0.512 " />
<polygon  points="-8,-0.216 -8,-0.125 -6.859,-0.125 -6.859,-0.216 " />
<polygon  points="-8,-0.064 -8,0.064 -6.859,0.064 -6.859,-0.064 " />
<polygon  points="-8,0.125 -8,0.216 -6.859,0.216 -6.859,0.125 " />
<polygon  points="-8,0.343 -8,0.512 -6.859,0.512 -6.859,0.343 " />
<polygon  points="-8,0.729 -8,1 -6.859,1 -6.859,0.729 " />
<polygon  points="-8,1.331 -8,1.728 -6.859,1.728 -6.859,1.331 " />
<polygon  points="-8,2.197 -8,2.744 -6.859,2.744 -6.859,2.197 " />
<polygon  points="-8,3.375 -8,4.096 -6.859,4.096 -6.859,3.375 " />
<polygon  points="-8,4.913 -8,5.832 -6.859,5.832 -6.859,4.913 " />
<polygon  points="-8,6.859 -8,8 -6.859,8 -6.859,6.859 " />
<polygon  points="-6.859,-6.859 -6.859,-5.832 -5.832,-5.832 -5.832,-6.859 " />
<polygon  points="-6.859,-4.913 -6.859,-4.096 -5.832,-4.096 -5.832,-4.913 " />
<polygon  points="-6.859,-3.375 -6.859,-2.744 -5.832,-2.744 -5.832,-3.375 " />
<polygon  points="-6.859,-2.197 -6.859,-1.728 -5.832,-1.728 -5.832,-2.197 " />
<polygon  points="-6.859,-1.331 -6.859,-1 -5.832,-1 -5.832,-1.331 " />
<polygon  points="-6.859,-0.729 -6.859,-0.512 -5.832,-0.512 -5.832,-0.729 " />
<polygon  points="-6.859,-0.343 -6.859,-0.216 -5.832,-0.216 -5.832,-0.343 " />
<polygon  points="-6.859,-0.125 -6.859,-0.064 -5.832,-0.064 -5.832,-0.125 " />
<polygon  points="-6.859,0.064 -6.859,0.125 -5.832,0.125 -5.832,0.064 " />
<polygon  points="-6.859,0.216 -6.859,0.343 -5.832,0.343 -5.832,0.216 " />
<polygon  points="-6.859,0.512 -6.859,0.729 -5.832,0.729 -5.832,0.512 " />
<polygon  points="-6.859,1 -6.859,1.331 -5.832,1.331 -5.832,1 " />
<polygon  points="-6.859,1.728 -6.859,2.197 -5.832,2.197 -5.832,1.728 " />
<polygon  points="-6.859,2.744 -6.859,3.375 -5.832,3.375 -5.832,2.744 " />
<polygon  points="-6.859,4.096 -6.859,4.913 -5.832,4.913 -5.832,4.096 " />
<polygon  points="-6.859,5.832 -6.859,6.859 -5.832,6.859 -5.832,5.832 " />
<polygon  points="-5.832,-8 -5.832,-6.859 -4.913,-6.859 -4.913,-8 " />
<polygon  points="-5.832,-5.832 -5.832,-4.913 -4.913,-4.913 -4.913,-5.832 " />
<polygon  points="-5.832,-4.096 -5.832,-3.375 -4.913,-3.375 -4.913,-4.096 " />
<polygon  points="-5.832,-2.744 -5.832,-2.197 -4.913,-2.197 -4.913,-2.744 " />
<polygon  points="-5.832,-1.728 -5.832,-1.331 -4.913,-1.331 -4.913,-1.728 " />
<polygon  points="-5.832,-1 -5.832,-0.729 -4.913,-0.729 -4.913,-1 " />
<polygon  points="-5.832,-0.512 -5.832,-0.343 -4.913,-0.343 -4.913,-0.512 " />
<polygon  points="-5.832,-0.216 -5.832,-0.125 -4.913,-0.125 -4.913,-0.216 " />
<polygon  points="-5.832,-0.064 -5.832,0.064 -4.913,0.064 -4.913,-0.064 " />
<polygon  points="-5.832,0.125 -5.832,0.216 -4.913,0.216 -4.913,0.125 " />
<polygon  points="-5.832,0.343 -5.832,0.512 -4.913,0.512 -4.913,0.343 " />
<polygon  points="-5.832,0.729 -5.832,1 -4.913,1 -4.913,0.729 " />
<polygon  points="-5.832,1.331 -5.832,1.728 -4.913,1.728 -4.913,1.331 " />
<polygon  points="-5.832,2.197 -5.832,2.744 -4.913,2.744 -4.913,2.197 " />
<polygon  points="-5.832,3.375 -5.832,4.096 -4.913,4.096 -4.913,3.375 " />
<polygon  points="-5.832,4.913 -5.832,5.832 -4.913,5.832 -4.913,4.913 " />
<polygon  points="-5.832,6.859 -5.832,8 -4.913,8 -4.913,6.859 " />
<polygon  points="-4.913,-6.859 -4.913,-5.832 -4.096,-5.832 -4.096,-6.859 " />
<polygon  points="-4.913,-4.913 -4.913,-4.096 -4.096,-4.096 -4.096,-4.913 " />
<polygon  points="-4.913,-3.375 -4.913,-2.744 -4.096,-2.744 -4.096,-3.375 " />
<polygon  points="-4.913,-2.197 -4.913,-1.728 -4.096,-1.728 -4.096,-2.197 " />
<polygon  points="-4.913,-1.331 -4.913,-1 -4.096,-1 -4.096,-1.331 " />
<polygon  points="-4.913,-0.729 -4.913,-0.512 -4.096,-0.512 -4.096,-0.729 " />
<polygon  points="-4.913,-0.343 -4.913,-0.216 -4.096,-0.216 -4.096,-0.343 " />
<polygon  points="-4.913,-0.125 -4.913,-0.064 -4.096,-0.064 -4.096,-0.125 " />
<polygon  points="-4.913,0.064 -4.913,0.125 -4.096,0.125 -4.096,0.064 " />
<polygon  points="-4.913,0.216 -4.913,0.343 -4.096,0.343 -4.096,0.216 " />
<polygon  points="-4.913,0.512 -4.913,0.729 -4.096,0.729 -4.096,0.512 " />
<polygon  points="-4.913,1 -4.913,1.331 -4.096,1.331 -4.096,1 " />
<polygon  points="-4.913,1.728 -4.913,2.197 -4.096,2.197 -4.096,1.728 " />
<polygon  points="-4.913,2.744 -4.913,3.375 -4.096,3.375 -4.096,2.744 " />
<polygon  points="-4.913,4.096 -4.913,4.913 -4.096,4.913 -4.096,4.096 " />
<polygon  points="-4.913,5.832 -4.913,6.859 -4.096,6.859 -4.096,5.832 " />
<polygon  points="-4.096,-8 -4.096,-6.859 -3.375,-6.859 -3.375,-8 " />
<polygon  points="-4.096,-5.832 -4.096,-4.913 -3.375,-4.913 -3.375,-5.832 " />
<polygon  points="-4.096,-4.096 -4.096,-3.375 -3.375,-3.375 -3.375,-4.096 " />
<polygon  points="-4.096,-2.744 -4.096,-2.197 -3.375,-2.197 -3.375,-2.744 " />
<polygon  points="-4.096,-1.728 -4.096,-1.331 -3.375,-1.331 -3.375,-1.728 " />
<polygon  points="-4.096,-1 -4.096,-0.729 -3.375,-0.729 -3.375,-1 " />
<polygon  points="-4.096,-0.512 -4.096,-0.343 -3.375,-0.343 -3.375,-0.512 " />
<polygon  points="-4.096,-0.216 -4.096,-0.125 -3.375,-0.125 -3.375,-0.216 " />
<polygon  points="-4.096,-0.064 -4.096,0.064 -3.375,0.064 -3.375,-0.064 " />
<polygon  points="-4.096,0.125 -4.096,0.216 -3.375,0.216 -3.375,0.125 " />
<polygon  points="-4.096,0.343 -4.096,0.512 -3.375,0.512 -3.375,0.343 " />
<polygon  points="-4.096,0.729 -4.096,1 -3.375,1 -3.375,0.729 " />
<polygon  points="-4.096,1.331 -4.096,1.728 -3.375,1.728 -3.375,1.331 " />
<polygon  points="-4.096,2.197 -4.096,2.744 -3.375,2.744 -3.375,2.197 " />
<polygon  points="-4.096,3.375 -4.096,4.096 -3.375,4.096 -3.375,3.375 " />
<polygon  points="-4.096,4.913 -4.096,5.832 -3.375,5.832 -3.375,4.913 " />
<polygon  points="-4.096,6.859 -4.096,8 -3.375,8 -3.375,6.859 " />
<polygon  points="-3.375,-6.859 -3.375,-5.832 -2.744,-5.832 -2.744,-6.859 " />
<polygon  points="-3.375,-4.913 -3.375,-4.096 -2.744,-4.096 -2.744,-4.913 " />
<polygon  points="-3.375,-3.375 -3.375,-2.744 -2.744,-2.744 -2.744,-3.375 " />
<polygon  points="-3.375,-2.197 -3.375,-1.728 -2.744,-1.728 -2.744,-2.197 " />
<polygon  points="-3.375,-1.331 -3.375,-1 -2.744,-1 -2.744,-1.331 " />
<polygon  points="-3.375,-0.729 -3.375,-0.512 -2.744,-0.512 -2.744,-0.729 " />
<polygon  points="-3.375,-0.343 -3.375,-0.216 -2.744,-0.216 -2.744,-0.343 " />
<polygon  points="-3.375,-0.125 -3.375,-0.064 -2.744,-0.064 -2.744,-0.125 " />
<polygon  points="-3.375,0.064 -3.375,0.125 -2.744,0.125 -2.744,0.064 " />
<polygon  points="-3.375,0.216 -3.375,0.343 -2.744,0.343 -2.744,0.216 " />
<polygon  points="-3.375,0.512 -3.375,0.729 -2.744,0.729 -2.744,0.512 " />
<polygon  points="-3.375,1 -3.375,1.331 -2.744,1.331 -2.744,1 " />
<polygon  points="-3.375,1.728 -3.375,2.197 -2.744,2.197 -2.744,1.728 " />
<polygon  points="-3.375,2.744 -3.375,3.375 -2.744,3.375 -2.744,2.744 " />
<polygon  points="-3.375,4.096 -3.375,4.913 -2.744,4.913 -2.744,4.096 " />
<polygon  points="-3.375,5.832 -3.375,6.859 -2.744,6.859 -2.744,5.832 " />
<polygon  points="-2.744,-8 -2.744,-6.859 -2.197,-6.859 -2.197,-8 " />
<polygon  points="-2.744,-5.832 -2.744,-4.913 -2.197,-4.913 -2.197,-5.832 " />
<polygon  points="-2.744,-4.096 -2.744,-3.375 -2.197,-3.375 -2.197,-4.096 " />
<polygon  points="-2.744,-2.744 -2.744,-2.197 -2.197,-2.197 -2.197,-2.744 " />
<polygon  points="-2.744,-1.728 -2.744,-1.331 -2.197,-1.331 -2.197,-1.728 " />
<polygon  points="-2.744,-1 -2.744,-0.729 -2.197,-0.729 -2.197,-1 " />
<polygon  points="-2.744,-0.512 -2.744,-0.343 -2.197,-0.343 -2.197,-0.512 " />
<polygon  points="-2.744,-0.216 -2.744,-0.125 -2.197,-0.125 -2.197,-0.216 " />
<polygon  points="-2.744,-0.064 -2.744,0.064 -2.197,0.064 -2.197,-0.064 " />
<polygon  points="-2.744,0.125 -2.744,0.216 -2.197,0.216 -2.197,0.125 " />
<polygon  points="-2.744,0.343 -2.744,0.512 -2.197,0.512 -2.197,0.343 " />
<polygon  points="-2.744,0.729 -2.744,1 -2.197,1 -2.197,0.729 " />
<polygon  points="-2.744,1.331 -2.744,1.728 -2.197,1.728 -2.197,1.331 " />
<polygon  points="-2.744,2.197 -2.744,2.744 -2.197,2.744 -2.197,2.197 " />
<polygon  points="-2.744,3.375 -2.744,4.096 -2.197,4.096 -2.197,3.375 " />
<polygon  points="-2.744,4.913 -2.744,5.832 -2.197,5.832 -2.197,4.913 " />
<polygon  points="-2.744,6.859 -2.744,8 -2.197,8 -2.197,6.859 " />
<polygon  points="-2.197,-6.859 -2.197,-5.832 -1.728,-5.832 -1.728,-6.859 " />
<polygon  points="-2.197,-4.913 -2.197,-4.096 -1.728,-4.096 -1.728,-4.913 " />
<polygon  points="-2.197,-3.375 -2.197,-2.744 -1.728,-2.744 -1.728,-3.375 " />
<polygon  points="-2.197,-2.197 -2.197,-1.728 -1.728,-1.728 -1.728,-2.197 " />
<polygon  points="-2.197,-1.331 -2.197,-1 -1.728,-1 -1.728,-1.331 " />
<polygon  points="-2.197,-0.729 -2.197,-0.512 -1.728,-0.512 -1.728,-0.729 " />
<polygon  points="-2.197,-0.343 -2.197,-0.216 -1.728,-0.216 -1.728,-0.343 " />
<polygon  points="-2.197,-0.125 -2.197,-0.064 -1.728,-0.064 -1.728,-0.125 " />
<polygon  points="-2.197,0.064 -2.197,0.125 -1.728,0.125 -1.728,0.064 " />
<polygon  points="-2.197,0.216 -2.197,0.343 -1.728,0.343 -1.728,0.216 " />
<polygon  points="-2.197,0.512 -2.197,0.729 -1.728,0.729 -1.728,0.512 " />
<polygon  points="-2.197,1 -2.197,1.331 -1.728,1.331 -1.728,1 " />
<polygon  points="-2.197,1.728 -2.197,2.197 -1.728,2.197 -1.728,1.728 " />
<polygon  points="-2.197,2.744 -2.197,3.375 -1.728,3.375 -1.728,2.744 " />
<polygon  points="-2.197,4.096 -2.197,4.913 -1.728,4.913 -1.728,4.096 " />
<polygon  points="-2.197,5.832 -2.197,6.859 -1.728,6.859 -1.728,5.832 " />
<polygon  points="-1.728,-8 -1.728,-6.859 -1.331,-6.859 -1.331,-8 " />
<polygon  points="-1.728,-5.832 -1.728,-4.913 -1.331,-4.913 -1.331,-5.832 " />
<polygon  points="-1.728,-4.096 -1.728,-3.375 -1.331,-3.375 -1.331,-4.096 " />
<polygon  points="-1.728,-2.744 -1.728,-2.197 -1.331,-2.197 -1.331,-2.744 " />
<polygon  points="-1.728,-1.728 -1.728,-1.331 -1.331,-1.331 -1.331,-1.728 " />
<polygon  points="-1.728,-1 -1.728,-0.729 -1.331,-0.729 -1.331,-1 " />
<polygon  points="-1.728,-0.512 -1.728,-0.343 -1.331,-0.343 -1.331,-0.512 " />
<polygon  points="-1.728,-0.216 -1.728,-0.125 -1.331,-0.125 -1.331,-0.216 " />
<polygon  points="-1.728,-0.064 -1.728,0.064 -1.331,0.064 -1.331,-0.064 " />
<polygon  points="-1.728,0.125 -1.728,0.216 -1.331,0.216 -1.331,0.125 " />
<polygon  points="-1.728,0.343 -1.728,0.512 -1.331,0.512 -1.331,0.343 " />
<polygon  points="-1.728,0.729 -1.728,1 -1.331,1 -1.331,0.729 " />
<polygon  points="-1.728,1.331 -1.728,1.728 -1.331,1.728 -1.331,1.331 " />
<polygon  points="-1.728,2.197 -1.728,2.744 -1.331,2.744 -1.331,2.197 " />
<polygon  points="-1.728,3.375 -1.728,4.096 -1.331,4.096 -1.331,3.375 " />
<polygon  points="-1.728,4.913 -1.728,5.832 -1.331,5.832 -1.331,4.913 " />
<polygon  points="-1.728,6.859 -1.728,8 -1.331,8 -1.331,6.859 " />
<polygon  points="-1.331,-6.859 -1.331,-5.832 -1,-5.832 -1,-6.859 " />
<polygon  points="-1.331,-4.913 -1.331,-4.096 -1,-4.096 -1,-4.913 " />
<polygon  points="-1.331,-3.375 -1.331,-2.744 -1,-2.744 -1,-3.375 " />
<polygon  points="-1.331,-2.197 -1.331,-1.728 -1,-1.728 -1,-2.197 " />
<polygon  points="-1.331,-1.331 -1.331,-1 -1,-1 -1,-1.331 " />
<polygon  points="-1.331,-0.729 -1.331,-0.512 -1,-0.512 -1,-0.729 " />
<polygon  points="-1.331,-0.343 -1.331,-0.216 -1,-0.216 -1,-0.343 " />
<polygon  points="-1.331,-0.125 -1.331,-0.064 -1,-0.064 -1,-0.125 " />
<polygon  points="-1.331,0.064 -1.331,0.125 -1,0.125 -1,0.064 " />
<polygon  points="-1.331,0.216 -1.331,0.343 -1,0.343 -1,0.216 " />
<polygon  points="-1.331,0.512 -1.331,0.729 -1,0.729 -1,0.512 " />
<polygon  points="-1.331,1 -1.331,1.331 -1,1.331 -1,1 " />
<polygon  points="-1.331,1.728 -1.331,2.197 -1,2.197 -1,1.728 " />
<polygon  points="-1.331,2.744 -1.331,3.375 -1,3.375 -1,2.744 " />
<polygon  points="-1.331,4.096 -1.331,4.913 -1,4.913 -1,4.096 " />
<polygon  points="-1.331,5.832 -1.331,6.859 -1,6.859 -1,5.832 " />
<polygon  points="-1,-8 -1,-6.859 -0.729,-6.859 -0.729,-8 " />
<polygon  points="-1,-5.832 -1,-4.913 -0.729,-4.913 -0.729,-5.832 " />
<polygon  points="-1,-4.096 -1,-3.375 -0.729,-3.375 -0.729,-4.096 " />
<polygon  points="-1,-2.744 -1,-2.197 -0.729,-2.197 -0.729,-2.744 " />
<polygon  points="-1,-1.728 -1,-1.331 -0.729,-1.331 -0.729,-1.728 " />
<polygon  points="-1,-1 -1,-0.729 -0.729,-0.729 -0.729,-1 " />
<polygon  points="-1,-0.512 -1,-0.343 -0.729,-0.343 -0.729,-0.512 " />
<polygon  points="-1,-0.216 -1,-0.125 -0.729,-0.125 -0.729,-0.216 " />
<polygon  points="-1,-0.064 -1,0.064 -0.729,0.064 -0.729,-0.064 " />
<polygon  points="-1,0.125 -1,0.216 -0.729,0.216 -0.729,0.125 " />
<polygon  points="-1,0.343 -1,0.512 -0.729,0.512 -0.729,0.343 " />
<polygon  points="-1,0.729 -1,1 -0.729,1 -0.729,0.729 " />
<polygon  points="-1,1.331 -1,1.728 -0.729,1.728 -0.729,1.331 " />
<polygon  points="-1,2.197 -1,2.744 -0.729,2.744 -0.729,2.197 " />
<polygon  points="-1,3.375 -1,4.096 -0.729,4.096 -0.729,3.375 " />
<polygon  points="-1,4.913 -1,5.832 -0.729,5.832 -0.729,4.913 " />
<polygon  points="-1,6.859 -1,8 -0.729,8 -0.729,6.859 " />
<polygon  points="-0.729,-6.859 -0.729,-5.832 -0.512,-5.832 -0.512,-6.859 " />
<polygon  points="-0.729,-4.913 -0.729,-4.096 -0.512,-4.096 -0.512,-4.913 " />
<polygon  points="-0.729,-3.375 -0.729,-2.744 -0.512,-2.744 -0.512,-3.375 " />
<polygon  points="-0.729,-2.197 -0.729,-1.728 -0.512,-1.728 -0.512,-2.197 " />
<polygon  points="-0.729,-1.331 -0.729,-1 -0.512,-1 -0.512,-1.331 " />
<polygon  points="-0.729,-0.729 -0.729,-0.512 -0.512,-0.512 -0.512,-0.729 " />
<polygon  points="-0.729,-0.343 -0.729,-0.216 -0.512,-0.216 -0.512,-0.343 " />
<polygon  points="-0.729,-0.125 -0.729,-0.064 -0.512,-0.064 -0.512,-0.125 " />
<polygon  points="-0.729,0.064 -0.729,0.125 -0.512,0.125 -0.512,0.064 " />
<polygon  points="-0.729,0.216 -0.729,0.343 -0.512,0.343 -0.512,0.216 " />
<polygon  points="-0.729,0.512 -0.729,0.729 -0.512,0.729 -0.512,0.512 " />
<polygon  points="-0.729,1 -0.729,1.331 -0.512,1.331 -0.512,1 " />
<polygon  points="-0.729,1.728 -0.729,2.197 -0.512,2.197 -0.512,1.728 " />
<polygon  points="-0.729,2.744 -0.729,3.375 -0.512,3.375 -0.512,2.744 " />
<polygon  points="-0.729,4.096 -0.729,4.913 -0.512,4.913 -0.512,4.096 " />
<polygon  points="-0.729,5.832 -0.729,6.859 -0.512,6.859 -0.512,5.832 " />
<polygon  points="-0.512,-8 -0.512,-6.859 -0.343,-6.859 -0.343,-8 " />
<polygon  points="-0.512,-5.832 -0.512,-4.913 -0.343,-4.913 -0.343,-5.832 " />
<polygon  points="-0.512,-4.096 -0.512,-3.375 -0.343,-3.375 -0.343,-4.096 " />
<polygon  points="-0.512,-2.744 -0.512,-2.197 -0.343,-2.197 -0.343,-2.744 " />
<polygon  points="-0.512,-1.728 -0.512,-1.331 -0.343,-1.331 -0.343,-1.728 " />
<polygon  points="-0.512,-1 -0.512,-0.729 -0.343,-0.729 -0.343,-1 " />
<polygon  points="-0.512,-0.512 -0.512,-0.343 -0.343,-0.343 -0.343,-0.512 " />
<polygon  points="-0.512,-0.216 -0.512,-0.125 -0.343,-0.125 -0.343,-0.216 " />
<polygon  points="-0.512,-0.064 -0.512,0.064 -0.343,0.064 -0.343,-0.064 " />
<polygon  points="-0.512,0.125 -0.512,0.216 -0.343,0.216 -0.343,0.125 " />
<polygon  points="-0.512,0.343 -0.512,0.512 -0.343,0.512 -0.343,0.343 " />
<polygon  points="-0.512,0.729 -0.512,1 -0.343,1 -0.343,0.729 " />
<polygon  points="-0.512,1.331 -0.512,1.728 -0.343,1.728 -0.343,1.331 " />
<polygon  points="-0.512,2.197 -0.512,2.744 -0.343,2.744 -0.343,2.197 " />
<polygon  points="-0.512,3.375 -0.512,4.096 -0.343,4.096 -0.343,3.375 " />
<polygon  points="-0.512,4.913 -0.512,5.832 -0.343,5.832 -0.343,4.913 " />
<polygon  points="-0.512,6.859 -0.512,8 -0.343,8 -0.343,6.859 " />
<polygon  points="-0.343,-6.859 -0.343,-5.832 -0.216,-5.832 -0.216,-6.859 " />
<polygon  points="-0.343,-4.913 -0.343,-4.096 -0.216,-4.096 -0.216,-4.913 " />
<polygon  points="-0.343,-3.375 -0.343,-2.744 -0.216,-2.744 -0.216,-3.375 " />
<polygon  points="-0.343,-2.197 -0.343,-1.728 -0.216,-1.728 -0.216,-2.197 " />
<polygon  points="-0.343,-1.331 -0.343,-1 -0.216,-1 -0.216,-1.331 " />
<polygon  points="-0.343,-0.729 -0.343,-0.512 -0.216,-0.512 -0.216,-0.729 " />
<polygon  points="-0.343,-0.343 -0.343,-0.216 -0.216,-0.216 -0.216,-0.343 " />
<polygon  points="-0.343,-0.125 -0.343,-0.064 -0.216,-0.064 -0.216,-0.125 " />
<polygon  points="-0.343,0.064 -0.343,0.125 -0.216,0.125 -0.216,0.064 " />
<polygon  points="-0.343,0.216 -0.343,0.343 -0.216,0.343 -0.216,0.216 " />
<polygon  points="-0.343,0.512 -0.343,0.729 -0.216,0.729 -0.216,0.512 " />
<polygon  points="-0.343,1 -0.343,1.331 -0.216,1.331 -0.216,1 " />
<polygon  points="-0.343,1.728 -0.343,2.197 -0.216,2.197 -0.216,1.728 " />
<polygon  points="-0.343,2.744 -0.343,3.375 -0.216,3.375 -0.216,2.744 " />
<polygon  points="-0.343,4.096 -0.343,4.913 -0.216,4.913 -0.216,4.096 " />
<polygon  points="-0.343,5.832 -0.343,6.859 -0.216,6.859 -0.216,5.832 " />
<polygon  points="-0.216,-8 -0.216,-6.859 -0.125,-6.859 -0.125,-8 " />
<polygon  points="-0.216,-5.832 -0.216,-4.913 -0.125,-4.913 -0.125,-5.832 " />
<polygon  points="-0.216,-4.096 -0.216,-3.375 -0.125,-3.375 -0.125,-4.096 " />
<polygon  points="-0.216,-2.744 -0.216,-2.197 -0.125,-2.197 -0.125,-2.744 " />
<polygon  points="-0.216,-1.728 -0.216,-1.331 -0.125,-1.331 -0.125,-1.728 " />
<polygon  points="-0.216,-1 -0.216,-0.729 -0.125,-0.729 -0.125,-1 " />
<polygon  points="-0.216,-0.512 -0.216,-0.343 -0.125,-0.343 -0.125,-0.512 " />
<polygon  points="-0.216,-0.216 -0.216,-0.125 -0.125,-0.125 -0.125,-0.216 " />
<polygon  points="-0.216,-0.064 -0.216,0.064 -0.125,0.064 -0.125,-0.064 " />
<polygon  points="-0.216,0.125 -0.216,0.216 -0.125,0.216 -0.125,0.125 " />
<polygon  points="-0.216,0.343 -0.216,0.512 -0.125,0.512 -0.125,0.343 " />
<polygon  points="-0.216,0.729 -0.216,1 -0.125,1 -0.125,0.729 " />
<polygon  points="-0.216,1.331 -0.216,1.728 -0.125,1.728 -0.125,1.331 " />
<polygon  points="-0.216,2.197 -0.216,2.744 -0.125,2.744 -0.125,2.197 " />
<polygon  points="-0.216,3.375 -0.216,4.096 -0.125,4.096 -0.125,3.375 " />
<polygon  points="-0.216,4.913 -0.216,5.832 -0.125,5.832 -0.125,4.913 " />
<polygon  points="-0.216,6.859 -0.216,8 -0.125,8 -0.125,6.859 " />
<polygon  points="-0.125,-6.859 -0.125,-5.832 -0.064,-5.832 -0.064,-6.859 " />
<polygon  points="-0.125,-4.913 -0.125,-4.096 -0.064,-4.096 -0.064,-4.913 " />
<polygon  points="-0.125,-3.375 -0.125,-2.744 -0.064,-2.744 -0.064,-3.375 " />
<polygon  points="-0.125,-2.197 -0.125,-1.728 -0.064,-1.728 -0.064,-2.197 " />
<polygon  points="-0.125,-1.331 -0.125,-1 -0.064,-1 -0.064,-1.331 " />
<polygon  points="-0.125,-0.729 -0.125,-0.512 -0.064,-0.512 -0.064,-0.729 " />
<polygon  points="-0.125,-0.343 -0.125,-0.216 -0.064,-0.216 -0.064,-0.343 " />
<polygon  points="-0.125,-0.125 -0.125,-0.064 -0.064,-0.064 -0.064,-0.125 " />
<polygon  points="-0.125,0.064 -0.125,0.125 -0.064,0.125 -0.064,0.064 " />
<polygon  points="-0.125,0.216 -0.125,0.343 -0.064,0.343 -0.064,0.216 " />
<polygon  points="-0.125,0.512 -0.125,0.729 -0.064,0.729 -0.064,0.512 " />
<polygon  points="-0.125,1 -0.125,1.331 -0.064,1.331 -0.064,1 " />
<polygon  points="-0.125,1.728 -0.125,2.197 -0.064,2.197 -0.064,1.728 " />
<polygon  points="-0.125,2.744 -0.125,3.375 -0.064,3.375 -0.064,2.744 " />
<polygon  points="-0.125,4.096 -0.125,4.913 -0.064,4.913 -0.064,4.096 " />
<polygon  points="-0.125,5.832 -0.125,6.859 -0.064,6.859 -0.064,5.832 " />
<polygon  points="-0.064,-8 -0.064,-6.859 0.064,-6.859 0.064,-8 " />
<polygon  points="-0.064,-5.832 -0.064,-4.913 0.064,-4.913 0.064,-5.832 " />
<polygon  points="-0.064,-4.096 -0.064,-3.375 0.064,-3.375 0.064,-4.096 " />
<polygon  points="-0.064,-2.744 -0.064,-2.197 0.064,-2.197 0.064,-2.744 " />
<polygon  points="-0.064,-1.728 -0.064,-1.331 0.064,-1.331 0.064,-1.728 " />
<polygon  points="-0.064,-1 -0.064,-0.729 0.064,-0.729 0.064,-1 " />
<polygon  points="-0.064,-0.512 -0.064,-0.343 0.064,-0.343 0.064,-0.512 " />
<polygon  points="-0.064,-0.216 -0.064,-0.125 0.064,-0.125 0.064,-0.216 " />
<polygon  points="-0.064,-0.064 -0.064,0.064 0.064,0.064 0.064,-0.064 " />
<polygon  points="-0.064,0.125 -0.064,0.216 0.064,0.216 0.064,0.125 " />
<polygon  points="-0.064,0.343 -0.064,0.512 0.064,0.512 0.064,0.343 " />
<polygon  points="-0.064,0.729 -0.064,1 0.064,1 0.064,0.729 " />
<polygon  points="-0.064,1.331 -0.064,1.728 0.064,1.728 0.064,1.331 " />
<polygon  points="-0.064,2.197 -0.064,2.744 0.064,2.744 0.064,2.197 " />
<polygon  points="-0.064,3.375 -0.064,4.096 0.064,4.096 0.064,3.375 " />
<polygon  points="-0.064,4.913 -0.064,5.832 0.064,5.832 0.064,4.913 " />
<polygon  points="-0.064,6.859 -0.064,8 0.064,8 0.064,6.859 " />
<polygon  points="0.064,-6.859 0.064,-5.832 0.125,-5.832 0.125,-6.859 " />
<polygon  points="0.064,-4.913 0.064,-4.096 0.125,-4.096 0.125,-4.913 " />
<polygon  points="0.064,-3.375 0.064,-2.744 0.125,-2.744 0.125,-3.375 " />
<polygon  points="0.064,-2.197 0.064,-1.728 0.125,-1.728 0.125,-2.197 " />
<polygon  points="0.064,-1.331 0.064,-1 0.125,-1 0.125,-1.331 " />
<polygon  points="0.064,-0.729 0.064,-0.512 0.125,-0.512 0.125,-0.729 " />
<polygon  points="0.064,-0.343 0.064,-0.216 0.125,-0.216 0.125,-0.343 " />
<polygon  points="0.064,-0.125 0.064,-0.064 0.125,-0.064 0.125,-0.125 " />
<polygon  points="0.064,0.064 0.064,0.125 0.125,0.125 0.125,0.064 " />
<polygon  points="0.064,0.216 0.064,0.343 0.125,0.343 0.125,0.216 " />
<polygon  points="0.064,0.512 0.064,0.729 0.125,0.729 0.125,0.512 " />
<polygon  points="0.064,1 0.064,1.331 0.125,1.331 0.125,1 " />
<polygon  points="0.064,1.728 0.064,2.197 0.125,2.197 0.125,1.728 " />
<polygon  points="0.064,2.744 0.064,3.375 0.125,3.375 0.125,2.744 " />
<polygon  points="0.064,4.096 0.064,4.913 0.125,4.913 0.125,4.096 " />
<polygon  points="0.064,5.832 0.064,6.859 0.125,6.859 0.125,5.832 " />
<polygon  points="0.125,-8 0.125,-6.859 0.216,-6.859 0.216,-8 " />
<polygon  points="0.125,-5.832 0.125,-4.913 0.216,-4.913 0.216,-5.832 " />
<polygon  points="0.125,-4.096 0.125,-3.375 0.216,-3.375 0.216,-4.096 " />
<polygon  points="0.125,-2.744 0.125,-2.197 0.216,-2.197 0.216,-2.744 " />
<polygon  points="0.125,-1.728 0.125,-1.331 0.216,-1.331 0.216,-1.728 " />
<polygon  points="0.125,-1 0.125,-0.729 0.216,-0.729 0.216,-1 " />
<polygon  points="0.125,-0.512 0.125,-0.343 0.216,-0.343 0.216,-0.512 " />
<polygon  points="0.125,-0.216 0.125,-0.125 0.216,-0.125 0.216,-0.216 " />
<polygon  points="0.125,-0.064 0.125,0.064 0.216,0.064 0.216,-0.064 " />
<polygon  points="0.125,0.125 0.125,0.216 0.216,0.216 0.216,0.125 " />
<polygon  points="0.125,0.343 0.125,0.512 0.216,0.512 0.216,0.343 " />
<polygon  points="0.125,0.729 0.125,1 0.216,1 0.216,0.729 " />
<polygon  points="0.125,1.331 0.125,1.728 0.216,1.728 0.216,1.331 " />
<polygon  points="0.125,2.197 0.125,2.744 0.216,2.744 0.216,2.197 " />
<polygon  points="0.125,3.375 0.125,4.096 0.216,4.096 0.216,3.375 " />
<polygon  points="0.125,4.913 0.125,5.832 0.216,5.832 0.216,4.913 " />
<polygon  points="0.125,6.859 0.125,8 0.216,8 0.216,6.859 " />
<polygon  points="0.216,-6.859 0.216,-5.832 0.343,-5.832 0.343,-6.859 " />
<polygon  points="0.216,-4.913 0.216,-4.096 0.343,-4.096 0.343,-4.913 " />
<polygon  points="0.216,-3.375 0.216,-2.744 0.343,-2.744 0.343,-3.375 " />
<polygon  points="0.216,-2.197 0.216,-1.728 0.343,-1.728 0.343,-2.197 " />
<polygon  points="0.216,-1.331 0.216,-1 0.343,-1 0.343,-1.331 " />
<polygon  points="0.216,-0.729 0.216,-0.512 0.343,-0.512 0.343,-0.729 " />
<polygon  points="0.216,-0.343 0.216,-0.216 0.343,-0.216 0.343,-0.343 " />
<polygon  points="0.216,-0.125 0.216,-0.064 0.343,-0.064 0.343,-0.125 " />
<polygon  points="0.216,0.064 0.216,0.125 0.343,0.125 0.343,0.064 " />
<polygon  points="0.216,0.216 0.216,0.343 0.343,0.343 0.343,0.216 " />
<polygon  points="0.216,0.512 0.216,0.729 0.343,0.729 0.343,0.512 " />
<polygon  points="0.216,1 0.216,1.331 0.343,1.331 0.343,1 " />
<polygon  points="0.216,1.728 0.216,2.197 0.343,2.197 0.343,1.728 " />
<polygon  points="0.216,2.744 0.216,3.375 0.343,3.375 0.343,2.744 " />
<polygon  points="0.216,4.096 0.216,4.913 0.343,4.913 0.343,4.096 " />
<polygon  points="0.216,5.832 0.216,6.859 0.343,6.859 0.343,5.832 " />
<polygon  points="0.343,-8 0.343,-6.859 0.512,-6.859 0.512,-8 " />
<polygon  points="0.343,-5.832 0.343,-4.913 0.512,-4.913 0.512,-5.832 " />
<polygon  points="0.343,-4.096 0.343,-3.375 0.512,-3.375 0.512,-4.096 " />
<polygon  points="0.343,-2.744 0.343,-2.197 0.512,-2.197 0.512,-2.744 " />
<polygon  points="0.343,-1.728 0.343,-1.331 0.512,-1.331 0.512,-1.728 " />
<polygon  points="0.343,-1 0.343,-0.729 0.512,-0.729 0.512,-1 " />
<polygon  points="0.343,-0.512 0.343,-0.343 0.512,-0.343 0.512,-0.512 " />
<polygon  points="0.343,-0.216 0.343,-0.125 0.512,-0.125 0.512,-0.216 " />
<polygon  points="0.343,-0.064 0.343,0.064 0.512,0.064 0.512,-0.064 " />
<polygon  points="0.343,0.125 0.343,0.216 0.512,0.216 0.512,0.125 " />
<polygon  points="0.343,0.343 0.343,0.512 0.512,0.512 0.512,0.343 " />
<polygon  points="0.343,0.729 0.343,1 0.512,1 0.512,0.729 " />
<polygon  points="0.343,1.331 0.343,1.728 0.512,1.728 0.512,1.331 " />
<polygon  points="0.343,2.197 0.343,2.744 0.512,2.744 0.512,2.197 " />
<polygon  points="0.343,3.375 0.343,4.096 0.512,4.096 0.512,3.375 " />
<polygon  points="0.343,4.913 0.343,5.832 0.512,5.832 0.512,4.913 " />
<polygon  points="0.343,6.859 0.343,8 0.512,8 0.512,6.859 " />
<polygon  points="0.512,-6.859 0.512,-5.832 0.729,-5.832 0.729,-6.859 " />
<polygon  points="0.512,-4.913 0.512,-4.096 0.729,-4.096 0.729,-4.913 " />
<polygon  points="0.512,-3.375 0.512,-2.744 0.729,-2.744 0.729,-3.375 " />
<polygon  points="0.512,-2.197 0.512,-1.728 0.729,-1.728 0.729,-2.197 " />
<polygon  points="0.512,-1.331 0.512,-1 0.729,-1 0.729,-1.331 " />
<polygon  points="0.512,-0.729 0.512,-0.512 0.729,-0.512 0.729,-0.729 " />
<polygon  points="0.512,-0.343 0.512,-0.216 0.729,-0.216 0.729,-0.343 " />
<polygon  points="0.512,-0.125 0.512,-0.064 0.729,-0.064 0.729,-0.125 " />
<polygon  points="0.512,0.064 0.512,0.125 0.729,0.125 0.729,0.064 " />
<polygon  points="0.512,0.216 0.512,0.343 0.729,0.343 0.729,0.216 " />
<polygon  points="0.512,0.512 0.512,0.729 0.729,0.729 0.729,0.512 " />
<polygon  points="0.512,1 0.512,1.331 0.729,1.331 0.729,1 " />
<polygon  points="0.512,1.728 0.512,2.197 0.729,2.197 0.729,1.728 " />
<polygon  points="0.512,2.744 0.512,3.375 0.729,3.375 0.729,2.744 " />
<polygon  points="0.512,4.096 0.512,4.913 0.729,4.913 0.729,4.096 " />
<polygon  points="0.512,5.832 0.512,6.859 0.729,6.859 0.729,5.832 " />
<polygon  points="0.729,-8 0.729,-6.859 1,-6.859 1,-8 " />
<polygon  points="0.729,-5.832 0.729,-4.913 1,-4.913 1,-5.832 " />
<polygon  points="0.729,-4.096 0.729,-3.375 1,-3.375 1,-4.096 " />
<polygon  points="0.729,-2.744 0.729,-2.197 1,-2.197 1,-2.744 " />
<polygon  points="0.729,-1.728 0.729,-1.331 1,-1.331 1,-1.728 " />
<polygon  points="0.729,-1 0.729,-0.729 1,-0.729 1,-1 " />
<polygon  points="0.729,-0.512 0.729,-0.343 1,-0.343 1,-0.512 " />
<polygon  points="0.729,-0.216 0.729,-0.125 1,-0.125 1,-0.216 " />
<polygon  points="0.729,-0.064 0.729,0.064 1,0.064 1,-0.064 " />
<polygon  points="0.729,0.125 0.729,0.216 1,0.216 1,0.125 " />
<polygon  points="0.729,0.343 0.729,0.512 1,0.512 1,0.343 " />
<polygon  points="0.729,0.729 0.729,1 1,1 1,0.729 " />
<polygon  points="0.729,1.331 0.729,1.728 1,1.728 1,1.331 " />
<polygon  points="0.729,2.197 0.729,2.744 1,2.744 1,2.197 " />
<polygon  points="0.729,3.375 0.729,4.096 1,4.096 1,3.375 " />
<polygon  points="0.729,4.913 0.729,5.832 1,5.832 1,4.913 " />
<polygon  points="0.729,6.859 0.729,8 1,8 1,6.859 " />
<polygon  points="1,-6.859 1,-5.832 1.331,-5.832 1.331,-6.859 " />
<polygon  points="1,-4.913 1,-4.096 1.331,-4.096 1.331,-4.913 " />
<polygon  points="1,-3.375 1,-2.744 1.331,-2.744 1.331,-3.375 " />
<polygon  points="1,-2.197 1,-1.728 1.331,-1.728 1.331,-2.197 " />
<polygon  points="1,-1.331 1,-1 1.331,-1 1.331,-1.331 " />
<polygon  points="1,-0.729 1,-0.512 1.331,-0.512 1.331,-0.729 " />
<polygon  points="1,-0.343 1,-0.216 1.331,-0.216 1.331,-0.343 " />
<polygon  points="1,-0.125 1,-0.064 1.331,-0.064 1.331,-0.125 " />
<polygon  points="1,0.064 1,0.125 1.331,0.125 1.331,0.064 " />
<polygon  points="1,0.216 1,0.343 1.331,0.343 1.331,0.216 " />
<polygon  points="1,0.512 1,0.729 1.331,0.729 1.331,0.512 " />
<polygon  points="1,1 1,1.331 1.331,1.331 1.331,1 " />
<polygon  points="1,1.728 1,2.197 1.331,2.197 1.331,1.728 " />
<polygon  points="1,2.744 1,3.375 1.331,3.375 1.331,2.744 " />
<polygon  points="1,4.096 1,4.913 1.331,4.913 1.331,4.096 " />
<polygon  points="1,5.832 1,6.859 1.331,6.859 1.331,5.832 " />
<polygon  points="1.331,-8 1.331,-6.859 1.728,-6.859 1.728,-8 " />
<polygon  points="1.331,-5.832 1.331,-4.913 1.728,-4.913 1.728,-5.832 " />
<polygon  points="1.331,-4.096 1.331,-3.375 1.728,-3.375 1.728,-4.096 " />
<polygon  points="1.331,-2.744 1.331,-2.197 1.728,-2.197 1.728,-2.744 " />
<polygon  points="1.331,-1.728 1.331,-1.331 1.728,-1.331 1.728,-1.728 " />
<polygon  points="1.331,-1 1.331,-0.729 1.728,-0.729 1.728,-1 " />
<polygon  points="1.331,-0.512 1.331,-0.343 1.728,-0.343 1.728,-0.512 " />
<polygon  points="1.331,-0.216 1.331,-0.125 1.728,-0.125 1.728,-0.216 " />
<polygon  points="1.331,-0.064 1.331,0.064 1.728,0.064 1.728,-0.064 " />
<polygon  points="1.331,0.125 1.331,0.216 1.728,0.216 1.728,0.125 " />
<polygon  points="1.331,0.343 1.331,0.512 1.728,0.512 1.728,0.343 " />
<polygon  points="1.331,0.729 1.331,1 1.728,1 1.728,0.729 " />
<polygon  points="1.331,1.331 1.331,1.728 1.728,1.728 1.728,1.331 " />
<polygon  points="1.331,2.197 1.331,2.744 1.728,2.744 1.728,2.197 " />
<polygon  points="1.331,3.375 1.331,4.096 1.728,4.096 1.728,3.375 " />
<polygon  points="1.331,4.913 1.331,5.832 1.728,5.832 1.728,4.913 " />
<polygon  points="1.331,6.859 1.331,8 1.728,8 1.728,6.859 " />
<polygon  points="1.728,-6.859 1.728,-5.832 2.197,-5.832 2.197,-6.859 " />
<polygon  points="1.728,-4.913 1.728,-4.096 2.197,-4.096 2.197,-4.913 " />
<polygon  points="1.728,-3.375 1.728,-2.744 2.197,-2.744 2.197,-3.375 " />
<polygon  points="1.728,-2.197 1.728,-1.728 2.197,-1.728 2.197,-2.197 " />
<polygon  points="1.728,-1.331 1.728,-1 2.197,-1 2.197,-1.331 " />
<polygon  points="1.728,-0.729 1.728,-0.512 2.197,-0.512 2.197,-0.729 " />
<polygon  points="1.728,-0.343 1.728,-0.216 2.197,-0.216 2.197,-0.343 " />
<polygon  points="1.728,-0.125 1.728,-0.064 2.197,-0.064 2.197,-0.125 " />
<polygon  points="1.728,0.064 1.728,0.125 2.197,0.125 2.197,0.064 " />
<polygon  points="1.728,0.216 1.728,0.343 2.197,0.343 2.197,0.216 " />
<polygon  points="1.728,0.512 1.728,0.729 2.197,0.729 2.197,0.512 " />
<polygon  points="1.728,1 1.728,1.331 2.197,1.331 2.197,1 " />
<polygon  points="1.728,1.728 1.728,2.197 2.197,2.197 2.197,1.728 " />
<polygon  points="1.728,2.744 1.728,3.375 2.197,3.375 2.197,2.744 " />
<polygon  points="1.728,4.096 1.728,4.913 2.197,4.913 2.197,4.096 " />
<polygon  points="1.728,5.832 1.728,6.859 2.197,6.859 2.197,5.832 " />
<polygon  points="2.197,-8 2.197,-6.859 2.744,-6.859 2.744,-8 " />
<polygon  points="2.197,-5.832 2.197,-4.913 2.744,-4.913 2.744,-5.832 " />
<polygon  points="2.197,-4.096 2.197,-3.375 2.744,-3.375 2.744,-4.096 " />
<polygon  points="2.197,-2.744 2.197,-2.197 2.744,-2.197 2.744,-2.744 " />
<polygon  points="2.197,-1.728 2.197,-1.331 2.744,-1.331 2.744,-1.728 " />
<polygon  points="2.197,-1 2.197,-0.729 2.744,-0.729 2.744,-1 " />
<polygon  points="2.197,-0.512 2.197,-0.343 2.744,-0.343 2.744,-0.512 " />
<polygon  points="2.197,-0.216 2.197,-0.125 2.744,-0.125 2.744,-0.216 " />
<polygon  points="2.197,-0.064 2.197,0.064 2.744,0.064 2.744,-0.064 " />
<polygon  points="2.197,0.125 2.197,0.216 2.744,0.216 2.744,0.125 " />
<polygon  points="2.197,0.343 2.197,0.512 2.744,0.512 2.744,0.343 " />
<polygon  points="2.197,0.729 2.197,1 2.744,1 2.744,0.729 " />
<polygon  points="2.197,1.331 2.197,1.728 2.744,1.728 2.744,1.331 " />
<polygon  points="2.197,2.197 2.197,2.744 2.744,2.744 2.744,2.197 " />
<polygon  points="2.197,3.375 2.197,4.096 2.744,4.096 2.744,3.375 " />
<polygon  points="2.197,4.913 2.197,5.832 2.744,5.832 2.744,4.913 " />
<polygon  points="2.197,6.859 2.197,8 2.744,8 2.744,6.859 " />
<polygon  points="2.744,-6.859 2.744,-5.832 3.375,-5.832 3.375,-6.859 " />
<polygon  points="2.744,-4.913 2.744,-4.096 3.375,-4.096 3.375,-4.913 " />
<polygon  points="2.744,-3.375 2.744,-2.744 3.375,-2.744 3.375,-3.375 " />
<polygon  points="2.744,-2.197 2.744,-1.728 3.375,-1.728 3.375,-2.197 " />
<polygon  points="2.744,-1.331 2.744,-1 3.375,-1 3.375,-1.331 " />
<polygon  points="2.744,-0.729 2.744,-0.512 3.375,-0.512 3.375,-0.729 " />
<polygon  points="2.744,-0.343 2.744,-0.216 3.375,-0.216 3.375,-0.343 " />
<polygon  points="2.744,-0.125 2.744,-0.064 3.375,-0.064 3.375,-0.125 " />
<polygon  points="2.744,0.064 2.744,0.125 3.375,0.125 3.375,0.064 " />
<polygon  points="2.744,0.216 2.744,0.343 3.375,0.343 3.375,0.216 " />
<polygon  points="2.744,0.512 2.744,0.729 3.375,0.729 3.375,0.512 " />
<polygon  points="2.744,1 2.744,1.331 3.375,1.331 3.375,1 " />
<polygon  points="2.744,1.728 2.744,2.197 3.375,2.197 3.375,1.728 " />
<polygon  points="2.744,2.744 2.744,3.375 3.375,3.375 3.375,2.744 " />
<polygon  points="2.744,4.096 2.744,4.913 3.375,4.913 3.375,4.096 " />
<polygon  points="2.744,5.832 2.744,6.859 3.375,6.859 3.375,5.832 " />
<polygon  points="3.375,-8 3.375,-6.859 4.096,-6.859 4.096,-8 " />
<polygon  points="3.375,-5.832 3.375,-4.913 4.096,-4.913 4.096,-5.832 " />
<polygon  points="3.375,-4.096 3.375,-3.375 4.096,-3.375 4.096,-4.096 " />
<polygon  points="3.375,-2.744 3.375,-2.197 4.096,-2.197 4.096,-2.744 " />
<polygon  points="3.375,-1.728 3.375,-1.331 4.096,-1.331 4.096,-1.728 " />
<polygon  points="3.375,-1 3.375,-0.729 4.096,-0.729 4.096,-1 " />
<polygon  points="3.375,-0.512 3.375,-0.343 4.096,-0.343 4.096,-0.512 " />
<polygon  points="3.375,-0.216 3.375,-0.125 4.096,-0.125 4.096,-0.216 " />
<polygon  points="3.375,-0.064 3.375,0.064 4.096,0.064 4.096,-0.064 " />
<polygon  points="3.375,0.125 3.375,0.216 4.096,0.216 4.096,0.125 " />
<polygon  points="3.375,0.343 3.375,0.512 4.096,0.512 4.096,0.343 " />
<polygon  points="3.375,0.729 3.375,1 4.096,1 4.096,0.729 " />
<polygon  points="3.375,1.331 3.375,1.728 4.096,1.728 4.096,1.331 " />
<polygon  points="3.375,2.197 3.375,2.744 4.096,2.744 4.096,2.197 " />
<polygon  points="3.375,3.375 3.375,4.096 4.096,4.096 4.096,3.375 " />
<polygon  points="3.375,4.913 3.375,5.832 4.096,5.832 4.096,4.913 " />
<polygon  points="3.375,6.859 3.375,8 4.096,8 4.096,6.859 " />
<polygon  points="4.096,-6.859 4.096,-5.832 4.913,-5.832 4.913,-6.859 " />
<polygon  points="4.096,-4.913 4.096,-4.096 4.913,-4.096 4.913,-4.913 " />
<polygon  points="4.096,-3.375 4.096,-2.744 4.913,-2.744 4.913,-3.375 " />
<polygon  points="4.096,-2.197 4.096,-1.728 4.913,-1.728 4.913,-2.197 " />
<polygon  points="4.096,-1.331 4.096,-1 4.913,-1 4.913,-1.331 " />
<polygon  points="4.096,-0.729 4.096,-0.512 4.913,-0.512 4.913,-0.729 " />
<polygon  points="4.096,-0.343 4.096,-0.216 4.913,-0.216 4.913,-0.343 " />
<polygon  points="4.096,-0.125 4.096,-0.064 4.913,-0.064 4.913,-0.125 " />
<polygon  points="4.096,0.064 4.096,0.125 4.913,0.125 4.913,0.064 " />
<polygon  points="4.096,0.216 4.096,0.343 4.913,0.343 4.913,0.216 " />
<polygon  points="4.096,0.512 4.096,0.729 4.913,0.729 4.913,0.512 " />
<polygon  points="4.096,1 4.096,1.331 4.913,1.331 4.913,1 " />
<polygon  points="4.096,1.728 4.096,2.197 4.913,2.197 4.913,1.728 " />
<polygon  points="4.096,2.744 4.096,3.375 4.913,3.375 4.913,2.744 " />
<polygon  points="4.096,4.096 4.096,4.913 4.913,4.913 4.913,4.096 " />
<polygon  points="4.096,5.832 4.096,6.859 4.913,6.859 4.913,5.832 " />
<polygon  points="4.913,-8 4.913,-6.859 5.832,-6.859 5.832,-8 " />
<polygon  points="4.913,-5.832 4.913,-4.913 5.832,-4.913 5.832,-5.832 " />
<polygon  points="4.913,-4.096 4.913,-3.375 5.832,-3.375 5.832,-4.096 " />
<polygon  points="4.913,-2.744 4.913,-2.197 5.832,-2.197 5.832,-2.744 " />
<polygon  points="4.913,-1.728 4.913,-1.331 5.832,-1.331 5.832,-1.728 " />
<polygon  points="4.913,-1 4.913,-0.729 5.832,-0.729 5.832,-1 " />
<polygon  points="4.913,-0.512 4.913,-0.343 5.832,-0.343 5.832,-0.512 " />
<polygon  points="4.913,-0.216 4.913,-0.125 5.832,-0.125 5.832,-0.216 " />
<polygon  points="4.913,-0.064 4.913,0.064 5.832,0.064 5.832,-0.064 " />
<polygon  points="4.913,0.125 4.913,0.216 5.832,0.216 5.832,0.125 " />
<polygon  points="4.913,0.343 4.913,0.512 5.832,0.512 5.832,0.343 " />
<polygon  points="4.913,0.729 4.913,1 5.832,1 5.832,0.729 " />
<polygon  points="4.913,1.331 4.913,1.728 5.832,1.728 5.832,1.331 " />
<polygon  points="4.913,2.197 4.913,2.744 5.832,2.744 5.832,2.197 " />
<polygon  points="4.913,3.375 4.913,4.096 5.832,4.096 5.832,3.375 " />
<polygon  points="4.913,4.913 4.913,5.832 5.832,5.832 5.832,4.913 " />
<polygon  points="4.913,6.859 4.913,8 5.832,8 5.832,6.859 " />
<polygon  points="5.832,-6.859 5.832,-5.832 6.859,-5.832 6.859,-6.859 " />
<polygon  points="5.832,-4.913 5.832,-4.096 6.859,-4.096 6.859,-4.913 " />
<polygon  points="5.832,-3.375 5.832,-2.744 6.859,-2.744 6.859,-3.375 " />
<polygon  points="5.832,-2.197 5.832,-1.728 6.859,-1.728 6.859,-2.197 " />
<polygon  points="5.832,-1.331 5.832,-1 6.859,-1 6.859,-1.331 " />
<polygon  points="5.832,-0.729 5.832,-0.512 6.859,-0.512 6.859,-0.729 " />
<polygon  points="5.832,-0.343 5.832,-0.216 6.859,-0.216 6.859,-0.343 " />
<polygon  points="5.832,-0.125 5.832,-0.064 6.859,-0.064 6.859,-0.125 " />
<polygon  points="5.832,0.064 5.832,0.125 6.859,0.125 6.859,0.064 " />
<polygon  points="5.832,0.216 5.832,0.343 6.859,0.343 6.859,0.216 " />
<polygon  points="5.832,0.512 5.832,0.729 6.859,0.729 6.859,0.512 " />
<polygon  points="5.832,1 5.832,1.331 6.859,1.331 6.859,1 " />
<polygon  points="5.832,1.728 5.832,2.197 6.859,2.197 6.859,1.728 " />
<polygon  points="5.832,2.744 5.832,3.375 6.859,3.375 6.859,2.744 " />
<polygon  points="5.832,4.096 5.832,4.913 6.859,4.913 6.859,4.096 " />
<polygon  points="5.832,5.832 5.832,6.859 6.859,6.859 6.859,5.832 " />
<polygon  points="6.859,-8 6.859,-6.859 8,-6.859 8,-8 " />
<polygon  points="6.859,-5.832 6.859,-4.913 8,-4.913 8,-5.832 " />
<polygon  points="6.859,-4.096 6.859,-3.375 8,-3.375 8,-4.096 " />
<polygon  points="6.859,-2.744 6.859,-2.197 8,-2.197 8,-2.744 " />
<polygon  points="6.859,-1.728 6.859,-1.331 8,-1.331 8,-1.728 " />
<polygon  points="6.859,-1 6.859,-0.729 8,-0.729 8,-1 " />
<polygon  points="6.859,-0.512 6.859,-0.343 8,-0.343 8,-0.512 " />
<polygon  points="6.859,-0.216 6.859,-0.125 8,-0.125 8,-0.216 " />
<polygon  points="6.859,-0.064 6.859,0.064 8,0.064 8,-0.064 " />
<polygon  points="6.859,0.125 6.859,0.216 8,0.216 8,0.125 " />
<polygon  points="6.859,0.343 6.859,0.512 8,0.512 8,0.343 " />
<polygon  points="6.859,0.729 6.859,1 8,1 8,0.729 " />
<polygon  points="6.859,1.331 6.859,1.728 8,1.728 8,1.331 " />
<polygon  points="6.859,2.197 6.859,2.744 8,2.744 8,2.197 " />
<polygon  points="6.859,3.375 6.859,4.096 8,4.096 8,3.375 " />
<polygon  points="6.859,4.913 6.859,5.832 8,5.832 8,4.913 " />
<polygon  points="6.859,6.859 6.859,8 8,8 8,6.859 " />
</svg>
