<svg  viewBox="-2 -17 19 19" style="stroke-width:0.4; stroke-linecap:round;" xmlns="http://www.w3.org/2000/svg">
<path style="stroke:hsl(1,100%,50%);" fill="none"  d="M 0 0 L 1 0" />
<path style="stroke:hsl(3,100%,50%);" fill="none"  d="M 1 0 L 1 -1" />
<path style="stroke:hsl(4,100%,50%);" fill="none"  d="M 1 -1 L 0 -1" />
<path style="stroke:hsl(6,100%,50%);" fill="none"  d="M 0 -1 L 0 -2" />
<path style="stroke:hsl(7,100%,50%);" fill="none"  d="M 0 -2 L 0 -3" />
<path style="stroke:hsl(8,100%,50%);" fill="none"  d="M 0 -3 L 1 -3" />
<path style="stroke:hsl(10,100%,50%);" fill="none"  d="M 1 -3 L 1 -2" />
<path style="stroke:hsl(11,100%,50%);" fill="none"  d="M 1 -2 L 2 -2" />
<path style="stroke:hsl(13,100%,50%);" fill="none"  d="M 2 -2 L 2 -3" />
<path style="stroke:hsl(14,100%,50%);" fill="none"  d="M 2 -3 L 3 -3" />
<path style="stroke:hsl(15,100%,50%);" fill="none"  d="M 3 -3 L 3 -2" />
<path style="stroke:hsl(17,100%,50%);" fill="none"  d="M 3 -2 L 3 -1" />
<path style="stroke:hsl(18,100%,50%);" fill="none"  d="M 3 -1 L 2 -1" />
<path style="stroke:hsl(20,100%,50%);" fill="none"  d="M 2 -1 L 2 0" />
<path style="stroke:hsl(21,100%,50%);" fill="none"  d="M 2 0 L 3 0" />
<path style="stroke:hsl(23,100%,50%);" fill="none"  d="M 3 0 L 4 0" />
<path style="stroke:hsl(24,100%,50%);" fill="none"  d="M 4 0 L 4 -1" />
<path style="stroke:hsl(25,100%,50%);" fill="none"  d="M 4 -1 L 5 -1" />
<path style="stroke:hsl(27,100%,50%);" fill="none"  d="M 5 -1 L 5 0" />
<path style="stroke:hsl(28,100%,50%);" fill="none"  d="M 5 0 L 6 0" />
<path style="stroke:hsl(30,100%,50%);" fill="none"  d="M 6 0 L 7 0" />
<path style="stroke:hsl(31,100%,50%);" fill="none"  d="M 7 0 L 7 -1" />
<path style="stroke:hsl(32,100%,50%);" fill="none"  d="M 7 -1 L 6 -1" />
<path style="stroke:hsl(34,100%,50%);" fill="none"  d="M 6 -1 L 6 -2" />
<path style="stroke:hsl(35,100%,50%);" fill="none"  d="M 6 -2 L 7 -2" />
<path style="stroke:hsl(37,100%,50%);" fill="none"  d="M 7 -2 L 7 -3" />
<path style="stroke:hsl(38,100%,50%);" fill="none"  d="M 7 -3 L 6 -3" />
<path style="stroke:hsl(39,100%,50%);" fill="none"  d="M 6 -3 L 5 -3" />
<path style="stroke:hsl(41,100%,50%);" fill="none"  d="M 5 -3 L 5 -2" />
<path style="stroke:hsl(42,100%,50%);" fill="none"  d="M 5 -2 L 4 -2" />
<path style="stroke:hsl(44,100%,50%);" fill="none"  d="M 4 -2 L 4 -3" />
<path style="stroke:hsl(45,100%,50%);" fill="none"  d="M 4 -3 L 4 -4" />
<path style="stroke:hsl(46,100%,50%);" fill="none"  d="M 4 -4 L 4 -5" />
<path style="stroke:hsl(48,100%,50%);" fill="none"  d="M 4 -5 L 5 -5" />
<path style="stroke:hsl(49,100%,50%);" fill="none"  d="M 5 -5 L 5 -4" />
<path style="stroke:hsl(51,100%,50%);" fill="none"  d="M 5 -4 L 6 -4" />
<path style="stroke:hsl(52,100%,50%);" fill="none"  d="M 6 -4 L 7 -4" />
<path style="stroke:hsl(53,100%,50%);" fill="none"  d="M 7 -4 L 7 -5" />
<path style="stroke:hsl(55,100%,50%);" fill="none"  d="M 7 -5 L 6 -5" />
<path style="stroke:hsl(56,100%,50%);" fill="none"  d="M 6 -5 L 6 -6" />
<path style="stroke:hsl(58,100%,50%);" fill="none"  d="M 6 -6 L 7 -6" />
<path style="stroke:hsl(59,100%,50%);" fill="none"  d="M 7 -6 L 7 -7" />
<path style="stroke:hsl(60,100%,50%);" fill="none"  d="M 7 -7 L 6 -7" />
<path style="stroke:hsl(62,100%,50%);" fill="none"  d="M 6 -7 L 5 -7" />
<path style="stroke:hsl(63,100%,50%);" fill="none"  d="M 5 -7 L 5 -6" />
<path style="stroke:hsl(65,100%,50%);" fill="none"  d="M 5 -6 L 4 -6" />
<path style="stroke:hsl(66,100%,50%);" fill="none"  d="M 4 -6 L 4 -7" />
<path style="stroke:hsl(68,100%,50%);" fill="none"  d="M 4 -7 L 3 -7" />
<path style="stroke:hsl(69,100%,50%);" fill="none"  d="M 3 -7 L 2 -7" />
<path style="stroke:hsl(70,100%,50%);" fill="none"  d="M 2 -7 L 2 -6" />
<path style="stroke:hsl(72,100%,50%);" fill="none"  d="M 2 -6 L 3 -6" />
<path style="stroke:hsl(73,100%,50%);" fill="none"  d="M 3 -6 L 3 -5" />
<path style="stroke:hsl(75,100%,50%);" fill="none"  d="M 3 -5 L 3 -4" />
<path style="stroke:hsl(76,100%,50%);" fill="none"  d="M 3 -4 L 2 -4" />
<path style="stroke:hsl(77,100%,50%);" fill="none"  d="M 2 -4 L 2 -5" />
<path style="stroke:hsl(79,100%,50%);" fill="none"  d="M 2 -5 L 1 -5" />
<path style="stroke:hsl(80,100%,50%);" fill="none"  d="M 1 -5 L 1 -4" />
<path style="stroke:hsl(82,100%,50%);" fill="none"  d="M 1 -4 L 0 -4" />
<path style="stroke:hsl(83,100%,50%);" fill="none"  d="M 0 -4 L 0 -5" />
<path style="stroke:hsl(84,100%,50%);" fill="none"  d="M 0 -5 L 0 -6" />
<path style="stroke:hsl(86,100%,50%);" fill="none"  d="M 0 -6 L 1 -6" />
<path style="stroke:hsl(87,100%,50%);" fill="none"  d="M 1 -6 L 1 -7" />
<path style="stroke:hsl(89,100%,50%);" fill="none"  d="M 1 -7 L 0 -7" />
<path style="stroke:hsl(90,100%,50%);" fill="none"  d="M 0 -7 L 0 -8" />
<path style="stroke:hsl(91,100%,50%);" fill="none"  d="M 0 -8 L 0 -9" />
<path style="stroke:hsl(93,100%,50%);" fill="none"  d="M 0 -9 L 1 -9" />
<path style="stroke:hsl(94,100%,50%);" fill="none"  d="M 1 -9 L 1 -8" />
<path style="stroke:hsl(96,100%,50%);" fill="none"  d="M 1 -8 L 2 -8" />
<path style="stroke:hsl(97,100%,50%);" fill="none"  d="M 2 -8 L 3 -8" />
<path style="stroke:hsl(98,100%,50%);" fill="none"  d="M 3 -8 L 3 -9" />
<path style="stroke:hsl(100,100%,50%);" fill="none"  d="M 3 -9 L 2 -9" />
<path style="stroke:hsl(101,100%,50%);" fill="none"  d="M 2 -9 L 2 -10" />
<path style="stroke:hsl(103,100%,50%);" fill="none"  d="M 2 -10 L 3 -10" />
<path style="stroke:hsl(104,100%,50%);" fill="none"  d="M 3 -10 L 3 -11" />
<path style="stroke:hsl(105,100%,50%);" fill="none"  d="M 3 -11 L 2 -11" />
<path style="stroke:hsl(107,100%,50%);" fill="none"  d="M 2 -11 L 1 -11" />
<path style="stroke:hsl(108,100%,50%);" fill="none"  d="M 1 -11 L 1 -10" />
<path style="stroke:hsl(110,100%,50%);" fill="none"  d="M 1 -10 L 0 -10" />
<path style="stroke:hsl(111,100%,50%);" fill="none"  d="M 0 -10 L 0 -11" />
<path style="stroke:hsl(113,100%,50%);" fill="none"  d="M 0 -11 L 0 -12" />
<path style="stroke:hsl(114,100%,50%);" fill="none"  d="M 0 -12 L 1 -12" />
<path style="stroke:hsl(115,100%,50%);" fill="none"  d="M 1 -12 L 1 -13" />
<path style="stroke:hsl(117,100%,50%);" fill="none"  d="M 1 -13 L 0 -13" />
<path style="stroke:hsl(118,100%,50%);" fill="none"  d="M 0 -13 L 0 -14" />
<path style="stroke:hsl(120,100%,50%);" fill="none"  d="M 0 -14 L 0 -15" />
<path style="stroke:hsl(121,100%,50%);" fill="none"  d="M 0 -15 L 1 -15" />
<path style="stroke:hsl(122,100%,50%);" fill="none"  d="M 1 -15 L 1 -14" />
<path style="stroke:hsl(124,100%,50%);" fill="none"  d="M 1 -14 L 2 -14" />
<path style="stroke:hsl(125,100%,50%);" fill="none"  d="M 2 -14 L 2 -15" />
<path style="stroke:hsl(127,100%,50%);" fill="none"  d="M 2 -15 L 3 -15" />
<path style="stroke:hsl(128,100%,50%);" fill="none"  d="M 3 -15 L 3 -14" />
<path style="stroke:hsl(129,100%,50%);" fill="none"  d="M 3 -14 L 3 -13" />
<path style="stroke:hsl(131,100%,50%);" fill="none"  d="M 3 -13 L 2 -13" />
<path style="stroke:hsl(132,100%,50%);" fill="none"  d="M 2 -13 L 2 -12" />
<path style="stroke:hsl(134,100%,50%);" fill="none"  d="M 2 -12 L 3 -12" />
<path style="stroke:hsl(135,100%,50%);" fill="none"  d="M 3 -12 L 4 -12" />
<path style="stroke:hsl(136,100%,50%);" fill="none"  d="M 4 -12 L 5 -12" />
<path style="stroke:hsl(138,100%,50%);" fill="none"  d="M 5 -12 L 5 -13" />
<path style="stroke:hsl(139,100%,50%);" fill="none"  d="M 5 -13 L 4 -13" />
<path style="stroke:hsl(141,100%,50%);" fill="none"  d="M 4 -13 L 4 -14" />
<path style="stroke:hsl(142,100%,50%);" fill="none"  d="M 4 -14 L 4 -15" />
<path style="stroke:hsl(143,100%,50%);" fill="none"  d="M 4 -15 L 5 -15" />
<path style="stroke:hsl(145,100%,50%);" fill="none"  d="M 5 -15 L 5 -14" />
<path style="stroke:hsl(146,100%,50%);" fill="none"  d="M 5 -14 L 6 -14" />
<path style="stroke:hsl(148,100%,50%);" fill="none"  d="M 6 -14 L 6 -15" />
<path style="stroke:hsl(149,100%,50%);" fill="none"  d="M 6 -15 L 7 -15" />
<path style="stroke:hsl(150,100%,50%);" fill="none"  d="M 7 -15 L 7 -14" />
<path style="stroke:hsl(152,100%,50%);" fill="none"  d="M 7 -14 L 7 -13" />
<path style="stroke:hsl(153,100%,50%);" fill="none"  d="M 7 -13 L 6 -13" />
<path style="stroke:hsl(155,100%,50%);" fill="none"  d="M 6 -13 L 6 -12" />
<path style="stroke:hsl(156,100%,50%);" fill="none"  d="M 6 -12 L 7 -12" />
<path style="stroke:hsl(158,100%,50%);" fill="none"  d="M 7 -12 L 7 -11" />
<path style="stroke:hsl(159,100%,50%);" fill="none"  d="M 7 -11 L 7 -10" />
<path style="stroke:hsl(160,100%,50%);" fill="none"  d="M 7 -10 L 6 -10" />
<path style="stroke:hsl(162,100%,50%);" fill="none"  d="M 6 -10 L 6 -11" />
<path style="stroke:hsl(163,100%,50%);" fill="none"  d="M 6 -11 L 5 -11" />
<path style="stroke:hsl(165,100%,50%);" fill="none"  d="M 5 -11 L 4 -11" />
<path style="stroke:hsl(166,100%,50%);" fill="none"  d="M 4 -11 L 4 -10" />
<path style="stroke:hsl(167,100%,50%);" fill="none"  d="M 4 -10 L 5 -10" />
<path style="stroke:hsl(169,100%,50%);" fill="none"  d="M 5 -10 L 5 -9" />
<path style="stroke:hsl(170,100%,50%);" fill="none"  d="M 5 -9 L 4 -9" />
<path style="stroke:hsl(172,100%,50%);" fill="none"  d="M 4 -9 L 4 -8" />
<path style="stroke:hsl(173,100%,50%);" fill="none"  d="M 4 -8 L 5 -8" />
<path style="stroke:hsl(174,100%,50%);" fill="none"  d="M 5 -8 L 6 -8" />
<path style="stroke:hsl(176,100%,50%);" fill="none"  d="M 6 -8 L 6 -9" />
<path style="stroke:hsl(177,100%,50%);" fill="none"  d="M 6 -9 L 7 -9" />
<path style="stroke:hsl(179,100%,50%);" fill="none"  d="M 7 -9 L 7 -8" />
<path style="stroke:hsl(180,100%,50%);" fill="none"  d="M 7 -8 L 8 -8" />
<path style="stroke:hsl(181,100%,50%);" fill="none"  d="M 8 -8 L 8 -9" />
<path style="stroke:hsl(183,100%,50%);" fill="none"  d="M 8 -9 L 9 -9" />
<path style="stroke:hsl(184,100%,50%);" fill="none"  d="M 9 -9 L 9 -8" />
<path style="stroke:hsl(186,100%,50%);" fill="none"  d="M 9 -8 L 10 -8" />
<path style="stroke:hsl(187,100%,50%);" fill="none"  d="M 10 -8 L 11 -8" />
<path style="stroke:hsl(188,100%,50%);" fill="none"  d="M 11 -8 L 11 -9" />
<path style="stroke:hsl(190,100%,50%);" fill="none"  d="M 11 -9 L 10 -9" />
<path style="stroke:hsl(191,100%,50%);" fill="none"  d="M 10 -9 L 10 -10" />
<path style="stroke:hsl(193,100%,50%);" fill="none"  d="M 10 -10 L 11 -10" />
<path style="stroke:hsl(194,100%,50%);" fill="none"  d="M 11 -10 L 11 -11" />
<path style="stroke:hsl(195,100%,50%);" fill="none"  d="M 11 -11 L 10 -11" />
<path style="stroke:hsl(197,100%,50%);" fill="none"  d="M 10 -11 L 9 -11" />
<path style="stroke:hsl(198,100%,50%);" fill="none"  d="M 9 -11 L 9 -10" />
<path style="stroke:hsl(200,100%,50%);" fill="none"  d="M 9 -10 L 8 -10" />
<path style="stroke:hsl(201,100%,50%);" fill="none"  d="M 8 -10 L 8 -11" />
<path style="stroke:hsl(203,100%,50%);" fill="none"  d="M 8 -11 L 8 -12" />
<path style="stroke:hsl(204,100%,50%);" fill="none"  d="M 8 -12 L 9 -12" />
<path style="stroke:hsl(205,100%,50%);" fill="none"  d="M 9 -12 L 9 -13" />
<path style="stroke:hsl(207,100%,50%);" fill="none"  d="M 9 -13 L 8 -13" />
<path style="stroke:hsl(208,100%,50%);" fill="none"  d="M 8 -13 L 8 -14" />
<path style="stroke:hsl(210,100%,50%);" fill="none"  d="M 8 -14 L 8 -15" />
<path style="stroke:hsl(211,100%,50%);" fill="none"  d="M 8 -15 L 9 -15" />
<path style="stroke:hsl(212,100%,50%);" fill="none"  d="M 9 -15 L 9 -14" />
<path style="stroke:hsl(214,100%,50%);" fill="none"  d="M 9 -14 L 10 -14" />
<path style="stroke:hsl(215,100%,50%);" fill="none"  d="M 10 -14 L 10 -15" />
<path style="stroke:hsl(217,100%,50%);" fill="none"  d="M 10 -15 L 11 -15" />
<path style="stroke:hsl(218,100%,50%);" fill="none"  d="M 11 -15 L 11 -14" />
<path style="stroke:hsl(219,100%,50%);" fill="none"  d="M 11 -14 L 11 -13" />
<path style="stroke:hsl(221,100%,50%);" fill="none"  d="M 11 -13 L 10 -13" />
<path style="stroke:hsl(222,100%,50%);" fill="none"  d="M 10 -13 L 10 -12" />
<path style="stroke:hsl(224,100%,50%);" fill="none"  d="M 10 -12 L 11 -12" />
<path style="stroke:hsl(225,100%,50%);" fill="none"  d="M 11 -12 L 12 -12" />
<path style="stroke:hsl(226,100%,50%);" fill="none"  d="M 12 -12 L 13 -12" />
<path style="stroke:hsl(228,100%,50%);" fill="none"  d="M 13 -12 L 13 -13" />
<path style="stroke:hsl(229,100%,50%);" fill="none"  d="M 13 -13 L 12 -13" />
<path style="stroke:hsl(231,100%,50%);" fill="none"  d="M 12 -13 L 12 -14" />
<path style="stroke:hsl(232,100%,50%);" fill="none"  d="M 12 -14 L 12 -15" />
<path style="stroke:hsl(233,100%,50%);" fill="none"  d="M 12 -15 L 13 -15" />
<path style="stroke:hsl(235,100%,50%);" fill="none"  d="M 13 -15 L 13 -14" />
<path style="stroke:hsl(236,100%,50%);" fill="none"  d="M 13 -14 L 14 -14" />
<path style="stroke:hsl(238,100%,50%);" fill="none"  d="M 14 -14 L 14 -15" />
<path style="stroke:hsl(239,100%,50%);" fill="none"  d="M 14 -15 L 15 -15" />
<path style="stroke:hsl(240,100%,50%);" fill="none"  d="M 15 -15 L 15 -14" />
<path style="stroke:hsl(242,100%,50%);" fill="none"  d="M 15 -14 L 15 -13" />
<path style="stroke:hsl(243,100%,50%);" fill="none"  d="M 15 -13 L 14 -13" />
<path style="stroke:hsl(245,100%,50%);" fill="none"  d="M 14 -13 L 14 -12" />
<path style="stroke:hsl(246,100%,50%);" fill="none"  d="M 14 -12 L 15 -12" />
<path style="stroke:hsl(248,100%,50%);" fill="none"  d="M 15 -12 L 15 -11" />
<path style="stroke:hsl(249,100%,50%);" fill="none"  d="M 15 -11 L 15 -10" />
<path style="stroke:hsl(250,100%,50%);" fill="none"  d="M 15 -10 L 14 -10" />
<path style="stroke:hsl(252,100%,50%);" fill="none"  d="M 14 -10 L 14 -11" />
<path style="stroke:hsl(253,100%,50%);" fill="none"  d="M 14 -11 L 13 -11" />
<path style="stroke:hsl(255,100%,50%);" fill="none"  d="M 13 -11 L 12 -11" />
<path style="stroke:hsl(256,100%,50%);" fill="none"  d="M 12 -11 L 12 -10" />
<path style="stroke:hsl(257,100%,50%);" fill="none"  d="M 12 -10 L 13 -10" />
<path style="stroke:hsl(259,100%,50%);" fill="none"  d="M 13 -10 L 13 -9" />
<path style="stroke:hsl(260,100%,50%);" fill="none"  d="M 13 -9 L 12 -9" />
<path style="stroke:hsl(262,100%,50%);" fill="none"  d="M 12 -9 L 12 -8" />
<path style="stroke:hsl(263,100%,50%);" fill="none"  d="M 12 -8 L 13 -8" />
<path style="stroke:hsl(264,100%,50%);" fill="none"  d="M 13 -8 L 14 -8" />
<path style="stroke:hsl(266,100%,50%);" fill="none"  d="M 14 -8 L 14 -9" />
<path style="stroke:hsl(267,100%,50%);" fill="none"  d="M 14 -9 L 15 -9" />
<path style="stroke:hsl(269,100%,50%);" fill="none"  d="M 15 -9 L 15 -8" />
<path style="stroke:hsl(270,100%,50%);" fill="none"  d="M 15 -8 L 15 -7" />
<path style="stroke:hsl(271,100%,50%);" fill="none"  d="M 15 -7 L 14 -7" />
<path style="stroke:hsl(273,100%,50%);" fill="none"  d="M 14 -7 L 14 -6" />
<path style="stroke:hsl(274,100%,50%);" fill="none"  d="M 14 -6 L 15 -6" />
<path style="stroke:hsl(276,100%,50%);" fill="none"  d="M 15 -6 L 15 -5" />
<path style="stroke:hsl(277,100%,50%);" fill="none"  d="M 15 -5 L 15 -4" />
<path style="stroke:hsl(278,100%,50%);" fill="none"  d="M 15 -4 L 14 -4" />
<path style="stroke:hsl(280,100%,50%);" fill="none"  d="M 14 -4 L 14 -5" />
<path style="stroke:hsl(281,100%,50%);" fill="none"  d="M 14 -5 L 13 -5" />
<path style="stroke:hsl(283,100%,50%);" fill="none"  d="M 13 -5 L 13 -4" />
<path style="stroke:hsl(284,100%,50%);" fill="none"  d="M 13 -4 L 12 -4" />
<path style="stroke:hsl(285,100%,50%);" fill="none"  d="M 12 -4 L 12 -5" />
<path style="stroke:hsl(287,100%,50%);" fill="none"  d="M 12 -5 L 12 -6" />
<path style="stroke:hsl(288,100%,50%);" fill="none"  d="M 12 -6 L 13 -6" />
<path style="stroke:hsl(290,100%,50%);" fill="none"  d="M 13 -6 L 13 -7" />
<path style="stroke:hsl(291,100%,50%);" fill="none"  d="M 13 -7 L 12 -7" />
<path style="stroke:hsl(293,100%,50%);" fill="none"  d="M 12 -7 L 11 -7" />
<path style="stroke:hsl(294,100%,50%);" fill="none"  d="M 11 -7 L 11 -6" />
<path style="stroke:hsl(295,100%,50%);" fill="none"  d="M 11 -6 L 10 -6" />
<path style="stroke:hsl(297,100%,50%);" fill="none"  d="M 10 -6 L 10 -7" />
<path style="stroke:hsl(298,100%,50%);" fill="none"  d="M 10 -7 L 9 -7" />
<path style="stroke:hsl(300,100%,50%);" fill="none"  d="M 9 -7 L 8 -7" />
<path style="stroke:hsl(301,100%,50%);" fill="none"  d="M 8 -7 L 8 -6" />
<path style="stroke:hsl(302,100%,50%);" fill="none"  d="M 8 -6 L 9 -6" />
<path style="stroke:hsl(304,100%,50%);" fill="none"  d="M 9 -6 L 9 -5" />
<path style="stroke:hsl(305,100%,50%);" fill="none"  d="M 9 -5 L 8 -5" />
<path style="stroke:hsl(307,100%,50%);" fill="none"  d="M 8 -5 L 8 -4" />
<path style="stroke:hsl(308,100%,50%);" fill="none"  d="M 8 -4 L 9 -4" />
<path style="stroke:hsl(309,100%,50%);" fill="none"  d="M 9 -4 L 10 -4" />
<path style="stroke:hsl(311,100%,50%);" fill="none"  d="M 10 -4 L 10 -5" />
<path style="stroke:hsl(312,100%,50%);" fill="none"  d="M 10 -5 L 11 -5" />
<path style="stroke:hsl(314,100%,50%);" fill="none"  d="M 11 -5 L 11 -4" />
<path style="stroke:hsl(315,100%,50%);" fill="none"  d="M 11 -4 L 11 -3" />
<path style="stroke:hsl(316,100%,50%);" fill="none"  d="M 11 -3 L 11 -2" />
<path style="stroke:hsl(318,100%,50%);" fill="none"  d="M 11 -2 L 10 -2" />
<path style="stroke:hsl(319,100%,50%);" fill="none"  d="M 10 -2 L 10 -3" />
<path style="stroke:hsl(321,100%,50%);" fill="none"  d="M 10 -3 L 9 -3" />
<path style="stroke:hsl(322,100%,50%);" fill="none"  d="M 9 -3 L 8 -3" />
<path style="stroke:hsl(323,100%,50%);" fill="none"  d="M 8 -3 L 8 -2" />
<path style="stroke:hsl(325,100%,50%);" fill="none"  d="M 8 -2 L 9 -2" />
<path style="stroke:hsl(326,100%,50%);" fill="none"  d="M 9 -2 L 9 -1" />
<path style="stroke:hsl(328,100%,50%);" fill="none"  d="M 9 -1 L 8 -1" />
<path style="stroke:hsl(329,100%,50%);" fill="none"  d="M 8 -1 L 8 0" />
<path style="stroke:hsl(330,100%,50%);" fill="none"  d="M 8 0 L 9 0" />
<path style="stroke:hsl(332,100%,50%);" fill="none"  d="M 9 0 L 10 0" />
<path style="stroke:hsl(333,100%,50%);" fill="none"  d="M 10 0 L 10 -1" />
<path style="stroke:hsl(335,100%,50%);" fill="none"  d="M 10 -1 L 11 -1" />
<path style="stroke:hsl(336,100%,50%);" fill="none"  d="M 11 -1 L 11 0" />
<path style="stroke:hsl(338,100%,50%);" fill="none"  d="M 11 0 L 12 0" />
<path style="stroke:hsl(339,100%,50%);" fill="none"  d="M 12 0 L 13 0" />
<path style="stroke:hsl(340,100%,50%);" fill="none"  d="M 13 0 L 13 -1" />
<path style="stroke:hsl(342,100%,50%);" fill="none"  d="M 13 -1 L 12 -1" />
<path style="stroke:hsl(343,100%,50%);" fill="none"  d="M 12 -1 L 12 -2" />
<path style="stroke:hsl(345,100%,50%);" fill="none"  d="M 12 -2 L 12 -3" />
<path style="stroke:hsl(346,100%,50%);" fill="none"  d="M 12 -3 L 13 -3" />
<path style="stroke:hsl(347,100%,50%);" fill="none"  d="M 13 -3 L 13 -2" />
<path style="stroke:hsl(349,100%,50%);" fill="none"  d="M 13 -2 L 14 -2" />
<path style="stroke:hsl(350,100%,50%);" fill="none"  d="M 14 -2 L 14 -3" />
<path style="stroke:hsl(352,100%,50%);" fill="none"  d="M 14 -3 L 15 -3" />
<path style="stroke:hsl(353,100%,50%);" fill="none"  d="M 15 -3 L 15 -2" />
<path style="stroke:hsl(354,100%,50%);" fill="none"  d="M 15 -2 L 15 -1" />
<path style="stroke:hsl(356,100%,50%);" fill="none"  d="M 15 -1 L 14 -1" />
<path style="stroke:hsl(357,100%,50%);" fill="none"  d="M 14 -1 L 14 0" />
<path style="stroke:hsl(359,100%,50%);" fill="none"  d="M 14 0 L 15 0" />
</svg>
