<svg xmlns="http://www.w3.org/2000/svg" viewBox="-5 -38 20 20" > 
<path  style="fill:#88ff88; stroke:#000000; stroke-width:0.1; " fill-rule="evenodd"   d="M 0 -23 L 0 -33 10 -33 10 -23 Z M 3.333333333333333 -26.333333333333332 L 3.333333333333333 -29.666666666666664 6.666666666666666 -29.666666666666664 6.666666666666666 -26.333333333333332 Z M 1.111111111111111 -24.11111111111111 L 1.111111111111111 -25.22222222222222 2.222222222222222 -25.22222222222222 2.222222222222222 -24.11111111111111 Z M 1.111111111111111 -27.444444444444443 L 1.111111111111111 -28.555555555555557 2.222222222222222 -28.555555555555557 2.222222222222222 -27.444444444444443 Z M 1.111111111111111 -30.77777777777778 L 1.111111111111111 -31.88888888888889 2.222222222222222 -31.88888888888889 2.222222222222222 -30.77777777777778 Z M 4.444444444444445 -24.11111111111111 L 4.444444444444445 -25.22222222222222 5.555555555555555 -25.22222222222222 5.555555555555555 -24.11111111111111 Z M 4.444444444444445 -30.77777777777778 L 4.444444444444445 -31.88888888888889 5.555555555555555 -31.88888888888889 5.555555555555555 -30.77777777777778 Z M 7.777777777777778 -24.11111111111111 L 7.777777777777778 -25.22222222222222 8.88888888888889 -25.22222222222222 8.88888888888889 -24.11111111111111 Z M 7.777777777777778 -27.444444444444443 L 7.777777777777778 -28.555555555555557 8.88888888888889 -28.555555555555557 8.88888888888889 -27.444444444444443 Z M 7.777777777777778 -30.77777777777778 L 7.777777777777778 -31.88888888888889 8.88888888888889 -31.88888888888889 8.88888888888889 -30.77777777777778 Z M 0.37037037037037 -23.37037037037037 L 0.37037037037037 -23.74074074074074 0.740740740740741 -23.74074074074074 0.740740740740741 -23.37037037037037 Z M 0.37037037037037 -24.48148148148148 L 0.37037037037037 -24.85185185185185 0.740740740740741 -24.85185185185185 0.740740740740741 -24.48148148148148 Z M 0.37037037037037 -25.59259259259259 L 0.37037037037037 -25.962962962962962 0.740740740740741 -25.962962962962962 0.740740740740741 -25.59259259259259 Z M 1.481481481481481 -23.37037037037037 L 1.481481481481481 -23.74074074074074 1.851851851851852 -23.74074074074074 1.851851851851852 -23.37037037037037 Z M 1.481481481481481 -25.59259259259259 L 1.481481481481481 -25.962962962962962 1.851851851851852 -25.962962962962962 1.851851851851852 -25.59259259259259 Z M 2.592592592592593 -23.37037037037037 L 2.592592592592593 -23.74074074074074 2.962962962962963 -23.74074074074074 2.962962962962963 -23.37037037037037 Z M 2.592592592592593 -24.48148148148148 L 2.592592592592593 -24.85185185185185 2.962962962962963 -24.85185185185185 2.962962962962963 -24.48148148148148 Z M 2.592592592592593 -25.59259259259259 L 2.592592592592593 -25.962962962962962 2.962962962962963 -25.962962962962962 2.962962962962963 -25.59259259259259 Z M 0.37037037037037 -26.703703703703702 L 0.37037037037037 -27.074074074074073 0.740740740740741 -27.074074074074073 0.740740740740741 -26.703703703703702 Z M 0.37037037037037 -27.814814814814817 L 0.37037037037037 -28.185185185185183 0.740740740740741 -28.185185185185183 0.740740740740741 -27.814814814814817 Z M 0.37037037037037 -28.925925925925924 L 0.37037037037037 -29.296296296296298 0.740740740740741 -29.296296296296298 0.740740740740741 -28.925925925925924 Z M 1.481481481481481 -26.703703703703702 L 1.481481481481481 -27.074074074074073 1.851851851851852 -27.074074074074073 1.851851851851852 -26.703703703703702 Z M 1.481481481481481 -28.925925925925924 L 1.481481481481481 -29.296296296296298 1.851851851851852 -29.296296296296298 1.851851851851852 -28.925925925925924 Z M 2.592592592592593 -26.703703703703702 L 2.592592592592593 -27.074074074074073 2.962962962962963 -27.074074074074073 2.962962962962963 -26.703703703703702 Z M 2.592592592592593 -27.814814814814817 L 2.592592592592593 -28.185185185185183 2.962962962962963 -28.185185185185183 2.962962962962963 -27.814814814814817 Z M 2.592592592592593 -28.925925925925924 L 2.592592592592593 -29.296296296296298 2.962962962962963 -29.296296296296298 2.962962962962963 -28.925925925925924 Z M 0.37037037037037 -30.037037037037038 L 0.37037037037037 -30.407407407407405 0.740740740740741 -30.407407407407405 0.740740740740741 -30.037037037037038 Z M 0.37037037037037 -31.148148148148145 L 0.37037037037037 -31.51851851851852 0.740740740740741 -31.51851851851852 0.740740740740741 -31.148148148148145 Z M 0.37037037037037 -32.25925925925926 L 0.37037037037037 -32.62962962962963 0.740740740740741 -32.62962962962963 0.740740740740741 -32.25925925925926 Z M 1.481481481481481 -30.037037037037038 L 1.481481481481481 -30.407407407407405 1.851851851851852 -30.407407407407405 1.851851851851852 -30.037037037037038 Z M 1.481481481481481 -32.25925925925926 L 1.481481481481481 -32.62962962962963 1.851851851851852 -32.62962962962963 1.851851851851852 -32.25925925925926 Z M 2.592592592592593 -30.037037037037038 L 2.592592592592593 -30.407407407407405 2.962962962962963 -30.407407407407405 2.962962962962963 -30.037037037037038 Z M 2.592592592592593 -31.148148148148145 L 2.592592592592593 -31.51851851851852 2.962962962962963 -31.51851851851852 2.962962962962963 -31.148148148148145 Z M 2.592592592592593 -32.25925925925926 L 2.592592592592593 -32.62962962962963 2.962962962962963 -32.62962962962963 2.962962962962963 -32.25925925925926 Z M 3.703703703703703 -23.37037037037037 L 3.703703703703703 -23.74074074074074 4.074074074074074 -23.74074074074074 4.074074074074074 -23.37037037037037 Z M 3.703703703703703 -24.48148148148148 L 3.703703703703703 -24.85185185185185 4.074074074074074 -24.85185185185185 4.074074074074074 -24.48148148148148 Z M 3.703703703703703 -25.59259259259259 L 3.703703703703703 -25.962962962962962 4.074074074074074 -25.962962962962962 4.074074074074074 -25.59259259259259 Z M 4.814814814814815 -23.37037037037037 L 4.814814814814815 -23.74074074074074 5.185185185185185 -23.74074074074074 5.185185185185185 -23.37037037037037 Z M 4.814814814814815 -25.59259259259259 L 4.814814814814815 -25.962962962962962 5.185185185185185 -25.962962962962962 5.185185185185185 -25.59259259259259 Z M 5.925925925925926 -23.37037037037037 L 5.925925925925926 -23.74074074074074 6.296296296296297 -23.74074074074074 6.296296296296297 -23.37037037037037 Z M 5.925925925925926 -24.48148148148148 L 5.925925925925926 -24.85185185185185 6.296296296296297 -24.85185185185185 6.296296296296297 -24.48148148148148 Z M 5.925925925925926 -25.59259259259259 L 5.925925925925926 -25.962962962962962 6.296296296296297 -25.962962962962962 6.296296296296297 -25.59259259259259 Z M 3.703703703703703 -30.037037037037038 L 3.703703703703703 -30.407407407407405 4.074074074074074 -30.407407407407405 4.074074074074074 -30.037037037037038 Z M 3.703703703703703 -31.148148148148145 L 3.703703703703703 -31.51851851851852 4.074074074074074 -31.51851851851852 4.074074074074074 -31.148148148148145 Z M 3.703703703703703 -32.25925925925926 L 3.703703703703703 -32.62962962962963 4.074074074074074 -32.62962962962963 4.074074074074074 -32.25925925925926 Z M 4.814814814814815 -30.037037037037038 L 4.814814814814815 -30.407407407407405 5.185185185185185 -30.407407407407405 5.185185185185185 -30.037037037037038 Z M 4.814814814814815 -32.25925925925926 L 4.814814814814815 -32.62962962962963 5.185185185185185 -32.62962962962963 5.185185185185185 -32.25925925925926 Z M 5.925925925925926 -30.037037037037038 L 5.925925925925926 -30.407407407407405 6.296296296296297 -30.407407407407405 6.296296296296297 -30.037037037037038 Z M 5.925925925925926 -31.148148148148145 L 5.925925925925926 -31.51851851851852 6.296296296296297 -31.51851851851852 6.296296296296297 -31.148148148148145 Z M 5.925925925925926 -32.25925925925926 L 5.925925925925926 -32.62962962962963 6.296296296296297 -32.62962962962963 6.296296296296297 -32.25925925925926 Z M 7.037037037037037 -23.37037037037037 L 7.037037037037037 -23.74074074074074 7.407407407407407 -23.74074074074074 7.407407407407407 -23.37037037037037 Z M 7.037037037037037 -24.48148148148148 L 7.037037037037037 -24.85185185185185 7.407407407407407 -24.85185185185185 7.407407407407407 -24.48148148148148 Z M 7.037037037037037 -25.59259259259259 L 7.037037037037037 -25.962962962962962 7.407407407407407 -25.962962962962962 7.407407407407407 -25.59259259259259 Z M 8.148148148148147 -23.37037037037037 L 8.148148148148147 -23.74074074074074 8.518518518518519 -23.74074074074074 8.518518518518519 -23.37037037037037 Z M 8.148148148148147 -25.59259259259259 L 8.148148148148147 -25.962962962962962 8.518518518518519 -25.962962962962962 8.518518518518519 -25.59259259259259 Z M 9.25925925925926 -23.37037037037037 L 9.25925925925926 -23.74074074074074 9.62962962962963 -23.74074074074074 9.62962962962963 -23.37037037037037 Z M 9.25925925925926 -24.48148148148148 L 9.25925925925926 -24.85185185185185 9.62962962962963 -24.85185185185185 9.62962962962963 -24.48148148148148 Z M 9.25925925925926 -25.59259259259259 L 9.25925925925926 -25.962962962962962 9.62962962962963 -25.962962962962962 9.62962962962963 -25.59259259259259 Z M 7.037037037037037 -26.703703703703702 L 7.037037037037037 -27.074074074074073 7.407407407407407 -27.074074074074073 7.407407407407407 -26.703703703703702 Z M 7.037037037037037 -27.814814814814817 L 7.037037037037037 -28.185185185185183 7.407407407407407 -28.185185185185183 7.407407407407407 -27.814814814814817 Z M 7.037037037037037 -28.925925925925924 L 7.037037037037037 -29.296296296296298 7.407407407407407 -29.296296296296298 7.407407407407407 -28.925925925925924 Z M 8.148148148148147 -26.703703703703702 L 8.148148148148147 -27.074074074074073 8.518518518518519 -27.074074074074073 8.518518518518519 -26.703703703703702 Z M 8.148148148148147 -28.925925925925924 L 8.148148148148147 -29.296296296296298 8.518518518518519 -29.296296296296298 8.518518518518519 -28.925925925925924 Z M 9.25925925925926 -26.703703703703702 L 9.25925925925926 -27.074074074074073 9.62962962962963 -27.074074074074073 9.62962962962963 -26.703703703703702 Z M 9.25925925925926 -27.814814814814817 L 9.25925925925926 -28.185185185185183 9.62962962962963 -28.185185185185183 9.62962962962963 -27.814814814814817 Z M 9.25925925925926 -28.925925925925924 L 9.25925925925926 -29.296296296296298 9.62962962962963 -29.296296296296298 9.62962962962963 -28.925925925925924 Z M 7.037037037037037 -30.037037037037038 L 7.037037037037037 -30.407407407407405 7.407407407407407 -30.407407407407405 7.407407407407407 -30.037037037037038 Z M 7.037037037037037 -31.148148148148145 L 7.037037037037037 -31.51851851851852 7.407407407407407 -31.51851851851852 7.407407407407407 -31.148148148148145 Z M 7.037037037037037 -32.25925925925926 L 7.037037037037037 -32.62962962962963 7.407407407407407 -32.62962962962963 7.407407407407407 -32.25925925925926 Z M 8.148148148148147 -30.037037037037038 L 8.148148148148147 -30.407407407407405 8.518518518518519 -30.407407407407405 8.518518518518519 -30.037037037037038 Z M 8.148148148148147 -32.25925925925926 L 8.148148148148147 -32.62962962962963 8.518518518518519 -32.62962962962963 8.518518518518519 -32.25925925925926 Z M 9.25925925925926 -30.037037037037038 L 9.25925925925926 -30.407407407407405 9.62962962962963 -30.407407407407405 9.62962962962963 -30.037037037037038 Z M 9.25925925925926 -31.148148148148145 L 9.25925925925926 -31.51851851851852 9.62962962962963 -31.51851851851852 9.62962962962963 -31.148148148148145 Z M 9.25925925925926 -32.25925925925926 L 9.25925925925926 -32.62962962962963 9.62962962962963 -32.62962962962963 9.62962962962963 -32.25925925925926 Z" ><title>Sierpinski Carpet</title></path>
</svg>
